<svg width="31" height="28" viewBox="0 0 31 28" fill="none" xmlns="http://www.w3.org/2000/svg">
<path d="M18.5 10H24.1667M18.5 14.9583H22.75" stroke="#128789" stroke-width="2" stroke-linecap="round" stroke-linejoin="round"/>
<path d="M22.75 1.5H8.58333C4.67132 1.5 1.5 4.67132 1.5 8.58333V19.9167C1.5 23.8287 4.67132 27 8.58333 27H22.75C26.662 27 29.8333 23.8287 29.8333 19.9167V8.58333C29.8333 4.67132 26.662 1.5 22.75 1.5Z" stroke="#128789" stroke-width="2" stroke-linecap="round" stroke-linejoin="round"/>
<path d="M5.75 19.916C7.46133 16.2596 13.842 16.0202 15.6667 19.916M13.5417 9.99935C13.5417 10.7508 13.2432 11.4715 12.7118 12.0028C12.1804 12.5342 11.4598 12.8327 10.7083 12.8327C9.95689 12.8327 9.23622 12.5342 8.70486 12.0028C8.17351 11.4715 7.875 10.7508 7.875 9.99935C7.875 9.2479 8.17351 8.52723 8.70486 7.99588C9.23622 7.46453 9.95689 7.16602 10.7083 7.16602C11.4598 7.16602 12.1804 7.46453 12.7118 7.99588C13.2432 8.52723 13.5417 9.2479 13.5417 9.99935Z" stroke="#128789" stroke-width="2" stroke-linecap="round" stroke-linejoin="round"/>
</svg>
