<svg width="36" height="36" viewBox="0 0 36 36" fill="none" xmlns="http://www.w3.org/2000/svg">
<path d="M11.5308 24.47C8.37506 21.3081 5.94816 17.495 4.41985 13.2973C3.57903 11.0023 4.34941 8.4813 6.078 6.75272L7.14773 5.68446C7.43532 5.39629 7.77691 5.16766 8.15297 5.01167C8.52902 4.85568 8.93215 4.77539 9.33927 4.77539C9.7464 4.77539 10.1495 4.85568 10.5256 5.01167C10.9016 5.16766 11.2432 5.39629 11.5308 5.68446L14.0357 8.18929C14.3238 8.47688 14.5525 8.81848 14.7084 9.19454C14.8644 9.57059 14.9447 9.97372 14.9447 10.3808C14.9447 10.788 14.8644 11.1911 14.7084 11.5671C14.5525 11.9432 14.3238 12.2848 14.0357 12.5724L13.4194 13.1887C13.1727 13.4353 12.977 13.7282 12.8435 14.0504C12.71 14.3727 12.6412 14.7181 12.6412 15.067C12.6412 15.4158 12.71 15.7612 12.8435 16.0835C12.977 16.4058 13.1727 16.6986 13.4194 16.9452L19.0541 22.5815C19.3008 22.8282 19.5936 23.0238 19.9159 23.1574C20.2381 23.2909 20.5836 23.3596 20.9324 23.3596C21.2812 23.3596 21.6267 23.2909 21.9489 23.1574C22.2712 23.0238 22.564 22.8282 22.8107 22.5815L23.4284 21.9652C23.716 21.677 24.0576 21.4484 24.4337 21.2924C24.8097 21.1364 25.2129 21.0561 25.62 21.0561C26.0271 21.0561 26.4302 21.1364 26.8063 21.2924C27.1823 21.4484 27.5239 21.677 27.8115 21.9652L30.3164 24.47C30.6045 24.7576 30.8332 25.0992 30.9891 25.4752C31.1451 25.8513 31.2254 26.2544 31.2254 26.6616C31.2254 27.0687 31.1451 27.4718 30.9891 27.8479C30.8332 28.2239 30.6045 28.5655 30.3164 28.8531L29.2481 29.9214C27.5195 31.6514 24.9985 32.4218 22.7035 31.581C18.5058 30.0527 14.6927 27.6258 11.5308 24.47Z" stroke="#128789" stroke-width="3.13043" stroke-linejoin="round"/>
</svg>
