<svg width="38" height="39" viewBox="0 0 38 39" fill="none" xmlns="http://www.w3.org/2000/svg">
<path d="M9.13434 29.8655C6.62532 27.3516 4.69578 24.3199 3.48067 20.9825C2.81217 19.1578 3.42467 17.1535 4.79901 15.7791L5.64951 14.9298C5.87816 14.7007 6.14975 14.5189 6.44874 14.3949C6.74772 14.2709 7.06823 14.207 7.39192 14.207C7.71561 14.207 8.03612 14.2709 8.33511 14.3949C8.6341 14.5189 8.90569 14.7007 9.13434 14.9298L11.1258 16.9213C11.355 17.1499 11.5367 17.4215 11.6607 17.7205C11.7848 18.0195 11.8486 18.34 11.8486 18.6637C11.8486 18.9874 11.7848 19.3079 11.6607 19.6069C11.5367 19.9059 11.355 20.1775 11.1258 20.4061L10.6358 20.8961C10.4397 21.0922 10.2841 21.325 10.178 21.5813C10.0718 21.8375 10.0172 22.1121 10.0172 22.3895C10.0172 22.6668 10.0718 22.9414 10.178 23.1977C10.2841 23.4539 10.4397 23.6867 10.6358 23.8828L15.1158 28.364C15.3119 28.5601 15.5447 28.7157 15.801 28.8218C16.0572 28.928 16.3318 28.9826 16.6092 28.9826C16.8865 28.9826 17.1611 28.928 17.4174 28.8218C17.6736 28.7157 17.9064 28.5601 18.1025 28.364L18.5937 27.874C18.8223 27.6448 19.0939 27.4631 19.3929 27.3391C19.6919 27.215 20.0124 27.1512 20.3361 27.1512C20.6598 27.1512 20.9803 27.215 21.2793 27.3391C21.5783 27.4631 21.8499 27.6448 22.0785 27.874L24.07 29.8655C24.2991 30.0941 24.4809 30.3657 24.6049 30.6647C24.7289 30.9637 24.7928 31.2842 24.7928 31.6079C24.7928 31.9316 24.7289 32.2521 24.6049 32.5511C24.4809 32.8501 24.2991 33.1216 24.07 33.3503L23.2207 34.1996C21.8463 35.5751 19.842 36.1876 18.0173 35.5191C14.6799 34.304 11.6482 32.3745 9.13434 29.8655Z" stroke="#128789" stroke-width="1.75" stroke-linejoin="round"/>
<path d="M15.25 10.1833C15.25 7.75667 15.25 6.54333 15.7223 5.616C16.1378 4.80067 16.8007 4.13778 17.616 3.72233C18.5433 3.25 19.7567 3.25 22.1833 3.25H27.8167C30.2433 3.25 31.4567 3.25 32.384 3.72233C33.1993 4.13778 33.8622 4.80067 34.2777 5.616C34.75 6.54333 34.75 7.75667 34.75 10.1833V15.8167C34.75 18.2433 34.75 19.4567 34.2777 20.384C33.8622 21.1993 33.1993 21.8622 32.384 22.2777C31.4567 22.75 30.2433 22.75 27.8167 22.75H22.1833C19.7567 22.75 18.5433 22.75 17.616 22.2777C16.8007 21.8622 16.1378 21.1993 15.7223 20.384C15.25 19.4567 15.25 18.2433 15.25 15.8167V10.1833Z" fill="#128789" fill-opacity="0.1"/>
<path d="M21.75 8.125H28.25M21.75 11.1345H28.25M26.3542 18.9583L21.75 14.144H23.375C26.9868 14.144 26.9868 8.125 23.375 8.125" stroke="#128789" stroke-width="1.5" stroke-linecap="round" stroke-linejoin="round"/>
</svg>
