<svg width="31" height="31" viewBox="0 0 31 31" fill="none" xmlns="http://www.w3.org/2000/svg">
<path d="M16.0908 0.573242C18.1761 0.633392 20.2267 1.13588 22.1064 2.04785L22.4795 2.23535C24.3296 3.19853 25.956 4.54364 27.25 6.18359C28.6303 7.93308 29.5967 9.97317 30.0762 12.1494L30.1602 12.5576C30.5512 14.6066 30.5035 16.7169 30.0186 18.749C29.5336 20.7811 28.6238 22.6862 27.3496 24.3379L27.0898 24.6641C25.7676 26.2813 24.1176 27.5984 22.251 28.5293L21.874 28.7109C19.8526 29.6485 17.6449 30.1156 15.417 30.0781C13.189 30.0406 10.9986 29.4992 9.00977 28.4941L9.00488 28.4922L8.85254 28.4102L2.2959 30.0479V30.0469C2.17923 30.0762 2.05887 30.0864 1.93945 30.0771L1.82031 30.0615C1.66253 30.0318 1.51266 29.9681 1.38184 29.875C1.25114 29.782 1.14225 29.6617 1.0625 29.5225C1.00269 29.418 0.959889 29.305 0.936523 29.1875L0.919922 29.0684L0.918945 29.0596V28.8848L0.921875 28.8682L0.947266 28.7178L0.948242 28.71L0.950195 28.7021L2.58691 22.1455L2.50879 21.9951L2.50684 21.9922C1.66489 20.3298 1.14606 18.5227 0.976562 16.667L0.975586 16.6621L0.930664 15.9668L0.929688 15.958L0.916992 15.3281V15.3242L0.921875 14.958C1.01561 11.177 2.55828 7.57063 5.23926 4.88965L5.50195 4.63379C8.24175 2.02675 11.8825 0.567383 15.6738 0.567383L16.0908 0.573242ZM15.2637 2.79395C13.3544 2.8561 11.4845 3.35383 9.79688 4.24902L9.4375 4.44629C7.65806 5.4661 6.15802 6.90628 5.06641 8.6377L4.85352 8.98828C3.74794 10.876 3.15508 13.0205 3.13477 15.208C3.11451 17.3956 3.6679 19.5501 4.73828 21.458L4.80469 21.6006C4.86127 21.747 4.88668 21.9046 4.87793 22.0625L4.87598 22.0801L4.85059 22.252L4.84863 22.2607L4.84668 22.2705L3.55078 27.4443L8.73145 26.1533L8.83496 26.1328C8.90413 26.1225 8.97408 26.1182 9.04395 26.1211L9.14844 26.1309L9.15723 26.1318L9.16602 26.1338L9.33203 26.1719L9.35059 26.1768L9.36914 26.1846L9.52734 26.2559L9.53516 26.2588L9.54297 26.2637C11.2145 27.1994 13.0784 27.7395 14.9912 27.8428L15.3496 27.8574C17.1424 27.9029 18.9256 27.5629 20.5781 26.8594C22.3407 26.1089 23.9077 24.9641 25.1592 23.5137L25.3896 23.2383C26.5216 21.8477 27.3431 20.2297 27.7969 18.4922L27.8828 18.1436C28.2861 16.3962 28.3107 14.5812 27.9521 12.8213C27.5936 11.0615 26.8613 9.40039 25.8066 7.9502L25.5908 7.66309C24.4934 6.24151 23.1044 5.07323 21.5186 4.23633L21.1982 4.07324C19.4792 3.22814 17.5894 2.78813 15.6738 2.78711L15.2637 2.79395ZM16.583 16.9434L16.6865 16.9482C16.9263 16.9702 17.1537 17.0699 17.333 17.2334L17.4062 17.3066C17.5682 17.4847 17.6685 17.7115 17.6904 17.9531C17.7124 18.1948 17.6547 18.4363 17.5273 18.6406L17.4678 18.7256C17.2999 18.9461 17.0559 19.0961 16.7832 19.1455L16.7744 19.1475H16.7646L16.6016 19.1621L16.5928 19.1631H11.125C10.8823 19.1635 10.6473 19.0844 10.4551 18.9395L10.375 18.874C10.1956 18.7104 10.0762 18.4927 10.0322 18.2559L10.0176 18.1533C9.99264 17.8773 10.0724 17.6014 10.2402 17.3809C10.4082 17.1604 10.653 17.0103 10.9258 16.9609L10.9434 16.959L11.1074 16.9443L11.1162 16.9434H16.583ZM20.2227 11.4854L20.3262 11.4893C20.5657 11.5113 20.7925 11.6112 20.9717 11.7744L21.0449 11.8477C21.207 12.0257 21.3071 12.2525 21.3291 12.4941L21.334 12.5977C21.3334 12.8041 21.2752 13.0064 21.166 13.1816L21.1074 13.2666C20.9395 13.4873 20.6948 13.6371 20.4219 13.6865L20.4131 13.6885L20.4043 13.6895L20.2402 13.7041H11.125C10.8825 13.7045 10.6473 13.6263 10.4551 13.4814L10.375 13.415C10.1958 13.2516 10.0763 13.0344 10.0322 12.7979L10.0176 12.6953C9.99252 12.4191 10.0723 12.1435 10.2402 11.9229L10.3066 11.8428C10.4697 11.6658 10.6871 11.5461 10.9258 11.5029L10.9346 11.501L10.9434 11.5L11.1074 11.4854H20.2227Z" fill="#128789" stroke="#128789" stroke-width="0.4"/>
</svg>
