<svg width="15" height="15" viewBox="0 0 15 15" fill="none" xmlns="http://www.w3.org/2000/svg">
<path d="M7.125 0C3.18955 0 0 3.18955 0 7.125V13.8047C0 14.0515 0.198535 14.25 0.445312 14.25H3.85938C4.51436 14.25 5.04688 13.7175 5.04688 13.0625V9.20312C5.04688 8.54814 4.51436 8.01562 3.85938 8.01562H1.33594V7.125C1.33594 3.92803 3.92803 1.33594 7.125 1.33594C10.322 1.33594 12.9141 3.92803 12.9141 7.125V8.01562H10.3906C9.73564 8.01562 9.20312 8.54814 9.20312 9.20312V13.0625C9.20312 13.7175 9.73564 14.25 10.3906 14.25H13.8047C14.0515 14.25 14.25 14.0515 14.25 13.8047V7.125C14.25 3.18955 11.0604 0 7.125 0ZM3.71094 9.35156V12.9141H1.33594V9.35156H3.71094ZM12.9141 12.9141H10.5391V9.35156H12.9141V12.9141Z" fill="white"/>
</svg>
