<svg width="23" height="20" viewBox="0 0 23 20" fill="none" xmlns="http://www.w3.org/2000/svg">
<g clip-path="url(#clip0_4903_2790)">
<path d="M20.3659 7.02389C20.2068 6.95318 20.0156 6.96585 19.8707 7.05674L11.6287 12.2277L6.32065 7.89693C6.14029 7.74982 5.86048 7.74733 5.67667 7.89113L1.25127 11.3547C1.15103 11.4332 1.09375 11.545 1.09375 11.6622V16.3926C1.09375 16.6212 1.30683 16.8065 1.56963 16.8065H20.1492C20.412 16.8065 20.625 16.6212 20.625 16.3926V7.39228C20.625 7.2369 20.5249 7.09465 20.3659 7.02389ZM3.18299 15.9788H2.04551V11.8465L3.18299 10.9562V15.9788ZM5.23749 15.9788H4.13475V10.2114L5.23749 9.34831V15.9788ZM7.29193 15.9788H6.18919V8.92457L7.29193 9.82424V15.9788ZM9.34643 15.9788H8.24369V10.6008L9.34643 11.5005V15.9788ZM11.4222 15.9788H10.2982V12.2771L11.2635 13.0646C11.3105 13.103 11.3647 13.1313 11.4221 13.15L11.4222 15.9788ZM13.4979 15.9788H12.3739V12.7807L13.4979 12.0755V15.9788ZM15.5737 15.9788H14.4497V11.4783L15.5736 10.7732V15.9788H15.5737ZM17.6494 15.9788H16.5254V10.176L17.6494 9.4708V15.9788ZM19.6733 15.9788H18.6012V8.87372L19.6733 8.20113V15.9788Z" fill="white"/>
<path d="M22.9241 3.36708C22.8385 3.25597 22.6919 3.191 22.5398 3.19447L19.5241 3.26523C19.3176 3.27009 19.1417 3.39698 19.0981 3.57253C19.0546 3.74815 19.1546 3.92686 19.3405 4.00528L20.0451 4.3027L11.7162 9.46689L6.04077 4.99237C5.75893 4.77015 5.32963 4.76881 5.046 4.98916L0.248227 8.71578C-0.058062 8.95367 -0.0845328 9.36241 0.189039 9.62869C0.462552 9.89498 0.932545 9.91805 1.23889 9.68016L5.53759 6.34123L11.1609 10.7746C11.3018 10.8857 11.4807 10.9422 11.6605 10.9422C11.8111 10.9422 11.9623 10.9025 12.092 10.8221L20.8686 5.38042L20.9103 5.95323C20.9234 6.13241 21.0755 6.28061 21.2787 6.31216C21.3051 6.31625 21.3316 6.31827 21.3577 6.31827C21.5324 6.31827 21.6945 6.22909 21.7672 6.08638L22.9615 3.74178C23.0239 3.61955 23.0098 3.47813 22.9241 3.36708Z" fill="white"/>
</g>
<defs>
<clipPath id="clip0_4903_2790">
<rect width="23" height="20" fill="white"/>
</clipPath>
</defs>
</svg>
