<svg width="17" height="17" viewBox="0 0 17 17" fill="none" xmlns="http://www.w3.org/2000/svg">
<path d="M12.6556 13.0768C13.0323 13.0768 13.3526 12.9415 13.6165 12.671C13.8805 12.4005 14.0122 12.0726 14.0116 11.6872C14.011 11.3018 13.8793 10.9736 13.6165 10.7025C13.3538 10.4313 13.0335 10.2964 12.6556 10.2976C12.2777 10.2989 11.9577 10.4338 11.6956 10.7025C11.4334 10.9711 11.3014 11.2993 11.2996 11.6872C11.2978 12.075 11.4298 12.403 11.6956 12.671C11.9613 12.939 12.2814 13.0743 12.6556 13.0768ZM12.6556 15.8559C13.1148 15.8559 13.5385 15.7478 13.9266 15.5317C14.3147 15.3155 14.6368 15.0144 14.8929 14.6284C14.5566 14.4049 14.1996 14.2412 13.8217 14.1375C13.4433 14.0331 13.0545 13.9809 12.6556 13.9809C12.2566 13.9809 11.8679 14.0328 11.4895 14.1365C11.1116 14.2409 10.7545 14.4046 10.4183 14.6275C10.6744 15.0135 10.9968 15.3146 11.3855 15.5307C11.7742 15.7469 12.1976 15.8559 12.6556 15.8559ZM1.46082 14.8221C1.05584 14.8221 0.711124 14.6763 0.426674 14.3848C0.142225 14.0933 0 13.7404 0 13.326V1.4961C0 1.08232 0.142225 0.729369 0.426674 0.437251C0.711124 0.14575 1.05584 0 1.46082 0H13.0036C13.4074 0 13.7518 0.14575 14.0369 0.437251C14.3213 0.728751 14.4635 1.08201 14.4635 1.49703V7.00898C14.305 6.95278 14.1532 6.90708 14.0079 6.87188C13.8633 6.83729 13.7138 6.80271 13.5596 6.76812V1.49703C13.5596 1.35437 13.5017 1.22344 13.386 1.10424C13.2703 0.985049 13.1425 0.925761 13.0027 0.926379H1.46082C1.32161 0.926379 1.19384 0.985667 1.07753 1.10424C0.961223 1.22282 0.903368 1.35375 0.903971 1.49703V13.326C0.903971 13.468 0.961825 13.5986 1.07753 13.7178C1.19324 13.837 1.3207 13.8963 1.45991 13.8957H6.58181C6.60351 14.0686 6.63153 14.2295 6.66588 14.3783C6.70023 14.5265 6.74453 14.6745 6.79877 14.8221H1.46082ZM0.903971 12.9693V13.8957V0.926379V6.76812V6.69864V12.9693ZM3.1639 11.3667H6.74362C6.77677 11.2079 6.82197 11.0545 6.87922 10.9063L7.06001 10.4394H3.1639V11.3667ZM3.1639 7.87422H9.11203C9.40913 7.66053 9.70172 7.47958 9.98978 7.33136C10.2779 7.18252 10.587 7.0658 10.9173 6.98119V6.94784H3.1639V7.87422ZM3.1639 4.38177H11.2996V3.45539H3.1639V4.38177ZM12.6556 16.7832C11.6486 16.7832 10.7943 16.4235 10.0928 15.704C9.39075 14.9845 9.03971 14.1087 9.03971 13.0768C9.03971 12.0448 9.39075 11.169 10.0928 10.4496C10.7949 9.73006 11.6492 9.37063 12.6556 9.37125C13.662 9.37186 14.5166 9.7313 15.2193 10.4496C15.9219 11.1678 16.2727 12.0435 16.2715 13.0768C16.2715 14.1081 15.9207 14.9836 15.2193 15.703C14.5166 16.4225 13.662 16.7823 12.6556 16.7823" fill="white"/>
</svg>
