<svg width="17" height="19" viewBox="0 0 17 19" fill="none" xmlns="http://www.w3.org/2000/svg">
<path d="M15.1437 3.35169C15.1437 2.74287 16.0696 2.74287 16.0696 3.35169V16.1133C16.0696 16.3689 15.8623 16.5762 15.6067 16.5762H12.4068V17.5859H12.9802C13.589 17.5859 13.589 18.512 12.9802 18.512C9.68334 18.512 6.38629 18.512 3.08947 18.512C2.48064 18.512 2.48064 17.5859 3.08947 17.5859H3.66284V16.5762H0.46296C0.207356 16.5762 0 16.3689 0 16.1133V3.35169C0 2.74287 0.925921 2.74287 0.925921 3.35169V14.0978H9.56059V10.3921C9.56059 9.78309 10.4865 9.78309 10.4865 10.3921V14.0978H11.0493V8.35023C11.0493 7.74118 11.9753 7.74118 11.9753 8.35023V14.0978H12.5383V8.35023C12.5383 7.74118 13.4642 7.74118 13.4642 8.35023V14.0978H15.1437V3.35169ZM2.73714 5.59199H6.68297C6.93857 5.59199 7.14593 5.79935 7.14593 6.05495V12.4718C7.14593 12.7276 6.93857 12.9347 6.68297 12.9347H2.73714C2.48154 12.9347 2.27418 12.7276 2.27418 12.4718V6.05495C2.27418 5.79935 2.48154 5.59199 2.73714 5.59199ZM6.22001 6.51791H3.2001V12.0088H6.22001V6.51791ZM9.56777 0.456789C9.56777 -0.152263 10.4939 -0.152263 10.4939 0.456789V0.69646H11.4483C12.0572 0.69646 12.0572 1.62238 11.4483 1.62238H10.4939V2.82882H10.7457C11.5877 2.82882 12.2748 3.51596 12.2748 4.35795C12.2748 5.19972 11.5877 5.88687 10.7457 5.88687H10.4939V6.12654C10.4939 6.73559 9.56777 6.73559 9.56777 6.12654V5.88687H8.61335C8.0043 5.88687 8.0043 4.96095 8.61335 4.96095H9.56777V3.75474H9.31598C8.47399 3.75474 7.78684 3.06736 7.78684 2.2256C7.78684 1.38361 8.47399 0.69646 9.31598 0.69646H9.56777V0.456789ZM10.4939 3.75474V4.96095H10.7457C11.0763 4.96095 11.3487 4.68851 11.3487 4.35795C11.3487 4.02717 11.0763 3.75474 10.7457 3.75474H10.4939ZM9.56777 2.82882V1.62238H9.31598C8.9852 1.62238 8.71277 1.89482 8.71277 2.2256C8.71277 2.55616 8.9852 2.82882 9.31598 2.82882H9.56777ZM11.4809 16.5762H4.58876V17.5859H11.4809V16.5762ZM0.925921 15.0238V15.6503C5.66526 15.6503 10.4044 15.6503 15.1437 15.6503V15.0238C10.4044 15.0238 5.66526 15.0238 0.925921 15.0238Z" fill="white"/>
</svg>
