<svg width="19" height="17" viewBox="0 0 19 17" fill="none" xmlns="http://www.w3.org/2000/svg">
<path d="M18.3477 6.33616C18.348 6.07366 18.2825 5.81574 18.1576 5.58861C18.0327 5.36148 17.853 5.17326 17.6368 5.04308L9.90886 0.209128C9.68614 0.0721686 9.43291 0 9.17505 0C8.91719 0 8.66396 0.0721686 8.44124 0.209128L0.701856 5.04308C0.487987 5.17683 0.310819 5.36694 0.187763 5.59471C0.0647077 5.82249 0 6.08009 0 6.3422C0 6.60432 0.0647077 6.86192 0.187763 7.08969C0.310819 7.31747 0.487987 7.50757 0.701856 7.64133L2.90328 8.99483V12.3907C2.90461 12.6561 2.97069 12.9167 3.09519 13.1473C3.21969 13.378 3.39841 13.5711 3.61416 13.7079L8.4871 16.6687C8.70468 16.7957 8.94929 16.8623 9.19798 16.8623C9.44667 16.8623 9.69129 16.7957 9.90886 16.6687L14.7818 13.7079C14.9976 13.5711 15.1763 13.378 15.3008 13.1473C15.4253 12.9167 15.4914 12.6561 15.4927 12.3907V8.95858L16.9144 8.07638V11.3635H18.3477V6.33616ZM14.0709 12.3786L9.17505 15.3515L4.3365 12.3907V9.88912L8.44124 12.4632C8.66472 12.5978 8.91766 12.6686 9.17505 12.6686C9.43244 12.6686 9.68538 12.5978 9.90886 12.4632L14.0595 9.85286L14.0709 12.3786ZM9.17505 11.158L1.43566 6.32408L9.17505 1.47804L16.9144 6.31199L9.17505 11.158Z" fill="white"/>
</svg>
