<svg width="16" height="17" viewBox="0 0 16 17" fill="none" xmlns="http://www.w3.org/2000/svg">
<path d="M14.3052 9.45657V11.8475C14.3052 12.1695 14.1773 12.4784 13.9496 12.7061C13.7218 12.9339 13.413 13.0618 13.0909 13.0618H2.55579C2.23374 13.0618 1.92488 12.9339 1.69716 12.7061C1.46943 12.4784 1.3415 12.1695 1.3415 11.8475V9.45657M6.60907 13.0994L5.39479 16.1351M9.03764 13.0994L10.2519 16.1351M4.1805 16.1351H11.4662M0.5 4.01657L2.18907 0.5H13.4552L15.1455 4.01414L0.5 4.01657ZM0.5 4.01657V5.01957C0.502874 5.28948 0.56303 5.5557 0.676488 5.80061C0.789945 6.04553 0.954118 6.26356 1.15814 6.44029C1.59851 6.82359 2.16384 7.03262 2.74764 7.028H3.06214C3.64636 7.03292 4.21218 6.82387 4.65286 6.44029C5.07421 6.06386 5.30979 5.55264 5.30979 5.01957V4.01657M10.3697 4.01657V5.01957M10.3697 5.01957C10.3697 5.55264 10.1329 6.06386 9.71036 6.44029C9.26999 6.82359 8.70466 7.03262 8.12086 7.028H7.55864C6.97484 7.03262 6.40951 6.82359 5.96914 6.44029C5.76512 6.26356 5.60095 6.04553 5.48749 5.80061C5.37403 5.5557 5.31387 5.28948 5.311 5.01957V4.01657M10.3697 5.01957C10.3726 5.28948 10.4327 5.5557 10.5462 5.80061C10.6597 6.04553 10.8238 6.26356 11.0279 6.44029C11.4685 6.82387 12.0344 7.03292 12.6186 7.028H12.8979C13.4821 7.03292 14.0479 6.82387 14.4886 6.44029C14.9099 6.06386 15.1467 5.55264 15.1467 5.01957V4.01657" stroke="white" stroke-linecap="round" stroke-linejoin="round"/>
</svg>
