<svg width="37" height="26" viewBox="0 0 37 26" fill="none" xmlns="http://www.w3.org/2000/svg">
<path d="M36.4957 8.97486L32.8087 1.59654C32.69 1.35881 32.5256 1.1468 32.3249 0.972601C32.1243 0.798403 31.8913 0.665433 31.6392 0.581284C31.3872 0.497134 31.121 0.463453 30.8559 0.482163C30.5909 0.500873 30.3321 0.571608 30.0944 0.690329L26.4002 2.53744L18.7212 0.505329C18.5762 0.467752 18.424 0.467752 18.2789 0.505329L10.6 2.53744L6.90723 0.690329C6.66943 0.571383 6.41053 0.500469 6.14531 0.481642C5.88009 0.462814 5.61376 0.496443 5.36155 0.580603C5.10933 0.664764 4.87618 0.797808 4.67541 0.972129C4.47465 1.14645 4.3102 1.35863 4.19149 1.59654L0.504494 8.97486C0.264623 9.45479 0.225185 10.0103 0.394854 10.5194C0.564522 11.0284 0.929404 11.4491 1.40926 11.6892L5.33328 13.6519L13.3707 19.3927C13.4578 19.4555 13.5558 19.5015 13.6597 19.5285L22.9097 21.841C22.9801 21.8587 23.0525 21.8674 23.1251 21.867C23.355 21.8668 23.5754 21.7754 23.7379 21.6127L31.7319 13.6186L35.5909 11.6892C36.0708 11.4491 36.4356 11.0284 36.6053 10.5194C36.775 10.0103 36.7355 9.45479 36.4957 8.97486ZM28.8355 14.0566L23.6613 9.91142C23.4944 9.77787 23.2841 9.71065 23.0707 9.72265C22.8573 9.73465 22.6559 9.82504 22.505 9.97646C19.8095 12.6922 16.7961 12.3497 14.8752 11.1211C14.8375 11.0979 14.8056 11.0662 14.782 11.0286C14.7585 10.991 14.7439 10.9485 14.7394 10.9044C14.7343 10.8639 14.7382 10.8228 14.751 10.784C14.7637 10.7453 14.7849 10.7099 14.8131 10.6803L21.1638 4.5233H26.0576L30.1638 12.7356L28.8355 14.0566ZM2.03942 9.97068C2.01551 9.89822 2.02123 9.81925 2.05531 9.75099L5.74375 2.37123C5.76799 2.32312 5.8052 2.28274 5.85116 2.25465C5.89713 2.22655 5.95004 2.21187 6.00391 2.21224C6.04855 2.21229 6.09258 2.22268 6.13254 2.24259L9.34258 3.84689L5.39399 11.7499L2.18395 10.1456C2.14931 10.1277 2.11865 10.1029 2.09381 10.0729C2.06897 10.0428 2.05047 10.0081 2.03942 9.97068ZM22.8591 20.0402L14.2451 17.8867L6.88844 12.6315L11.1059 4.1981L18.5001 2.24115L20.6391 2.80771C20.4755 2.83936 20.3248 2.91825 20.2055 3.03463L13.6005 9.44459C13.386 9.65891 13.2225 9.9187 13.1219 10.2047C13.0213 10.4908 12.9864 10.7957 13.0195 11.0971C13.0527 11.3985 13.1532 11.6886 13.3135 11.9459C13.4738 12.2032 13.69 12.4212 13.9459 12.5838C16.8683 14.4511 20.4137 14.0999 23.167 11.7325L27.6055 15.2909L22.8591 20.0402ZM34.9607 9.97068C34.9488 10.0068 34.93 10.0401 34.9052 10.0689C34.8804 10.0977 34.8501 10.1213 34.8162 10.1383L31.6062 11.7499L27.6576 3.84689L30.8676 2.24259C30.9016 2.22552 30.9387 2.21533 30.9766 2.2126C31.0145 2.20987 31.0527 2.21466 31.0888 2.2267C31.1248 2.23859 31.1582 2.25748 31.187 2.28228C31.2157 2.30708 31.2393 2.3373 31.2564 2.37123L34.9448 9.75099C34.9789 9.81925 34.9846 9.89822 34.9607 9.97068ZM18.7732 24.6782C18.7176 24.9012 18.5756 25.0931 18.3786 25.2115C18.1816 25.3299 17.9456 25.3653 17.7225 25.3098L11.6912 23.8023C11.5872 23.7756 11.4891 23.7296 11.4022 23.6665L7.59086 20.9478C7.40361 20.8137 7.27732 20.6106 7.23978 20.3833C7.20224 20.1561 7.25652 19.9232 7.39069 19.7359C7.52485 19.5487 7.7279 19.4224 7.95518 19.3849C8.18245 19.3473 8.41533 19.4016 8.60258 19.5358L12.2722 22.1561L18.1416 23.6231C18.2524 23.6508 18.3566 23.7001 18.4483 23.7681C18.54 23.8362 18.6173 23.9217 18.6759 24.0197C18.7344 24.1178 18.773 24.2264 18.7895 24.3394C18.806 24.4524 18.7999 24.5675 18.7718 24.6782H18.7732Z" fill="#128789"/>
</svg>
