<svg width="20" height="20" viewBox="0 0 20 20" fill="none" xmlns="http://www.w3.org/2000/svg">
<path d="M10.8259 9.15723C10.8259 8.97878 10.7543 8.80763 10.6271 8.68145C10.4998 8.55526 10.3271 8.48438 10.1471 8.48438C9.96706 8.48438 9.79441 8.55526 9.66711 8.68145C9.53981 8.80763 9.4683 8.97878 9.4683 9.15723V13.1943C9.4683 13.3728 9.53981 13.5439 9.66711 13.6701C9.79441 13.7963 9.96706 13.8672 10.1471 13.8672C10.3271 13.8672 10.4998 13.7963 10.6271 13.6701C10.7543 13.5439 10.8259 13.3728 10.8259 13.1943V9.15723ZM11.1652 6.46582C11.1652 6.73332 11.0581 6.98986 10.8672 7.17901C10.6764 7.36816 10.4176 7.47442 10.1478 7.47442C9.8779 7.47442 9.6191 7.36816 9.42828 7.17901C9.23747 6.98986 9.13027 6.73332 9.13027 6.46582C9.13027 6.1985 9.2374 5.94213 9.42808 5.75311C9.61877 5.56408 9.8774 5.45789 10.1471 5.45789C10.4168 5.45789 10.6754 5.56408 10.8661 5.75311C11.0568 5.94213 11.1652 6.1985 11.1652 6.46582ZM10.1484 0.410156C7.6281 0.410156 5.211 1.40261 3.42885 3.16919C1.64671 4.93577 0.645508 7.33176 0.645508 9.83008C0.645508 12.3284 1.64671 14.7244 3.42885 16.491C5.211 18.2575 7.6281 19.25 10.1484 19.25C12.6688 19.25 15.0859 18.2575 16.868 16.491C18.6502 14.7244 19.6514 12.3284 19.6514 9.83008C19.6514 7.33176 18.6502 4.93577 16.868 3.16919C15.0859 1.40261 12.6688 0.410156 10.1484 0.410156ZM2.00307 9.83008C2.00307 8.76976 2.21376 7.71982 2.6231 6.74021C3.03244 5.7606 3.63242 4.8705 4.38879 4.12074C5.14516 3.37098 6.0431 2.77624 7.03134 2.37047C8.01958 1.9647 9.07877 1.75586 10.1484 1.75586C11.2181 1.75586 12.2773 1.9647 13.2655 2.37047C14.2538 2.77624 15.1517 3.37098 15.9081 4.12074C16.6644 4.8705 17.2644 5.7606 17.6738 6.74021C18.0831 7.71982 18.2938 8.76976 18.2938 9.83008C18.2938 11.9715 17.4356 14.0252 15.9081 15.5394C14.3805 17.0536 12.3087 17.9043 10.1484 17.9043C7.98815 17.9043 5.91635 17.0536 4.38879 15.5394C2.86124 14.0252 2.00307 11.9715 2.00307 9.83008Z" fill="black" fill-opacity="0.65"/>
</svg>
