<svg width="24" height="24" viewBox="0 0 24 24" fill="none" xmlns="http://www.w3.org/2000/svg">
<path d="M19.8919 3.72807C18.8222 2.64786 17.5481 1.79136 16.144 1.20849C14.7399 0.625622 13.2339 0.328034 11.7136 0.333071C5.34359 0.333071 0.151927 5.52474 0.151927 11.8947C0.151927 13.9364 0.688594 15.9197 1.69193 17.6697L0.0585938 23.6664L6.18359 22.0564C7.87526 22.9781 9.77693 23.4681 11.7136 23.4681C18.0836 23.4681 23.2753 18.2764 23.2753 11.9064C23.2753 8.81474 22.0736 5.90974 19.8919 3.72807ZM11.7136 21.5081C9.98693 21.5081 8.29526 21.0414 6.81359 20.1664L6.46359 19.9564L2.82359 20.9131L3.79193 17.3664L3.55859 17.0047C2.59907 15.473 2.08967 13.7022 2.08859 11.8947C2.08859 6.59807 6.40526 2.2814 11.7019 2.2814C14.2686 2.2814 16.6836 3.28474 18.4919 5.10474C19.3875 5.99591 20.0972 7.05604 20.5798 8.22362C21.0625 9.3912 21.3085 10.643 21.3036 11.9064C21.3269 17.2031 17.0103 21.5081 11.7136 21.5081ZM16.9869 14.3214C16.6953 14.1814 15.2719 13.4814 15.0153 13.3764C14.7469 13.2831 14.5603 13.2364 14.3619 13.5164C14.1636 13.8081 13.6153 14.4614 13.4519 14.6481C13.2886 14.8464 13.1136 14.8697 12.8219 14.7181C12.5303 14.5781 11.5969 14.2631 10.5003 13.2831C9.63693 12.5131 9.06526 11.5681 8.89026 11.2764C8.72693 10.9847 8.86693 10.8331 9.01859 10.6814C9.14693 10.5531 9.31026 10.3431 9.45026 10.1797C9.59026 10.0164 9.64859 9.88807 9.74193 9.7014C9.83526 9.50307 9.78859 9.33974 9.71859 9.19974C9.64859 9.05974 9.06526 7.6364 8.83193 7.05307C8.59859 6.49307 8.35359 6.56307 8.17859 6.5514H7.61859C7.42026 6.5514 7.11693 6.6214 6.84859 6.91307C6.59193 7.20474 5.84526 7.90474 5.84526 9.32807C5.84526 10.7514 6.88359 12.1281 7.02359 12.3147C7.16359 12.5131 9.06526 15.4297 11.9586 16.6781C12.6469 16.9814 13.1836 17.1564 13.6036 17.2847C14.2919 17.5064 14.9219 17.4714 15.4236 17.4014C15.9836 17.3197 17.1386 16.7014 17.3719 16.0247C17.6169 15.3481 17.6169 14.7764 17.5353 14.6481C17.4536 14.5197 17.2786 14.4614 16.9869 14.3214Z" fill="#128789"/>
</svg>
