<svg width="700" height="482" viewBox="0 0 700 482" fill="none" xmlns="http://www.w3.org/2000/svg">
<path d="M324.495 61.608C324.889 61.5164 324.595 62.1119 324.595 62.1119C323.628 62.5693 306.608 68.4034 306.654 75.7777C306.67 78.3912 306.701 80.03 309.04 82.0027C313.272 85.573 320.758 84.6928 329.272 85.2746C338.919 85.9338 345.88 83.7768 355.374 84.6327C362.876 85.3091 369.144 84.8895 372.934 88.0865C375.847 90.544 377.419 92.5369 375.583 95.9366C373.131 100.477 367.435 103.074 359.562 105.935C353.663 108.078 348.785 109.112 342.405 110.212C309.565 115.87 298.87 96.188 266.305 103.403C253.249 106.296 243.346 107.432 234.682 114.214C227.383 119.927 226.205 123.677 227.796 129.304C229.514 135.377 237.559 136.512 245.266 140.382C255.002 145.27 265.297 145.258 273.543 150.899C278.294 154.15 282.038 155.868 283.054 160.339C283.757 163.428 282.968 165.425 281.455 168.776C278.14 176.122 261.816 188.167 261.816 188.167L259.833 186.817C259.833 186.817 275.397 176.278 278.781 169.046C280.249 165.908 281.119 164.025 280.483 161.129C279.514 156.713 275.293 155.21 270.498 152.055C262.128 146.549 252.266 146.356 242.746 141.432C234.896 137.371 226.814 136.074 225.123 129.78C223.579 124.033 225.482 119.498 232.878 113.671C241.52 106.863 252.927 104.951 267.096 101.891C299.706 94.8465 310.414 114.882 343.197 108.699C349.37 107.535 353.198 107.165 358.831 105.001C365.65 102.38 370.852 100.198 372.908 96.2063C374.364 93.381 373.641 91.6882 371.579 89.5061C368.167 85.897 361.694 85.952 353.808 85.1875C345.191 84.3522 338.823 86.4114 329.907 85.9696C320.721 85.5144 312.6 86.583 308.048 82.7994C305.478 80.6637 305.522 78.848 305.605 75.9896C305.82 68.5458 321.545 62.7279 324.495 61.608Z" fill="#DDDDDD"/>
<path d="M324.495 61.608C324.113 61.7252 324.595 62.1119 324.595 62.1119C324.595 62.1119 354.107 50.6309 367.874 54.1709C372.753 55.4256 375.802 56.2264 378.375 58.7458C383.031 63.3055 377.811 67.9473 374.835 73.9795C371.463 80.8142 364.107 84.4936 361.176 91.3181C358.86 96.7116 355.083 100.749 359.252 104.832C362.457 107.971 365.433 109.982 372.666 110.358C382.327 110.861 389.902 108.247 399.009 104.286C405.832 101.319 410.095 98.5132 415.195 94.7238C441.452 75.2166 409.754 58.6211 438.789 40.0413C450.43 32.592 457.282 26.4392 474.099 23.8092C488.264 21.5939 495.84 22.5819 505.601 26.3354C516.137 30.3865 514.42 36.3648 517.977 43.4159C522.47 52.3235 517.533 59.2767 524.146 67.5354C527.957 72.2939 529.381 75.6424 537.256 78.457C542.698 80.402 546.807 80.8187 553.796 81.3912C569.115 82.6457 599.429 77.3426 599.429 77.3426L597.851 75.3593C597.851 75.3593 570.715 80.8654 555.577 79.7116C549.008 79.2109 545.073 78.9025 539.96 77.0947C532.166 74.3386 531.37 70.7697 527.761 66.0276C521.459 57.749 525.806 50.9908 521.143 42.2122C517.297 34.9734 518.728 28.8931 507.767 24.755C497.759 20.9765 488.37 20.1043 473.944 22.3315C457.09 24.9339 448.07 31.7347 435.584 39.8565C406.846 58.5484 439.199 75.3208 411.99 94.5389C406.867 98.1579 404.347 100.57 397.611 103.347C389.456 106.71 382.893 109.188 374.447 108.679C368.47 108.318 365.649 107.024 362.554 104.591C357.434 100.568 360.626 96.2183 362.961 90.5235C365.512 84.3013 372.402 80.9766 375.832 74.739C379.365 68.3133 385.24 63.3316 380.338 58.4543C377.571 55.7011 374.155 54.8669 368.771 53.5626C354.749 50.1658 326.987 60.8425 324.495 61.608Z" fill="#DDDDDD"/>
<path d="M596.295 92.8832C596.295 92.8832 603.299 95.9763 604.628 106.904C604.984 110.117 603.408 112.491 601.151 114.748C598.841 117.151 595.421 117.159 593.354 119.619C594.782 117.29 594.366 114.519 596.808 112.662C593.162 113.847 591.28 116.705 590.792 120.438C590.357 124.025 588.781 126.398 584.862 126.788C586.859 125.164 586.184 122.929 586.095 120.708C585.881 123.315 583.895 124.544 581.633 125.076C578.879 125.792 577.687 126.549 575.58 128.662C576.656 124.846 574.804 122.776 579.395 120.975C581.912 120.006 584.694 118.207 582.675 115.048C581.994 120.6 577.398 118.852 573.689 120.578C571.067 121.839 571.599 123.923 570.131 125.905C568.662 127.887 566.113 128.214 563.817 128.203C567.656 127.122 566.695 122.759 567.605 119.678C568.626 116.107 573.289 115.293 575.228 112.091C573.495 109.236 571.793 112.691 571.079 113.855C569.908 115.648 568.398 117.382 565.882 116.428C571.794 114.514 567.78 107.311 572.055 104.466C573.696 103.376 577.853 105.063 578.686 103.114C579.984 100.141 574.863 101.682 573.769 102.442C574.055 100.823 575.318 99.2295 576.901 98.4826C578.929 97.5012 580.361 98.8205 582.128 98.4729C584.485 98.0422 584.709 95.0416 582.073 94.9719C581.096 94.9461 579.05 96.6172 577.868 96.9802C579.314 93.9626 582.856 91.1481 586.099 90.4451C590.128 89.5658 592.913 91.4138 596.295 92.8832Z" fill="url(#paint0_linear_112_2)"/>
<path d="M598.247 96.7033C598.95 97.5015 598.901 97.5489 599.547 98.5861C600.931 100.757 601.205 103.899 599.134 105.698C597.952 106.691 596.561 106.413 595.296 107.118C593.958 107.847 593.897 109.332 593.184 110.474C593.123 109.659 593.126 109.012 592.945 108.219C592.869 107.739 592.749 107.211 592.934 106.758C592.423 107.615 592.334 108.62 591.775 109.477C591.066 110.523 590.007 110.847 588.851 111.218C587.672 111.565 586.525 111.697 585.243 111.683C584.72 111.677 584.036 111.55 583.553 111.737C582.923 112.018 582.684 112.614 582.191 113.04C582.474 111.39 582.58 110.552 584.31 110.092C586.088 109.631 586.176 108.075 587.34 106.961C586.339 107.598 585.067 107.895 584.385 106.57C586.495 107.264 587.368 105.692 587.659 103.85C587.97 102.08 587.915 100.522 589.345 99.2917C588.467 99.2583 588.024 100.188 587.48 100.709C586.838 101.278 586.116 101.509 585.277 101.668C585.376 101.573 585.523 101.479 585.574 101.384C585.908 100.788 586.519 100.388 586.852 99.7921C587.161 99.2204 587.35 98.6714 587.589 98.0749C588.066 96.882 589.298 95.8409 590.371 95.1815C592.152 94.0745 595.417 94.4448 597.537 96.0488L597.744 96.2187C597.928 96.3644 598.087 96.5339 598.247 96.7033Z" fill="#FFC929"/>
<path d="M598.855 97.354C599.616 98.267 599.726 99.0075 599.7 100.201C599.658 101.534 598.441 102.476 597.578 103.351C597.789 102.951 597.734 102.556 597.782 102.112C597.317 102.632 596.881 102.428 596.358 102.729C595.809 103.056 595.517 103.733 595.006 104.073C595.245 103.496 594.604 102.891 595.018 102.37C594.459 102.582 594.658 103.287 594.273 103.631C593.939 103.926 593.205 104.056 592.836 104.261C592.877 104.122 593.851 102.741 593.112 103.125C592.972 103.21 592.847 103.727 592.642 103.899C592.463 104.02 592.197 104.101 591.982 104.158C591.488 104.283 590.986 104.166 590.541 104.393C590.031 104.657 589.781 105.145 589.519 105.646C589.803 104.727 589.627 104.124 590.421 103.513C590.806 103.194 590.963 102.919 591.236 102.534C591.47 102.211 591.775 102.068 592.084 101.772C591.107 101.513 590.92 102.588 590.109 102.817C590.57 102.45 590.431 101.912 590.58 101.421C590.742 100.943 591.142 100.485 591.612 100.283C591.956 100.129 592.847 100.27 592.796 99.697C592.748 99.022 591.796 99.3867 591.514 99.6068C591.688 99.1165 592.089 98.6332 592.658 98.5109C593.152 98.4116 593.65 98.6811 593.889 98.1038C593.474 97.5065 592.882 98.0983 592.315 98.0682C593.123 97.4195 593.493 96.0202 594.76 96.2752C595.098 96.3491 595.912 97.1366 595.963 96.5409C595.999 96.059 595.15 95.7025 594.784 95.7548C596.015 95.297 597.773 96.1262 598.695 97.1839L598.855 97.354Z" fill="#F9F079"/>
<path d="M591.866 83.9286C590.846 85.6567 589.897 87.3281 589.008 88.9308C588.119 90.5334 591.428 95.844 594.845 99.4685C598.236 103.064 604.574 108.031 606.208 107.219C607.843 106.406 609.545 105.537 611.31 104.601L591.866 83.9286Z" fill="url(#paint1_linear_112_2)"/>
<path d="M641.936 86.9912C662.758 73.5288 683.628 55.6314 693.364 30.2695L669.748 5.15967C644.135 13.64 625.321 33.7253 610.905 53.9984L597.064 75.281C595.793 77.3744 594.576 79.3968 593.393 81.3785L613.915 103.198C615.937 102.108 618.008 100.989 620.143 99.8193L641.936 86.9912ZM667.664 31.0151C670.347 33.9815 670.247 38.5282 667.399 41.2544C664.554 43.9775 660.042 43.8464 657.247 40.9868C654.562 38.0203 654.67 33.4685 657.514 30.7454C660.362 28.0191 664.867 28.1554 667.664 31.0151Z" fill="url(#paint2_linear_112_2)"/>
<path d="M622.234 105.565L620.144 99.8213L641.936 86.9932C641.157 91.1723 639.911 107.778 639.911 107.778L615.13 128.681L610.575 123.839L622.234 105.565Z" fill="url(#paint3_linear_112_2)"/>
<path d="M590.226 54.953C590.226 54.953 606.725 54.5649 610.905 54.001L597.064 75.2836L591.488 72.8768L572.788 83.664L568.235 78.8225L590.226 54.953Z" fill="url(#paint4_linear_112_2)"/>
<path d="M694.43 27.2229C697.104 19.1425 700.247 0.302631 699.985 0.0239488C699.721 -0.25692 680.962 1.97997 672.825 4.25182L694.43 27.2229Z" fill="url(#paint5_linear_112_2)"/>
<path d="M591.867 83.9289L611.31 104.602L613.916 103.198L593.394 81.3789L591.867 83.9289Z" fill="url(#paint6_linear_112_2)"/>
<path d="M669.747 5.16173L693.364 30.2716L694.43 27.224L672.825 4.25293L669.747 5.16173Z" fill="url(#paint7_linear_112_2)"/>
<path d="M667.4 41.2549C670.248 38.5286 670.348 33.982 667.665 31.0156C664.868 28.1559 660.363 28.0196 657.515 30.7458C654.671 33.469 654.563 38.0208 657.248 40.9872C660.043 43.8469 664.555 43.978 667.4 41.2549Z" fill="url(#paint8_linear_112_2)"/>
<path d="M95.788 466.006V425.346H8.55743L0 403.346L62.6625 259.367H111.247L56.5894 384.408H95.788V349.319L104.898 323.976H143.544V384.408H162.039V417.827L143.544 425.346V466.006H95.788Z" fill="white"/>
<g filter="url(#filter0_d_112_2)">
<path d="M338.36 327.705C361.806 381.78 337.36 444.791 283.759 468.444C230.159 492.097 167.7 467.435 144.255 413.36C120.809 359.285 145.255 296.274 198.856 272.621C252.456 248.968 314.915 273.63 338.36 327.705Z" fill="#86D3BB"/>
<path d="M199.142 339.287C202.75 347.606 198.99 357.301 190.744 360.94C182.498 364.58 172.888 360.787 169.281 352.468C165.673 344.149 169.433 334.454 177.679 330.815C185.925 327.175 195.534 330.969 199.142 339.287Z" fill="#1F0406"/>
<path d="M298.673 295.756C300.744 298.18 300.353 301.35 297.799 302.836C295.245 304.322 291.495 303.562 289.424 301.138C287.352 298.714 287.744 295.544 290.298 294.058C292.852 292.572 296.601 293.332 298.673 295.756Z" fill="#190306"/>
<path d="M336.1 372.565C339.324 373.698 340.679 378.264 339.126 382.764C337.572 387.265 333.7 389.995 330.475 388.862C327.251 387.73 325.896 383.163 327.449 378.663C329.002 374.163 332.875 371.433 336.1 372.565Z" fill="#2E0508"/>
<path d="M238.214 267.528C238.422 269.363 234.786 271.289 230.093 271.831C225.401 272.373 221.428 271.325 221.219 269.49C221.011 267.655 224.647 265.729 229.34 265.187C234.033 264.645 238.006 265.694 238.214 267.528Z" fill="url(#paint9_linear_112_2)"/>
<path d="M277.974 431.932C280.251 443.889 270.697 455.79 256.635 458.515C242.574 461.239 229.329 453.755 227.053 441.799C224.777 429.842 234.331 417.941 248.392 415.216C262.454 412.492 275.698 419.976 277.974 431.932Z" fill="#150305"/>
<path d="M205.566 268.341C206.272 269.8 202.059 273.342 196.156 276.251C190.253 279.161 184.894 280.337 184.188 278.878C183.481 277.419 187.694 273.877 193.597 270.967C199.5 268.058 204.859 266.882 205.566 268.341Z" fill="#C00C14"/>
<path d="M206.494 270.259C207.713 272.777 203.916 277.177 198.013 280.086C192.109 282.996 186.335 283.314 185.116 280.796C183.897 278.278 187.694 273.878 193.597 270.968C199.5 268.059 205.275 267.741 206.494 270.259Z" fill="#121514"/>
<path d="M202.187 268.643C202.392 269.068 199.207 271.064 195.073 273.102C190.938 275.139 187.42 276.447 187.214 276.023C187.009 275.598 190.194 273.602 194.328 271.564C198.463 269.526 201.981 268.218 202.187 268.643Z" fill="#400003"/>
<path d="M131.709 386.287C134.215 385.517 138.771 393.258 141.886 403.578C145.001 413.897 145.494 422.886 142.988 423.656C140.482 424.426 135.926 416.684 132.811 406.365C129.696 396.046 129.203 387.057 131.709 386.287Z" fill="url(#paint10_linear_112_2)"/>
<path d="M135 385.276C139.325 383.948 145.355 391.236 148.47 401.555C151.585 411.874 150.604 421.317 146.279 422.645C141.955 423.974 135.925 416.685 132.81 406.366C129.695 396.047 130.676 386.605 135 385.276Z" fill="#121514"/>
<path d="M131.319 391.842C132.049 391.618 134.408 397.295 136.589 404.523C138.771 411.75 139.948 417.79 139.219 418.014C138.49 418.238 136.13 412.561 133.949 405.334C131.768 398.107 130.59 392.066 131.319 391.842Z" fill="#400104"/>
<path d="M221.057 473.683C221.156 472.283 229.897 471.322 240.582 471.536C251.266 471.75 259.848 473.058 259.75 474.458C259.652 475.858 250.911 476.819 240.226 476.605C229.542 476.391 220.959 475.082 221.057 473.683Z" fill="url(#paint11_linear_112_2)"/>
<path d="M221.187 471.845C221.356 469.429 230.155 467.645 240.839 467.859C251.524 468.073 260.049 470.205 259.879 472.62C259.71 475.035 250.911 476.82 240.226 476.606C229.542 476.391 221.017 474.26 221.187 471.845Z" fill="#2A0001"/>
<path d="M226.132 474.842C226.161 474.435 232.25 474.226 239.734 474.376C247.217 474.526 253.26 474.978 253.232 475.385C253.203 475.792 247.113 476.001 239.63 475.851C232.147 475.701 226.104 475.249 226.132 474.842Z" fill="#150303"/>
<path d="M331.124 430.496C329.042 429.539 330.492 421.811 334.363 413.236C338.234 404.66 343.06 398.484 345.143 399.441C347.225 400.398 345.776 408.125 341.905 416.701C338.033 425.276 333.207 431.453 331.124 430.496Z" fill="url(#paint12_linear_112_2)"/>
<path d="M328.387 429.239C324.793 427.587 325.018 419.297 328.889 410.722C332.76 402.146 338.812 396.533 342.405 398.184C345.999 399.835 345.774 408.125 341.903 416.701C338.032 425.276 331.981 430.89 328.387 429.239Z" fill="#121514"/>
<path d="M334.56 427.084C333.954 426.806 335.66 421.711 338.372 415.705C341.083 409.699 343.772 405.056 344.378 405.334C344.984 405.613 343.277 410.707 340.566 416.713C337.855 422.719 335.166 427.362 334.56 427.084Z" fill="#130406"/>
<path d="M331.688 311.478C330.509 312.289 326.897 309.013 323.619 304.162C320.341 299.31 318.639 294.721 319.817 293.911C320.995 293.1 324.607 296.376 327.885 301.227C331.163 306.079 332.866 310.668 331.688 311.478Z" fill="url(#paint13_linear_112_2)"/>
<path d="M330.14 312.543C328.107 313.941 323.802 311.142 320.524 306.291C317.246 301.44 316.237 296.374 318.269 294.976C320.302 293.577 324.608 296.377 327.886 301.228C331.164 306.079 332.173 311.145 330.14 312.543Z" fill="#121514"/>
<path d="M330.996 308.528C330.654 308.764 328.515 306.201 326.219 302.803C323.923 299.406 322.34 296.46 322.682 296.225C323.025 295.989 325.164 298.552 327.46 301.949C329.756 305.347 331.339 308.292 330.996 308.528Z" fill="#3D0002"/>
<path d="M265.697 356.153C265.697 361.828 261.136 366.429 255.511 366.429C249.885 366.429 245.325 361.828 245.325 356.153C245.325 350.478 249.885 345.877 255.511 345.877C261.136 345.877 265.697 350.478 265.697 356.153Z" fill="#121514"/>
<path d="M177.692 431.238C175.135 433.461 170.086 431.777 166.414 427.477C162.742 423.178 161.839 417.89 164.396 415.668C166.953 413.445 172.003 415.129 175.674 419.429C179.346 423.729 180.25 429.016 177.692 431.238Z" fill="#121514"/>
<path d="M257.549 286.278C257.549 289.683 252.988 292.443 247.363 292.443C241.738 292.443 237.177 289.683 237.177 286.278C237.177 282.873 241.738 280.112 247.363 280.112C252.988 280.112 257.549 282.873 257.549 286.278Z" fill="#121514"/>
<path d="M317.658 416.29C319.877 418.856 318.24 423.961 314.001 427.692C309.762 431.423 304.527 432.368 302.308 429.802C300.089 427.236 301.726 422.131 305.965 418.4C310.204 414.669 315.439 413.724 317.658 416.29Z" fill="#121514"/>
</g>
<path d="M155.208 281.682L159.957 283.545L175.257 277.956C175.257 277.956 178.407 280.612 180.269 282.48C181.664 283.881 182.751 284.466 183.698 286.206C184.076 286.9 184.73 287.316 184.49 288.069C184.288 288.703 183.784 288.889 183.171 289.134C182.404 289.439 181.878 289.241 181.06 289.134C179.141 288.88 176.84 287.005 176.048 287.537C175.257 288.069 175.174 289.336 174.729 290.996C174.284 292.657 177.449 297.229 176.048 300.843C175.662 301.84 175.68 302.765 174.729 303.239C173.99 303.606 173.41 303.472 172.619 303.239C171.149 302.805 170.892 301.553 169.981 300.311C168.282 297.994 166.815 293.658 166.815 293.658C166.815 293.658 167.835 297.023 168.134 299.247C168.343 300.795 168.778 301.724 168.398 303.239C168.206 304.006 168.264 304.669 167.607 305.101C167.167 305.391 166.813 305.368 166.288 305.368C165.762 305.368 165.446 305.323 164.969 305.101C164.106 304.701 163.905 304.041 163.386 303.239C162.654 302.107 162.567 301.298 162.067 300.045C160.96 297.269 159.429 292.859 159.429 292.859C159.429 292.859 159.944 297.769 159.429 300.843C159.271 301.788 159.703 302.724 158.901 303.239C158.543 303.469 158.271 303.505 157.846 303.505C157.421 303.505 157.175 303.422 156.791 303.239C155.784 302.757 155.719 301.842 155.208 300.843C154.416 299.295 154.206 298.298 153.889 296.585C153.398 293.929 153.234 292.373 153.362 289.666C153.441 287.992 153.497 287.036 153.889 285.408C154.251 283.906 155.208 281.682 155.208 281.682Z" fill="#C0C0C0"/>
<path d="M159.43 207.163C159.43 207.163 176.198 188.934 190.03 182.147C204.802 174.899 231.182 173.365 231.182 173.365C231.182 173.365 241.891 189.013 247.01 199.978C254.705 216.458 260.199 244.688 260.199 244.688L202.428 279.019C202.428 279.019 186.735 260.898 178.687 247.881C169.444 232.933 159.43 207.163 159.43 207.163Z" fill="#CACACA"/>
<path d="M180.006 178.955C166.173 185.741 149.405 203.971 149.405 203.971C149.405 203.971 159.419 229.74 168.662 244.689C176.711 257.706 192.404 275.826 192.404 275.826L202.428 279.02C202.428 279.02 186.735 260.899 178.687 247.883C169.443 232.934 159.43 207.165 159.43 207.165C159.43 207.165 176.198 188.935 190.03 182.148C204.802 174.9 231.182 173.366 231.182 173.366C231.182 173.366 241.891 189.014 247.01 199.979C254.118 215.202 259.349 240.451 260.105 244.214L260.2 244.157C260.2 244.157 256.778 218.408 250.175 203.439C244.564 190.716 231.182 173.366 231.182 173.366L221.158 170.172C221.158 170.172 194.778 171.707 180.006 178.955Z" fill="#ACAAAA"/>
<path d="M149.405 203.972C149.405 203.972 159.419 229.741 168.662 244.69C176.711 257.706 192.404 275.827 192.404 275.827L202.428 279.021C202.428 279.021 186.735 260.9 178.687 247.883C169.443 232.935 159.43 207.165 159.43 207.165L149.405 203.972Z" fill="#BBB8B8"/>
<path d="M166.815 293.657C166.815 293.657 168.282 297.993 169.981 300.311C170.892 301.553 171.149 302.804 172.619 303.238C173.41 303.471 173.99 303.606 174.729 303.238C175.468 302.87 174.909 302.088 174.466 301.641C174.023 301.194 173.436 301.673 172.883 301.375C171.948 300.871 172.123 299.89 171.564 298.98C170.902 297.901 170.349 297.416 169.718 296.319C169.255 295.515 169.397 294.75 168.663 294.189C168.064 293.733 166.815 293.657 166.815 293.657Z" fill="#D6D6D6"/>
<path d="M159.429 292.858C159.429 292.858 160.96 297.268 162.067 300.044C162.566 301.297 162.653 302.106 163.386 303.237C163.905 304.04 164.105 304.7 164.968 305.1C165.446 305.322 165.762 305.367 166.287 305.367C166.813 305.367 166.581 304.73 166.552 304.302C166.496 303.492 166.764 303.36 166.288 302.705C165.577 301.728 165.19 301.911 164.623 300.842C163.926 299.531 163.236 297.924 162.594 296.584C162.093 295.538 162.58 294.781 161.803 293.923C161.359 293.431 160.438 292.968 159.429 292.858Z" fill="#D6D6D6"/>
<path d="M153.889 285.407C153.497 287.036 153.441 287.992 153.362 289.666C153.234 292.373 153.398 293.929 153.889 296.585C154.206 298.298 154.416 299.295 155.208 300.843C155.719 301.842 155.784 302.757 156.791 303.238C157.175 303.422 157.421 303.504 157.846 303.504C157.846 303.504 156.683 299.981 156.264 297.649C155.931 295.797 155.618 294.738 155.736 292.859C155.85 291.048 156.107 290.013 156.791 288.335C157.639 286.256 159.957 283.545 159.957 283.545L155.208 281.682C155.208 281.682 154.251 283.906 153.889 285.407Z" fill="#D6D6D6"/>
<path d="M175.589 197.665C175.549 197.35 175.818 197.087 176.133 197.117C178.194 197.314 179.778 197.276 182.116 197.053C186.794 196.608 189.346 195.583 193.723 193.859C195.828 193.031 196.985 192.498 198.999 191.464C202.794 189.516 204.813 188.172 208.232 185.609C211.519 183.145 213.629 181.962 216.151 178.758C216.302 178.566 216.569 178.505 216.778 178.63C220.105 180.607 220.158 184.063 221.685 186.674C221.685 186.674 215.452 189.007 211.925 192.263C208.106 195.788 205.467 197.1 200.582 199.182C195.982 201.143 192.609 202.009 187.656 202.642C183.344 203.193 178.687 205.835 178.687 205.835C177.015 202.594 175.978 200.705 175.589 197.665Z" fill="url(#paint14_linear_112_2)"/>
<path d="M259.409 317.343C259.62 316.114 259.409 314.149 259.409 314.149L277.874 318.94L276.555 323.464C276.555 323.464 283.467 330.971 284.469 337.037C284.997 340.23 283.493 347.416 278.929 347.416C270.752 347.416 267.515 343.683 262.838 338.101C258.663 333.119 254.747 328.943 256.507 322.666C257.147 320.383 259.007 319.68 259.409 317.343Z" fill="#C0C0C0"/>
<path d="M276.555 323.463L277.874 318.938H271.279C271.279 318.938 270.016 321.331 270.224 322.93C270.492 324.991 271.709 325.987 273.39 327.189C275.145 328.443 276.899 327.548 278.666 328.785C280.291 329.924 280.688 331.148 281.831 332.777C282.955 334.378 284.469 337.035 284.469 337.035C283.467 330.97 276.555 323.463 276.555 323.463Z" fill="#9C9C9C"/>
<path d="M259.409 317.343C259.007 319.68 257.147 320.383 256.507 322.666C254.747 328.943 258.663 333.119 262.838 338.101C267.515 343.683 270.752 347.416 278.929 347.416C278.929 347.416 273.247 346.027 270.224 343.956C266.905 341.682 265.492 339.671 263.366 336.238C261.974 333.991 261.002 332.711 260.464 330.117C260 327.879 259.737 326.428 260.464 324.262C261.014 322.624 262.154 322.123 262.838 320.537C263.476 319.057 263.893 316.545 263.893 316.545L259.409 314.149C259.409 314.149 259.62 316.114 259.409 317.343Z" fill="#D6D6D6"/>
<path d="M175.891 199.446C177.473 199.978 180.925 200.222 183.489 199.978C188.167 199.533 190.929 198.774 195.306 197.051C197.411 196.222 198.568 195.69 200.582 194.656C204.377 192.707 206.924 191.097 210.342 188.535C213.742 185.986 217.675 183.212 218.995 180.551C219.523 181.083 220.09 182.647 220.684 184.809C220.684 184.809 216.825 191.4 213.298 194.656C209.479 198.181 206.84 199.493 201.955 201.575C197.355 203.536 193.982 204.402 189.029 205.035C184.717 205.586 177.949 203.97 177.949 203.97C177.421 203.97 176.153 201.043 175.891 199.446Z" fill="url(#paint15_linear_112_2)"/>
<path d="M280.512 175.496C280.512 175.496 282.324 175.34 283.413 174.963C284.634 174.541 285.275 174.138 286.315 173.367C287.489 172.496 287.914 171.736 288.953 170.705C292.071 167.612 297.131 162.987 297.131 162.987C297.131 162.987 298.112 162.546 298.714 162.721C299.209 162.865 299.444 163.116 299.769 163.52C300.059 163.88 300.205 164.129 300.296 164.584C300.42 165.204 300.181 165.567 300.033 166.181C299.363 168.954 296.076 172.182 296.603 172.568L297.131 172.834C297.658 172.834 300.185 170.297 302.407 169.108C303.507 168.52 304.103 168.09 305.309 167.778C306.411 167.493 307.253 166.892 308.21 167.512C308.836 167.916 309.07 168.385 309.266 169.108C309.428 169.71 309.337 170.086 309.266 170.705C308.871 174.137 302.38 175.762 302.934 176.826C303.107 177.158 303.13 177.457 303.462 177.625C303.99 177.891 306.058 177.657 307.683 177.359C309.83 176.963 310.783 175.678 312.959 175.496C313.677 175.435 314.122 175.262 314.805 175.496C315.567 175.757 316.224 176.032 316.388 176.826C316.521 177.47 316.165 177.842 315.86 178.423C315.315 179.462 314.67 179.83 313.75 180.552C312.295 181.693 311.237 181.981 309.529 182.681C307.052 183.697 305.277 183.243 302.934 184.544C301.833 185.156 300.296 185.138 300.296 186.407C300.296 188.27 305.563 189.074 306.1 192.262C306.255 193.184 306.642 193.898 306.1 194.657C305.586 195.378 304.858 195.31 303.99 195.455C301.836 195.815 300.81 194.205 298.714 193.592C296.481 192.94 295.221 192.514 292.91 192.262C290.759 192.027 287.37 192.262 287.37 192.262L286.579 179.488L280.512 175.496Z" fill="#C0C0C0"/>
<path d="M312.958 175.494C310.783 175.677 309.83 176.962 307.683 177.357C307.155 177.623 307.154 177.625 306.891 177.889L306.891 177.889C306.629 178.154 306.291 178.32 306.364 178.688C306.436 179.055 306.805 179.094 307.155 179.22C307.955 179.508 308.472 178.994 309.265 178.688C309.911 178.439 310.189 178.1 310.848 177.889C311.445 177.698 311.811 177.716 312.431 177.623C313.252 177.5 313.728 177.528 314.541 177.357C315.276 177.203 316.552 177.62 316.388 176.825C316.224 176.03 315.567 175.755 314.805 175.494C314.122 175.26 313.677 175.434 312.958 175.494Z" fill="#D6D6D6"/>
<path d="M302.408 169.108C300.296 170.439 298.977 171.503 298.977 171.503C298.977 171.503 298.395 171.994 298.713 172.568C299.129 173.315 300.013 173.354 300.825 173.1C301.456 172.817 301.781 172.596 302.408 172.302C303.119 171.967 303.579 171.907 304.254 171.503C305.196 170.939 305.438 170.229 306.364 169.64C306.949 169.269 307.565 169.423 307.947 168.842C308.238 168.4 309.169 168.131 308.211 167.511C307.253 166.891 306.412 167.492 305.309 167.777C304.104 168.089 303.463 168.443 302.408 169.108Z" fill="#D6D6D6"/>
<path d="M283.414 174.963C282.324 175.34 281.489 174.88 280.512 175.496C278.113 177.007 283.789 179.959 286.579 179.488C288.13 179.226 288.578 178.017 290.009 177.359C290.81 176.99 291.408 177.083 292.119 176.56C292.77 176.082 293.17 175.729 293.438 174.963C293.862 173.751 292.452 173.04 292.647 171.77C292.883 170.229 294.103 169.831 295.021 168.576C295.853 167.439 296.159 166.667 297.131 165.649C298.046 164.69 300.094 163.923 299.769 163.52C299.444 163.116 299.209 162.865 298.714 162.721C298.112 162.546 297.131 162.987 297.131 162.987C297.131 162.987 292.071 167.612 288.954 170.705C287.915 171.736 287.49 172.496 286.316 173.367C285.275 174.138 284.635 174.541 283.414 174.963Z" fill="#D6D6D6"/>
<path d="M228.485 348.644C229.392 347.356 230.898 345.411 230.898 345.411L240.548 347.027L246.746 344.755L251.003 335.44C251.003 335.44 252.031 338.051 252.612 339.752C253.181 341.42 253.685 342.32 253.952 344.063C254.483 347.535 253.783 349.647 252.612 352.956C250.878 357.854 248.459 360.022 244.837 363.734C241.334 367.326 234.651 371.549 234.651 371.549C234.651 371.549 227.352 375.085 223.928 372.627C222.084 371.304 221.37 369.954 220.711 367.776C219.587 364.064 221.454 361.692 222.855 358.076C224.406 354.073 226.017 352.15 228.485 348.644Z" fill="#C0C0C0"/>
<path d="M252.611 339.752C252.031 338.051 251.003 335.44 251.003 335.44C251.003 335.44 245.341 341.008 246.746 344.755C247.494 346.75 249.717 346.743 250.439 348.747C251.542 351.806 249.576 353.855 248.065 356.731C246.859 359.027 245.832 360.123 244.108 362.054C242.155 364.24 241.275 365.195 239.36 367.11C237.572 368.897 234.65 371.549 234.65 371.549C234.65 371.549 241.334 367.326 244.837 363.734C248.458 360.022 250.878 357.854 252.611 352.956C253.783 349.647 254.483 347.535 253.952 344.063C253.685 342.32 253.181 341.42 252.611 339.752Z" fill="#9C9C9C"/>
<path d="M228.485 348.643C226.017 352.149 224.406 354.072 222.856 358.074C221.455 361.691 219.589 364.063 220.711 367.775C221.37 369.955 222.477 371.899 223.928 372.626C223.797 371.792 223.531 372.231 223.268 370.569C223.006 368.906 222.647 367.32 222.856 365.246C223.107 362.742 223.801 361.408 224.851 359.125C225.976 356.678 226.552 355.134 228.485 353.27C229.343 352.443 229.92 352.085 230.898 351.407C234.304 349.046 241.204 350.34 240.549 347.026C239.801 343.247 230.898 345.41 230.898 345.41C230.898 345.41 229.392 347.355 228.485 348.643Z" fill="#D6D6D6"/>
<path d="M176.652 202.018C183.246 202.018 184.965 202.08 190.03 201.043C195.138 199.997 198.001 199.079 202.692 196.785C206.986 194.685 209.346 193.253 212.98 190.132C216.088 187.462 218.52 184.809 220.102 182.414C221.157 183.745 221.105 184.352 222.213 185.075C222.599 185.328 222.83 185.463 223.268 185.607C225.159 186.232 226.085 184.227 228.016 183.745C230.424 183.142 231.873 183.4 234.347 183.212C239.698 182.806 242.713 182.809 248.065 182.414C252.809 182.064 255.51 182.154 260.199 181.349C267.748 180.053 271.281 175.881 278.929 175.494C280.472 175.416 281.377 175.156 282.886 175.494C286.235 176.246 287.447 178.562 289.481 181.349C290.929 183.333 291.993 184.506 292.382 186.938C292.837 189.776 292.699 191.98 290.8 194.124C288.668 196.53 285.842 195.02 282.886 196.253C279.555 197.642 278.423 199.993 274.972 201.043C272.684 201.739 271.218 201.239 268.905 201.841C264.756 202.922 263.126 205.3 259.144 206.898C256.329 208.028 254.736 208.73 251.758 209.293C249.622 209.697 248.387 209.689 246.218 209.825C242.105 210.084 241.733 208.761 236.721 209.825C236.721 211.156 236.75 211.638 237.513 212.753C239.176 215.184 240.461 216.278 242.261 218.608C248.762 227.019 249.588 233.923 257.034 241.495C257.951 242.428 258.712 242.735 259.441 243.824C260.45 245.333 259.855 246.726 260.793 248.281C262.329 250.829 264.402 251.234 267.009 252.639C268.942 253.682 270.298 253.716 272.169 254.868C274.405 256.244 275.349 257.471 277.214 259.326C278.759 260.862 279.435 261.908 280.973 263.451C283.134 265.619 284.989 266.2 286.843 268.64C288.468 270.781 289.233 272.181 290.008 274.761C290.642 276.871 290.916 278.149 290.8 280.35C290.663 282.945 289.664 284.24 288.953 286.737C287.358 292.335 286.962 295.632 284.996 301.108C283.034 306.576 280.578 309.11 278.929 314.681C278.142 317.338 279.282 319.631 277.346 321.601C275.602 323.375 273.755 323.417 271.279 323.463C268.83 323.509 267.398 322.978 265.211 321.867C263.693 321.095 262.809 320.594 261.65 319.338C260.253 317.823 258.333 316.736 258.089 314.681C257.298 308.028 258.494 305.74 259.936 300.31C260.648 297.625 262.321 296.434 262.442 293.657C262.538 291.427 262.217 290.078 261.255 288.068C256.242 285.141 253.341 285.141 243.844 283.278C243.316 283.278 241.734 283.278 240.678 288.334C240.151 291.794 241.089 295.188 242.261 299.778C243.346 304.025 243.651 306.488 244.899 310.689C246.574 316.329 248.216 319.248 250.175 324.794C251.126 327.488 252.154 328.882 252.549 331.713C252.837 333.772 252.888 334.986 252.549 337.036C251.943 340.704 251.077 342.989 248.856 346.085C247.702 347.693 247.175 348.898 245.427 349.81C243.497 350.818 242.06 350.298 239.887 350.343C237.824 350.386 236.638 350.465 234.611 350.077C232.914 349.751 231.816 349.729 230.39 348.746C229.062 347.829 228.706 346.86 227.752 345.552C224.775 341.471 223.66 338.603 221.685 333.843C219.156 327.745 218.357 324.061 216.937 317.609C216.346 314.922 216.208 313.376 215.618 310.689C214.461 305.42 214.985 304.265 212.452 299.512C210.984 296.755 208.52 293.743 207.308 290.862C206.14 288.086 206.65 285.984 205.33 283.278C203.625 279.782 203.747 283.278 199.79 275.294C196.241 268.133 191.876 265.18 189.766 257.463C189.4 256.126 189.258 255.36 188.974 254.003C188.628 252.348 188.509 251.405 188.183 249.745C187.28 245.145 186.864 239.898 185.545 238.035C185.033 237.981 184.74 238.009 184.226 238.035C180.005 238.252 183.505 253.972 179.478 263.052C178.725 264.749 177.861 265.518 177.367 267.31C176.678 269.813 177.909 271.423 177.367 273.963C176.766 276.781 176.086 278.45 174.202 280.616C172.542 282.523 171.317 283.555 168.926 284.342C166.379 285.18 164.733 284.603 162.067 284.342C159.774 284.118 158.254 284.447 156.264 283.278C154.563 282.279 153.587 281.386 152.834 279.552C152.006 277.535 153.067 276.133 152.834 273.963C152.619 271.957 152.097 270.899 151.779 268.907C151.499 267.15 151.013 266.145 151.251 264.382C151.428 263.08 152.003 262.467 152.307 261.189C152.766 259.258 152.791 258.117 152.834 256.132C152.888 253.63 152.184 252.245 152.307 249.745C152.384 248.174 152.633 247.313 152.834 245.753C153.384 241.496 152.959 238.962 154.153 234.842C154.583 233.359 154.812 232.51 155.472 231.116C156.15 229.685 156.71 228.976 157.583 227.656C158.646 226.048 159.435 225.282 160.484 223.664C162.754 220.164 163.04 217.634 165.233 214.083C166.29 212.371 166.833 211.358 168.134 209.825C170.374 207.187 171.651 205.07 174.993 204.237C175.601 204.085 176.114 204.398 176.576 203.971C177.113 203.474 176.454 202.725 176.652 202.018Z" fill="#00B9DC"/>
<path d="M259.442 243.825C258.714 242.736 257.952 242.429 257.035 241.496C249.589 233.924 248.763 227.02 242.263 218.609C240.462 216.279 239.178 215.185 237.514 212.754C236.751 211.639 236.723 209.826 236.723 209.826C236.723 209.826 234.082 209.257 232.765 208.23C229.82 205.932 230.918 198.915 230.391 198.915C224.781 198.916 231.218 207.721 232.238 213.286C232.852 216.634 233.1 218.546 234.085 221.802C235.846 227.628 237.388 230.802 240.68 235.907C244.458 241.768 246.491 245.822 252.551 249.214C257.623 252.053 269.617 254.046 267.01 252.64C264.403 251.235 262.331 250.83 260.794 248.282C259.856 246.727 260.452 245.334 259.442 243.825Z" fill="#009FBD"/>
<path d="M236.722 209.826C241.734 208.762 242.106 210.085 246.218 209.826C250.331 209.568 241.747 208.772 239.36 207.165C237.602 205.981 236.807 205.033 235.403 203.439C233.883 201.714 230.391 198.915 230.391 198.915C230.391 198.915 230.282 201.894 230.655 203.439C231.086 205.229 230.899 206.612 232.237 207.964C233.509 209.248 236.722 209.826 236.722 209.826Z" fill="#009FBD"/>
<path d="M243.845 283.279C253.341 285.141 256.243 285.141 261.255 288.069C262.218 290.079 262.539 291.428 262.442 293.658C262.322 296.435 260.649 297.626 259.936 300.311C258.495 305.74 257.298 308.029 258.09 314.682C258.334 316.737 260.254 317.824 261.651 319.339C263.048 320.854 263.596 318.255 263.629 317.077C263.664 315.86 262.248 315.74 261.651 314.682C260.414 312.492 260.556 310.81 260.728 308.295C260.953 304.982 262.584 303.46 263.629 300.311C264.892 296.507 267.196 294.419 266.531 290.464C265.991 287.248 264.752 285.417 262.31 283.279C259.285 280.628 256.555 279.943 252.55 280.085C248.935 280.213 244.636 281.416 243.845 283.279Z" fill="#009FBD"/>
<path d="M203.995 221.27L205.05 220.472C205.05 220.472 205.416 224.689 205.314 227.391C205.212 230.109 205.287 231.702 204.523 234.31C203.516 237.747 201.437 239 200.038 242.294C199.179 244.319 198.192 247.617 198.192 247.617C198.192 247.617 196.541 240.593 197.4 238.569C198.799 235.274 200.878 234.021 201.885 230.585C202.649 227.976 202.574 226.383 202.676 223.665C203.995 221.27 203.995 221.27 203.995 221.27Z" fill="#009FBD"/>
<path d="M176.576 203.972C176.114 204.399 175.601 204.086 174.993 204.238C171.651 205.071 170.374 207.188 168.134 209.827C166.833 211.359 166.29 212.372 165.233 214.085C163.04 217.635 162.754 220.165 160.484 223.665C159.435 225.283 158.646 226.049 157.583 227.657C156.71 228.977 156.15 229.686 155.472 231.117C154.812 232.511 154.583 233.36 154.153 234.843C152.959 238.963 153.384 241.498 152.834 245.754C152.633 247.314 152.384 248.175 152.307 249.746C152.184 252.246 152.888 253.631 152.834 256.133C152.791 258.119 152.766 259.259 152.307 261.19C152.003 262.468 151.428 263.081 151.251 264.383C151.013 266.146 151.499 267.151 151.779 268.908C152.097 270.9 152.619 271.958 152.834 273.964C153.067 276.134 152.006 277.537 152.834 279.553C153.587 281.387 154.563 282.28 156.264 283.279C158.254 284.448 159.774 284.119 162.067 284.343C164.36 284.568 162.444 273.753 163.386 267.045C164.571 258.607 165.832 253.954 168.134 245.754C170.39 237.722 171.81 233.234 174.993 225.528C178.591 216.819 194.442 207.599 185.809 203.972H176.576Z" fill="#009FBD"/>
<path d="M234.611 350.077C236.638 350.465 239.887 350.343 239.887 350.343C245.134 348.526 236.547 342.281 234.611 337.036C232.86 332.293 231.834 329.642 230.39 324.794C229.226 320.883 229.607 318.312 227.752 314.681C226.271 311.78 224.257 310.911 222.74 308.028C220.079 302.969 220.363 299.36 219.839 293.657C219.391 288.793 219.839 286.033 219.839 281.149C219.839 277.303 220.168 275.133 219.839 271.302C219.559 268.051 220.656 265.502 218.52 263.052C216.813 261.095 215.032 243.826 212.452 243.681C209.491 243.515 207.718 244.567 205.33 246.342C201.136 249.46 195.833 267.31 199.79 275.294C203.747 283.278 203.625 279.782 205.33 283.278C206.65 285.985 206.14 288.086 207.308 290.863C208.52 293.743 210.984 296.756 212.452 299.512C214.985 304.265 214.461 305.421 215.618 310.689C216.208 313.376 216.346 314.922 216.937 317.609L216.978 317.796C218.373 324.133 219.18 327.804 221.685 333.843C223.66 338.603 224.682 341.426 227.752 345.553C228.718 346.851 229.062 347.83 230.39 348.746C231.816 349.73 232.915 349.752 234.611 350.077Z" fill="#009FBD"/>
<path d="M206.587 202.921L207.485 202.361C207.485 202.361 212.217 208.43 214.874 212.579C219.834 220.324 221.014 225.58 225.427 233.656C227.815 238.027 229.377 240.351 231.758 244.726C235.254 251.147 238.126 254.419 240.2 261.439C242.063 267.744 242.311 278.152 242.311 278.152L241.413 278.711C241.413 278.711 241.165 268.304 239.303 261.998C237.228 254.978 234.356 251.706 230.861 245.286C228.479 240.911 226.918 238.586 224.529 234.215C220.116 226.139 218.936 220.884 213.976 213.138C211.319 208.99 206.587 202.921 206.587 202.921Z" fill="#009FBD"/>
<path d="M221.685 184.81C221.685 184.81 222.481 185.317 223.004 185.502C224.06 185.875 224.018 185.714 224.587 185.609C225.642 185.343 226.109 184.46 227.225 184.012C227.922 183.732 228.338 183.634 229.072 183.48C230.387 183.202 231.161 183.301 232.501 183.213C234.971 183.053 236.36 183.059 238.832 182.947C240.996 182.849 242.21 182.807 244.372 182.681C247.259 182.513 248.872 182.334 251.758 182.149C253.509 182.037 256.243 181.883 256.243 181.883C256.723 182.385 256.827 182.815 257.034 183.48C257.868 186.149 256.38 188.176 254.396 190.133C252.16 192.339 249.854 192.167 246.746 192.528C242.722 192.996 240.488 191.614 236.458 191.197C229.17 190.444 217.729 190.133 217.729 190.133L220.103 187.472L221.685 184.81Z" fill="#7FDCED"/>
<path d="M176.84 203.44C176.84 203.44 193.081 204.342 202.56 200.512C211.683 196.826 221.843 184.811 221.843 184.811C222.079 184.998 222.218 185.095 222.476 185.252C222.476 185.252 212.193 197.462 203.22 201.311C193.494 205.482 176.576 203.972 176.576 203.972C176.764 203.795 176.803 203.675 176.84 203.44Z" fill="url(#paint16_linear_112_2)"/>
<path d="M176.84 203.44C176.84 203.44 193.081 204.342 202.56 200.512C211.683 196.826 221.843 184.811 221.843 184.811C222.079 184.998 222.218 185.095 222.476 185.252C222.476 185.252 212.193 197.462 203.22 201.311C193.494 205.482 176.576 203.972 176.576 203.972C176.764 203.795 176.803 203.675 176.84 203.44Z" fill="#009FBD"/>
<path d="M183.436 220.472H183.963C183.963 220.472 186.266 226.196 186.337 230.052C186.395 233.201 185.018 238.004 185.018 238.004C184.507 238.022 184.715 238.02 184.491 238.02C184.491 238.02 185.909 233.042 185.81 229.786C185.695 226.032 183.436 220.472 183.436 220.472Z" fill="#009FBD"/>
<path d="M143.595 152.926C144.328 149.442 145.179 147.528 146.981 144.41C148.679 141.471 149.965 139.976 152.341 137.49C155.695 133.982 157.959 132.261 162.216 129.772C166.323 127.37 168.9 126.378 173.501 124.982C178.52 123.459 181.493 122.785 186.761 122.587C190.957 122.429 193.362 122.613 197.482 123.385C199.946 123.847 201.372 124.063 203.688 124.982C205.918 125.866 207.119 126.534 209.049 127.909C213.975 131.419 215.323 134.939 218.077 140.151C219.51 142.863 220.143 144.469 221.18 147.337C222.251 150.296 222.914 151.967 223.437 155.055C224.185 159.468 224.672 162.184 223.437 166.498C222.436 169.999 221.143 171.789 218.923 174.748C216.942 177.391 215.616 178.776 212.999 180.869C209.756 183.463 207.428 184.284 203.688 186.192C199.092 188.537 196.531 190.005 191.557 191.515C184.363 193.699 179.747 195.467 172.372 193.91C168.518 193.096 166.408 192.163 163.062 190.184C160.409 188.615 159.103 187.451 156.855 185.394C152.094 181.035 149.659 178.079 146.981 172.353C143.691 165.319 142.009 160.467 143.595 152.926Z" fill="url(#paint17_linear_112_2)"/>
<path d="M148.304 168.894L161.23 190.184C161.23 190.184 157.34 190.378 155.163 189.386C152.706 188.266 151.732 186.798 150.151 184.595C148.61 182.449 147.904 181.04 147.249 178.474C146.401 175.153 148.304 168.894 148.304 168.894Z" fill="#B7B6B2"/>
<path d="M215.618 141.962C215.618 141.962 220.988 143.858 222.431 144.942C223.66 145.864 224.22 146.583 225.069 147.869C226.405 149.895 226.827 151.317 227.179 153.724C227.435 155.472 227.435 156.501 227.179 158.248C226.827 160.655 222.431 168.043 222.431 168.043L215.618 141.962Z" fill="#B7B7C3"/>
<g filter="url(#filter1_f_112_2)">
<path d="M220.849 147.374L222.021 146.538C222.021 146.538 223.168 148.37 223.778 149.604C224.611 151.288 224.992 152.278 225.536 154.065C225.799 154.928 226.255 155.407 226.122 156.296C225.992 157.165 224.95 158.247 224.95 158.247C224.95 158.247 224.355 155.496 223.778 153.787C222.902 151.186 220.849 147.374 220.849 147.374Z" fill="#62635E" fill-opacity="0.5"/>
</g>
<path d="M147.776 157.184C148.461 153.699 149.257 151.786 150.942 148.667C152.529 145.729 153.732 144.234 155.954 141.748C159.09 138.239 161.207 136.519 165.187 134.03C169.027 131.628 171.437 130.635 175.739 129.24C180.432 127.717 183.211 127.043 188.137 126.845C192.061 126.686 194.31 126.871 198.161 127.643C200.466 128.105 201.799 128.321 203.965 129.24C206.05 130.124 207.172 130.792 208.977 132.167C213.583 135.677 214.844 139.197 217.419 144.409C218.758 147.121 219.35 148.727 220.32 151.595C221.321 154.554 221.941 156.225 222.431 159.313C223.13 163.726 223.585 166.441 222.431 170.756C221.494 174.257 220.286 176.046 218.21 179.006C216.357 181.649 215.118 183.034 212.67 185.127C209.638 187.721 207.462 188.542 203.965 190.45C199.668 192.794 197.272 194.262 192.622 195.773C185.895 197.957 181.579 199.725 174.684 198.168C171.08 197.354 169.107 196.421 165.978 194.442C163.497 192.873 162.276 191.709 160.175 189.652C155.723 185.293 153.446 182.337 150.942 176.611C147.866 169.576 146.293 164.725 147.776 157.184Z" fill="url(#paint18_linear_112_2)"/>
<path d="M157.802 161.975C160.176 157.983 161.11 156.615 163.869 153.725C167.028 150.416 169.203 148.914 173.102 146.54C176.89 144.232 179.231 143.275 183.39 141.749C189.193 139.62 192.095 139.088 196.843 139.088C200.199 139.088 202.448 141.195 204.494 143.878C207.131 147.338 207.729 148.131 209.769 152.128C211.399 155.32 213.199 160.644 213.199 160.644C213.199 160.644 214.438 165.168 213.199 167.564C210.033 173.685 204.416 178.584 196.843 183C188.941 187.608 186.555 189.387 174.421 188.854C168.617 187.524 159.746 178.899 157.802 168.628C157.394 166.475 156.684 163.855 157.802 161.975Z" fill="url(#paint19_linear_112_2)"/>
<path d="M169.144 148.935C172.966 146.061 175.58 144.709 179.96 142.814C184.213 140.973 186.711 139.927 191.303 139.354C192.942 139.15 195.524 139.088 195.524 139.088C195.524 139.088 185.711 149.451 182.334 157.717C178.609 166.836 178.905 182.733 178.905 182.733L167.825 183.798C167.825 183.798 158.011 166.803 159.648 159.846C160.175 157.604 161.671 155.886 163.605 153.725C165.507 151.6 166.869 150.646 169.144 148.935Z" fill="url(#paint20_linear_112_2)"/>
<path fill-rule="evenodd" clip-rule="evenodd" d="M163.062 153.286C160.2 156.299 159.231 157.726 156.768 161.888C155.737 163.631 156.206 165.985 156.619 168.064C156.671 168.322 156.721 168.577 156.768 168.825C158.785 179.534 167.987 188.528 174.008 189.915C185.996 190.444 188.811 188.786 196.134 184.476L197.267 183.81C205.122 179.206 210.949 174.098 214.233 167.715C215.518 165.217 214.233 160.501 214.233 160.501C214.233 160.501 212.365 154.948 210.675 151.621C208.558 147.452 207.939 146.626 205.203 143.018C203.081 140.22 200.748 138.023 197.267 138.023C192.341 138.023 189.331 138.578 183.311 140.798C178.998 142.389 176.569 143.388 172.639 145.793C168.595 148.269 166.339 149.835 163.062 153.286ZM163.868 153.725C161.11 156.615 160.175 157.983 157.801 161.975C156.807 163.647 157.258 165.903 157.657 167.896C157.707 168.145 157.755 168.39 157.801 168.629C159.745 178.899 168.616 187.524 174.42 188.854C185.977 189.361 188.692 187.772 195.751 183.638C196.103 183.432 196.467 183.219 196.843 183C204.415 178.584 210.032 173.685 213.198 167.564C214.437 165.168 213.198 160.645 213.198 160.645C213.198 160.645 211.398 155.32 209.769 152.128C207.728 148.131 207.131 147.338 204.493 143.878C202.447 141.195 200.198 139.088 196.843 139.088C192.094 139.088 189.193 139.62 183.389 141.749C179.231 143.275 176.889 144.232 173.101 146.54C169.203 148.914 167.028 150.416 163.868 153.725Z" fill="url(#paint21_linear_112_2)"/>
<path d="M277.05 288.619C279.269 286.509 281.749 282.214 281.749 282.214C281.749 282.214 281.227 283.88 280.809 284.911C279.845 287.291 278.975 288.401 277.05 289.967C275.133 291.527 271.725 292.327 271.725 292.327C271.725 292.327 275.194 290.384 277.05 288.619Z" fill="#009FBD"/>
<g filter="url(#filter2_d_112_2)">
<path d="M416.002 466.006V425.346H328.771L320.214 403.346L382.876 259.367H431.46L376.803 384.408H416.002V349.319L425.111 323.976H463.758V384.408H482.253V417.827L463.758 425.346V466.006H416.002Z" fill="white"/>
</g>
<defs>
<filter id="filter0_d_112_2" x="119.11" y="259.637" width="228.156" height="221.792" filterUnits="userSpaceOnUse" color-interpolation-filters="sRGB">
<feFlood flood-opacity="0" result="BackgroundImageFix"/>
<feColorMatrix in="SourceAlpha" type="matrix" values="0 0 0 0 0 0 0 0 0 0 0 0 0 0 0 0 0 0 127 0" result="hardAlpha"/>
<feOffset dx="-7"/>
<feGaussianBlur stdDeviation="2"/>
<feColorMatrix type="matrix" values="0 0 0 0 0 0 0 0 0 0 0 0 0 0 0 0 0 0 0.4 0"/>
<feBlend mode="normal" in2="BackgroundImageFix" result="effect1_dropShadow_112_2"/>
<feBlend mode="normal" in="SourceGraphic" in2="effect1_dropShadow_112_2" result="shape"/>
</filter>
<filter id="filter1_f_112_2" x="216.849" y="142.538" width="13.2974" height="19.71" filterUnits="userSpaceOnUse" color-interpolation-filters="sRGB">
<feFlood flood-opacity="0" result="BackgroundImageFix"/>
<feBlend mode="normal" in="SourceGraphic" in2="BackgroundImageFix" result="shape"/>
<feGaussianBlur stdDeviation="2" result="effect1_foregroundBlur_112_2"/>
</filter>
<filter id="filter2_d_112_2" x="309.214" y="255.367" width="173.039" height="214.639" filterUnits="userSpaceOnUse" color-interpolation-filters="sRGB">
<feFlood flood-opacity="0" result="BackgroundImageFix"/>
<feColorMatrix in="SourceAlpha" type="matrix" values="0 0 0 0 0 0 0 0 0 0 0 0 0 0 0 0 0 0 127 0" result="hardAlpha"/>
<feOffset dx="-7"/>
<feGaussianBlur stdDeviation="2"/>
<feColorMatrix type="matrix" values="0 0 0 0 0 0 0 0 0 0 0 0 0 0 0 0 0 0 0.4 0"/>
<feBlend mode="normal" in2="BackgroundImageFix" result="effect1_dropShadow_112_2"/>
<feBlend mode="normal" in="SourceGraphic" in2="effect1_dropShadow_112_2" result="shape"/>
</filter>
<linearGradient id="paint0_linear_112_2" x1="563.817" y1="128.212" x2="604.902" y2="90.2491" gradientUnits="userSpaceOnUse">
<stop stop-color="#F67C01"/>
<stop offset="1" stop-color="#BB5E00"/>
</linearGradient>
<linearGradient id="paint1_linear_112_2" x1="631.83" y1="28.3112" x2="671.351" y2="69.5967" gradientUnits="userSpaceOnUse">
<stop offset="0.213542" stop-color="#D2CECE"/>
<stop offset="1" stop-color="#393535"/>
</linearGradient>
<linearGradient id="paint2_linear_112_2" x1="631.83" y1="28.3112" x2="671.351" y2="69.5967" gradientUnits="userSpaceOnUse">
<stop offset="0.213542" stop-color="#D2CECE"/>
<stop offset="1" stop-color="#393535"/>
</linearGradient>
<linearGradient id="paint3_linear_112_2" x1="617.483" y1="96.4401" x2="636.42" y2="116.223" gradientUnits="userSpaceOnUse">
<stop stop-color="#404040"/>
<stop offset="1"/>
</linearGradient>
<linearGradient id="paint4_linear_112_2" x1="600.351" y1="78.2263" x2="579.767" y2="56.7234" gradientUnits="userSpaceOnUse">
<stop/>
<stop offset="1" stop-color="#7A7A7A"/>
</linearGradient>
<linearGradient id="paint5_linear_112_2" x1="674.466" y1="0.685198" x2="699.99" y2="27.3487" gradientUnits="userSpaceOnUse">
<stop stop-color="#8C8B8B"/>
<stop offset="1"/>
</linearGradient>
<linearGradient id="paint6_linear_112_2" x1="587.035" y1="74.4892" x2="621.616" y2="110.614" gradientUnits="userSpaceOnUse">
<stop offset="0.1875" stop-color="white"/>
<stop offset="1" stop-color="#393535"/>
</linearGradient>
<linearGradient id="paint7_linear_112_2" x1="666.947" y1="-0.359112" x2="701.528" y2="35.7657" gradientUnits="userSpaceOnUse">
<stop offset="0.135417" stop-color="white"/>
<stop offset="1" stop-color="#393535"/>
</linearGradient>
<linearGradient id="paint8_linear_112_2" x1="667.524" y1="41.9436" x2="656.821" y2="30.7622" gradientUnits="userSpaceOnUse">
<stop offset="0.0885417" stop-color="#212121"/>
<stop offset="1" stop-color="#606060"/>
</linearGradient>
<linearGradient id="paint9_linear_112_2" x1="229.34" y1="265.187" x2="230.107" y2="271.829" gradientUnits="userSpaceOnUse">
<stop stop-color="#420609"/>
<stop offset="1" stop-color="#DF131E"/>
</linearGradient>
<linearGradient id="paint10_linear_112_2" x1="143.469" y1="423.974" x2="133.114" y2="384.97" gradientUnits="userSpaceOnUse">
<stop stop-color="#6F060A"/>
<stop offset="1" stop-color="#8C080E"/>
</linearGradient>
<linearGradient id="paint11_linear_112_2" x1="261.623" y1="473.637" x2="220.983" y2="475.682" gradientUnits="userSpaceOnUse">
<stop stop-color="#2A0001"/>
<stop offset="1" stop-color="#360103"/>
</linearGradient>
<linearGradient id="paint12_linear_112_2" x1="330.886" y1="430.139" x2="345.353" y2="399.409" gradientUnits="userSpaceOnUse">
<stop stop-color="#380103"/>
<stop offset="1" stop-color="#470205"/>
</linearGradient>
<linearGradient id="paint13_linear_112_2" x1="318.662" y1="292.443" x2="333.079" y2="310.817" gradientUnits="userSpaceOnUse">
<stop stop-color="#92090E"/>
<stop offset="1" stop-color="#82070C"/>
</linearGradient>
<linearGradient id="paint14_linear_112_2" x1="211.134" y1="181.617" x2="175.377" y2="201.045" gradientUnits="userSpaceOnUse">
<stop stop-color="#778186"/>
<stop offset="1" stop-color="#474B4C"/>
</linearGradient>
<linearGradient id="paint15_linear_112_2" x1="211.661" y1="183.212" x2="177.233" y2="201.588" gradientUnits="userSpaceOnUse">
<stop stop-color="#C1C1C1"/>
<stop offset="1" stop-color="#929292"/>
</linearGradient>
<linearGradient id="paint16_linear_112_2" x1="195.042" y1="198.649" x2="196.651" y2="203.698" gradientUnits="userSpaceOnUse">
<stop stop-color="#D48845"/>
<stop offset="1" stop-color="#4E3219"/>
</linearGradient>
<linearGradient id="paint17_linear_112_2" x1="146.157" y1="148.616" x2="208.704" y2="158.556" gradientUnits="userSpaceOnUse">
<stop stop-color="#9F9F9F"/>
<stop offset="1" stop-color="#787877"/>
</linearGradient>
<linearGradient id="paint18_linear_112_2" x1="147.212" y1="158.196" x2="195.487" y2="159.503" gradientUnits="userSpaceOnUse">
<stop stop-color="#CBCBCB"/>
<stop offset="1" stop-color="#828380"/>
</linearGradient>
<linearGradient id="paint19_linear_112_2" x1="158.857" y1="164.636" x2="212.672" y2="165.944" gradientUnits="userSpaceOnUse">
<stop stop-color="#1B0A5D"/>
<stop offset="0.390625" stop-color="#1B0A5D"/>
<stop offset="0.970597" stop-color="#010005"/>
</linearGradient>
<linearGradient id="paint20_linear_112_2" x1="195.788" y1="142.015" x2="167.126" y2="162.534" gradientUnits="userSpaceOnUse">
<stop stop-color="#FFF9FF" stop-opacity="0.36"/>
<stop offset="1" stop-color="#1B0A5D" stop-opacity="0"/>
</linearGradient>
<linearGradient id="paint21_linear_112_2" x1="156.182" y1="164.052" x2="214.744" y2="164.052" gradientUnits="userSpaceOnUse">
<stop stop-color="#5B5C59"/>
<stop offset="1" stop-color="#3F403E"/>
</linearGradient>
</defs>
</svg>
