<svg width="700" height="635" viewBox="0 0 700 635" fill="none" xmlns="http://www.w3.org/2000/svg">
<path d="M324.495 61.608C324.889 61.5164 324.595 62.1119 324.595 62.1119C323.628 62.5693 306.608 68.4034 306.654 75.7777C306.67 78.3912 306.701 80.03 309.04 82.0027C313.272 85.573 320.758 84.6928 329.272 85.2746C338.919 85.9338 345.88 83.7768 355.374 84.6327C362.876 85.3091 369.144 84.8895 372.934 88.0865C375.847 90.544 377.419 92.5369 375.583 95.9366C373.131 100.477 367.435 103.074 359.562 105.935C353.663 108.078 348.785 109.112 342.405 110.212C309.565 115.87 298.87 96.188 266.305 103.403C253.249 106.296 243.346 107.432 234.682 114.214C227.383 119.927 226.205 123.677 227.796 129.304C229.514 135.377 237.559 136.512 245.266 140.382C255.002 145.27 265.297 145.258 273.543 150.899C278.294 154.15 282.038 155.868 283.054 160.339C283.757 163.428 282.968 165.425 281.455 168.776C278.14 176.122 261.816 188.167 261.816 188.167L259.833 186.817C259.833 186.817 275.397 176.278 278.781 169.046C280.249 165.908 281.119 164.025 280.483 161.129C279.514 156.713 275.293 155.21 270.498 152.055C262.128 146.549 252.266 146.356 242.746 141.432C234.896 137.371 226.814 136.074 225.123 129.78C223.579 124.033 225.482 119.498 232.878 113.671C241.52 106.863 252.927 104.951 267.096 101.891C299.706 94.8465 310.414 114.882 343.197 108.699C349.37 107.535 353.198 107.165 358.831 105.001C365.65 102.38 370.852 100.198 372.908 96.2063C374.364 93.381 373.641 91.6882 371.579 89.5061C368.167 85.897 361.694 85.952 353.808 85.1875C345.191 84.3522 338.823 86.4114 329.907 85.9696C320.721 85.5144 312.6 86.583 308.048 82.7994C305.478 80.6637 305.522 78.848 305.605 75.9896C305.82 68.5458 321.545 62.7279 324.495 61.608Z" fill="#DDDDDD"/>
<path d="M324.495 61.608C324.113 61.7252 324.595 62.1119 324.595 62.1119C324.595 62.1119 354.107 50.6309 367.874 54.1709C372.753 55.4256 375.802 56.2264 378.375 58.7458C383.031 63.3055 377.811 67.9473 374.835 73.9795C371.463 80.8142 364.107 84.4936 361.176 91.3181C358.86 96.7116 355.083 100.749 359.252 104.832C362.457 107.971 365.433 109.982 372.666 110.358C382.327 110.861 389.902 108.247 399.009 104.286C405.832 101.319 410.095 98.5132 415.195 94.7238C441.452 75.2166 409.754 58.6211 438.789 40.0413C450.43 32.592 457.282 26.4392 474.099 23.8092C488.264 21.5939 495.84 22.5819 505.601 26.3354C516.137 30.3865 514.42 36.3648 517.977 43.4159C522.47 52.3235 517.533 59.2767 524.146 67.5354C527.957 72.2939 529.381 75.6424 537.256 78.457C542.698 80.402 546.807 80.8188 553.796 81.3912C569.115 82.6457 599.429 77.3426 599.429 77.3426L597.851 75.3593C597.851 75.3593 570.715 80.8654 555.577 79.7116C549.008 79.2109 545.073 78.9025 539.96 77.0947C532.166 74.3386 531.37 70.7697 527.76 66.0276C521.459 57.749 525.806 50.9908 521.143 42.2122C517.297 34.9734 518.728 28.8931 507.767 24.755C497.759 20.9765 488.37 20.1043 473.944 22.3315C457.09 24.9339 448.07 31.7347 435.584 39.8565C406.846 58.5484 439.199 75.3208 411.99 94.5389C406.867 98.1579 404.347 100.57 397.611 103.347C389.456 106.71 382.893 109.188 374.447 108.679C368.47 108.318 365.649 107.024 362.554 104.591C357.434 100.568 360.626 96.2183 362.961 90.5235C365.512 84.3013 372.402 80.9766 375.832 74.739C379.365 68.3133 385.24 63.3316 380.338 58.4543C377.571 55.7011 374.155 54.8669 368.771 53.5626C354.749 50.1659 326.987 60.8425 324.495 61.608Z" fill="#DDDDDD"/>
<path d="M596.295 92.8827C596.295 92.8827 603.299 95.9758 604.628 106.904C604.984 110.117 603.408 112.49 601.151 114.747C598.841 117.151 595.421 117.159 593.354 119.618C594.782 117.29 594.365 114.519 596.808 112.661C593.162 113.846 591.28 116.705 590.792 120.438C590.357 124.024 588.781 126.398 584.862 126.787C586.858 125.164 586.184 122.928 586.095 120.708C585.88 123.314 583.894 124.543 581.633 125.075C578.879 125.791 577.686 126.548 575.58 128.661C576.656 124.845 574.804 122.775 579.394 120.974C581.911 120.006 584.694 118.206 582.675 115.048C581.994 120.599 577.398 118.852 573.689 120.577C571.066 121.839 571.599 123.923 570.13 125.905C568.662 127.887 566.113 128.214 563.817 128.203C567.656 127.121 566.694 122.758 567.605 119.677C568.626 116.106 573.288 115.293 575.228 112.091C573.494 109.236 571.792 112.69 571.078 113.854C569.908 115.647 568.397 117.382 565.882 116.428C571.794 114.514 567.779 107.31 572.055 104.466C573.695 103.376 577.853 105.063 578.686 103.113C579.984 100.141 574.863 101.681 573.768 102.441C574.055 100.822 575.318 99.229 576.9 98.4822C578.929 97.5007 580.36 98.82 582.128 98.4724C584.484 98.0418 584.709 95.0411 582.073 94.9714C581.096 94.9456 579.05 96.6167 577.868 96.9798C579.314 93.9621 582.856 91.1476 586.099 90.4447C590.128 89.5653 592.913 91.4133 596.295 92.8827Z" fill="url(#paint0_linear_29_1304)"/>
<path d="M598.246 96.7033C598.95 97.5015 598.901 97.5489 599.547 98.5861C600.931 100.757 601.205 103.899 599.134 105.698C597.952 106.691 596.561 106.413 595.296 107.118C593.958 107.847 593.897 109.332 593.184 110.474C593.122 109.659 593.125 109.012 592.944 108.219C592.869 107.739 592.748 107.211 592.934 106.758C592.423 107.615 592.333 108.62 591.775 109.477C591.066 110.523 590.007 110.847 588.851 111.218C587.672 111.565 586.525 111.697 585.242 111.683C584.72 111.677 584.036 111.55 583.552 111.737C582.923 112.018 582.684 112.614 582.191 113.04C582.473 111.39 582.579 110.552 584.31 110.092C586.088 109.631 586.176 108.075 587.339 106.961C586.339 107.598 585.066 107.895 584.384 106.57C586.495 107.264 587.368 105.692 587.658 103.85C587.969 102.08 587.915 100.522 589.345 99.2917C588.467 99.2583 588.024 100.188 587.48 100.709C586.838 101.278 586.115 101.509 585.277 101.668C585.376 101.573 585.522 101.479 585.574 101.384C585.908 100.788 586.518 100.388 586.852 99.7921C587.161 99.2204 587.35 98.6714 587.589 98.0749C588.066 96.882 589.298 95.8409 590.371 95.1815C592.152 94.0745 595.416 94.4448 597.537 96.0488L597.744 96.2187C597.928 96.3644 598.087 96.5339 598.246 96.7033Z" fill="#FFC929"/>
<path d="M598.855 97.354C599.616 98.267 599.726 99.0075 599.7 100.201C599.658 101.534 598.441 102.476 597.578 103.351C597.789 102.951 597.734 102.556 597.782 102.112C597.317 102.632 596.881 102.428 596.358 102.729C595.809 103.056 595.517 103.733 595.006 104.073C595.245 103.496 594.604 102.891 595.018 102.37C594.459 102.582 594.658 103.287 594.273 103.631C593.939 103.926 593.205 104.056 592.836 104.261C592.877 104.122 593.851 102.741 593.112 103.125C592.972 103.21 592.847 103.727 592.642 103.899C592.463 104.02 592.197 104.101 591.982 104.158C591.488 104.283 590.986 104.166 590.541 104.393C590.031 104.657 589.781 105.145 589.519 105.646C589.803 104.727 589.627 104.124 590.421 103.513C590.806 103.194 590.963 102.919 591.236 102.534C591.47 102.211 591.775 102.068 592.084 101.772C591.107 101.513 590.92 102.588 590.109 102.817C590.57 102.45 590.431 101.912 590.58 101.421C590.742 100.943 591.142 100.485 591.612 100.283C591.956 100.129 592.847 100.27 592.796 99.697C592.748 99.022 591.796 99.3867 591.514 99.6068C591.688 99.1165 592.089 98.6332 592.658 98.5109C593.152 98.4116 593.65 98.6811 593.889 98.1038C593.474 97.5065 592.882 98.0983 592.315 98.0682C593.123 97.4195 593.493 96.0202 594.76 96.2752C595.098 96.3491 595.912 97.1366 595.963 96.5409C595.999 96.059 595.15 95.7025 594.784 95.7548C596.015 95.297 597.773 96.1262 598.695 97.1839L598.855 97.354Z" fill="#F9F079"/>
<path d="M591.867 83.9281C590.847 85.6562 589.897 87.3276 589.008 88.9303C588.119 90.5329 591.428 95.8435 594.846 99.468C598.236 103.064 604.575 108.031 606.209 107.218C607.843 106.406 609.545 105.537 611.31 104.601L591.867 83.9281Z" fill="url(#paint1_linear_29_1304)"/>
<path d="M641.936 86.9907C662.758 73.5283 683.628 55.6309 693.365 30.269L669.748 5.15918C644.136 13.6395 625.321 33.7248 610.905 53.9979L597.064 75.2805C595.793 77.3739 594.576 79.3963 593.394 81.3781L613.915 103.197C615.937 102.107 618.008 100.989 620.144 99.8188L641.936 86.9907ZM667.664 31.0146C670.347 33.981 670.247 38.5277 667.399 41.2539C664.554 43.9771 660.042 43.8459 657.247 40.9863C654.562 38.0198 654.67 33.468 657.515 30.7449C660.363 28.0186 664.867 28.1549 667.664 31.0146Z" fill="url(#paint2_linear_29_1304)"/>
<path d="M622.233 105.565L620.143 99.8213L641.936 86.9932C641.157 91.1723 639.91 107.778 639.91 107.778L615.13 128.681L610.575 123.839L622.233 105.565Z" fill="url(#paint3_linear_29_1304)"/>
<path d="M590.226 54.953C590.226 54.953 606.725 54.5649 610.905 54.001L597.064 75.2836L591.488 72.8768L572.788 83.664L568.235 78.8225L590.226 54.953Z" fill="url(#paint4_linear_29_1304)"/>
<path d="M694.43 27.2229C697.104 19.1425 700.247 0.302631 699.985 0.0239488C699.72 -0.25692 680.962 1.97997 672.824 4.25182L694.43 27.2229Z" fill="url(#paint5_linear_29_1304)"/>
<path d="M591.867 83.9289L611.31 104.602L613.916 103.198L593.394 81.3789L591.867 83.9289Z" fill="url(#paint6_linear_29_1304)"/>
<path d="M669.747 5.16173L693.364 30.2716L694.43 27.224L672.825 4.25293L669.747 5.16173Z" fill="url(#paint7_linear_29_1304)"/>
<path d="M667.399 41.2549C670.247 38.5286 670.348 33.982 667.665 31.0156C664.868 28.1559 660.363 28.0196 657.515 30.7458C654.67 33.469 654.563 38.0208 657.248 40.9872C660.042 43.8469 664.555 43.978 667.399 41.2549Z" fill="url(#paint8_linear_29_1304)"/>
<path d="M95.788 466.005V425.346H8.55743L0 403.345L62.6625 259.366H111.247L56.5894 384.408H95.788V349.318L104.898 323.976H143.544V384.408H162.039V417.827L143.544 425.346V466.005H95.788Z" fill="white"/>
<g filter="url(#filter0_d_29_1304)">
<path d="M338.361 327.704C361.806 381.779 337.36 444.79 283.76 468.443C230.159 492.097 167.7 467.434 144.255 413.359C120.809 359.284 145.255 296.273 198.856 272.62C252.457 248.967 314.915 273.629 338.361 327.704Z" fill="#86D3BB"/>
<path d="M199.142 339.287C202.75 347.606 198.989 357.3 190.743 360.94C182.498 364.58 172.888 360.786 169.28 352.467C165.673 344.148 169.433 334.454 177.679 330.814C185.925 327.175 195.534 330.968 199.142 339.287Z" fill="#1F0406"/>
<path d="M298.672 295.756C300.744 298.18 300.353 301.35 297.799 302.836C295.245 304.322 291.495 303.562 289.423 301.138C287.352 298.714 287.743 295.544 290.297 294.058C292.851 292.572 296.601 293.332 298.672 295.756Z" fill="#190306"/>
<path d="M336.1 372.565C339.324 373.697 340.679 378.264 339.126 382.764C337.572 387.264 333.7 389.994 330.475 388.862C327.251 387.729 325.896 383.163 327.449 378.662C329.002 374.162 332.875 371.432 336.1 372.565Z" fill="#2E0508"/>
<path d="M238.214 267.528C238.422 269.362 234.786 271.289 230.093 271.83C225.401 272.372 221.428 271.324 221.219 269.489C221.011 267.655 224.647 265.728 229.34 265.187C234.033 264.645 238.006 265.693 238.214 267.528Z" fill="url(#paint9_linear_29_1304)"/>
<path d="M277.974 431.931C280.251 443.888 270.697 455.79 256.635 458.514C242.574 461.239 229.329 453.754 227.053 441.798C224.777 429.841 234.331 417.94 248.392 415.215C262.454 412.491 275.698 419.975 277.974 431.931Z" fill="#150305"/>
<path d="M205.565 268.34C206.272 269.8 202.059 273.341 196.156 276.251C190.253 279.161 184.894 280.337 184.187 278.877C183.481 277.418 187.694 273.877 193.597 270.967C199.5 268.057 204.859 266.881 205.565 268.34Z" fill="#C00C14"/>
<path d="M206.494 270.258C207.713 272.776 203.916 277.176 198.013 280.086C192.109 282.996 186.335 283.313 185.116 280.795C183.897 278.278 187.694 273.878 193.597 270.968C199.5 268.058 205.275 267.74 206.494 270.258Z" fill="#121514"/>
<path d="M202.187 268.642C202.392 269.067 199.207 271.063 195.073 273.101C190.938 275.139 187.42 276.447 187.214 276.022C187.009 275.598 190.194 273.601 194.328 271.564C198.463 269.526 201.981 268.218 202.187 268.642Z" fill="#400003"/>
<path d="M131.709 386.287C134.215 385.517 138.771 393.258 141.886 403.578C145.001 413.897 145.494 422.886 142.988 423.656C140.482 424.426 135.926 416.684 132.811 406.365C129.696 396.046 129.203 387.057 131.709 386.287Z" fill="url(#paint10_linear_29_1304)"/>
<path d="M135 385.275C139.325 383.947 145.355 391.235 148.47 401.554C151.585 411.873 150.604 421.316 146.279 422.644C141.955 423.973 135.925 416.684 132.81 406.365C129.695 396.046 130.676 386.604 135 385.275Z" fill="#121514"/>
<path d="M131.32 391.842C132.049 391.618 134.408 397.295 136.59 404.523C138.771 411.75 139.948 417.79 139.219 418.014C138.49 418.238 136.131 412.561 133.949 405.334C131.768 398.107 130.591 392.066 131.32 391.842Z" fill="#400104"/>
<path d="M221.057 473.682C221.155 472.283 229.897 471.322 240.581 471.536C251.266 471.75 259.848 473.058 259.75 474.458C259.652 475.857 250.911 476.818 240.226 476.604C229.541 476.39 220.959 475.082 221.057 473.682Z" fill="url(#paint11_linear_29_1304)"/>
<path d="M221.187 471.844C221.356 469.428 230.155 467.644 240.839 467.858C251.524 468.072 260.049 470.204 259.879 472.619C259.71 475.034 250.911 476.819 240.226 476.605C229.542 476.39 221.017 474.259 221.187 471.844Z" fill="#2A0001"/>
<path d="M226.132 474.842C226.161 474.434 232.25 474.226 239.734 474.376C247.217 474.526 253.26 474.977 253.232 475.385C253.203 475.792 247.113 476 239.63 475.85C232.147 475.701 226.104 475.249 226.132 474.842Z" fill="#150303"/>
<path d="M331.124 430.495C329.042 429.539 330.491 421.811 334.362 413.235C338.234 404.66 343.06 398.484 345.143 399.441C347.225 400.397 345.775 408.125 341.904 416.7C338.033 425.276 333.207 431.452 331.124 430.495Z" fill="url(#paint12_linear_29_1304)"/>
<path d="M328.387 429.238C324.793 427.586 325.018 419.296 328.889 410.721C332.76 402.145 338.812 396.532 342.405 398.183C345.999 399.834 345.774 408.124 341.903 416.7C338.032 425.275 331.981 430.889 328.387 429.238Z" fill="#121514"/>
<path d="M334.56 427.083C333.954 426.805 335.661 421.71 338.372 415.704C341.083 409.698 343.772 405.055 344.378 405.333C344.984 405.612 343.278 410.706 340.566 416.712C337.855 422.718 335.166 427.361 334.56 427.083Z" fill="#130406"/>
<path d="M331.688 311.478C330.51 312.288 326.897 309.012 323.619 304.161C320.341 299.31 318.639 294.72 319.817 293.91C320.995 293.1 324.608 296.376 327.886 301.227C331.164 306.078 332.866 310.668 331.688 311.478Z" fill="url(#paint13_linear_29_1304)"/>
<path d="M330.14 312.542C328.107 313.94 323.802 311.141 320.524 306.29C317.246 301.439 316.237 296.373 318.269 294.975C320.302 293.577 324.608 296.376 327.886 301.227C331.164 306.078 332.173 311.144 330.14 312.542Z" fill="#121514"/>
<path d="M330.996 308.527C330.654 308.763 328.515 306.2 326.219 302.803C323.923 299.405 322.34 296.46 322.682 296.224C323.025 295.988 325.164 298.551 327.46 301.949C329.756 305.346 331.339 308.292 330.996 308.527Z" fill="#3D0002"/>
<path d="M265.697 356.153C265.697 361.828 261.136 366.429 255.511 366.429C249.885 366.429 245.325 361.828 245.325 356.153C245.325 350.478 249.885 345.877 255.511 345.877C261.136 345.877 265.697 350.478 265.697 356.153Z" fill="#121514"/>
<path d="M177.692 431.238C175.135 433.461 170.086 431.777 166.414 427.477C162.742 423.178 161.839 417.89 164.396 415.668C166.953 413.445 172.003 415.129 175.674 419.429C179.346 423.729 180.25 429.016 177.692 431.238Z" fill="#121514"/>
<path d="M257.549 286.277C257.549 289.682 252.988 292.442 247.363 292.442C241.738 292.442 237.177 289.682 237.177 286.277C237.177 282.872 241.738 280.111 247.363 280.111C252.988 280.111 257.549 282.872 257.549 286.277Z" fill="#121514"/>
<path d="M317.658 416.29C319.877 418.855 318.24 423.96 314.001 427.691C309.762 431.422 304.527 432.367 302.308 429.801C300.089 427.236 301.726 422.131 305.965 418.4C310.204 414.669 315.439 413.724 317.658 416.29Z" fill="#121514"/>
</g>
<path d="M155.209 281.682L159.957 283.545L175.257 277.956C175.257 277.956 178.407 280.612 180.269 282.48C181.665 283.881 182.751 284.466 183.699 286.206C184.076 286.9 184.73 287.316 184.49 288.069C184.288 288.703 183.784 288.889 183.171 289.134C182.404 289.439 181.878 289.241 181.061 289.134C179.141 288.88 176.84 287.005 176.048 287.537C175.257 288.069 175.174 289.336 174.729 290.996C174.285 292.657 177.449 297.229 176.048 300.843C175.662 301.84 175.681 302.765 174.729 303.239C173.99 303.606 173.41 303.472 172.619 303.239C171.149 302.805 170.892 301.553 169.981 300.311C168.282 297.994 166.816 293.658 166.816 293.658C166.816 293.658 167.835 297.023 168.135 299.247C168.343 300.795 168.778 301.724 168.398 303.239C168.206 304.006 168.264 304.669 167.607 305.101C167.167 305.391 166.813 305.368 166.288 305.368C165.763 305.368 165.446 305.323 164.969 305.101C164.106 304.701 163.906 304.041 163.386 303.239C162.654 302.107 162.567 301.298 162.067 300.045C160.961 297.269 159.429 292.859 159.429 292.859C159.429 292.859 159.944 297.769 159.429 300.843C159.271 301.788 159.703 302.724 158.902 303.239C158.543 303.469 158.271 303.505 157.846 303.505C157.422 303.505 157.175 303.422 156.791 303.239C155.784 302.757 155.72 301.842 155.209 300.843C154.417 299.295 154.206 298.298 153.89 296.585C153.398 293.929 153.234 292.373 153.362 289.666C153.441 287.992 153.498 287.036 153.89 285.408C154.251 283.906 155.209 281.682 155.209 281.682Z" fill="#C0C0C0"/>
<path d="M159.429 207.164C159.429 207.164 176.198 188.934 190.03 182.148C204.802 174.9 231.182 173.365 231.182 173.365C231.182 173.365 241.89 189.014 247.01 199.978C254.705 216.459 260.199 244.688 260.199 244.688L202.428 279.019C202.428 279.019 186.735 260.898 178.687 247.882C169.443 232.933 159.429 207.164 159.429 207.164Z" fill="#CACACA"/>
<path d="M180.005 178.955C166.173 185.742 149.405 203.972 149.405 203.972C149.405 203.972 159.419 229.741 168.662 244.69C176.711 257.706 192.403 275.827 192.403 275.827L202.428 279.021C202.428 279.021 186.735 260.9 178.686 247.883C169.443 232.935 159.429 207.165 159.429 207.165C159.429 207.165 176.197 188.935 190.03 182.149C204.802 174.901 231.182 173.366 231.182 173.366C231.182 173.366 241.89 189.015 247.01 199.98C254.118 215.203 259.348 240.452 260.105 244.215L260.199 244.157C260.199 244.157 256.777 218.409 250.175 203.439C244.564 190.716 231.182 173.366 231.182 173.366L221.158 170.173C221.158 170.173 194.777 171.707 180.005 178.955Z" fill="#ACAAAA"/>
<path d="M149.405 203.972C149.405 203.972 159.419 229.741 168.662 244.69C176.711 257.706 192.403 275.827 192.403 275.827L202.428 279.021C202.428 279.021 186.735 260.9 178.686 247.883C169.443 232.935 159.429 207.165 159.429 207.165L149.405 203.972Z" fill="#BBB8B8"/>
<path d="M166.815 293.657C166.815 293.657 168.282 297.993 169.981 300.311C170.892 301.553 171.149 302.804 172.619 303.238C173.41 303.471 173.99 303.606 174.729 303.238C175.468 302.87 174.909 302.088 174.466 301.641C174.023 301.194 173.436 301.673 172.883 301.375C171.948 300.871 172.123 299.89 171.564 298.98C170.902 297.901 170.349 297.416 169.718 296.319C169.255 295.515 169.397 294.75 168.663 294.189C168.064 293.733 166.815 293.657 166.815 293.657Z" fill="#D6D6D6"/>
<path d="M159.428 292.858C159.428 292.858 160.96 297.268 162.066 300.044C162.566 301.297 162.653 302.106 163.385 303.237C163.905 304.04 164.105 304.7 164.968 305.1C165.445 305.322 165.762 305.367 166.287 305.367C166.812 305.367 166.581 304.73 166.551 304.302C166.496 303.492 166.764 303.36 166.288 302.705C165.577 301.728 165.19 301.911 164.622 300.842C163.926 299.531 163.236 297.924 162.594 296.584C162.093 295.538 162.579 294.781 161.803 293.923C161.359 293.431 160.437 292.968 159.428 292.858Z" fill="#D6D6D6"/>
<path d="M153.89 285.407C153.498 287.036 153.441 287.992 153.362 289.666C153.234 292.373 153.398 293.929 153.89 296.585C154.206 298.298 154.417 299.295 155.209 300.843C155.72 301.842 155.784 302.757 156.791 303.238C157.175 303.422 157.422 303.504 157.846 303.504C157.846 303.504 156.683 299.981 156.264 297.649C155.931 295.797 155.618 294.738 155.736 292.859C155.85 291.048 156.107 290.013 156.791 288.335C157.639 286.256 159.957 283.545 159.957 283.545L155.209 281.682C155.209 281.682 154.251 283.906 153.89 285.407Z" fill="#D6D6D6"/>
<path d="M175.589 197.665C175.549 197.35 175.818 197.087 176.133 197.117C178.194 197.314 179.778 197.276 182.116 197.053C186.794 196.608 189.346 195.583 193.723 193.859C195.828 193.031 196.985 192.498 198.999 191.464C202.794 189.516 204.813 188.172 208.232 185.609C211.519 183.145 213.629 181.962 216.151 178.758C216.302 178.566 216.569 178.505 216.778 178.63C220.105 180.607 220.158 184.063 221.685 186.674C221.685 186.674 215.452 189.007 211.925 192.263C208.106 195.788 205.467 197.1 200.582 199.182C195.982 201.143 192.609 202.009 187.656 202.642C183.344 203.193 178.687 205.835 178.687 205.835C177.015 202.594 175.978 200.705 175.589 197.665Z" fill="url(#paint14_linear_29_1304)"/>
<path d="M259.409 317.343C259.62 316.114 259.409 314.149 259.409 314.149L277.874 318.94L276.555 323.464C276.555 323.464 283.467 330.971 284.469 337.037C284.997 340.23 283.493 347.416 278.929 347.416C270.752 347.416 267.515 343.683 262.838 338.101C258.663 333.119 254.747 328.943 256.507 322.666C257.147 320.383 259.007 319.68 259.409 317.343Z" fill="#C0C0C0"/>
<path d="M276.555 323.463L277.874 318.938H271.279C271.279 318.938 270.016 321.331 270.224 322.93C270.492 324.991 271.709 325.987 273.39 327.189C275.145 328.443 276.899 327.548 278.666 328.785C280.291 329.924 280.688 331.148 281.831 332.777C282.955 334.378 284.469 337.035 284.469 337.035C283.467 330.97 276.555 323.463 276.555 323.463Z" fill="#9C9C9C"/>
<path d="M259.409 317.343C259.007 319.68 257.147 320.383 256.507 322.666C254.747 328.943 258.663 333.119 262.838 338.101C267.515 343.683 270.752 347.416 278.929 347.416C278.929 347.416 273.247 346.027 270.224 343.956C266.905 341.682 265.492 339.671 263.366 336.238C261.974 333.991 261.002 332.711 260.464 330.117C260 327.879 259.737 326.428 260.464 324.262C261.014 322.624 262.154 322.123 262.838 320.537C263.476 319.057 263.893 316.545 263.893 316.545L259.409 314.149C259.409 314.149 259.62 316.114 259.409 317.343Z" fill="#D6D6D6"/>
<path d="M175.891 199.446C177.473 199.978 180.925 200.222 183.489 199.978C188.167 199.533 190.929 198.774 195.306 197.051C197.411 196.222 198.568 195.69 200.582 194.656C204.377 192.707 206.924 191.097 210.342 188.535C213.742 185.986 217.675 183.212 218.995 180.551C219.523 181.083 220.09 182.647 220.684 184.809C220.684 184.809 216.825 191.4 213.298 194.656C209.479 198.181 206.84 199.493 201.955 201.575C197.355 203.536 193.982 204.402 189.029 205.035C184.717 205.586 177.949 203.97 177.949 203.97C177.421 203.97 176.153 201.043 175.891 199.446Z" fill="url(#paint15_linear_29_1304)"/>
<path d="M280.512 175.496C280.512 175.496 282.324 175.341 283.414 174.964C284.635 174.541 285.275 174.138 286.315 173.367C287.49 172.497 287.915 171.736 288.953 170.706C292.071 167.612 297.131 162.988 297.131 162.988C297.131 162.988 298.112 162.547 298.714 162.722C299.209 162.866 299.444 163.117 299.769 163.52C300.06 163.881 300.206 164.129 300.297 164.585C300.42 165.204 300.181 165.567 300.033 166.182C299.364 168.954 296.076 172.183 296.604 172.569L297.131 172.835C297.659 172.835 300.185 170.297 302.407 169.109C303.507 168.521 304.103 168.09 305.309 167.778C306.411 167.493 307.253 166.892 308.211 167.512C308.836 167.917 309.07 168.386 309.266 169.109C309.428 169.711 309.337 170.086 309.266 170.706C308.872 174.138 302.38 175.762 302.935 176.827C303.107 177.158 303.13 177.458 303.462 177.625C303.99 177.891 306.058 177.658 307.683 177.359C309.83 176.964 310.784 175.679 312.959 175.496C313.678 175.436 314.123 175.262 314.805 175.496C315.567 175.757 316.224 176.032 316.388 176.827C316.521 177.47 316.166 177.843 315.861 178.424C315.315 179.463 314.67 179.831 313.75 180.553C312.296 181.694 311.237 181.982 309.53 182.682C307.052 183.697 305.278 183.243 302.935 184.545C301.833 185.156 300.297 185.139 300.297 186.407C300.297 188.27 305.564 189.074 306.1 192.262C306.255 193.184 306.642 193.898 306.1 194.657C305.586 195.378 304.858 195.311 303.99 195.456C301.836 195.815 300.811 194.205 298.714 193.593C296.481 192.941 295.221 192.514 292.91 192.262C290.76 192.028 287.371 192.262 287.371 192.262L286.579 179.488L280.512 175.496Z" fill="#C0C0C0"/>
<path d="M312.959 175.495C310.783 175.677 309.83 176.963 307.683 177.358C307.155 177.624 307.154 177.625 306.891 177.89L306.891 177.89C306.629 178.155 306.291 178.321 306.364 178.688C306.437 179.056 306.805 179.095 307.155 179.221C307.955 179.509 308.472 178.995 309.266 178.688C309.911 178.439 310.19 178.101 310.848 177.89C311.446 177.699 311.811 177.717 312.431 177.624C313.253 177.501 313.728 177.528 314.542 177.358C315.276 177.203 316.552 177.62 316.388 176.825C316.224 176.031 315.567 175.756 314.805 175.495C314.123 175.261 313.677 175.434 312.959 175.495Z" fill="#D6D6D6"/>
<path d="M302.408 169.108C300.296 170.439 298.977 171.504 298.977 171.504C298.977 171.504 298.395 171.995 298.713 172.568C299.129 173.316 300.013 173.354 300.825 173.1C301.456 172.818 301.781 172.597 302.408 172.302C303.119 171.968 303.579 171.908 304.254 171.504C305.196 170.94 305.438 170.23 306.364 169.641C306.949 169.269 307.565 169.423 307.947 168.842C308.238 168.401 309.169 168.131 308.211 167.512C307.253 166.892 306.412 167.493 305.309 167.778C304.104 168.09 303.463 168.443 302.408 169.108Z" fill="#D6D6D6"/>
<path d="M283.414 174.964C282.324 175.341 281.489 174.881 280.512 175.496C278.113 177.007 283.789 179.959 286.579 179.488C288.13 179.226 288.578 178.017 290.009 177.359C290.81 176.991 291.408 177.083 292.119 176.561C292.77 176.083 293.17 175.729 293.438 174.964C293.862 173.752 292.452 173.041 292.647 171.77C292.883 170.23 294.103 169.831 295.021 168.577C295.853 167.439 296.159 166.668 297.131 165.649C298.046 164.69 300.094 163.924 299.769 163.52C299.444 163.117 299.209 162.866 298.714 162.722C298.112 162.547 297.131 162.988 297.131 162.988C297.131 162.988 292.071 167.612 288.954 170.706C287.915 171.736 287.49 172.497 286.316 173.367C285.275 174.138 284.635 174.541 283.414 174.964Z" fill="#D6D6D6"/>
<path d="M228.485 348.645C229.392 347.357 230.898 345.412 230.898 345.412L240.548 347.028L246.746 344.756L251.003 335.441C251.003 335.441 252.031 338.052 252.612 339.753C253.181 341.421 253.686 342.321 253.952 344.064C254.483 347.536 253.783 349.648 252.612 352.957C250.878 357.855 248.459 360.023 244.838 363.735C241.334 367.327 234.651 371.55 234.651 371.55C234.651 371.55 227.353 375.086 223.928 372.628C222.085 371.305 221.37 369.955 220.711 367.777C219.587 364.065 221.455 361.693 222.856 358.077C224.406 354.074 226.017 352.151 228.485 348.645Z" fill="#C0C0C0"/>
<path d="M252.612 339.753C252.031 338.052 251.003 335.441 251.003 335.441C251.003 335.441 245.341 341.009 246.746 344.756C247.494 346.751 249.717 346.744 250.439 348.748C251.542 351.807 249.576 353.856 248.065 356.732C246.859 359.028 245.832 360.124 244.108 362.054C242.155 364.241 241.275 365.196 239.36 367.111C237.572 368.898 234.651 371.55 234.651 371.55C234.651 371.55 241.334 367.327 244.837 363.735C248.459 360.023 250.878 357.855 252.612 352.957C253.783 349.647 254.483 347.536 253.952 344.064C253.685 342.321 253.181 341.421 252.612 339.753Z" fill="#9C9C9C"/>
<path d="M228.485 348.644C226.017 352.15 224.406 354.072 222.856 358.075C221.455 361.691 219.589 364.063 220.711 367.776C221.37 369.956 222.477 371.9 223.928 372.626C223.797 371.792 223.531 372.231 223.269 370.569C223.006 368.907 222.647 367.321 222.856 365.246C223.107 362.743 223.802 361.408 224.851 359.125C225.977 356.678 226.552 355.134 228.485 353.271C229.343 352.444 229.92 352.086 230.898 351.408C234.304 349.046 241.204 350.34 240.549 347.027C239.802 343.247 230.898 345.41 230.898 345.41C230.898 345.41 229.392 347.355 228.485 348.644Z" fill="#D6D6D6"/>
<path d="M176.652 202.018C183.246 202.018 184.965 202.08 190.03 201.043C195.138 199.997 198.001 199.079 202.692 196.785C206.986 194.685 209.346 193.253 212.98 190.132C216.088 187.462 218.52 184.809 220.102 182.414C221.157 183.745 221.105 184.352 222.213 185.075C222.599 185.328 222.83 185.463 223.268 185.607C225.159 186.232 226.085 184.227 228.016 183.745C230.424 183.142 231.873 183.4 234.347 183.212C239.698 182.806 242.713 182.809 248.065 182.414C252.809 182.064 255.51 182.154 260.199 181.349C267.748 180.053 271.281 175.881 278.929 175.494C280.472 175.416 281.377 175.156 282.886 175.494C286.235 176.246 287.447 178.562 289.481 181.349C290.929 183.333 291.993 184.506 292.382 186.938C292.837 189.776 292.699 191.98 290.8 194.124C288.668 196.53 285.842 195.02 282.886 196.253C279.555 197.642 278.423 199.993 274.972 201.043C272.684 201.739 271.218 201.239 268.905 201.841C264.756 202.922 263.126 205.3 259.144 206.898C256.329 208.028 254.736 208.73 251.758 209.293C249.622 209.697 248.387 209.689 246.218 209.825C242.105 210.084 241.733 208.761 236.721 209.825C236.721 211.156 236.75 211.638 237.513 212.753C239.176 215.184 240.461 216.278 242.261 218.608C248.762 227.019 249.588 233.923 257.034 241.495C257.951 242.428 258.712 242.735 259.441 243.824C260.45 245.333 259.855 246.726 260.793 248.281C262.329 250.829 264.402 251.234 267.009 252.639C268.942 253.682 270.298 253.716 272.169 254.868C274.405 256.244 275.349 257.471 277.214 259.326C278.759 260.862 279.435 261.908 280.973 263.451C283.134 265.619 284.989 266.2 286.843 268.64C288.468 270.781 289.233 272.181 290.008 274.761C290.642 276.871 290.916 278.149 290.8 280.35C290.663 282.945 289.664 284.24 288.953 286.737C287.358 292.335 286.962 295.632 284.996 301.108C283.034 306.576 280.578 309.11 278.929 314.681C278.142 317.338 279.282 319.631 277.346 321.601C275.602 323.375 273.755 323.417 271.279 323.463C268.83 323.509 267.398 322.978 265.211 321.867C263.693 321.095 262.809 320.594 261.65 319.338C260.253 317.823 258.333 316.736 258.089 314.681C257.298 308.028 258.494 305.74 259.936 300.31C260.648 297.625 262.321 296.434 262.442 293.657C262.538 291.427 262.217 290.078 261.255 288.068C256.242 285.141 253.341 285.141 243.844 283.278C243.316 283.278 241.734 283.278 240.678 288.334C240.151 291.794 241.089 295.188 242.261 299.778C243.346 304.025 243.651 306.488 244.899 310.689C246.574 316.329 248.216 319.248 250.175 324.794C251.126 327.488 252.154 328.882 252.549 331.713C252.837 333.772 252.888 334.986 252.549 337.036C251.943 340.704 251.077 342.989 248.856 346.085C247.702 347.693 247.175 348.898 245.427 349.81C243.497 350.818 242.06 350.298 239.887 350.343C237.824 350.386 236.638 350.465 234.611 350.077C232.914 349.751 231.816 349.729 230.39 348.746C229.062 347.829 228.706 346.86 227.752 345.552C224.775 341.471 223.66 338.603 221.685 333.843C219.156 327.745 218.357 324.061 216.937 317.609C216.346 314.922 216.208 313.376 215.618 310.689C214.461 305.42 214.985 304.265 212.452 299.512C210.984 296.755 208.52 293.743 207.308 290.862C206.14 288.086 206.65 285.984 205.33 283.278C203.625 279.782 203.747 283.278 199.79 275.294C196.241 268.133 191.876 265.18 189.766 257.463C189.4 256.126 189.258 255.36 188.974 254.003C188.628 252.348 188.509 251.405 188.183 249.745C187.28 245.145 186.864 239.898 185.545 238.035C185.033 237.981 184.74 238.009 184.226 238.035C180.005 238.252 183.505 253.972 179.478 263.052C178.725 264.749 177.861 265.518 177.367 267.31C176.678 269.813 177.909 271.423 177.367 273.963C176.766 276.781 176.086 278.45 174.202 280.616C172.542 282.523 171.317 283.555 168.926 284.342C166.379 285.18 164.733 284.603 162.067 284.342C159.774 284.118 158.254 284.447 156.264 283.278C154.563 282.279 153.587 281.386 152.834 279.552C152.006 277.535 153.067 276.133 152.834 273.963C152.619 271.957 152.097 270.899 151.779 268.907C151.499 267.15 151.013 266.145 151.251 264.382C151.428 263.08 152.003 262.467 152.307 261.189C152.766 259.258 152.791 258.117 152.834 256.132C152.888 253.63 152.184 252.245 152.307 249.745C152.384 248.174 152.633 247.313 152.834 245.753C153.384 241.496 152.959 238.962 154.153 234.842C154.583 233.359 154.812 232.51 155.472 231.116C156.15 229.685 156.71 228.976 157.583 227.656C158.646 226.048 159.435 225.282 160.484 223.664C162.754 220.164 163.04 217.634 165.233 214.083C166.29 212.371 166.833 211.358 168.134 209.825C170.374 207.187 171.651 205.07 174.993 204.237C175.601 204.085 176.114 204.398 176.576 203.971C177.113 203.474 176.454 202.725 176.652 202.018Z" fill="#00B9DC"/>
<path d="M259.443 243.825C258.714 242.736 257.953 242.429 257.035 241.496C249.59 233.924 248.763 227.02 242.263 218.609C240.462 216.279 239.178 215.185 237.515 212.754C236.752 211.639 236.723 209.826 236.723 209.826C236.723 209.826 234.082 209.257 232.765 208.23C229.821 205.932 230.918 198.915 230.391 198.915C224.782 198.916 231.218 207.721 232.239 213.286C232.852 216.634 233.101 218.546 234.085 221.802C235.846 227.628 237.389 230.802 240.68 235.907C244.458 241.768 246.491 245.822 252.551 249.214C257.623 252.053 269.617 254.046 267.01 252.64C264.403 251.235 262.331 250.83 260.795 248.282C259.857 246.727 260.452 245.334 259.443 243.825Z" fill="#009FBD"/>
<path d="M236.721 209.826C241.734 208.762 242.105 210.085 246.218 209.826C250.331 209.568 241.746 208.772 239.359 207.165C237.601 205.981 236.807 205.033 235.402 203.439C233.883 201.714 230.39 198.915 230.39 198.915C230.39 198.915 230.282 201.894 230.654 203.439C231.086 205.229 230.899 206.612 232.237 207.964C233.509 209.248 236.721 209.826 236.721 209.826Z" fill="#009FBD"/>
<path d="M243.845 283.279C253.341 285.141 256.243 285.141 261.255 288.069C262.218 290.079 262.539 291.428 262.442 293.658C262.322 296.435 260.649 297.626 259.936 300.311C258.495 305.74 257.298 308.029 258.09 314.682C258.334 316.737 260.254 317.824 261.651 319.339C263.048 320.854 263.596 318.255 263.629 317.077C263.664 315.86 262.248 315.74 261.651 314.682C260.414 312.492 260.556 310.81 260.728 308.295C260.953 304.982 262.584 303.46 263.629 300.311C264.892 296.507 267.196 294.419 266.531 290.464C265.991 287.248 264.752 285.417 262.31 283.279C259.285 280.628 256.555 279.943 252.55 280.085C248.935 280.213 244.636 281.416 243.845 283.279Z" fill="#009FBD"/>
<path d="M203.995 221.27L205.051 220.472C205.051 220.472 205.416 224.689 205.314 227.391C205.212 230.109 205.287 231.702 204.523 234.31C203.516 237.747 201.437 239 200.039 242.294C199.179 244.319 198.192 247.617 198.192 247.617C198.192 247.617 196.541 240.593 197.401 238.569C198.799 235.274 200.878 234.021 201.885 230.585C202.649 227.976 202.574 226.383 202.676 223.665C203.995 221.27 203.995 221.27 203.995 221.27Z" fill="#009FBD"/>
<path d="M176.576 203.972C176.114 204.399 175.601 204.086 174.993 204.238C171.651 205.071 170.374 207.188 168.134 209.827C166.833 211.359 166.29 212.372 165.233 214.085C163.04 217.635 162.754 220.165 160.484 223.665C159.435 225.283 158.646 226.049 157.583 227.657C156.71 228.977 156.15 229.686 155.472 231.117C154.812 232.511 154.583 233.36 154.153 234.843C152.959 238.963 153.384 241.498 152.834 245.754C152.633 247.314 152.384 248.175 152.307 249.746C152.184 252.246 152.888 253.631 152.834 256.133C152.791 258.119 152.766 259.259 152.307 261.19C152.003 262.468 151.428 263.081 151.251 264.383C151.013 266.146 151.499 267.151 151.779 268.908C152.097 270.9 152.619 271.958 152.834 273.964C153.067 276.134 152.006 277.537 152.834 279.553C153.587 281.387 154.563 282.28 156.264 283.279C158.254 284.448 159.774 284.119 162.067 284.343C164.36 284.568 162.444 273.753 163.386 267.045C164.571 258.607 165.832 253.954 168.134 245.754C170.39 237.722 171.81 233.234 174.993 225.528C178.591 216.819 194.442 207.599 185.809 203.972H176.576Z" fill="#009FBD"/>
<path d="M234.611 350.077C236.638 350.465 239.887 350.343 239.887 350.343C245.135 348.526 236.547 342.281 234.611 337.036C232.86 332.293 231.834 329.642 230.391 324.794C229.226 320.883 229.607 318.312 227.753 314.681C226.271 311.78 224.257 310.911 222.741 308.028C220.079 302.969 220.363 299.36 219.839 293.657C219.392 288.793 219.839 286.033 219.839 281.149C219.839 277.303 220.168 275.133 219.839 271.302C219.559 268.051 220.656 265.502 218.52 263.052C216.813 261.095 215.032 243.826 212.453 243.681C209.491 243.515 207.718 244.567 205.33 246.342C201.136 249.46 195.833 267.31 199.79 275.294C203.747 283.278 203.625 279.782 205.33 283.278C206.65 285.985 206.14 288.086 207.308 290.863C208.52 293.743 210.984 296.756 212.453 299.512C214.985 304.265 214.461 305.421 215.618 310.689C216.208 313.376 216.346 314.922 216.937 317.609L216.978 317.796C218.373 324.133 219.181 327.804 221.685 333.843C223.66 338.603 224.682 341.426 227.753 345.553C228.719 346.851 229.062 347.83 230.391 348.746C231.816 349.73 232.915 349.752 234.611 350.077Z" fill="#009FBD"/>
<path d="M206.587 202.921L207.485 202.361C207.485 202.361 212.217 208.43 214.874 212.579C219.834 220.324 221.014 225.58 225.427 233.656C227.816 238.027 229.377 240.351 231.759 244.726C235.254 251.147 238.126 254.419 240.201 261.439C242.063 267.744 242.311 278.152 242.311 278.152L241.413 278.711C241.413 278.711 241.166 268.304 239.303 261.998C237.229 254.978 234.356 251.706 230.861 245.286C228.479 240.911 226.918 238.586 224.529 234.215C220.116 226.139 218.937 220.884 213.976 213.138C211.319 208.99 206.587 202.921 206.587 202.921Z" fill="#009FBD"/>
<path d="M221.685 184.81C221.685 184.81 222.481 185.317 223.004 185.502C224.06 185.875 224.018 185.714 224.587 185.609C225.642 185.343 226.109 184.46 227.225 184.012C227.922 183.732 228.338 183.634 229.072 183.48C230.387 183.202 231.161 183.301 232.501 183.213C234.971 183.053 236.36 183.059 238.832 182.947C240.996 182.849 242.21 182.807 244.372 182.681C247.259 182.513 248.872 182.334 251.758 182.149C253.509 182.037 256.243 181.883 256.243 181.883C256.723 182.385 256.827 182.815 257.034 183.48C257.868 186.149 256.38 188.176 254.396 190.133C252.16 192.339 249.854 192.167 246.746 192.528C242.722 192.996 240.488 191.614 236.458 191.197C229.17 190.444 217.729 190.133 217.729 190.133L220.103 187.472L221.685 184.81Z" fill="#7FDCED"/>
<path d="M176.84 203.44C176.84 203.44 193.081 204.342 202.56 200.512C211.683 196.826 221.843 184.811 221.843 184.811C222.079 184.998 222.217 185.095 222.476 185.252C222.476 185.252 212.193 197.462 203.22 201.311C193.493 205.482 176.576 203.972 176.576 203.972C176.764 203.795 176.802 203.675 176.84 203.44Z" fill="url(#paint16_linear_29_1304)"/>
<path d="M176.84 203.44C176.84 203.44 193.081 204.342 202.56 200.512C211.683 196.826 221.843 184.811 221.843 184.811C222.079 184.998 222.217 185.095 222.476 185.252C222.476 185.252 212.193 197.462 203.22 201.311C193.493 205.482 176.576 203.972 176.576 203.972C176.764 203.795 176.802 203.675 176.84 203.44Z" fill="#009FBD"/>
<path d="M183.436 220.472H183.963C183.963 220.472 186.266 226.196 186.337 230.052C186.395 233.201 185.018 238.004 185.018 238.004C184.507 238.022 184.715 238.02 184.491 238.02C184.491 238.02 185.909 233.042 185.81 229.786C185.695 226.032 183.436 220.472 183.436 220.472Z" fill="#009FBD"/>
<path d="M143.595 152.926C144.328 149.442 145.179 147.529 146.981 144.41C148.679 141.471 149.965 139.976 152.341 137.491C155.695 133.982 157.959 132.262 162.216 129.773C166.323 127.371 168.9 126.378 173.501 124.982C178.52 123.46 181.493 122.786 186.761 122.587C190.957 122.429 193.362 122.614 197.482 123.386C199.946 123.848 201.372 124.064 203.688 124.982C205.918 125.867 207.119 126.535 209.049 127.91C213.975 131.42 215.323 134.94 218.077 140.152C219.51 142.864 220.143 144.47 221.18 147.337C222.251 150.296 222.914 151.968 223.437 155.055C224.185 159.468 224.672 162.184 223.437 166.499C222.436 169.999 221.143 171.789 218.923 174.749C216.942 177.391 215.616 178.777 212.999 180.87C209.756 183.463 207.428 184.285 203.688 186.193C199.092 188.537 196.531 190.005 191.557 191.515C184.363 193.699 179.747 195.467 172.372 193.91C168.518 193.097 166.408 192.164 163.062 190.185C160.409 188.615 159.103 187.452 156.855 185.394C152.094 181.036 149.659 178.08 146.981 172.354C143.691 165.319 142.009 160.468 143.595 152.926Z" fill="url(#paint17_linear_29_1304)"/>
<path d="M148.304 168.894L161.23 190.184C161.23 190.184 157.34 190.378 155.163 189.386C152.706 188.266 151.732 186.798 150.15 184.595C148.61 182.449 147.904 181.04 147.249 178.474C146.401 175.153 148.304 168.894 148.304 168.894Z" fill="#B7B6B2"/>
<path d="M215.618 141.963C215.618 141.963 220.988 143.859 222.431 144.942C223.66 145.865 224.221 146.584 225.069 147.87C226.405 149.895 226.828 151.318 227.18 153.725C227.435 155.473 227.435 156.501 227.18 158.249C226.828 160.656 222.431 168.044 222.431 168.044L215.618 141.963Z" fill="#B7B7C3"/>
<g filter="url(#filter1_f_29_1304)">
<path d="M220.849 147.374L222.021 146.538C222.021 146.538 223.168 148.371 223.779 149.605C224.611 151.288 224.992 152.279 225.536 154.066C225.799 154.928 226.256 155.407 226.122 156.296C225.992 157.165 224.951 158.248 224.951 158.248C224.951 158.248 224.355 155.497 223.779 153.787C222.902 151.187 220.849 147.374 220.849 147.374Z" fill="#62635E" fill-opacity="0.5"/>
</g>
<path d="M147.777 157.184C148.462 153.7 149.257 151.787 150.942 148.668C152.53 145.729 153.733 144.234 155.954 141.748C159.09 138.24 161.207 136.52 165.187 134.031C169.028 131.628 171.437 130.636 175.739 129.24C180.432 127.718 183.211 127.044 188.137 126.845C192.061 126.687 194.31 126.871 198.162 127.643C200.466 128.105 201.8 128.322 203.965 129.24C206.05 130.125 207.173 130.792 208.977 132.168C213.584 135.678 214.844 139.197 217.419 144.41C218.758 147.122 219.35 148.728 220.321 151.595C221.322 154.554 221.942 156.226 222.431 159.313C223.13 163.726 223.585 166.442 222.431 170.757C221.495 174.257 220.286 176.047 218.21 179.007C216.357 181.649 215.118 183.035 212.67 185.128C209.638 187.721 207.462 188.543 203.965 190.45C199.668 192.795 197.272 194.263 192.622 195.773C185.895 197.957 181.58 199.725 174.684 198.168C171.08 197.355 169.107 196.421 165.978 194.442C163.497 192.873 162.276 191.709 160.175 189.652C155.723 185.294 153.446 182.338 150.942 176.612C147.866 169.577 146.293 164.726 147.777 157.184Z" fill="url(#paint18_linear_29_1304)"/>
<path d="M157.801 161.975C160.175 157.983 161.11 156.615 163.869 153.725C167.028 150.416 169.203 148.914 173.102 146.54C176.89 144.232 179.231 143.275 183.39 141.749C189.193 139.62 192.095 139.088 196.843 139.088C200.199 139.088 202.447 141.195 204.493 143.878C207.131 147.338 207.728 148.131 209.769 152.128C211.398 155.32 213.199 160.644 213.199 160.644C213.199 160.644 214.438 165.168 213.199 167.564C210.033 173.685 204.415 178.584 196.843 183C188.941 187.608 186.555 189.387 174.42 188.854C168.617 187.524 159.745 178.899 157.801 168.628C157.394 166.475 156.683 163.855 157.801 161.975Z" fill="url(#paint19_linear_29_1304)"/>
<path d="M169.144 148.935C172.966 146.061 175.58 144.709 179.96 142.814C184.213 140.973 186.71 139.927 191.303 139.354C192.942 139.15 195.524 139.088 195.524 139.088C195.524 139.088 185.711 149.451 182.334 157.717C178.609 166.836 178.905 182.733 178.905 182.733L167.825 183.798C167.825 183.798 158.011 166.803 159.648 159.846C160.175 157.604 161.67 155.886 163.605 153.725C165.507 151.6 166.868 150.646 169.144 148.935Z" fill="url(#paint20_linear_29_1304)"/>
<path fill-rule="evenodd" clip-rule="evenodd" d="M163.062 153.286C160.2 156.299 159.23 157.726 156.768 161.888C155.737 163.631 156.205 165.985 156.619 168.064C156.671 168.322 156.721 168.577 156.768 168.825C158.785 179.534 167.987 188.528 174.008 189.915C185.996 190.444 188.811 188.786 196.134 184.476L197.267 183.81C205.122 179.206 210.949 174.098 214.232 167.715C215.518 165.217 214.232 160.501 214.232 160.501C214.232 160.501 212.365 154.948 210.675 151.621C208.558 147.452 207.939 146.626 205.203 143.018C203.08 140.22 200.748 138.023 197.267 138.023C192.341 138.023 189.331 138.578 183.311 140.798C178.998 142.389 176.569 143.388 172.639 145.793C168.595 148.269 166.339 149.835 163.062 153.286ZM163.868 153.725C161.109 156.615 160.175 157.983 157.801 161.975C156.807 163.647 157.258 165.903 157.657 167.896C157.706 168.145 157.755 168.39 157.801 168.629C159.745 178.899 168.616 187.524 174.42 188.854C185.977 189.361 188.692 187.772 195.751 183.638C196.103 183.432 196.466 183.219 196.842 183C204.415 178.584 210.032 173.685 213.198 167.564C214.437 165.168 213.198 160.645 213.198 160.645C213.198 160.645 211.398 155.32 209.768 152.128C207.728 148.131 207.13 147.338 204.493 143.878C202.447 141.195 200.198 139.088 196.842 139.088C192.094 139.088 189.192 139.62 183.389 141.749C179.23 143.275 176.889 144.232 173.101 146.54C169.203 148.914 167.027 150.416 163.868 153.725Z" fill="url(#paint21_linear_29_1304)"/>
<path d="M277.05 288.619C279.269 286.509 281.749 282.214 281.749 282.214C281.749 282.214 281.226 283.88 280.809 284.911C279.845 287.291 278.974 288.401 277.05 289.967C275.133 291.527 271.724 292.327 271.724 292.327C271.724 292.327 275.193 290.384 277.05 288.619Z" fill="#009FBD"/>
<g filter="url(#filter2_d_29_1304)">
<path d="M416.002 466.005V425.346H328.771L320.214 403.345L382.876 259.366H431.46L376.803 384.408H416.002V349.318L425.111 323.976H463.758V384.408H482.253V417.827L463.758 425.346V466.005H416.002Z" fill="white"/>
</g>
<path d="M171.987 552.071C169.587 552.071 167.47 551.837 165.637 551.371C163.837 550.904 162.32 550.037 161.087 548.771C159.887 547.504 158.987 545.637 158.387 543.171C157.787 540.704 157.487 537.471 157.487 533.471C157.487 529.471 157.787 526.237 158.387 523.771C158.987 521.271 159.903 519.371 161.137 518.071C162.37 516.737 163.887 515.837 165.687 515.371C167.487 514.871 169.587 514.621 171.987 514.621C174.453 514.621 176.587 514.871 178.387 515.371C180.22 515.837 181.737 516.737 182.937 518.071C184.137 519.371 185.037 521.271 185.637 523.771C186.237 526.237 186.537 529.471 186.537 533.471C186.537 537.471 186.237 540.704 185.637 543.171C185.037 545.637 184.12 547.504 182.887 548.771C181.687 550.037 180.17 550.904 178.337 551.371C176.537 551.837 174.42 552.071 171.987 552.071ZM171.987 547.571C173.72 547.571 175.187 547.387 176.387 547.021C177.62 546.654 178.603 545.987 179.337 545.021C180.103 544.021 180.653 542.604 180.987 540.771C181.32 538.904 181.487 536.471 181.487 533.471C181.487 530.304 181.303 527.771 180.937 525.871C180.603 523.971 180.07 522.537 179.337 521.571C178.603 520.604 177.62 519.954 176.387 519.621C175.187 519.287 173.72 519.121 171.987 519.121C170.353 519.121 168.937 519.287 167.737 519.621C166.537 519.954 165.553 520.604 164.787 521.571C164.02 522.537 163.437 523.971 163.037 525.871C162.67 527.771 162.487 530.304 162.487 533.471C162.487 536.471 162.637 538.904 162.937 540.771C163.27 542.604 163.803 544.021 164.537 545.021C165.303 545.987 166.287 546.654 167.487 547.021C168.72 547.387 170.22 547.571 171.987 547.571ZM206.508 552.071C204.108 552.071 201.992 551.837 200.158 551.371C198.358 550.904 196.842 550.037 195.608 548.771C194.408 547.504 193.508 545.637 192.908 543.171C192.308 540.704 192.008 537.471 192.008 533.471C192.008 529.471 192.308 526.237 192.908 523.771C193.508 521.271 194.425 519.371 195.658 518.071C196.892 516.737 198.408 515.837 200.208 515.371C202.008 514.871 204.108 514.621 206.508 514.621C208.975 514.621 211.108 514.871 212.908 515.371C214.742 515.837 216.258 516.737 217.458 518.071C218.658 519.371 219.558 521.271 220.158 523.771C220.758 526.237 221.058 529.471 221.058 533.471C221.058 537.471 220.758 540.704 220.158 543.171C219.558 545.637 218.642 547.504 217.408 548.771C216.208 550.037 214.692 550.904 212.858 551.371C211.058 551.837 208.942 552.071 206.508 552.071ZM206.508 547.571C208.242 547.571 209.708 547.387 210.908 547.021C212.142 546.654 213.125 545.987 213.858 545.021C214.625 544.021 215.175 542.604 215.508 540.771C215.842 538.904 216.008 536.471 216.008 533.471C216.008 530.304 215.825 527.771 215.458 525.871C215.125 523.971 214.592 522.537 213.858 521.571C213.125 520.604 212.142 519.954 210.908 519.621C209.708 519.287 208.242 519.121 206.508 519.121C204.875 519.121 203.458 519.287 202.258 519.621C201.058 519.954 200.075 520.604 199.308 521.571C198.542 522.537 197.958 523.971 197.558 525.871C197.192 527.771 197.008 530.304 197.008 533.471C197.008 536.471 197.158 538.904 197.458 540.771C197.792 542.604 198.325 544.021 199.058 545.021C199.825 545.987 200.808 546.654 202.008 547.021C203.242 547.387 204.742 547.571 206.508 547.571ZM227.43 551.771V514.921H242.38C243.48 514.921 244.613 515.071 245.78 515.371C246.946 515.637 248.013 516.187 248.98 517.021C249.98 517.821 250.78 519.021 251.38 520.621C251.98 522.221 252.28 524.337 252.28 526.971C252.28 529.604 251.963 531.737 251.33 533.371C250.73 535.004 249.93 536.254 248.93 537.121C247.93 537.987 246.846 538.571 245.68 538.871C244.513 539.171 243.396 539.321 242.33 539.321C241.796 539.321 241.063 539.304 240.13 539.271C239.23 539.237 238.28 539.187 237.28 539.121C236.28 539.054 235.346 538.987 234.48 538.921C233.613 538.854 232.946 538.787 232.48 538.721V551.771H227.43ZM232.48 534.821H241.63C242.696 534.821 243.646 534.587 244.48 534.121C245.346 533.621 246.013 532.821 246.48 531.721C246.98 530.587 247.23 529.021 247.23 527.021C247.23 525.054 246.98 523.521 246.48 522.421C246.013 521.321 245.38 520.554 244.58 520.121C243.78 519.654 242.896 519.421 241.93 519.421H232.48V534.821ZM268.549 552.071C267.749 552.071 266.832 552.037 265.799 551.971C264.799 551.937 263.765 551.871 262.699 551.771C261.665 551.671 260.665 551.571 259.699 551.471C258.765 551.371 257.965 551.237 257.299 551.071V547.171C258.165 547.237 259.199 547.304 260.399 547.371C261.632 547.437 262.932 547.487 264.299 547.521C265.699 547.554 267.049 547.571 268.349 547.571C269.782 547.571 271.049 547.437 272.149 547.171C273.282 546.904 274.165 546.404 274.799 545.671C275.465 544.937 275.799 543.904 275.799 542.571V540.421C275.799 538.921 275.382 537.771 274.549 536.971C273.749 536.171 272.515 535.771 270.849 535.771H267.099C263.899 535.771 261.415 535.071 259.649 533.671C257.915 532.271 257.049 529.871 257.049 526.471V524.471C257.049 520.937 257.999 518.421 259.899 516.921C261.832 515.387 264.565 514.621 268.099 514.621C269.265 514.621 270.515 514.687 271.849 514.821C273.182 514.921 274.482 515.054 275.749 515.221C277.015 515.387 278.065 515.554 278.899 515.721V519.621C277.399 519.521 275.715 519.421 273.849 519.321C272.015 519.187 270.282 519.121 268.649 519.121C267.249 519.121 266.032 519.287 264.999 519.621C263.999 519.921 263.215 520.471 262.649 521.271C262.115 522.071 261.849 523.204 261.849 524.671V526.171C261.849 527.971 262.332 529.221 263.299 529.921C264.265 530.621 265.615 530.971 267.349 530.971H271.399C273.499 530.971 275.215 531.354 276.549 532.121C277.915 532.887 278.932 533.937 279.599 535.271C280.265 536.604 280.599 538.121 280.599 539.821V542.421C280.599 545.021 280.065 547.021 278.999 548.421C277.932 549.821 276.499 550.787 274.699 551.321C272.899 551.821 270.849 552.071 268.549 552.071ZM288.1 541.721L287.45 514.971H292.5L291.75 541.721H288.1ZM288.5 551.821C287.9 551.821 287.6 551.537 287.6 550.971V546.621C287.6 546.021 287.9 545.721 288.5 545.721H291.35C291.95 545.721 292.25 546.021 292.25 546.621V550.971C292.25 551.271 292.15 551.487 291.95 551.621C291.783 551.754 291.583 551.821 291.35 551.821H288.5Z" fill="white"/>
<path d="M93.307 614.779V592.759H101.887C102.527 592.759 103.167 592.849 103.807 593.029C104.467 593.189 105.077 593.509 105.637 593.989C106.197 594.449 106.637 595.139 106.957 596.059C107.297 596.959 107.467 598.149 107.467 599.629C107.467 601.129 107.287 602.349 106.927 603.289C106.567 604.209 106.097 604.919 105.517 605.419C104.937 605.919 104.307 606.259 103.627 606.439C102.967 606.619 102.337 606.709 101.737 606.709C101.437 606.709 100.977 606.709 100.357 606.709C99.757 606.689 99.107 606.669 98.407 606.649C97.707 606.609 97.047 606.579 96.427 606.559C95.827 606.519 95.367 606.479 95.047 606.439V614.779H93.307ZM95.047 605.149H101.527C102.287 605.149 102.987 604.989 103.627 604.669C104.267 604.349 104.777 603.799 105.157 603.019C105.537 602.219 105.727 601.089 105.727 599.629C105.727 598.209 105.537 597.119 105.157 596.359C104.777 595.579 104.287 595.049 103.687 594.769C103.107 594.469 102.467 594.319 101.767 594.319H95.047V605.149ZM108.365 614.779L116.135 592.759H118.385L126.155 614.779H124.325L121.895 607.939H112.595L110.195 614.779H108.365ZM113.045 606.379H121.385L117.245 594.319L113.045 606.379ZM136.089 614.929C134.689 614.949 133.519 614.749 132.579 614.329C131.659 613.909 130.929 613.249 130.389 612.349C129.849 611.429 129.469 610.259 129.249 608.839C129.029 607.399 128.919 605.679 128.919 603.679C128.919 601.779 129.029 600.129 129.249 598.729C129.489 597.329 129.879 596.179 130.419 595.279C130.979 594.359 131.729 593.679 132.669 593.239C133.609 592.799 134.779 592.579 136.179 592.579C136.879 592.579 137.639 592.609 138.459 592.669C139.299 592.709 140.129 592.789 140.949 592.909C141.769 593.009 142.509 593.129 143.169 593.269V594.559C142.789 594.519 142.229 594.469 141.489 594.409C140.749 594.329 139.929 594.269 139.029 594.229C138.149 594.169 137.269 594.139 136.389 594.139C134.909 594.139 133.749 594.469 132.909 595.129C132.069 595.769 131.479 596.789 131.139 598.189C130.819 599.589 130.659 601.439 130.659 603.739C130.659 605.579 130.749 607.119 130.929 608.359C131.109 609.579 131.409 610.559 131.829 611.299C132.269 612.039 132.859 612.569 133.599 612.889C134.359 613.189 135.319 613.339 136.479 613.339C137.479 613.339 138.509 613.199 139.569 612.919C140.649 612.639 141.579 612.339 142.359 612.019V604.849H136.599V603.589C136.979 603.529 137.429 603.479 137.949 603.439C138.469 603.399 139.029 603.369 139.629 603.349C140.229 603.309 140.849 603.289 141.489 603.289C141.989 603.289 142.459 603.299 142.899 603.319C143.339 603.339 143.719 603.369 144.039 603.409V614.779H142.779L142.479 613.219C141.739 613.579 140.799 613.949 139.659 614.329C138.519 614.709 137.329 614.909 136.089 614.929ZM153.412 614.899C152.912 614.899 152.402 614.859 151.882 614.779C151.382 614.679 150.902 614.499 150.442 614.239C150.002 613.959 149.642 613.549 149.362 613.009C149.082 612.449 148.942 611.709 148.942 610.789V596.989C148.942 596.169 149.062 595.489 149.302 594.949C149.542 594.409 149.862 593.979 150.262 593.659C150.662 593.339 151.102 593.109 151.582 592.969C152.082 592.829 152.582 592.759 153.082 592.759C154.222 592.779 155.302 592.799 156.322 592.819C157.362 592.839 158.362 592.869 159.322 592.909C160.302 592.929 161.252 592.959 162.172 592.999V594.349H153.442C152.602 594.349 151.932 594.579 151.432 595.039C150.932 595.479 150.682 596.199 150.682 597.199V603.049L160.912 603.199V604.489L150.682 604.639V610.459C150.682 611.279 150.822 611.889 151.102 612.289C151.402 612.689 151.782 612.959 152.242 613.099C152.702 613.219 153.172 613.279 153.652 613.279H162.172V614.629C161.252 614.669 160.292 614.709 159.292 614.749C158.312 614.769 157.332 614.789 156.352 614.809C155.372 614.849 154.392 614.879 153.412 614.899ZM175.174 614.779V592.759H176.644L188.824 611.749V592.759H190.564V614.779H189.124L176.914 595.789V614.779H175.174ZM202.767 614.959C201.387 614.959 200.167 614.829 199.107 614.569C198.067 614.309 197.197 613.809 196.497 613.069C195.817 612.309 195.297 611.189 194.937 609.709C194.597 608.229 194.427 606.289 194.427 603.889C194.427 601.469 194.597 599.519 194.937 598.039C195.297 596.539 195.827 595.399 196.527 594.619C197.247 593.819 198.127 593.279 199.167 592.999C200.207 592.719 201.407 592.579 202.767 592.579C204.187 592.579 205.417 592.719 206.457 592.999C207.517 593.279 208.387 593.819 209.067 594.619C209.767 595.399 210.277 596.539 210.597 598.039C210.937 599.519 211.107 601.469 211.107 603.889C211.107 606.289 210.937 608.229 210.597 609.709C210.257 611.189 209.737 612.309 209.037 613.069C208.337 613.809 207.467 614.309 206.427 614.569C205.387 614.829 204.167 614.959 202.767 614.959ZM202.767 613.399C203.947 613.399 204.957 613.289 205.797 613.069C206.637 612.829 207.317 612.379 207.837 611.719C208.377 611.059 208.767 610.109 209.007 608.869C209.247 607.609 209.367 605.949 209.367 603.889C209.367 601.729 209.237 599.999 208.977 598.699C208.737 597.399 208.347 596.429 207.807 595.789C207.287 595.129 206.607 594.689 205.767 594.469C204.947 594.249 203.947 594.139 202.767 594.139C201.687 594.139 200.727 594.249 199.887 594.469C199.067 594.689 198.377 595.129 197.817 595.789C197.277 596.429 196.867 597.399 196.587 598.699C196.307 599.999 196.167 601.729 196.167 603.889C196.167 605.949 196.277 607.609 196.497 608.869C196.737 610.109 197.117 611.059 197.637 611.719C198.157 612.379 198.837 612.829 199.677 613.069C200.517 613.289 201.547 613.399 202.767 613.399ZM220.37 614.779V594.319H213.32V592.759H229.16V594.319H222.11V614.779H220.37ZM240.289 614.779V596.989C240.289 596.169 240.409 595.489 240.649 594.949C240.889 594.409 241.209 593.979 241.609 593.659C242.009 593.339 242.449 593.109 242.929 592.969C243.429 592.829 243.929 592.759 244.429 592.759C245.349 592.779 246.319 592.799 247.339 592.819C248.359 592.819 249.389 592.839 250.429 592.879C251.489 592.899 252.519 592.939 253.519 592.999V594.349H244.759C243.939 594.349 243.279 594.589 242.779 595.069C242.279 595.529 242.029 596.239 242.029 597.199V603.499L252.259 603.649V604.939L242.029 605.089V614.779H240.289ZM264.994 614.959C263.614 614.959 262.394 614.829 261.334 614.569C260.294 614.309 259.424 613.809 258.724 613.069C258.044 612.309 257.524 611.189 257.164 609.709C256.824 608.229 256.654 606.289 256.654 603.889C256.654 601.469 256.824 599.519 257.164 598.039C257.524 596.539 258.054 595.399 258.754 594.619C259.474 593.819 260.354 593.279 261.394 592.999C262.434 592.719 263.634 592.579 264.994 592.579C266.414 592.579 267.644 592.719 268.684 592.999C269.744 593.279 270.614 593.819 271.294 594.619C271.994 595.399 272.504 596.539 272.824 598.039C273.164 599.519 273.334 601.469 273.334 603.889C273.334 606.289 273.164 608.229 272.824 609.709C272.484 611.189 271.964 612.309 271.264 613.069C270.564 613.809 269.694 614.309 268.654 614.569C267.614 614.829 266.394 614.959 264.994 614.959ZM264.994 613.399C266.174 613.399 267.184 613.289 268.024 613.069C268.864 612.829 269.544 612.379 270.064 611.719C270.604 611.059 270.994 610.109 271.234 608.869C271.474 607.609 271.594 605.949 271.594 603.889C271.594 601.729 271.464 599.999 271.204 598.699C270.964 597.399 270.574 596.429 270.034 595.789C269.514 595.129 268.834 594.689 267.994 594.469C267.174 594.249 266.174 594.139 264.994 594.139C263.914 594.139 262.954 594.249 262.114 594.469C261.294 594.689 260.604 595.129 260.044 595.789C259.504 596.429 259.094 597.399 258.814 598.699C258.534 599.999 258.394 601.729 258.394 603.889C258.394 605.949 258.504 607.609 258.724 608.869C258.964 610.109 259.344 611.059 259.864 611.719C260.384 612.379 261.064 612.829 261.904 613.069C262.744 613.289 263.774 613.399 264.994 613.399ZM285.293 614.959C284.073 614.959 282.963 614.849 281.963 614.629C280.983 614.389 280.143 614.009 279.443 613.489C278.763 612.969 278.243 612.269 277.883 611.389C277.523 610.489 277.343 609.369 277.343 608.029V592.759H279.083V608.029C279.083 609.429 279.323 610.519 279.803 611.299C280.303 612.059 281.013 612.599 281.933 612.919C282.873 613.219 283.993 613.369 285.293 613.369C286.613 613.369 287.733 613.219 288.653 612.919C289.573 612.599 290.273 612.059 290.753 611.299C291.253 610.519 291.503 609.429 291.503 608.029V592.759H293.243V608.029C293.243 609.369 293.063 610.489 292.703 611.389C292.363 612.269 291.843 612.969 291.143 613.489C290.463 614.009 289.623 614.389 288.623 614.629C287.643 614.849 286.533 614.959 285.293 614.959ZM298.308 614.779V592.759H299.778L311.958 611.749V592.759H313.698V614.779H312.258L300.048 595.789V614.779H298.308ZM318.102 614.779V592.759H326.622C327.922 592.759 329.012 592.989 329.892 593.449C330.792 593.909 331.522 594.609 332.082 595.549C332.662 596.469 333.082 597.619 333.342 598.999C333.602 600.359 333.732 601.949 333.732 603.769C333.732 606.029 333.462 607.979 332.922 609.619C332.402 611.259 331.612 612.529 330.552 613.429C329.512 614.329 328.202 614.779 326.622 614.779H318.102ZM319.842 613.219H326.502C327.782 613.219 328.822 612.829 329.622 612.049C330.422 611.249 331.012 610.139 331.392 608.719C331.792 607.299 331.992 605.649 331.992 603.769C331.992 602.069 331.882 600.619 331.662 599.419C331.462 598.219 331.142 597.249 330.702 596.509C330.262 595.749 329.692 595.199 328.992 594.859C328.312 594.499 327.482 594.319 326.502 594.319H319.842V613.219Z" fill="white"/>
<defs>
<filter id="filter0_d_29_1304" x="119.11" y="259.636" width="228.156" height="221.792" filterUnits="userSpaceOnUse" color-interpolation-filters="sRGB">
<feFlood flood-opacity="0" result="BackgroundImageFix"/>
<feColorMatrix in="SourceAlpha" type="matrix" values="0 0 0 0 0 0 0 0 0 0 0 0 0 0 0 0 0 0 127 0" result="hardAlpha"/>
<feOffset dx="-7"/>
<feGaussianBlur stdDeviation="2"/>
<feColorMatrix type="matrix" values="0 0 0 0 0 0 0 0 0 0 0 0 0 0 0 0 0 0 0.4 0"/>
<feBlend mode="normal" in2="BackgroundImageFix" result="effect1_dropShadow_29_1304"/>
<feBlend mode="normal" in="SourceGraphic" in2="effect1_dropShadow_29_1304" result="shape"/>
</filter>
<filter id="filter1_f_29_1304" x="216.849" y="142.538" width="13.2974" height="19.71" filterUnits="userSpaceOnUse" color-interpolation-filters="sRGB">
<feFlood flood-opacity="0" result="BackgroundImageFix"/>
<feBlend mode="normal" in="SourceGraphic" in2="BackgroundImageFix" result="shape"/>
<feGaussianBlur stdDeviation="2" result="effect1_foregroundBlur_29_1304"/>
</filter>
<filter id="filter2_d_29_1304" x="309.214" y="255.366" width="173.039" height="214.639" filterUnits="userSpaceOnUse" color-interpolation-filters="sRGB">
<feFlood flood-opacity="0" result="BackgroundImageFix"/>
<feColorMatrix in="SourceAlpha" type="matrix" values="0 0 0 0 0 0 0 0 0 0 0 0 0 0 0 0 0 0 127 0" result="hardAlpha"/>
<feOffset dx="-7"/>
<feGaussianBlur stdDeviation="2"/>
<feColorMatrix type="matrix" values="0 0 0 0 0 0 0 0 0 0 0 0 0 0 0 0 0 0 0.4 0"/>
<feBlend mode="normal" in2="BackgroundImageFix" result="effect1_dropShadow_29_1304"/>
<feBlend mode="normal" in="SourceGraphic" in2="effect1_dropShadow_29_1304" result="shape"/>
</filter>
<linearGradient id="paint0_linear_29_1304" x1="563.817" y1="128.212" x2="604.902" y2="90.2486" gradientUnits="userSpaceOnUse">
<stop stop-color="#F67C01"/>
<stop offset="1" stop-color="#BB5E00"/>
</linearGradient>
<linearGradient id="paint1_linear_29_1304" x1="631.83" y1="28.3107" x2="671.351" y2="69.5962" gradientUnits="userSpaceOnUse">
<stop offset="0.213542" stop-color="#D2CECE"/>
<stop offset="1" stop-color="#393535"/>
</linearGradient>
<linearGradient id="paint2_linear_29_1304" x1="631.83" y1="28.3107" x2="671.351" y2="69.5962" gradientUnits="userSpaceOnUse">
<stop offset="0.213542" stop-color="#D2CECE"/>
<stop offset="1" stop-color="#393535"/>
</linearGradient>
<linearGradient id="paint3_linear_29_1304" x1="617.483" y1="96.4401" x2="636.42" y2="116.223" gradientUnits="userSpaceOnUse">
<stop stop-color="#404040"/>
<stop offset="1"/>
</linearGradient>
<linearGradient id="paint4_linear_29_1304" x1="600.351" y1="78.2263" x2="579.767" y2="56.7234" gradientUnits="userSpaceOnUse">
<stop/>
<stop offset="1" stop-color="#7A7A7A"/>
</linearGradient>
<linearGradient id="paint5_linear_29_1304" x1="674.465" y1="0.685198" x2="699.989" y2="27.3487" gradientUnits="userSpaceOnUse">
<stop stop-color="#8C8B8B"/>
<stop offset="1"/>
</linearGradient>
<linearGradient id="paint6_linear_29_1304" x1="587.035" y1="74.4892" x2="621.616" y2="110.614" gradientUnits="userSpaceOnUse">
<stop offset="0.1875" stop-color="white"/>
<stop offset="1" stop-color="#393535"/>
</linearGradient>
<linearGradient id="paint7_linear_29_1304" x1="666.947" y1="-0.359112" x2="701.528" y2="35.7657" gradientUnits="userSpaceOnUse">
<stop offset="0.135417" stop-color="white"/>
<stop offset="1" stop-color="#393535"/>
</linearGradient>
<linearGradient id="paint8_linear_29_1304" x1="667.524" y1="41.9436" x2="656.821" y2="30.7622" gradientUnits="userSpaceOnUse">
<stop offset="0.0885417" stop-color="#212121"/>
<stop offset="1" stop-color="#606060"/>
</linearGradient>
<linearGradient id="paint9_linear_29_1304" x1="229.34" y1="265.186" x2="230.107" y2="271.829" gradientUnits="userSpaceOnUse">
<stop stop-color="#420609"/>
<stop offset="1" stop-color="#DF131E"/>
</linearGradient>
<linearGradient id="paint10_linear_29_1304" x1="143.469" y1="423.974" x2="133.114" y2="384.97" gradientUnits="userSpaceOnUse">
<stop stop-color="#6F060A"/>
<stop offset="1" stop-color="#8C080E"/>
</linearGradient>
<linearGradient id="paint11_linear_29_1304" x1="261.622" y1="473.636" x2="220.983" y2="475.682" gradientUnits="userSpaceOnUse">
<stop stop-color="#2A0001"/>
<stop offset="1" stop-color="#360103"/>
</linearGradient>
<linearGradient id="paint12_linear_29_1304" x1="330.886" y1="430.139" x2="345.353" y2="399.409" gradientUnits="userSpaceOnUse">
<stop stop-color="#380103"/>
<stop offset="1" stop-color="#470205"/>
</linearGradient>
<linearGradient id="paint13_linear_29_1304" x1="318.663" y1="292.443" x2="333.08" y2="310.816" gradientUnits="userSpaceOnUse">
<stop stop-color="#92090E"/>
<stop offset="1" stop-color="#82070C"/>
</linearGradient>
<linearGradient id="paint14_linear_29_1304" x1="211.134" y1="181.617" x2="175.377" y2="201.045" gradientUnits="userSpaceOnUse">
<stop stop-color="#778186"/>
<stop offset="1" stop-color="#474B4C"/>
</linearGradient>
<linearGradient id="paint15_linear_29_1304" x1="211.661" y1="183.212" x2="177.233" y2="201.588" gradientUnits="userSpaceOnUse">
<stop stop-color="#C1C1C1"/>
<stop offset="1" stop-color="#929292"/>
</linearGradient>
<linearGradient id="paint16_linear_29_1304" x1="195.042" y1="198.649" x2="196.651" y2="203.698" gradientUnits="userSpaceOnUse">
<stop stop-color="#D48845"/>
<stop offset="1" stop-color="#4E3219"/>
</linearGradient>
<linearGradient id="paint17_linear_29_1304" x1="146.157" y1="148.616" x2="208.704" y2="158.557" gradientUnits="userSpaceOnUse">
<stop stop-color="#9F9F9F"/>
<stop offset="1" stop-color="#787877"/>
</linearGradient>
<linearGradient id="paint18_linear_29_1304" x1="147.212" y1="158.196" x2="195.488" y2="159.504" gradientUnits="userSpaceOnUse">
<stop stop-color="#CBCBCB"/>
<stop offset="1" stop-color="#828380"/>
</linearGradient>
<linearGradient id="paint19_linear_29_1304" x1="158.856" y1="164.636" x2="212.671" y2="165.944" gradientUnits="userSpaceOnUse">
<stop stop-color="#1B0A5D"/>
<stop offset="0.390625" stop-color="#1B0A5D"/>
<stop offset="0.970597" stop-color="#010005"/>
</linearGradient>
<linearGradient id="paint20_linear_29_1304" x1="195.788" y1="142.015" x2="167.126" y2="162.534" gradientUnits="userSpaceOnUse">
<stop stop-color="#FFF9FF" stop-opacity="0.36"/>
<stop offset="1" stop-color="#1B0A5D" stop-opacity="0"/>
</linearGradient>
<linearGradient id="paint21_linear_29_1304" x1="156.181" y1="164.052" x2="214.744" y2="164.052" gradientUnits="userSpaceOnUse">
<stop stop-color="#5B5C59"/>
<stop offset="1" stop-color="#3F403E"/>
</linearGradient>
</defs>
</svg>
