<svg width="45" height="40" viewBox="0 0 45 40" fill="none" xmlns="http://www.w3.org/2000/svg">
<mask id="mask0_144_4399" style="mask-type:luminance" maskUnits="userSpaceOnUse" x="0" y="0" width="45" height="40">
<path d="M0.399902 0.300049H44.8893V39.18H0.399902V0.300049Z" fill="white"/>
<path d="M0.588084 0.488231H44.7011V38.9919H0.588084V0.488231Z" stroke="white" stroke-width="0.376364"/>
</mask>
<g mask="url(#mask0_144_4399)">
<path d="M42.728 14.8864H38.4461L29.6443 1.52238C28.9784 0.53077 27.645 0.248914 26.652 0.916313C25.675 1.56765 25.3931 2.90098 26.0445 3.89405L33.3041 14.8864H11.9999L19.2595 3.89405C19.9108 2.90098 19.629 1.56765 18.652 0.916313C17.6589 0.248914 16.3256 0.53077 15.6582 1.52238L6.85784 14.8864H2.57597C1.39159 14.8864 0.427734 15.8503 0.427734 17.0361C0.427734 18.2351 1.39159 19.199 2.57597 19.199H3.53983L6.85784 34.2074C7.52524 37.1851 10.1174 39.2589 13.1696 39.2589H32.1343C35.1865 39.2589 37.7787 37.1851 38.4461 34.2074L41.7641 19.199H42.728C43.9123 19.199 44.8762 18.2351 44.8762 17.0361C44.8762 15.8503 43.9123 14.8864 42.728 14.8864ZM17.6297 30.5038C17.6297 31.6882 16.6658 32.6521 15.4814 32.6521C14.2956 32.6521 13.3332 31.6882 13.3332 30.5038V23.6575C13.3332 22.4731 14.2956 21.5093 15.4814 21.5093C16.6658 21.5093 17.6297 22.4731 17.6297 23.6575V30.5038ZM24.8002 30.5038C24.8002 31.6882 23.8378 32.6521 22.652 32.6521C21.4661 32.6521 20.5037 31.6882 20.5037 30.5038V23.6575C20.5037 22.4731 21.4661 21.5093 22.652 21.5093C23.8378 21.5093 24.8002 22.4731 24.8002 23.6575V30.5038ZM31.9707 30.5038C31.9707 31.6882 31.0083 32.6521 29.8225 32.6521C28.6381 32.6521 27.6743 31.6882 27.6743 30.5038V23.6575C27.6743 22.4731 28.6381 21.5093 29.8225 21.5093C31.0083 21.5093 31.9707 22.4731 31.9707 23.6575V30.5038Z" fill="black"/>
<path d="M38.3447 15.0746L38.2889 14.9899L29.4881 1.62729C29.4879 1.62706 29.4878 1.62682 29.4876 1.62659C28.8778 0.719303 27.661 0.46494 26.7569 1.0725L26.7564 1.07289C25.8648 1.66729 25.6077 2.88473 26.2017 3.79066C26.2017 3.79072 26.2018 3.79078 26.2018 3.79084L33.4611 14.7827L33.6539 15.0746H33.3041H11.9999H11.6501L11.8428 14.7827L19.1021 3.79084C19.1022 3.79078 19.1022 3.79072 19.1022 3.79066C19.6963 2.88473 19.4392 1.66729 18.5476 1.07289L18.547 1.0725C17.6431 0.465003 16.4262 0.719197 15.8148 1.62666C15.8146 1.62692 15.8144 1.62719 15.8143 1.62745L7.015 14.9899L6.95924 15.0746H6.85784H2.57597C1.49561 15.0746 0.615916 15.9541 0.615916 17.0361C0.615916 18.132 1.49635 19.0108 2.57597 19.0108H3.53983H3.69095L3.72357 19.1583L7.04146 34.1662C7.68958 37.0579 10.2054 39.0707 13.1696 39.0707H32.1343C35.0983 39.0707 37.614 37.0582 38.2624 34.1668L38.3447 15.0746ZM38.3447 15.0746H38.4461H42.728C43.8083 15.0746 44.688 15.9541 44.688 17.0361C44.688 18.132 43.8076 19.0108 42.728 19.0108H41.7641H41.613L41.5804 19.1583L38.2625 34.1662L38.3447 15.0746ZM15.4814 32.8403C16.7698 32.8403 17.8179 31.7921 17.8179 30.5038V23.6575C17.8179 22.3692 16.7698 21.3211 15.4814 21.3211C14.1916 21.3211 13.145 22.3693 13.145 23.6575V30.5038C13.145 31.7921 14.1916 32.8403 15.4814 32.8403ZM22.652 32.8403C23.9418 32.8403 24.9884 31.7921 24.9884 30.5038V23.6575C24.9884 22.3693 23.9418 21.3211 22.652 21.3211C21.3621 21.3211 20.3156 22.3693 20.3156 23.6575V30.5038C20.3156 31.7921 21.3621 32.8403 22.652 32.8403ZM29.8225 32.8403C31.1123 32.8403 32.1589 31.7921 32.1589 30.5038V23.6575C32.1589 22.3693 31.1123 21.3211 29.8225 21.3211C28.5342 21.3211 27.4861 22.3692 27.4861 23.6575V30.5038C27.4861 31.7921 28.5342 32.8403 29.8225 32.8403Z" stroke="black" stroke-opacity="0.2" stroke-width="0.376364"/>
</g>
</svg>
