<svg width="85" height="61" viewBox="0 0 85 61" fill="none" xmlns="http://www.w3.org/2000/svg">
<g filter="url(#filter0_d_144_4488)">
<path d="M6.7891 2.3999H77.9111C79.3962 2.3999 80.6001 3.83811 80.6001 5.61223V31.2564H4.1001V5.61223C4.1001 3.83811 5.30401 2.3999 6.7891 2.3999Z" fill="black"/>
</g>
<path fill-rule="evenodd" clip-rule="evenodd" d="M77.9111 2.66748C78.5918 2.66748 79.208 2.99707 79.6541 3.52994C80.1002 4.06282 80.3761 4.79897 80.3761 5.61211V30.9886H4.32422V5.61211C4.32422 4.79897 4.60011 4.06282 5.04618 3.52994C5.49224 2.99707 6.10847 2.66748 6.78914 2.66748H77.9111Z" fill="url(#paint0_linear_144_4488)" stroke="white" stroke-width="0.9"/>
<path d="M10.3029 11.4528C11.4448 11.4528 12.3705 10.4395 12.3705 9.18952C12.3705 7.93956 11.4448 6.92627 10.3029 6.92627C9.16103 6.92627 8.23535 7.93956 8.23535 9.18952C8.23535 10.4395 9.16103 11.4528 10.3029 11.4528Z" fill="#E94656"/>
<path d="M16.5056 11.4528C17.6474 11.4528 18.5731 10.4395 18.5731 9.18952C18.5731 7.93956 17.6474 6.92627 16.5056 6.92627C15.3637 6.92627 14.438 7.93956 14.438 9.18952C14.438 10.4395 15.3637 11.4528 16.5056 11.4528Z" fill="#FFD020"/>
<path d="M22.7082 11.4528C23.8501 11.4528 24.7758 10.4395 24.7758 9.18952C24.7758 7.93956 23.8501 6.92627 22.7082 6.92627C21.5663 6.92627 20.6406 7.93956 20.6406 9.18952C20.6406 10.4395 21.5663 11.4528 22.7082 11.4528Z" fill="#2ADEA1"/>
<path d="M76.4651 14.3779H8.23535V34.523H76.4651V14.3779Z" fill="white"/>
<path fill-rule="evenodd" clip-rule="evenodd" d="M75.1891 14.6458C75.6222 14.6458 76.0144 14.8555 76.2982 15.1946C76.5821 15.5337 76.7577 16.0022 76.7577 16.5196V34.7999H55.4199V16.5196C55.4199 16.0022 55.5955 15.5337 55.8794 15.1946C56.1632 14.8555 56.5554 14.6458 56.9885 14.6458H75.1891Z" fill="url(#paint1_linear_144_4488)" stroke="white" stroke-width="0.9"/>
<path fill-rule="evenodd" clip-rule="evenodd" d="M56.7921 14.6458C57.2253 14.6458 57.6174 14.8555 57.9013 15.1946C58.1851 15.5337 58.3607 16.0022 58.3607 16.5196V34.7999H37.0229V16.5196C37.0229 16.0022 37.1985 15.5337 37.4824 15.1946C37.7662 14.8555 38.1584 14.6458 38.5915 14.6458H56.7921Z" fill="url(#paint2_linear_144_4488)" stroke="white" stroke-width="0.9"/>
<path fill-rule="evenodd" clip-rule="evenodd" d="M38.3951 14.6458C38.8283 14.6458 39.2204 14.8555 39.5043 15.1946C39.7881 15.5337 39.9637 16.0022 39.9637 16.5196V34.7999H8.45923V16.5196C8.45923 16.0022 8.6348 15.5337 8.91866 15.1946C9.20251 14.8555 9.59466 14.6458 10.0278 14.6458H38.3951Z" fill="#A999FF" stroke="white" stroke-width="0.9"/>
<path d="M17.1471 28.8916C17.1471 28.2676 17.2821 27.7126 17.5521 27.2266C17.8221 26.7346 18.1971 26.3536 18.6771 26.0836C19.1631 25.8076 19.7121 25.6696 20.3241 25.6696C21.0741 25.6696 21.7161 25.8676 22.2501 26.2636C22.7841 26.6596 23.1411 27.1996 23.3211 27.8836H21.6291C21.5031 27.6196 21.3231 27.4186 21.0891 27.2806C20.8611 27.1426 20.6001 27.0736 20.3061 27.0736C19.8321 27.0736 19.4481 27.2386 19.1541 27.5686C18.8601 27.8986 18.7131 28.3396 18.7131 28.8916C18.7131 29.4436 18.8601 29.8846 19.1541 30.2146C19.4481 30.5446 19.8321 30.7096 20.3061 30.7096C20.6001 30.7096 20.8611 30.6406 21.0891 30.5026C21.3231 30.3646 21.5031 30.1636 21.6291 29.8996H23.3211C23.1411 30.5836 22.7841 31.1236 22.2501 31.5196C21.7161 31.9096 21.0741 32.1046 20.3241 32.1046C19.7121 32.1046 19.1631 31.9696 18.6771 31.6996C18.1971 31.4236 17.8221 31.0426 17.5521 30.5566C17.2821 30.0706 17.1471 29.5156 17.1471 28.8916ZM27.3506 26.9836C27.9266 26.9836 28.3886 27.1756 28.7366 27.5596C29.0846 27.9376 29.2586 28.4596 29.2586 29.1256V32.0596H27.7286V29.3326C27.7286 28.9966 27.6416 28.7356 27.4676 28.5496C27.2936 28.3636 27.0596 28.2706 26.7656 28.2706C26.4716 28.2706 26.2376 28.3636 26.0636 28.5496C25.8896 28.7356 25.8026 28.9966 25.8026 29.3326V32.0596H24.2636V25.3996H25.8026V27.7126C25.9586 27.4906 26.1716 27.3136 26.4416 27.1816C26.7116 27.0496 27.0146 26.9836 27.3506 26.9836ZM17.1021 43.5396C17.1021 43.0236 17.1981 42.5706 17.3901 42.1806C17.5881 41.7906 17.8551 41.4906 18.1911 41.2806C18.5271 41.0706 18.9021 40.9656 19.3161 40.9656C19.6701 40.9656 19.9791 41.0376 20.2431 41.1816C20.5131 41.3256 20.7201 41.5146 20.8641 41.7486V41.0376H22.4031V46.0596H20.8641V45.3486C20.7141 45.5826 20.5041 45.7716 20.2341 45.9156C19.9701 46.0596 19.6611 46.1316 19.3071 46.1316C18.8991 46.1316 18.5271 46.0266 18.1911 45.8166C17.8551 45.6006 17.5881 45.2976 17.3901 44.9076C17.1981 44.5116 17.1021 44.0556 17.1021 43.5396ZM20.8641 43.5486C20.8641 43.1646 20.7561 42.8616 20.5401 42.6396C20.3301 42.4176 20.0721 42.3066 19.7661 42.3066C19.4601 42.3066 19.1991 42.4176 18.9831 42.6396C18.7731 42.8556 18.6681 43.1556 18.6681 43.5396C18.6681 43.9236 18.7731 44.2296 18.9831 44.4576C19.1991 44.6796 19.4601 44.7906 19.7661 44.7906C20.0721 44.7906 20.3301 44.6796 20.5401 44.4576C20.7561 44.2356 20.8641 43.9326 20.8641 43.5486ZM25.0555 41.8746C25.2355 41.5986 25.4605 41.3826 25.7305 41.2266C26.0005 41.0646 26.3005 40.9836 26.6305 40.9836V42.6126H26.2075C25.8235 42.6126 25.5355 42.6966 25.3435 42.8646C25.1515 43.0266 25.0555 43.3146 25.0555 43.7286V46.0596H23.5165V41.0376H25.0555V41.8746ZM30.1651 44.7546V46.0596H29.3821C28.8241 46.0596 28.3891 45.9246 28.0771 45.6546C27.7651 45.3786 27.6091 44.9316 27.6091 44.3136V42.3156H26.9971V41.0376H27.6091V39.8136H29.1481V41.0376H30.1561V42.3156H29.1481V44.3316C29.1481 44.4816 29.1841 44.5896 29.2561 44.6556C29.3281 44.7216 29.4481 44.7546 29.6161 44.7546H30.1651ZM17.0931 54.9206V53.4896H19.5861V60.0596H17.9841V54.9206H17.0931Z" fill="white"/>
<path d="M47.6242 30.8266C47.8282 30.6646 47.9212 30.5896 47.9032 30.6016C48.4912 30.1156 48.9532 29.7166 49.2892 29.4046C49.6312 29.0926 49.9192 28.7656 50.1532 28.4236C50.3872 28.0816 50.5042 27.7486 50.5042 27.4246C50.5042 27.1786 50.4472 26.9866 50.3332 26.8486C50.2192 26.7106 50.0482 26.6416 49.8202 26.6416C49.5922 26.6416 49.4122 26.7286 49.2802 26.9026C49.1542 27.0706 49.0912 27.3106 49.0912 27.6226H47.6062C47.6182 27.1126 47.7262 26.6866 47.9302 26.3446C48.1402 26.0026 48.4132 25.7506 48.7492 25.5886C49.0912 25.4266 49.4692 25.3456 49.8832 25.3456C50.5972 25.3456 51.1342 25.5286 51.4942 25.8946C51.8602 26.2606 52.0432 26.7376 52.0432 27.3256C52.0432 27.9676 51.8242 28.5646 51.3862 29.1166C50.9482 29.6626 50.3902 30.1966 49.7122 30.7186H52.1422V31.9696H47.6242V30.8266Z" fill="#6A7582"/>
<path d="M66.2642 27.3436C66.2882 26.7016 66.4982 26.2066 66.8942 25.8586C67.2902 25.5106 67.8272 25.3366 68.5052 25.3366C68.9552 25.3366 69.3392 25.4146 69.6572 25.5706C69.9812 25.7266 70.2242 25.9396 70.3862 26.2096C70.5542 26.4796 70.6382 26.7826 70.6382 27.1186C70.6382 27.5146 70.5392 27.8386 70.3412 28.0906C70.1432 28.3366 69.9122 28.5046 69.6482 28.5946V28.6306C69.9902 28.7446 70.2602 28.9336 70.4582 29.1976C70.6562 29.4616 70.7552 29.8006 70.7552 30.2146C70.7552 30.5866 70.6682 30.9166 70.4942 31.2046C70.3262 31.4866 70.0772 31.7086 69.7472 31.8706C69.4232 32.0326 69.0362 32.1136 68.5862 32.1136C67.8662 32.1136 67.2902 31.9366 66.8582 31.5826C66.4322 31.2286 66.2072 30.6946 66.1832 29.9806H67.6772C67.6832 30.2446 67.7582 30.4546 67.9022 30.6106C68.0462 30.7606 68.2562 30.8356 68.5322 30.8356C68.7662 30.8356 68.9462 30.7696 69.0722 30.6376C69.2042 30.4996 69.2702 30.3196 69.2702 30.0976C69.2702 29.8096 69.1772 29.6026 68.9912 29.4766C68.8112 29.3446 68.5202 29.2786 68.1182 29.2786H67.8302V28.0276H68.1182C68.4242 28.0276 68.6702 27.9766 68.8562 27.8746C69.0482 27.7666 69.1442 27.5776 69.1442 27.3076C69.1442 27.0916 69.0842 26.9236 68.9642 26.8036C68.8442 26.6836 68.6792 26.6236 68.4692 26.6236C68.2412 26.6236 68.0702 26.6926 67.9562 26.8306C67.8482 26.9686 67.7852 27.1396 67.7672 27.3436H66.2642Z" fill="#6A7582"/>
<defs>
<filter id="filter0_d_144_4488" x="0.500098" y="0.599902" width="83.7" height="36.0564" filterUnits="userSpaceOnUse" color-interpolation-filters="sRGB">
<feFlood flood-opacity="0" result="BackgroundImageFix"/>
<feColorMatrix in="SourceAlpha" type="matrix" values="0 0 0 0 0 0 0 0 0 0 0 0 0 0 0 0 0 0 127 0" result="hardAlpha"/>
<feOffset dy="1.8"/>
<feGaussianBlur stdDeviation="1.8"/>
<feComposite in2="hardAlpha" operator="out"/>
<feColorMatrix type="matrix" values="0 0 0 0 0.552941 0 0 0 0 0.470588 0 0 0 0 1 0 0 0 0.198751 0"/>
<feBlend mode="normal" in2="BackgroundImageFix" result="effect1_dropShadow_144_4488"/>
<feBlend mode="normal" in="SourceGraphic" in2="effect1_dropShadow_144_4488" result="shape"/>
</filter>
<linearGradient id="paint0_linear_144_4488" x1="3806.92" y1="2.66748" x2="3806.92" y2="2834.77" gradientUnits="userSpaceOnUse">
<stop stop-color="white"/>
<stop offset="1" stop-color="#ECEFF7"/>
</linearGradient>
<linearGradient id="paint1_linear_144_4488" x1="2189.19" y1="1022.35" x2="55.4199" y2="1022.35" gradientUnits="userSpaceOnUse">
<stop stop-color="#ECEFF7"/>
<stop offset="1" stop-color="white"/>
</linearGradient>
<linearGradient id="paint2_linear_144_4488" x1="2170.8" y1="1022.35" x2="37.0229" y2="1022.35" gradientUnits="userSpaceOnUse">
<stop stop-color="#ECEFF7"/>
<stop offset="1" stop-color="white"/>
</linearGradient>
</defs>
</svg>
