<svg width="85" height="85" viewBox="0 0 85 85" fill="none" xmlns="http://www.w3.org/2000/svg">
<g clip-path="url(#clip0_1085_389)">
<path d="M66.875 21.5C72.674 21.5 77.375 16.799 77.375 11C77.375 5.20098 72.674 0.499966 66.875 0.499966C61.076 0.499966 56.375 5.20098 56.375 11C56.375 16.799 61.076 21.5 66.875 21.5Z" fill="#005B6C"/>
<path d="M24.875 28.5C22.95 28.5 21.375 26.925 21.375 25C21.375 23.075 22.95 21.5 24.875 21.5H52.98C48.745 15.9 49.2 10.265 49.76 7.49995H14.41C10.56 7.49995 7.41 10.615 7.41 14.5L7.375 69.03C7.375 72.145 11.155 73.72 13.36 71.515L21.375 63.5H70.375C74.225 63.5 77.375 60.35 77.375 56.5V24.895C74.435 27.135 70.83 28.5 66.875 28.5H24.875ZM45.875 49.5H24.875C22.95 49.5 21.375 47.925 21.375 46C21.375 44.075 22.95 42.5 24.875 42.5H45.875C47.8 42.5 49.375 44.075 49.375 46C49.375 47.925 47.8 49.5 45.875 49.5ZM59.875 39H24.875C22.95 39 21.375 37.425 21.375 35.5C21.375 33.575 22.95 32 24.875 32H59.875C61.8 32 63.375 33.575 63.375 35.5C63.375 37.425 61.8 39 59.875 39Z" fill="#005B6C"/>
</g>
<defs>
<clipPath id="clip0_1085_389">
<rect width="84" height="84" fill="white" transform="translate(0.375031 0.499989)"/>
</clipPath>
</defs>
</svg>
