<svg width="104" height="132" viewBox="0 0 104 132" fill="none" xmlns="http://www.w3.org/2000/svg">
<path fill-rule="evenodd" clip-rule="evenodd" d="M87.6031 79.9709H71.7438V72.1959C71.7438 69.6602 69.6406 67.6011 67.0438 67.6011H36.175C33.5813 67.6011 31.4719 69.6602 31.4719 72.1959V79.9709H15.6125C14.7469 79.9709 14.0469 79.2866 14.0469 78.4403V58.7721C14.8625 58.5827 15.6156 58.1763 16.2188 57.5867L27.6625 46.3992C28.5156 45.5652 28.9969 44.4348 28.9969 43.2556C28.9969 42.0733 28.5156 40.9429 27.6625 40.112L16.2188 28.9214C15.6156 28.3318 14.8625 27.9255 14.0469 27.7361V8.06475C14.0469 7.22156 14.7469 6.53418 15.6125 6.53418H31.4719V14.3123C31.4719 16.8479 33.5813 18.907 36.175 18.907H67.0438C69.6406 18.907 71.7438 16.8479 71.7438 14.3123V6.53418H87.6031C88.4688 6.53418 89.1719 7.22156 89.1719 8.06475V27.7361C88.3531 27.9255 87.6031 28.3318 87 28.9214L75.5563 40.1089C74.7 40.9429 74.2219 42.0733 74.2219 43.2556C74.2219 44.4348 74.7 45.5652 75.5563 46.3992L87 57.5867C87.6031 58.1763 88.3531 58.5827 89.1719 58.7721V78.4403C89.1688 79.2866 88.4688 79.9709 87.6031 79.9709ZM54.8094 63.0369H48.4094C47.5438 63.0369 46.8406 62.3495 46.8406 61.5033V58.4941C45.8438 58.1977 44.8781 57.8067 43.9563 57.327L41.7781 59.4534C41.1688 60.0521 40.175 60.0521 39.5625 59.4534L35.0375 55.0266C34.425 54.4309 34.425 53.4594 35.0375 52.8637L37.2125 50.7343C36.7219 49.8331 36.3219 48.8891 36.0188 47.9145H32.9406C32.075 47.9145 31.3719 47.2271 31.3719 46.3809V40.1273C31.3719 39.278 32.075 38.5936 32.9406 38.5936H36.0188C36.3219 37.616 36.7188 36.6751 37.2125 35.7738L35.0375 33.6445C34.4281 33.0457 34.4281 32.0773 35.0375 31.4785L39.5625 27.0548C40.175 26.4591 41.1688 26.456 41.7781 27.0548L43.9563 29.1811C44.8813 28.7015 45.8438 28.3104 46.8406 28.0141V25.0049C46.8406 24.1586 47.5438 23.4743 48.4094 23.4743H54.8094C55.675 23.4743 56.375 24.1586 56.375 25.0049V28.0141C57.3719 28.3104 58.3406 28.7015 59.2625 29.1811L61.4375 27.0548C62.05 26.456 63.0406 26.456 63.6562 27.0548L68.1781 31.4785C68.7938 32.0773 68.7938 33.0457 68.1781 33.6445L66.0031 35.7738C66.4969 36.6751 66.8969 37.616 67.2 38.5936H70.275C71.1406 38.5936 71.8438 39.278 71.8438 40.1273V46.3809C71.8438 47.2271 71.1406 47.9145 70.275 47.9145H67.2C66.8938 48.8891 66.4938 49.8331 66.0031 50.7343L68.1781 52.8637C68.475 53.1478 68.6375 53.5388 68.6375 53.9451C68.6375 54.3545 68.475 54.7425 68.1781 55.0297L63.6562 59.4534C63.0406 60.0521 62.05 60.0521 61.4375 59.4534L59.2625 57.327C58.3406 57.8067 57.3719 58.1977 56.375 58.4941V61.5033C56.375 62.3495 55.675 63.0369 54.8094 63.0369ZM49.975 59.9727H53.2406V57.3148C53.2406 56.5969 53.7531 55.9767 54.4688 55.8209C55.9625 55.494 57.3781 54.9227 58.675 54.1162C59.2938 53.7282 60.1031 53.8138 60.6219 54.324L62.5438 56.2028L64.8531 53.9451L62.9344 52.0663C62.4156 51.5592 62.325 50.7679 62.7188 50.16C63.5469 48.8952 64.1313 47.5112 64.4625 46.0509C64.6219 45.3513 65.2594 44.8503 65.9938 44.8503H68.7094V41.6578H65.9938C65.2594 41.6578 64.6219 41.1568 64.4656 40.4572C64.1344 38.9938 63.5469 37.613 62.7188 36.3482C62.325 35.7433 62.4156 34.949 62.9344 34.4388L64.8531 32.563L62.5438 30.3023L60.6219 32.1811C60.1031 32.6913 59.2938 32.7769 58.675 32.3919C57.3781 31.5854 55.9625 31.0141 54.4688 30.6903C53.7531 30.5345 53.2406 29.9112 53.2406 29.1933V26.5385H49.975V29.1933C49.975 29.9112 49.4656 30.5345 48.7469 30.6903C47.2531 31.0111 45.8375 31.5854 44.5438 32.3919C43.925 32.7769 43.1125 32.6913 42.5938 32.1811L40.6719 30.3023L38.3594 32.563L40.2844 34.4388C40.8031 34.949 40.8906 35.7433 40.4969 36.3482C39.6719 37.613 39.0844 38.9938 38.7531 40.4572C38.5969 41.1568 37.9594 41.6578 37.225 41.6578H34.5094V44.8503H37.225C37.9594 44.8503 38.5969 45.3513 38.7563 46.0509C39.0875 47.5112 39.6719 48.8952 40.4969 50.16C40.8906 50.7679 40.8031 51.5592 40.2844 52.0663L38.3594 53.9451L40.6688 56.2028L42.5906 54.324C43.1156 53.8138 43.925 53.7282 44.5438 54.1162C45.8375 54.9227 47.2531 55.494 48.7469 55.8209C49.4656 55.9767 49.975 56.5969 49.975 57.3148V59.9727ZM51.6094 52.5154C46.3844 52.5154 42.1344 48.3605 42.1344 43.2556C42.1344 38.1476 46.3844 33.9928 51.6094 33.9928C56.8312 33.9928 61.0812 38.1476 61.0812 43.2556C61.0812 48.3605 56.8312 52.5154 51.6094 52.5154ZM51.6094 37.0569C48.1125 37.0569 45.2688 39.834 45.2688 43.2556C45.2688 46.6711 48.1125 49.4512 51.6094 49.4512C55.1063 49.4512 57.9469 46.6711 57.9469 43.2556C57.9469 39.834 55.1063 37.0569 51.6094 37.0569Z" fill="#005B6C"/>
<mask id="mask0_827_11819" style="mask-type:luminance" maskUnits="userSpaceOnUse" x="34" y="0" width="35" height="17">
<path d="M34.3594 0.249512H68.7594V16.3251H34.3594V0.249512Z" fill="white"/>
</mask>
<g mask="url(#mask0_827_11819)">
<path fill-rule="evenodd" clip-rule="evenodd" d="M67.043 15.8427H36.1742C35.3086 15.8427 34.6055 15.1553 34.6055 14.3121V1.82317C34.6055 0.973877 35.3086 0.289551 36.1742 0.289551H67.043C67.9055 0.289551 68.6086 0.973877 68.6086 1.82317V14.3121C68.6086 15.1553 67.9055 15.8427 67.043 15.8427Z" fill="#005B6C"/>
</g>
<mask id="mask1_827_11819" style="mask-type:luminance" maskUnits="userSpaceOnUse" x="0" y="30" width="27" height="27">
<path d="M0 30.4028H26.3625V56.2117H0V30.4028Z" fill="white"/>
</mask>
<g mask="url(#mask1_827_11819)">
<path fill-rule="evenodd" clip-rule="evenodd" d="M13.0031 55.8234C12.6438 55.8234 12.2813 55.689 12.0031 55.4201L0.559375 44.2326C0.00625004 43.6919 0.00625004 42.8151 0.559375 42.2744L12.0031 31.0869C12.2688 30.8302 12.6313 30.6836 13.0031 30.6836C13.3813 30.6836 13.7406 30.8302 14.0063 31.0869L25.45 42.2744C25.7156 42.534 25.8656 42.8854 25.8656 43.255C25.8656 43.6216 25.7156 43.973 25.45 44.2326L14.0063 55.4201C13.7313 55.689 13.3656 55.8234 13.0031 55.8234Z" fill="#005B6C"/>
</g>
<path fill-rule="evenodd" clip-rule="evenodd" d="M90.2156 55.8239C89.8562 55.8239 89.4937 55.6895 89.2156 55.4206L77.775 44.2331C77.5063 43.9734 77.3594 43.6221 77.3594 43.2555C77.3594 42.8859 77.5063 42.5345 77.775 42.2749L89.2156 31.0873C89.4844 30.8307 89.8437 30.6841 90.2156 30.6841C90.5937 30.6841 90.9531 30.8307 91.2187 31.0873L102.662 42.2749C103.216 42.8156 103.216 43.6893 102.662 44.2331L91.2187 55.4176C90.9437 55.6895 90.5813 55.8239 90.2156 55.8239Z" fill="#005B6C"/>
<path fill-rule="evenodd" clip-rule="evenodd" d="M67.0469 86.2187H36.1781C35.3125 86.2187 34.6094 85.5313 34.6094 84.685V72.1961C34.6094 71.3499 35.3125 70.6655 36.1781 70.6655H67.0469C67.9094 70.6655 68.6125 71.3499 68.6125 72.1961V84.685C68.6125 85.5313 67.9094 86.2187 67.0469 86.2187Z" fill="#005B6C"/>
<path fill-rule="evenodd" clip-rule="evenodd" d="M51.6117 105.676C50.7461 105.676 50.043 104.992 50.043 104.142V84.6849C50.043 83.8417 50.7461 83.1543 51.6117 83.1543C52.4742 83.1543 53.1773 83.8417 53.1773 84.6849V104.142C53.1773 104.992 52.4742 105.676 51.6117 105.676Z" fill="#005B6C"/>
<mask id="mask2_827_11819" style="mask-type:luminance" maskUnits="userSpaceOnUse" x="36" y="102" width="31" height="30">
<path d="M36.7617 102.355H66.3617V131.054H36.7617V102.355Z" fill="white"/>
</mask>
<g mask="url(#mask2_827_11819)">
<path fill-rule="evenodd" clip-rule="evenodd" d="M51.6102 131.014C43.5977 131.014 37.082 124.645 37.082 116.815C37.082 108.982 43.5977 102.612 51.6102 102.612C59.6195 102.612 66.1383 108.982 66.1383 116.815C66.1383 124.645 59.6195 131.014 51.6102 131.014Z" fill="#005B6C"/>
</g>
</svg>
