<svg width="125" height="119" viewBox="0 0 125 119" fill="none" xmlns="http://www.w3.org/2000/svg">
<mask id="mask0_827_10699" style="mask-type:luminance" maskUnits="userSpaceOnUse" x="0" y="0" width="125" height="119">
<path d="M0 0.271973H124.8V118.324H0V0.271973Z" fill="white"/>
</mask>
<g mask="url(#mask0_827_10699)">
<path fill-rule="evenodd" clip-rule="evenodd" d="M69.3376 57.697L87.5564 62.3346C87.6408 62.356 87.7252 62.3376 87.7939 62.2796L103.597 48.6969C103.644 48.6572 103.672 48.6083 103.685 48.5472L104.566 43.4148C104.844 41.7865 106.438 40.6775 108.103 40.9494C109.769 41.2243 110.903 42.7793 110.625 44.4107L110.428 45.5503C110.397 45.7458 110.594 45.9016 110.785 45.8252L118.006 42.9749C121.253 41.6948 123.581 42.4463 124.756 45.6511C124.8 45.7672 124.753 45.8894 124.647 45.9535L108.772 55.3752L98.8283 69.352C97.2189 71.6127 95.4658 74.3103 92.6501 74.2064L79.7064 73.7268C79.5564 73.7207 79.4376 73.8367 79.4376 73.9803V93.8227C79.4376 93.9205 79.3814 94.006 79.2877 94.0519L67.4939 99.5753C67.3845 99.6273 67.2564 99.5967 67.1783 99.5051L57.297 87.4469C57.2158 87.3491 57.0814 87.3216 56.9689 87.3797L45.7533 93.2667C45.5814 93.3584 45.372 93.2362 45.372 93.0406V73.9803C45.372 73.8367 45.2501 73.7207 45.1001 73.7268L32.1564 74.2064C29.3408 74.3103 27.5876 71.6127 25.9814 69.352L15.9564 55.3019L0.159522 45.9535C0.0532714 45.8924 0.00952202 45.7672 0.0501468 45.6511C1.22827 42.4463 3.55327 41.6948 6.80015 42.9749L14.4658 45.9993L15.5376 46.3201C17.1564 46.7998 15.5689 44.1724 17.2564 44.1724C18.947 44.1724 20.5158 45.0095 20.797 46.6378L21.1251 48.5472C21.1345 48.6083 21.1626 48.6572 21.2095 48.6969L37.0158 62.2796C37.0814 62.3376 37.1658 62.356 37.2533 62.3346L55.472 57.697C60.2283 56.4873 64.5814 56.4873 69.3376 57.697ZM7.31577 117.765C7.0439 117.909 7.21577 118.318 7.51265 118.232L52.9876 104.912C53.0908 104.885 53.197 104.916 53.2658 104.998L62.7095 116.522C62.7845 116.616 62.9126 116.644 63.022 116.592L108.688 95.2036C108.813 95.1456 108.96 95.1914 109.025 95.3075L111.316 99.1782C111.416 99.3493 111.666 99.3493 111.766 99.1782L121.594 82.5375C121.694 82.3664 121.569 82.1556 121.369 82.1556H101.71C101.51 82.1556 101.385 82.3664 101.485 82.5375L103.819 86.4876C103.894 86.6159 103.844 86.7809 103.706 86.845L66.3876 104.323C66.2751 104.375 66.147 104.347 66.072 104.253L56.2814 92.3074C56.2033 92.2097 56.0658 92.1822 55.9564 92.2433L7.31577 117.765ZM104.806 6.05792C103.747 5.87157 103.041 4.88174 103.231 3.84609C103.419 2.80738 104.435 2.11694 105.494 2.3033L116.728 4.26462C118.069 4.49986 118.744 5.9846 118.069 7.1058C118.066 7.11191 118.066 7.11496 118.063 7.12107L113.056 16.9766C112.581 17.9206 111.416 18.3086 110.45 17.8412C109.488 17.3768 109.091 16.2373 109.569 15.2963L111.797 10.9001C111.906 10.6863 111.675 10.4541 111.453 10.558L84.3533 23.2516C84.0126 23.4105 84.422 23.942 84.0251 25.3871C83.197 28.4085 80.0189 30.2018 76.9283 29.3922C73.7564 28.5612 71.9251 25.3229 72.8876 22.2587C72.922 22.1579 72.8876 22.051 72.8001 21.9868L58.722 11.059C58.6345 10.9948 58.522 10.9857 58.4283 11.0376C56.2251 12.2902 53.4314 11.9938 51.5595 10.28C51.4783 10.2097 51.3689 10.1914 51.2689 10.2372L23.4845 23.2516C23.1439 23.4105 23.5501 23.942 23.1564 25.3871C22.3283 28.4085 19.1501 30.2018 16.0595 29.3922C12.9658 28.5826 11.1314 25.4757 11.9595 22.4543C13.1033 18.2902 18.3658 16.8972 21.5158 19.7811C21.5939 19.8544 21.7064 19.8728 21.8064 19.8269L49.5908 6.81252C49.9314 6.65365 49.522 6.12208 49.9189 4.67705C50.747 1.65563 53.9251 -0.13767 57.0158 0.671913C60.1876 1.50288 62.022 4.74121 61.0564 7.8054C61.0251 7.90622 61.0564 8.01314 61.1439 8.08035L75.222 19.0051C75.3095 19.0723 75.422 19.0784 75.5158 19.0265C77.7189 17.774 80.5158 18.0703 82.3845 19.7842C82.4658 19.8544 82.5783 19.8728 82.6751 19.8269L109.372 7.3227C109.6 7.21578 109.553 6.88584 109.306 6.84307L104.806 6.05792ZM62.4033 32.5572C56.3189 32.5572 51.3876 37.3781 51.3876 43.3262C51.3876 49.2743 56.3189 54.0952 62.4033 54.0952C68.4876 54.0952 73.4189 49.2743 73.4189 43.3262C73.4189 37.3781 68.4876 32.5572 62.4033 32.5572Z" fill="#005B6C"/>
</g>
</svg>
