<svg width="102" height="119" viewBox="0 0 102 119" fill="none" xmlns="http://www.w3.org/2000/svg">
<mask id="mask0_827_10723" style="mask-type:luminance" maskUnits="userSpaceOnUse" x="0" y="0" width="102" height="119">
<path d="M0 0.271973H102V118.019H0V0.271973Z" fill="white"/>
</mask>
<g mask="url(#mask0_827_10723)">
<path d="M27.0586 38.1696C27.0586 30.199 33.7086 23.7132 41.8805 23.7132C50.0523 23.7132 56.6992 30.199 56.6992 38.1696C56.6992 45.966 50.3336 52.3418 42.4055 52.6107C42.2305 52.6168 42.0586 52.6198 41.8805 52.6198C41.7055 52.6198 41.5336 52.6168 41.3586 52.6107C33.4273 52.3418 27.0586 45.9691 27.0586 38.1696ZM9.71797 69.0773L1.87109 98.5399L9.57422 100.492L17.4211 71.0233L9.71797 69.0773ZM42.3086 80.72C42.0305 81.0071 41.718 81.3615 41.3523 81.774C39.7992 83.5306 37.6711 85.9349 34.5336 87.6304C29.4867 90.3494 24.5586 87.3066 22.6742 85.8738L22.4305 85.6875C21.8805 85.272 21.3117 84.8412 21.2148 84.0102C21.118 83.1915 21.5805 82.6416 21.8898 82.275C21.9961 82.1467 22.118 82 22.2617 81.8106L28.2711 73.7667L19.8836 74.9154L13.3836 99.3373L36.7336 117.194C38.018 118.172 39.8836 117.952 40.893 116.699C41.8961 115.446 41.668 113.629 40.3836 112.642H40.3773L28.4398 103.514C27.7055 102.948 27.5773 101.91 28.1523 101.192C28.7305 100.474 29.7961 100.349 30.5305 100.911L42.4742 110.042L47.6805 114.023C48.9648 115.007 50.8305 114.78 51.8398 113.525C52.8461 112.278 52.618 110.461 51.3305 109.474L34.318 96.4686C33.5836 95.9035 33.4555 94.8648 34.0305 94.1468C34.6086 93.4319 35.6742 93.3036 36.4086 93.8658L53.4211 106.871C53.4242 106.874 53.4273 106.874 53.4273 106.874L56.4492 109.19C57.068 109.663 57.843 109.874 58.6305 109.779C59.4211 109.688 60.1211 109.303 60.6055 108.701C61.093 108.093 61.3086 107.335 61.2148 106.566C61.118 105.799 60.7242 105.114 60.1055 104.644L40.2055 89.4238C39.468 88.8586 39.3398 87.8199 39.918 87.1019C40.4961 86.3871 41.5586 86.2618 42.2961 86.8209L62.1867 102.035L62.1961 102.041C63.4836 103.025 65.3461 102.805 66.3523 101.552C66.668 101.161 66.868 100.703 66.943 100.223L42.4648 80.552C42.4148 80.6069 42.3617 80.6619 42.3086 80.72ZM19.993 68.2646C20.3961 68.3868 20.7336 68.6465 20.9461 69.0009C21.1742 69.3797 21.2398 69.8288 21.1273 70.2535L20.8055 71.451L31.0617 70.0457C33.3617 67.174 37.0211 65.8664 40.7023 66.6241L62.8836 71.1975L62.6305 70.2535C62.518 69.8288 62.5836 69.3797 62.8117 69.0009C63.0242 68.6465 63.3617 68.3868 63.7649 68.2646C61.4805 61.2747 52.6242 56.0995 42.4398 55.9162C42.2555 55.9132 42.068 55.9101 41.8805 55.9101C41.6961 55.9101 41.5086 55.9132 41.3242 55.9162C36.1336 56.0079 31.1336 57.3826 27.1961 59.8083C23.5867 62.0293 21.0586 65.008 19.993 68.2646ZM66.3367 71.0233L66.8367 72.8961L66.8586 72.9877L74.0023 99.8108L74.0555 100.012L74.1836 100.492L81.8867 98.5399L74.0398 69.0773L66.3367 71.0233ZM40.0023 69.8594C37.4992 69.3431 35.0992 70.2412 33.593 72.2576L25.1492 83.552C26.9148 84.7984 29.9617 86.3168 32.893 84.7373C35.4992 83.329 37.3992 81.1813 38.7867 79.6141C39.1586 79.1955 39.5086 78.7984 39.8367 78.4593C40.118 78.166 40.293 77.943 40.4336 77.7658C41.6805 76.1924 42.8867 76.7515 43.7992 77.4144C43.9586 77.5275 44.1555 77.6741 44.4211 77.8483C44.4617 77.8788 44.4992 77.9063 44.5367 77.9369L69.5274 98.0175C69.7117 98.0878 69.893 98.1489 70.0742 98.2039L63.8336 74.7688L40.0023 69.8594ZM101.987 34.3691C101.987 44.6065 93.4461 52.9345 82.9492 52.9345C82.6211 52.9345 82.293 52.9284 81.968 52.9101C80.5742 57.4101 78.3805 61.6536 75.5055 65.4296H75.5023C75.2867 65.399 75.0555 65.4082 74.8273 65.4632L70.0367 66.676C73.9305 62.6098 76.8555 57.7217 78.5711 52.4396C70.1805 50.5027 63.9148 43.137 63.9148 34.3722C63.9148 27.7916 67.443 22.0024 72.7492 18.706C65.493 9.20181 54.0867 3.57751 41.8805 3.57751C20.6648 3.57751 3.39922 20.4076 3.39922 41.0993C3.39922 50.6219 7.06484 59.7045 13.7148 66.676L8.93047 65.4632C8.70234 65.4082 8.47109 65.399 8.25547 65.4296C2.91172 58.4183 0.0117188 49.9314 0.0117188 41.0993C0.0117188 18.5869 18.7961 0.271973 41.8805 0.271973C55.3492 0.271973 67.918 6.56227 75.7961 17.1693C78.0055 16.2895 80.4211 15.8068 82.9492 15.8068C93.4461 15.8068 101.987 24.1317 101.987 34.3691ZM84.6461 32.7805V29.032H87.9836C88.9211 29.032 89.6805 28.2896 89.6805 27.3792C89.6805 26.4658 88.9211 25.7265 87.9836 25.7265H84.6461V24.4556C84.6461 23.5421 83.8867 22.8028 82.9492 22.8028C82.0149 22.8028 81.2555 23.5421 81.2555 24.4556V25.7876C78.4117 26.1694 76.2273 28.3049 76.2273 30.8711C76.2273 33.4404 78.4117 35.5759 81.2555 35.9608V39.7154H77.9899C77.0555 39.7154 76.2961 40.4547 76.2961 41.3682C76.2961 42.2786 77.0555 43.021 77.9899 43.021H81.2555V44.2918C81.2555 45.2022 82.0149 45.9446 82.9492 45.9446C83.8867 45.9446 84.6461 45.2022 84.6461 44.2918V42.9599C87.493 42.5749 89.6805 40.4395 89.6805 37.8671C89.6805 35.3009 87.493 33.1654 84.6461 32.7805ZM79.618 30.8711C79.618 31.6379 80.3055 32.3161 81.2555 32.588V29.1603C80.3055 29.4322 79.618 30.1043 79.618 30.8711ZM84.6461 39.5871C85.5961 39.3152 86.2898 38.637 86.2898 37.8671C86.2898 37.1156 85.5899 36.4343 84.6461 36.1563V39.5871Z" fill="#005B6C"/>
</g>
</svg>
