<svg width="104" height="108" viewBox="0 0 104 108" fill="none" xmlns="http://www.w3.org/2000/svg">
<mask id="mask0_827_11820" style="mask-type:luminance" maskUnits="userSpaceOnUse" x="0" y="0" width="104" height="108">
<path d="M0 0.115234H104V107.457H0V0.115234Z" fill="white"/>
</mask>
<g mask="url(#mask0_827_11820)">
<path d="M90.4435 19.683C87.806 15.8245 83.2841 13.6188 78.5716 13.8021C76.3123 13.9854 74.2373 14.5353 72.3529 15.6381C71.7873 15.8245 71.2216 16.7441 70.4685 17.294C69.5279 18.3968 68.3966 19.4997 67.2654 20.0527L66.5123 20.6026C65.9466 20.7859 65.381 20.7859 64.8154 20.4193L64.6279 20.236C64.0623 19.683 63.8748 18.9498 64.0623 18.3968C65.381 14.5353 65.0029 8.47106 62.1779 4.97611C60.2935 2.58708 56.1466 1.30091 53.131 0.747951C52.1904 0.381348 51.0591 0.381348 50.306 0.381348C44.2748 0.381348 39.3748 3.87324 37.4904 9.39062C36.7373 11.7797 33.9091 13.2491 31.2716 12.5129C29.9529 12.1463 28.4466 11.963 27.1279 11.963C22.2279 11.963 17.7029 14.352 14.8779 18.3968C12.0498 22.4417 11.4841 27.4061 13.3685 32.0009C13.9341 33.287 13.9341 34.5763 13.3685 35.8624C12.8029 37.1486 11.8623 38.0682 10.356 38.4348C6.02163 39.9073 2.62788 43.5825 1.30913 48.1772C-0.00962406 52.5917 0.743501 57.1865 3.57163 60.6784C6.39663 64.1734 10.731 66.1958 15.4435 66.1958C15.631 66.1958 16.0091 66.1958 16.1966 66.1958C19.3998 66.0094 22.2279 64.9066 24.4873 63.0705C25.431 62.3342 26.5623 61.9676 27.6904 61.9676H52.0029H52.1904H52.3779H81.9654C82.7185 61.9676 83.4716 62.1509 84.2248 62.5175C85.5466 63.0705 87.0529 63.6204 88.5591 63.8037C89.1248 63.8037 89.6904 63.9901 90.4435 63.9901C94.2123 63.9901 97.9841 62.5175 100.622 59.9452C102.319 58.2894 103.259 56.2669 103.637 53.8779C104.39 47.9939 101.187 40.2739 94.5904 38.2515C93.2716 37.8848 92.1404 36.9653 91.5748 35.6791C91.0091 34.3899 91.0091 33.1037 91.5748 31.8176C93.2716 27.956 92.8935 23.3613 90.4435 19.683ZM52.1904 58.4727C40.8841 58.4727 31.8373 49.4665 31.8373 38.6181C31.8373 27.5894 41.0716 18.7634 52.1904 18.7634C55.3935 18.7634 58.4091 19.4997 61.0466 20.7859C67.831 24.0975 72.5435 30.898 72.5435 38.6181C72.5435 49.6498 63.4966 58.4727 52.1904 58.4727ZM90.0685 67.8485V85.4974C95.3435 86.417 99.3029 90.8285 99.3029 96.1595C99.3029 102.227 94.2123 107.005 88.1841 107.005C82.1529 107.005 77.0654 102.043 77.0654 96.1595C77.0654 90.6452 81.2123 86.2337 86.4873 85.3141V67.2986C87.6185 67.6652 88.9373 67.8485 90.0685 67.8485ZM52.1904 22.4417H52.0029C42.956 22.625 35.606 29.7951 35.606 38.6181C35.606 47.444 42.956 54.6142 52.0029 54.7975H52.1904C61.4248 54.7975 68.7748 47.444 68.7748 38.6181C68.7748 29.7951 61.4248 22.4417 52.1904 22.4417ZM57.8435 45.0519C57.0904 46.5245 55.7716 47.6273 54.0748 47.9939V49.6498C54.0748 50.5693 53.131 51.4889 52.1904 51.4889C51.0591 51.4889 50.306 50.5693 50.306 49.6498V48.1772C48.7966 47.8106 47.4779 47.0744 46.5373 45.9715C45.9716 45.0519 46.1591 43.9491 46.9123 43.3992C47.856 42.8462 48.9873 43.0326 49.5529 43.7658C49.9279 44.3187 50.8716 44.6853 51.8123 44.6853H52.0029C52.756 44.6853 53.8873 44.3187 54.2623 43.3992C54.4498 42.8462 54.6404 42.4796 54.4498 42.2963C54.2623 41.7433 52.3779 41.1934 51.2466 40.8238C50.4935 40.6405 49.7404 40.2739 48.9873 39.9073C46.5373 38.8044 45.2185 36.782 45.5935 34.5763C45.7841 32.3675 47.4779 30.345 49.9279 29.4285V27.7727C49.9279 26.8531 50.681 25.9336 51.8123 25.9336C52.756 25.9336 53.6966 26.8531 53.6966 27.7727V28.8756C55.206 29.0589 56.7123 29.9784 57.656 31.2646C58.2216 32.1842 58.031 33.287 57.0904 33.84C56.1466 34.3899 55.0154 34.2066 54.4498 33.287C54.2623 32.9204 53.6966 32.0009 52.1904 32.3675C50.8716 32.7371 49.5529 33.84 49.5529 34.7596C49.5529 35.3095 49.9279 35.8624 50.8716 36.4123C51.2466 36.5956 52.0029 36.782 52.5654 36.9653C54.6404 37.6985 57.0904 38.4348 58.031 40.6405C58.7841 42.113 58.5966 43.5825 57.8435 45.0519ZM54.0748 65.8261V85.4974C58.9748 86.6003 62.556 91.0118 62.556 96.1595C62.556 102.227 57.4654 107.005 51.4373 107.005C45.406 107.005 40.3185 102.043 40.3185 96.1595C40.3185 90.4619 44.6529 85.864 50.306 85.3141V65.8261H54.0748ZM18.081 70.0543V85.4974C23.356 86.2337 27.5029 90.8285 27.5029 96.3428C27.5029 102.41 22.4154 107.191 16.3841 107.191C10.356 107.191 5.26538 102.227 5.26538 96.3428C5.26538 91.0118 9.22475 86.6003 14.4998 85.6807V70.4239C14.8779 70.4239 15.2529 70.4239 15.631 70.4239C16.3841 70.2376 17.3279 70.0543 18.081 70.0543Z" fill="#005B6C"/>
</g>
</svg>
