<svg width="50" height="49" viewBox="0 0 50 49" fill="none" xmlns="http://www.w3.org/2000/svg">
<path d="M11.1364 40L0 48.75V2.5C0 1.1193 1.1193 0 2.5 0H47.5C48.8807 0 50 1.1193 50 2.5V37.5C50 38.8807 48.8807 40 47.5 40H11.1364ZM22.5 27.5V32.5H27.5V27.5H22.5ZM16.4183 14.5337L21.322 15.5144C21.664 13.7956 23.1808 12.5 25 12.5C27.071 12.5 28.75 14.1789 28.75 16.25C28.75 18.321 27.071 20 25 20H22.5V25H25C29.8325 25 33.75 21.0825 33.75 16.25C33.75 11.4175 29.8325 7.5 25 7.5C20.755 7.5 17.2159 10.523 16.4183 14.5337Z" fill="white"/>
</svg>
