<svg width="908" height="394" viewBox="0 0 908 394" fill="none" xmlns="http://www.w3.org/2000/svg">
<g clip-path="url(#clip0_1093_2011)">
<path d="M819.262 162.537H286.391C284.128 162.537 281.958 163.436 280.359 165.035C278.759 166.635 277.86 168.805 277.86 171.068C277.86 173.331 278.759 175.5 280.359 177.1C281.958 178.7 284.128 179.599 286.391 179.599H301.485V383.691C301.485 385.954 302.383 388.124 303.983 389.724C305.583 391.324 307.753 392.222 310.016 392.222C312.278 392.222 314.448 391.324 316.048 389.724C317.648 388.124 318.547 385.954 318.547 383.691L318.677 179.599H746.36L785.793 383.691C785.793 385.954 786.692 388.124 788.292 389.724C789.892 391.324 792.062 392.222 794.324 392.222C796.587 392.222 798.757 391.324 800.357 389.724C801.957 388.124 802.856 385.954 802.856 383.691L805.338 179.599H819.262C821.524 179.599 823.694 178.7 825.294 177.1C826.894 175.5 827.793 173.331 827.793 171.068C827.793 168.805 826.894 166.635 825.294 165.035C823.694 163.436 821.524 162.537 819.262 162.537Z" fill="#DEDEDE"/>
<path d="M378.757 124.523V160.65H288.245C285.873 160.733 283.508 160.347 281.284 159.516C279.061 158.684 277.024 157.423 275.288 155.804C273.552 154.185 272.152 152.24 271.168 150.08C270.184 147.92 269.635 145.587 269.553 143.215C269.47 140.843 269.856 138.478 270.687 136.255C271.519 134.031 272.78 131.994 274.399 130.258C276.018 128.522 277.963 127.122 280.123 126.138C282.283 125.154 284.616 124.605 286.988 124.523C287.407 124.508 287.826 124.508 288.245 124.523L378.757 124.523Z" fill="#F2F2F2"/>
<path d="M380.98 160.372C380.98 160.741 380.834 161.094 380.573 161.355C380.313 161.615 379.959 161.762 379.591 161.762H286.633C281.586 161.758 276.748 159.751 273.181 156.181C269.614 152.612 267.61 147.772 267.61 142.725C267.61 137.679 269.614 132.839 273.181 129.269C276.748 125.7 281.586 123.693 286.633 123.689H379.591C379.774 123.689 379.955 123.724 380.124 123.794C380.293 123.864 380.446 123.966 380.576 124.095C380.705 124.224 380.808 124.377 380.878 124.546C380.948 124.715 380.984 124.896 380.984 125.079C380.984 125.261 380.948 125.443 380.878 125.611C380.808 125.78 380.705 125.933 380.576 126.063C380.446 126.192 380.293 126.294 380.124 126.364C379.955 126.433 379.774 126.469 379.591 126.468H286.633C282.325 126.475 278.197 128.19 275.153 131.239C272.11 134.287 270.4 138.418 270.4 142.725C270.4 147.033 272.11 151.164 275.153 154.212C278.197 157.261 282.325 158.976 286.633 158.983H379.591C379.959 158.983 380.313 159.129 380.573 159.39C380.834 159.65 380.98 160.004 380.98 160.372Z" fill="#005B6C"/>
<path d="M378.757 132.86H281.491C281.418 132.86 281.347 132.832 281.295 132.78C281.243 132.728 281.213 132.658 281.212 132.585C281.211 132.511 281.24 132.44 281.291 132.388C281.343 132.335 281.413 132.305 281.486 132.304H378.757C378.83 132.305 378.9 132.335 378.952 132.387C379.003 132.439 379.032 132.509 379.032 132.582C379.032 132.655 379.003 132.726 378.952 132.778C378.9 132.83 378.83 132.859 378.757 132.86Z" fill="#DEDEDE"/>
<path d="M378.757 139.53H281.491C281.418 139.53 281.347 139.501 281.295 139.45C281.243 139.398 281.213 139.328 281.212 139.254C281.211 139.181 281.24 139.11 281.291 139.057C281.343 139.005 281.413 138.975 281.486 138.974H378.757C378.83 138.975 378.9 139.004 378.952 139.056C379.003 139.108 379.032 139.178 379.032 139.252C379.032 139.325 379.003 139.395 378.952 139.447C378.9 139.499 378.83 139.529 378.757 139.53Z" fill="#DEDEDE"/>
<path d="M378.757 146.199H281.491C281.418 146.2 281.347 146.171 281.295 146.119C281.243 146.068 281.213 145.997 281.212 145.924C281.211 145.85 281.24 145.78 281.291 145.727C281.343 145.675 281.413 145.644 281.486 145.643H378.757C378.83 145.644 378.9 145.674 378.952 145.726C379.003 145.778 379.032 145.848 379.032 145.921C379.032 145.995 379.003 146.065 378.952 146.117C378.9 146.169 378.83 146.199 378.757 146.199Z" fill="#DEDEDE"/>
<path d="M378.757 152.869H281.491C281.418 152.869 281.347 152.84 281.295 152.789C281.243 152.737 281.213 152.667 281.212 152.593C281.211 152.52 281.24 152.449 281.291 152.397C281.343 152.344 281.413 152.314 281.486 152.313H378.757C378.83 152.314 378.9 152.343 378.952 152.395C379.003 152.447 379.032 152.518 379.032 152.591C379.032 152.664 379.003 152.734 378.952 152.786C378.9 152.839 378.83 152.868 378.757 152.869Z" fill="#DEDEDE"/>
<path d="M361.695 86.4606V122.588H271.182C266.392 122.755 261.731 121.011 258.226 117.742C254.72 114.472 252.657 109.943 252.49 105.153C252.324 100.362 254.067 95.7011 257.337 92.1957C260.607 88.6903 265.135 86.6273 269.926 86.4606C270.344 86.4461 270.763 86.4461 271.182 86.4606H361.695Z" fill="#F2F2F2"/>
<path d="M363.918 122.31C363.918 122.679 363.771 123.032 363.511 123.292C363.25 123.553 362.897 123.699 362.528 123.7H269.57C264.522 123.7 259.68 121.694 256.11 118.124C252.54 114.554 250.534 109.712 250.534 104.663C250.534 99.6146 252.54 94.7727 256.11 91.2027C259.68 87.6327 264.522 85.6271 269.57 85.6271H362.528C362.711 85.6271 362.892 85.663 363.06 85.7328C363.229 85.8027 363.382 85.905 363.511 86.034C363.64 86.1631 363.742 86.3163 363.812 86.4848C363.882 86.6534 363.918 86.8341 363.918 87.0166C363.918 87.1991 363.882 87.3797 363.812 87.5483C363.742 87.7169 363.64 87.8701 363.511 87.9991C363.382 88.1281 363.229 88.2305 363.06 88.3003C362.892 88.3701 362.711 88.4061 362.528 88.4061H269.57C265.259 88.4061 261.124 90.1189 258.075 93.1677C255.026 96.2166 253.313 100.352 253.313 104.663C253.313 108.975 255.026 113.11 258.075 116.159C261.124 119.208 265.259 120.921 269.57 120.921H362.528C362.897 120.921 363.25 121.067 363.511 121.328C363.771 121.588 363.918 121.942 363.918 122.31Z" fill="#3F3D56"/>
<path d="M361.695 94.7977H264.429C264.356 94.7981 264.285 94.7694 264.233 94.7178C264.18 94.6662 264.15 94.5959 264.15 94.5224C264.149 94.4489 264.178 94.3781 264.229 94.3255C264.28 94.273 264.35 94.2429 264.424 94.2419H361.695C361.768 94.2427 361.838 94.2723 361.889 94.3243C361.941 94.3763 361.97 94.4466 361.97 94.5198C361.97 94.593 361.941 94.6633 361.889 94.7154C361.838 94.7674 361.768 94.797 361.695 94.7977Z" fill="#DEDEDE"/>
<path d="M361.695 101.467H264.429C264.356 101.468 264.285 101.439 264.233 101.387C264.18 101.336 264.15 101.266 264.15 101.192C264.149 101.119 264.178 101.048 264.229 100.995C264.28 100.943 264.35 100.913 264.424 100.912H361.695C361.768 100.912 361.838 100.942 361.889 100.994C361.941 101.046 361.97 101.116 361.97 101.19C361.97 101.263 361.941 101.333 361.889 101.385C361.838 101.437 361.768 101.467 361.695 101.467Z" fill="#DEDEDE"/>
<path d="M361.695 108.137H264.429C264.356 108.137 264.285 108.109 264.233 108.057C264.18 108.005 264.15 107.935 264.15 107.862C264.149 107.788 264.178 107.717 264.229 107.665C264.28 107.612 264.35 107.582 264.424 107.581H361.695C361.768 107.582 361.838 107.612 361.889 107.664C361.941 107.716 361.97 107.786 361.97 107.859C361.97 107.932 361.941 108.003 361.889 108.055C361.838 108.107 361.768 108.136 361.695 108.137Z" fill="#DEDEDE"/>
<path d="M361.695 114.807H264.429C264.356 114.807 264.285 114.778 264.233 114.727C264.18 114.675 264.15 114.605 264.15 114.531C264.149 114.458 264.178 114.387 264.229 114.335C264.28 114.282 264.35 114.252 264.424 114.251H361.695C361.768 114.252 361.838 114.281 361.889 114.333C361.941 114.385 361.97 114.456 361.97 114.529C361.97 114.602 361.941 114.672 361.889 114.724C361.838 114.776 361.768 114.806 361.695 114.807Z" fill="#DEDEDE"/>
<path d="M466.988 290.375V258.876C466.988 257.483 466.435 256.148 465.45 255.163C464.466 254.179 463.13 253.626 461.738 253.626H342.301C340.909 253.626 339.574 254.179 338.589 255.163C337.605 256.148 337.052 257.483 337.052 258.876V290.375H466.988Z" fill="#DEDEDE"/>
<path d="M466.988 302.188H337.051V342.875H466.988V302.188Z" fill="#DEDEDE"/>
<path d="M337.052 354.687V386.187C337.052 387.58 337.605 388.915 338.589 389.899C339.574 390.884 340.909 391.437 342.301 391.437H461.738C463.13 391.437 464.466 390.884 465.45 389.899C466.435 388.915 466.988 387.58 466.988 386.187V354.687H337.052Z" fill="#DEDEDE"/>
<path d="M401.364 277.251C403.538 277.251 405.301 275.488 405.301 273.313C405.301 271.138 403.538 269.376 401.364 269.376C399.189 269.376 397.426 271.138 397.426 273.313C397.426 275.488 399.189 277.251 401.364 277.251Z" fill="white"/>
<path d="M401.364 329.75C403.538 329.75 405.301 327.987 405.301 325.813C405.301 323.638 403.538 321.875 401.364 321.875C399.189 321.875 397.426 323.638 397.426 325.813C397.426 327.987 399.189 329.75 401.364 329.75Z" fill="white"/>
<path d="M401.574 381.138C403.749 381.138 405.512 379.375 405.512 377.2C405.512 375.026 403.749 373.263 401.574 373.263C399.4 373.263 397.637 375.026 397.637 377.2C397.637 379.375 399.4 381.138 401.574 381.138Z" fill="white"/>
<path d="M452.256 217.71V253.837H361.744C356.956 254 352.298 252.255 348.795 248.986C345.293 245.717 343.231 241.19 343.065 236.402C342.898 231.613 344.639 226.954 347.906 223.449C351.173 219.944 355.698 217.88 360.486 217.71C360.905 217.695 361.325 217.695 361.744 217.71H452.256Z" fill="#F2F2F2"/>
<path d="M454.48 253.559C454.48 253.927 454.333 254.281 454.073 254.541C453.812 254.802 453.459 254.948 453.09 254.949H360.132C355.085 254.95 350.243 252.946 346.672 249.379C343.102 245.811 341.094 240.971 341.091 235.924C341.088 230.876 343.09 226.034 346.656 222.462C350.223 218.89 355.062 216.881 360.109 216.876H453.09C453.273 216.876 453.454 216.911 453.623 216.981C453.792 217.05 453.946 217.153 454.075 217.282C454.205 217.411 454.307 217.564 454.377 217.733C454.447 217.902 454.483 218.083 454.483 218.265C454.483 218.448 454.447 218.629 454.377 218.798C454.307 218.967 454.205 219.12 454.075 219.249C453.946 219.378 453.792 219.481 453.623 219.55C453.454 219.62 453.273 219.655 453.09 219.655H360.132C355.824 219.661 351.695 221.376 348.65 224.424C345.606 227.472 343.896 231.604 343.896 235.912C343.896 240.22 345.606 244.352 348.65 247.4C351.695 250.449 355.824 252.164 360.132 252.169H453.09C453.459 252.17 453.812 252.316 454.073 252.577C454.333 252.837 454.48 253.191 454.48 253.559Z" fill="#3F3D56"/>
<path d="M452.256 226.047H354.991C354.917 226.047 354.847 226.018 354.794 225.967C354.742 225.915 354.712 225.845 354.712 225.771C354.711 225.698 354.739 225.627 354.791 225.574C354.842 225.522 354.912 225.492 354.986 225.491H452.257C452.33 225.492 452.4 225.521 452.451 225.573C452.503 225.625 452.532 225.696 452.532 225.769C452.532 225.842 452.503 225.912 452.451 225.964C452.4 226.016 452.33 226.046 452.256 226.047Z" fill="#DEDEDE"/>
<path d="M452.256 232.716H354.991C354.917 232.717 354.847 232.688 354.794 232.636C354.742 232.585 354.712 232.515 354.712 232.441C354.711 232.368 354.739 232.297 354.791 232.244C354.842 232.192 354.912 232.162 354.986 232.161H452.257C452.33 232.161 452.4 232.191 452.451 232.243C452.503 232.295 452.532 232.365 452.532 232.439C452.532 232.512 452.503 232.582 452.451 232.634C452.4 232.686 452.33 232.716 452.256 232.716Z" fill="#DEDEDE"/>
<path d="M452.256 239.386H354.991C354.917 239.386 354.847 239.358 354.794 239.306C354.742 239.255 354.712 239.184 354.712 239.111C354.711 239.037 354.739 238.966 354.791 238.914C354.842 238.861 354.912 238.831 354.986 238.83H452.257C452.33 238.831 452.4 238.861 452.451 238.913C452.503 238.965 452.532 239.035 452.532 239.108C452.532 239.181 452.503 239.252 452.451 239.304C452.4 239.356 452.33 239.385 452.256 239.386Z" fill="#DEDEDE"/>
<path d="M452.256 246.056H354.991C354.917 246.056 354.847 246.027 354.794 245.976C354.742 245.924 354.712 245.854 354.712 245.78C354.711 245.707 354.739 245.636 354.791 245.583C354.842 245.531 354.912 245.501 354.986 245.5H452.257C452.33 245.501 452.4 245.53 452.451 245.582C452.503 245.634 452.532 245.705 452.532 245.778C452.532 245.851 452.503 245.921 452.451 245.973C452.4 246.025 452.33 246.055 452.256 246.056Z" fill="#DEDEDE"/>
<path d="M345.955 74.4088H304.716C304.325 74.4084 303.939 74.4983 303.588 74.6713L293.18 79.8818C292.837 80.0274 292.545 80.2706 292.34 80.5809C292.134 80.8913 292.025 81.2553 292.025 81.6274C292.025 81.9996 292.134 82.3635 292.34 82.6739C292.545 82.9843 292.837 83.2274 293.18 83.373L303.588 88.5836C303.939 88.7566 304.325 88.8464 304.716 88.8461H345.955C346.523 88.879 347.081 88.6866 347.509 88.3108C347.936 87.9349 348.199 87.4058 348.239 86.8379V76.4168C348.199 75.849 347.936 75.3199 347.509 74.9441C347.081 74.5682 346.523 74.3759 345.955 74.4088Z" fill="#3F3D56"/>
<path d="M348.239 76.4169V86.838C348.198 87.4058 347.936 87.935 347.509 88.3109C347.081 88.6867 346.523 88.879 345.955 88.8462H337.739V74.4088H345.955C346.523 74.3759 347.081 74.5682 347.509 74.9441C347.936 75.3199 348.198 75.8491 348.239 76.4169Z" fill="#005B6C"/>
<path d="M579.297 161.716L574.943 159.883L571.956 138.056H532.181L528.943 159.794L525.047 161.742C524.861 161.835 524.712 161.988 524.623 162.177C524.535 162.366 524.513 162.579 524.561 162.782C524.609 162.984 524.724 163.165 524.887 163.294C525.051 163.424 525.253 163.494 525.461 163.494H578.939C579.152 163.494 579.359 163.42 579.524 163.285C579.69 163.15 579.803 162.961 579.845 162.752C579.888 162.543 579.856 162.325 579.756 162.136C579.656 161.948 579.494 161.799 579.297 161.716Z" fill="#5A5A5A"/>
<path d="M649.982 140.96H454.592C453.566 140.958 452.584 140.549 451.86 139.823C451.136 139.097 450.729 138.114 450.729 137.089V109.536H653.844V137.089C653.844 138.114 653.438 139.097 652.714 139.823C651.99 140.549 651.007 140.958 649.982 140.96Z" fill="#DEDEDE"/>
<path d="M654.049 122.558H450.551V4.66645C450.552 3.42924 451.044 2.24312 451.919 1.3683C452.794 0.493473 453.98 0.00138436 455.218 0H649.382C650.619 0.00138433 651.805 0.493475 652.68 1.3683C653.555 2.24312 654.047 3.42924 654.049 4.66645L654.049 122.558Z" fill="#288895"/>
<path d="M641.895 114.002H462.705C461.751 114.001 460.837 113.621 460.162 112.947C459.488 112.273 459.108 111.358 459.107 110.404V12.1542C459.108 11.2004 459.488 10.2859 460.162 9.61142C460.837 8.93694 461.751 8.55755 462.705 8.55646H641.895C642.848 8.55755 643.763 8.93694 644.437 9.61142C645.112 10.2859 645.491 11.2004 645.492 12.1542V110.404C645.491 111.358 645.112 112.273 644.437 112.947C643.763 113.621 642.848 114.001 641.895 114.002Z" fill="white"/>
<path d="M594.699 148.669C595.856 147.601 597.233 146.799 598.733 146.32C600.234 145.841 601.821 145.697 603.383 145.898C604.945 146.099 606.444 146.64 607.774 147.483C609.104 148.326 610.234 149.45 611.083 150.777L635.32 146.467L641.531 160.558L607.218 166.162C604.894 167.441 602.183 167.822 599.597 167.235C597.012 166.648 594.731 165.133 593.188 162.976C591.645 160.82 590.947 158.173 591.225 155.536C591.503 152.899 592.739 150.456 594.699 148.669Z" fill="#FFB6B6"/>
<path d="M617.139 166.66L642.407 166.346L645.605 166.302L697.014 165.654C697.014 165.654 710.975 152.336 723.131 138.624L721.427 126.3C719.765 114.205 713.766 103.126 704.545 95.1251C687.134 106.759 677.038 129.786 677.038 129.786L645.162 137.41L641.973 138.173L622.167 142.906L617.139 166.66Z" fill="#005B6C"/>
<path d="M746.489 242.408H699.323C699.323 244.429 647.764 246.069 647.764 246.069C646.627 246.925 645.59 247.908 644.674 248.998C641.922 252.281 640.418 256.43 640.427 260.714V263.643C640.429 268.497 642.358 273.152 645.79 276.585C649.223 280.018 653.878 281.947 658.733 281.948H746.489C751.343 281.944 755.997 280.014 759.429 276.582C762.861 273.15 764.791 268.496 764.795 263.643V260.714C764.788 255.861 762.858 251.208 759.426 247.777C755.994 244.345 751.342 242.415 746.489 242.408Z" fill="#808080"/>
<path d="M712.19 281.221H693.152V391.11H712.19V281.221Z" fill="#808080"/>
<path d="M638.967 390.442C638.967 392.499 667.816 391.237 703.403 391.237C738.991 391.237 767.84 392.499 767.84 390.442C767.84 388.384 738.991 372.072 703.403 372.072C667.816 372.072 638.967 388.384 638.967 390.442Z" fill="#808080"/>
<path d="M626.178 377.886L612.009 377.885L605.268 323.233L626.18 323.234L626.178 377.886Z" fill="#FFB6B6"/>
<path d="M629.791 391.62L584.105 391.618V391.04C584.105 386.324 585.979 381.801 589.313 378.467C592.648 375.132 597.171 373.258 601.887 373.258H601.888L629.792 373.259L629.791 391.62Z" fill="#2F2E41"/>
<path d="M584.301 377.886L570.132 377.885L563.391 323.233L584.302 323.234L584.301 377.886Z" fill="#FFB6B6"/>
<path d="M587.914 391.62L542.227 391.618V391.04C542.227 386.324 544.101 381.801 547.436 378.467C550.771 375.132 555.294 373.258 560.01 373.258H560.011L587.915 373.259L587.914 391.62Z" fill="#2F2E41"/>
<path d="M711.222 63.2498C724.829 63.2498 735.858 52.22 735.858 38.614C735.858 25.0079 724.829 13.9781 711.222 13.9781C697.616 13.9781 686.587 25.0079 686.587 38.614C686.587 52.22 697.616 63.2498 711.222 63.2498Z" fill="#FFB6B6"/>
<path d="M751.095 207.409C751.095 207.409 759.361 251.119 727.91 256.685C696.459 262.251 651.059 266.163 651.059 266.163L630.671 361.285L603.28 358.84C603.28 358.84 606.923 244.334 615.881 235.376C624.84 226.417 681.461 199.594 681.461 199.594L751.095 207.409Z" fill="#2F2E41"/>
<path d="M689.669 189.09L675.914 202.89C675.914 202.89 576.593 218.888 572.762 241.827C566.977 276.461 560.144 351.774 560.144 351.774L590.006 349.535L601.716 263.924L649.494 253.056L703.853 223.431L689.669 189.09Z" fill="#2F2E41"/>
<path d="M734.929 23.9082C732.497 19.3198 729.407 10.1751 724.499 8.47917C721.773 7.5753 718.955 6.97512 716.098 6.68952L707.755 9.89845L712.295 6.36685C711.411 6.31418 710.528 6.27112 709.645 6.23768L704.015 8.40276L706.895 6.16276C701.647 6.1089 696.23 6.65459 692.164 9.84943C688.697 12.573 685.262 22.8906 684.707 27.264C684.113 31.4478 684.321 35.7063 685.319 39.8124L686.745 41.168C687.243 40.0246 687.618 38.831 687.863 37.6078C688.374 35.3223 689.356 33.1682 690.745 31.2831C692.135 29.3979 693.902 27.8228 695.934 26.6583L696.012 26.6146C698.403 25.2689 701.304 25.3309 704.046 25.4296L717.068 25.8982C720.201 26.011 723.575 26.2092 726.018 28.1745C727.57 29.6243 728.791 31.3925 729.596 33.3581C730.81 35.8078 733.181 45.0474 733.181 45.0474C733.181 45.0474 734.523 43.3033 735.166 44.6014C736.198 41.2145 736.825 37.7175 737.035 34.1833C737.24 30.6333 736.514 27.0913 734.929 23.9082Z" fill="#2F2E41"/>
<path d="M821.094 49.433C819.523 49.5365 817.993 49.9833 816.613 50.7419C815.233 51.5005 814.036 52.5525 813.106 53.8238C812.177 55.0951 811.537 56.5548 811.233 58.1C810.928 59.6452 810.966 61.2383 811.344 62.7672L791.533 77.3807L797.478 91.5857L825.165 70.5557C827.691 69.7507 829.834 68.0468 831.188 65.7671C832.542 63.4874 833.013 60.7901 832.511 58.1865C832.01 55.5828 830.57 53.2537 828.466 51.6403C826.362 50.027 823.739 49.2416 821.094 49.433Z" fill="#FFB6B6"/>
<path d="M817.906 79.2665L768.242 134.424C768.242 134.424 744.492 126.821 726.124 118.578L717.872 93.2337C715.956 87.3541 715.138 81.1721 715.459 74.9966C740.923 68.2209 770.54 93.4323 770.54 93.4323L807.715 64.3126L817.906 79.2665Z" fill="#005B6C"/>
<path d="M702.02 211.483C693.16 208.423 683.998 205.258 674.115 204.07L673.691 204.018L673.808 203.608C684.038 167.688 681.485 144.711 676.472 110.195C675.405 102.751 676.775 95.1605 680.377 88.5581C683.979 81.9557 689.619 76.6951 696.456 73.5614L696.516 73.534L724.742 71.7404L724.806 71.7365L745.334 77.7739C748.287 78.6488 750.871 80.4678 752.692 82.9522C754.512 85.4365 755.468 88.4491 755.412 91.5285C755.19 102.879 755.661 115.553 756.161 128.969C757.281 159.069 758.439 190.194 751.866 210.389L751.832 210.494L751.744 210.563C745.702 215.485 738.131 218.144 730.339 218.082C721.125 218.082 711.722 214.834 702.02 211.483Z" fill="#005B6C"/>
<path d="M907.165 394H223.14C222.877 394 222.625 393.853 222.439 393.591C222.253 393.329 222.149 392.973 222.149 392.603C222.149 392.232 222.253 391.877 222.439 391.615C222.625 391.353 222.877 391.206 223.14 391.206H907.165C907.428 391.206 907.68 391.353 907.866 391.615C908.052 391.877 908.156 392.232 908.156 392.603C908.156 392.973 908.052 393.329 907.866 393.591C907.68 393.853 907.428 394 907.165 394Z" fill="#DEDEDE"/>
</g>
<defs>
<clipPath id="clip0_1093_2011">
<rect width="908.243" height="394" fill="white"/>
</clipPath>
</defs>
</svg>
