<svg width="1440" height="1159" viewBox="0 0 1440 1159" fill="none" xmlns="http://www.w3.org/2000/svg">
<g clip-path="url(#clip0_5275_1511)">
<rect width="1440" height="1328" transform="matrix(1 0 0 -1 0 1328)" fill="black"/>
<g filter="url(#filter0_f_5275_1511)">
<path d="M696.573 -26.2573C696.055 -46.2853 711.729 -63.0113 731.748 -63.7943C752.575 -64.6088 769.881 -47.8998 769.798 -27.0571L768.253 358.258C768.224 365.43 768.897 372.587 770.261 379.627L874.193 915.927C887.302 983.568 835.709 1046.47 766.811 1046.85L671.266 1047.38C598.858 1047.78 545.822 979.323 564.3 909.312L702.793 384.58C705.454 374.499 706.667 364.09 706.398 353.666L696.573 -26.2573Z" fill="url(#paint0_linear_5275_1511)" fill-opacity="0.8"/>
</g>
<ellipse cx="81.0391" cy="172.527" rx="1.34375" ry="0.980898" fill="#D9D9D9"/>
<ellipse cx="123.114" cy="179.438" rx="1.00495" ry="0.490417" fill="#D9D9D9"/>
<ellipse cx="89.4105" cy="247.722" rx="0.441784" ry="0.361041" fill="#D9D9D9"/>
<ellipse opacity="0.5" cx="239.432" cy="165.548" rx="0.853535" ry="0.506392" fill="#D9D9D9"/>
<ellipse opacity="0.5" cx="318.236" cy="186.904" rx="0.853535" ry="0.506392" fill="#D9D9D9"/>
<ellipse opacity="0.5" cx="416.111" cy="174.014" rx="0.853535" ry="0.506392" fill="#D9D9D9"/>
<ellipse opacity="0.5" cx="539.705" cy="260.682" rx="0.853535" ry="0.506392" fill="#D9D9D9"/>
<ellipse opacity="0.5" cx="726.334" cy="227.539" rx="0.853535" ry="0.506392" fill="#D9D9D9"/>
<ellipse opacity="0.4" cx="55.9499" cy="186.413" rx="0.672508" ry="0.490417" fill="#D9D9D9"/>
<ellipse opacity="0.4" cx="70.7389" cy="212.587" rx="0.672508" ry="0.490417" fill="#D9D9D9"/>
<ellipse opacity="0.4" cx="37.4303" cy="230.701" rx="0.672508" ry="0.490417" fill="#D9D9D9"/>
<ellipse opacity="0.4" cx="143.348" cy="216.406" rx="0.672508" ry="0.490417" fill="#D9D9D9"/>
<ellipse opacity="0.4" cx="190.63" cy="236.22" rx="0.672508" ry="0.490417" fill="#D9D9D9"/>
<ellipse opacity="0.3" cx="237.911" cy="256.031" rx="0.672508" ry="0.490417" fill="#D9D9D9"/>
<ellipse opacity="0.4" cx="235.926" cy="193.541" rx="0.672508" ry="0.490417" fill="#D9D9D9"/>
<ellipse opacity="0.4" cx="142.001" cy="269.382" rx="0.672508" ry="0.490417" fill="#D9D9D9"/>
<ellipse cx="71.7266" cy="362.727" rx="1.34375" ry="0.980898" fill="white"/>
<ellipse cx="113.802" cy="369.639" rx="1.00495" ry="0.490417" fill="white"/>
<ellipse cx="80.1019" cy="437.922" rx="0.441784" ry="0.361041" fill="white"/>
<ellipse opacity="0.5" cx="230.119" cy="355.749" rx="0.853535" ry="0.506392" fill="white"/>
<ellipse opacity="0.5" cx="308.92" cy="377.103" rx="0.853535" ry="0.506392" fill="white"/>
<ellipse opacity="0.5" cx="406.799" cy="364.213" rx="0.853535" ry="0.506392" fill="white"/>
<ellipse opacity="0.5" cx="530.393" cy="450.882" rx="0.853535" ry="0.506392" fill="white"/>
<ellipse opacity="0.5" cx="717.021" cy="417.738" rx="0.853535" ry="0.506392" fill="white"/>
<ellipse opacity="0.4" cx="46.6374" cy="376.613" rx="0.672508" ry="0.490417" fill="white"/>
<ellipse opacity="0.4" cx="61.4225" cy="402.787" rx="0.672508" ry="0.490417" fill="white"/>
<ellipse opacity="0.4" cx="28.1178" cy="420.902" rx="0.672508" ry="0.490417" fill="white"/>
<ellipse opacity="0.4" cx="134.036" cy="406.607" rx="0.672508" ry="0.490417" fill="white"/>
<ellipse opacity="0.4" cx="181.313" cy="426.419" rx="0.672508" ry="0.490417" fill="white"/>
<ellipse opacity="0.3" cx="228.594" cy="446.232" rx="0.672508" ry="0.490417" fill="white"/>
<ellipse opacity="0.4" cx="226.614" cy="383.74" rx="0.672508" ry="0.490417" fill="white"/>
<ellipse opacity="0.4" cx="132.688" cy="459.583" rx="0.672508" ry="0.490417" fill="white"/>
<ellipse cx="1.34375" cy="0.980898" rx="1.34375" ry="0.980898" transform="matrix(-1 0 0 1 1340.44 178.051)" fill="#D9D9D9"/>
<ellipse cx="1.00495" cy="0.490417" rx="1.00495" ry="0.490417" transform="matrix(-1 0 0 1 1298.02 185.453)" fill="#D9D9D9"/>
<ellipse cx="0.441784" cy="0.361041" rx="0.441784" ry="0.361041" transform="matrix(-1 0 0 1 1331.16 253.865)" fill="#D9D9D9"/>
<ellipse opacity="0.5" cx="0.853535" cy="0.506392" rx="0.853535" ry="0.506392" transform="matrix(-1 0 0 1 1181.55 171.547)" fill="#D9D9D9"/>
<ellipse opacity="0.5" cx="0.853535" cy="0.506392" rx="0.853535" ry="0.506392" transform="matrix(-1 0 0 1 1102.75 192.902)" fill="#D9D9D9"/>
<ellipse opacity="0.5" cx="0.853535" cy="0.506392" rx="0.853535" ry="0.506392" transform="matrix(-1 0 0 1 1004.87 180.013)" fill="#D9D9D9"/>
<ellipse opacity="0.5" cx="0.853535" cy="0.506392" rx="0.853535" ry="0.506392" transform="matrix(-1 0 0 1 881.281 266.681)" fill="#D9D9D9"/>
<ellipse opacity="0.5" cx="0.853535" cy="0.506392" rx="0.853535" ry="0.506392" transform="matrix(-1 0 0 1 694.648 233.536)" fill="#D9D9D9"/>
<ellipse opacity="0.4" cx="0.672508" cy="0.490417" rx="0.672508" ry="0.490417" transform="matrix(-1 0 0 1 1364.85 192.428)" fill="#D9D9D9"/>
<ellipse opacity="0.4" cx="0.672508" cy="0.490417" rx="0.672508" ry="0.490417" transform="matrix(-1 0 0 1 1350.07 218.602)" fill="#D9D9D9"/>
<ellipse opacity="0.4" cx="0.672508" cy="0.490417" rx="0.672508" ry="0.490417" transform="matrix(-1 0 0 1 1383.37 236.716)" fill="#D9D9D9"/>
<ellipse opacity="0.4" cx="0.672508" cy="0.490417" rx="0.672508" ry="0.490417" transform="matrix(-1 0 0 1 1277.46 222.421)" fill="#D9D9D9"/>
<ellipse opacity="0.4" cx="0.672508" cy="0.490417" rx="0.672508" ry="0.490417" transform="matrix(-1 0 0 1 1230.18 242.233)" fill="#D9D9D9"/>
<ellipse opacity="0.3" cx="0.672508" cy="0.490417" rx="0.672508" ry="0.490417" transform="matrix(-1 0 0 1 1182.89 262.046)" fill="#D9D9D9"/>
<ellipse opacity="0.4" cx="0.672508" cy="0.490417" rx="0.672508" ry="0.490417" transform="matrix(-1 0 0 1 1184.88 199.555)" fill="#D9D9D9"/>
<ellipse opacity="0.4" cx="0.672508" cy="0.490417" rx="0.672508" ry="0.490417" transform="matrix(-1 0 0 1 1278.8 275.397)" fill="#D9D9D9"/>
<ellipse cx="1.34375" cy="0.980898" rx="1.34375" ry="0.980898" transform="matrix(-1 0 0 1 1372.97 331.697)" fill="#D9D9D9"/>
<ellipse cx="1.00495" cy="0.490417" rx="1.00495" ry="0.490417" transform="matrix(-1 0 0 1 1330.56 339.1)" fill="#D9D9D9"/>
<ellipse cx="0.441784" cy="0.361041" rx="0.441784" ry="0.361041" transform="matrix(-1 0 0 1 1363.7 407.512)" fill="#D9D9D9"/>
<ellipse opacity="0.5" cx="0.853535" cy="0.506392" rx="0.853535" ry="0.506392" transform="matrix(-1 0 0 1 1214.09 325.193)" fill="#D9D9D9"/>
<ellipse opacity="0.5" cx="0.853535" cy="0.506392" rx="0.853535" ry="0.506392" transform="matrix(-1 0 0 1 1135.29 346.549)" fill="#D9D9D9"/>
<ellipse opacity="0.5" cx="0.853535" cy="0.506392" rx="0.853535" ry="0.506392" transform="matrix(-1 0 0 1 1037.41 333.659)" fill="#D9D9D9"/>
<ellipse opacity="0.5" cx="0.853535" cy="0.506392" rx="0.853535" ry="0.506392" transform="matrix(-1 0 0 1 913.816 420.327)" fill="#D9D9D9"/>
<ellipse opacity="0.5" cx="0.853535" cy="0.506392" rx="0.853535" ry="0.506392" transform="matrix(-1 0 0 1 727.188 387.183)" fill="#D9D9D9"/>
<ellipse opacity="0.4" cx="0.672508" cy="0.490417" rx="0.672508" ry="0.490417" transform="matrix(-1 0 0 1 1397.39 346.074)" fill="#D9D9D9"/>
<ellipse opacity="0.4" cx="0.672508" cy="0.490417" rx="0.672508" ry="0.490417" transform="matrix(-1 0 0 1 1382.6 372.248)" fill="#D9D9D9"/>
<ellipse opacity="0.4" cx="0.672508" cy="0.490417" rx="0.672508" ry="0.490417" transform="matrix(-1 0 0 1 1415.91 390.362)" fill="#D9D9D9"/>
<ellipse opacity="0.4" cx="0.672508" cy="0.490417" rx="0.672508" ry="0.490417" transform="matrix(-1 0 0 1 1309.99 376.067)" fill="#D9D9D9"/>
<ellipse opacity="0.4" cx="0.672508" cy="0.490417" rx="0.672508" ry="0.490417" transform="matrix(-1 0 0 1 1262.71 395.88)" fill="#D9D9D9"/>
<ellipse opacity="0.3" cx="0.672508" cy="0.490417" rx="0.672508" ry="0.490417" transform="matrix(-1 0 0 1 1215.43 415.692)" fill="#D9D9D9"/>
<ellipse opacity="0.4" cx="0.672508" cy="0.490417" rx="0.672508" ry="0.490417" transform="matrix(-1 0 0 1 1217.41 353.201)" fill="#D9D9D9"/>
<ellipse opacity="0.4" cx="0.672508" cy="0.490417" rx="0.672508" ry="0.490417" transform="matrix(-1 0 0 1 1311.34 429.044)" fill="#D9D9D9"/>
<ellipse cx="1.34375" cy="0.980898" rx="1.34375" ry="0.980898" transform="matrix(-1 0 0 1 805.352 89.083)" fill="#D9D9D9"/>
<ellipse cx="1.00495" cy="0.490417" rx="1.00495" ry="0.490417" transform="matrix(-1 0 0 1 762.938 96.4854)" fill="#D9D9D9"/>
<ellipse cx="0.441784" cy="0.361041" rx="0.441784" ry="0.361041" transform="matrix(-1 0 0 1 796.074 164.897)" fill="#D9D9D9"/>
<ellipse opacity="0.5" cx="0.853535" cy="0.506392" rx="0.853535" ry="0.506392" transform="matrix(-1 0 0 1 646.469 82.5791)" fill="#D9D9D9"/>
<ellipse opacity="0.5" cx="0.853535" cy="0.506392" rx="0.853535" ry="0.506392" transform="matrix(-1 0 0 1 567.668 103.935)" fill="#D9D9D9"/>
<ellipse opacity="0.5" cx="0.853535" cy="0.506392" rx="0.853535" ry="0.506392" transform="matrix(-1 0 0 1 469.789 91.0449)" fill="#D9D9D9"/>
<ellipse opacity="0.5" cx="0.853535" cy="0.506392" rx="0.853535" ry="0.506392" transform="matrix(-1 0 0 1 346.199 177.713)" fill="#D9D9D9"/>
<ellipse opacity="0.5" cx="0.853535" cy="0.506392" rx="0.853535" ry="0.506392" transform="matrix(-1 0 0 1 159.566 144.568)" fill="#D9D9D9"/>
<ellipse opacity="0.4" cx="0.672508" cy="0.490417" rx="0.672508" ry="0.490417" transform="matrix(-1 0 0 1 829.77 103.46)" fill="#D9D9D9"/>
<ellipse opacity="0.4" cx="0.672508" cy="0.490417" rx="0.672508" ry="0.490417" transform="matrix(-1 0 0 1 814.984 129.634)" fill="#D9D9D9"/>
<ellipse opacity="0.4" cx="0.672508" cy="0.490417" rx="0.672508" ry="0.490417" transform="matrix(-1 0 0 1 848.289 147.749)" fill="#D9D9D9"/>
<ellipse opacity="0.4" cx="0.672508" cy="0.490417" rx="0.672508" ry="0.490417" transform="matrix(-1 0 0 1 742.371 133.453)" fill="#D9D9D9"/>
<ellipse opacity="0.4" cx="0.672508" cy="0.490417" rx="0.672508" ry="0.490417" transform="matrix(-1 0 0 1 695.094 153.266)" fill="#D9D9D9"/>
<ellipse opacity="0.3" cx="0.672508" cy="0.490417" rx="0.672508" ry="0.490417" transform="matrix(-1 0 0 1 647.812 173.078)" fill="#D9D9D9"/>
<ellipse opacity="0.4" cx="0.672508" cy="0.490417" rx="0.672508" ry="0.490417" transform="matrix(-1 0 0 1 649.797 110.588)" fill="#D9D9D9"/>
<ellipse opacity="0.4" cx="0.672508" cy="0.490417" rx="0.672508" ry="0.490417" transform="matrix(-1 0 0 1 743.719 186.43)" fill="#D9D9D9"/>
<g filter="url(#filter1_f_5275_1511)">
<rect x="202.164" y="529.218" width="1035.67" height="605.814" fill="url(#paint1_linear_5275_1511)"/>
</g>
</g>
<defs>
<filter id="filter0_f_5275_1511" x="436.598" y="-187.823" width="563.641" height="1359.21" filterUnits="userSpaceOnUse" color-interpolation-filters="sRGB">
<feFlood flood-opacity="0" result="BackgroundImageFix"/>
<feBlend mode="normal" in="SourceGraphic" in2="BackgroundImageFix" result="shape"/>
<feGaussianBlur stdDeviation="62" result="effect1_foregroundBlur_5275_1511"/>
</filter>
<filter id="filter1_f_5275_1511" x="8.16406" y="335.218" width="1423.67" height="993.814" filterUnits="userSpaceOnUse" color-interpolation-filters="sRGB">
<feFlood flood-opacity="0" result="BackgroundImageFix"/>
<feBlend mode="normal" in="SourceGraphic" in2="BackgroundImageFix" result="shape"/>
<feGaussianBlur stdDeviation="97" result="effect1_foregroundBlur_5275_1511"/>
</filter>
<linearGradient id="paint0_linear_5275_1511" x1="744.775" y1="42.9046" x2="724.979" y2="998.614" gradientUnits="userSpaceOnUse">
<stop stop-color="#176355"/>
<stop offset="0.442308" stop-color="#38B990"/>
<stop offset="1" stop-color="#00BD67"/>
</linearGradient>
<linearGradient id="paint1_linear_5275_1511" x1="720" y1="529.218" x2="720" y2="1135.03" gradientUnits="userSpaceOnUse">
<stop stop-color="#38B990"/>
<stop offset="1" stop-color="#0E3B2D"/>
</linearGradient>
<clipPath id="clip0_5275_1511">
<rect width="1440" height="1159" fill="white"/>
</clipPath>
</defs>
</svg>
