<svg width="25" height="31" viewBox="0 0 25 31" fill="none" xmlns="http://www.w3.org/2000/svg">
<path d="M21.7498 12.4173H7.87484V7.79232C7.87484 5.2424 9.94992 3.16732 12.4998 3.16732C15.0498 3.16732 17.1248 5.2424 17.1248 7.79232H20.2082C20.2082 3.54194 16.7502 0.0839844 12.4998 0.0839844C8.24946 0.0839844 4.7915 3.54194 4.7915 7.79232V12.4173H3.24984C2.43209 12.4173 1.64783 12.7422 1.06959 13.3204C0.491354 13.8986 0.166504 14.6829 0.166504 15.5007V27.834C0.166504 28.6517 0.491354 29.436 1.06959 30.0142C1.64783 30.5925 2.43209 30.9173 3.24984 30.9173H21.7498C22.5676 30.9173 23.3518 30.5925 23.9301 30.0142C24.5083 29.436 24.8332 28.6517 24.8332 27.834V15.5007C24.8332 14.6829 24.5083 13.8986 23.9301 13.3204C23.3518 12.7422 22.5676 12.4173 21.7498 12.4173ZM9.51054 20.8949C9.70005 20.1695 10.1472 19.5378 10.7684 19.1179C11.3896 18.698 12.1424 18.5186 12.8862 18.6132C13.63 18.7078 14.3139 19.07 14.8102 19.632C15.3066 20.194 15.5813 20.9175 15.5832 21.6673C15.5823 22.2065 15.4393 22.7359 15.1687 23.2023C14.898 23.6686 14.5092 24.0554 14.0415 24.3236V27.834H10.9582V24.3236C10.3748 23.9894 9.91731 23.4729 9.6558 22.8535C9.3943 22.2342 9.34327 21.5461 9.51054 20.8949Z" fill="#1B707F"/>
</svg>
