<svg width="137" height="31" viewBox="0 0 137 31" fill="none" xmlns="http://www.w3.org/2000/svg">
<g clip-path="url(#clip0_1178_8427)">
<path d="M0 1.52246H27.9552L17.8033 11.5592H0V1.52246Z" fill="url(#paint0_linear_1178_8427)"/>
<path d="M27.9552 1.52246L27.9552 29.4776L17.9185 29.4776L17.9185 11.4352L27.9552 1.52246Z" fill="url(#paint1_linear_1178_8427)"/>
<path d="M0 1.52246L27.9551 29.4775H0V1.52246Z" fill="#1E8C51"/>
</g>
<path d="M44.4754 8.33623V9.55297H40.4056V23H38.9371V9.55297H34.8464V8.33623H44.4754ZM54.598 23L50.9688 16.8744H48.2626V23H46.7941V8.33623H51.1996C52.8359 8.33623 54.0736 8.72783 54.9127 9.51101C55.7658 10.2942 56.1924 11.3221 56.1924 12.5948C56.1924 13.6577 55.8847 14.5668 55.2693 15.322C54.668 16.0632 53.7729 16.5457 52.5841 16.7695L56.3602 23H54.598ZM48.2626 15.6786H51.2205C52.3673 15.6786 53.2274 15.3989 53.8009 14.8395C54.3882 14.2801 54.6819 13.5318 54.6819 12.5948C54.6819 11.6298 54.4022 10.8886 53.8428 10.3711C53.2834 9.83967 52.4023 9.57395 51.1996 9.57395H48.2626V15.6786ZM67.6027 19.5176H60.9316L59.652 23H58.0996L63.449 8.52504H65.1063L70.4348 23H68.8824L67.6027 19.5176ZM67.1622 18.3009L64.2672 10.3711L61.3722 18.3009H67.1622ZM77.134 8.33623C78.7563 8.33623 80.1479 8.62993 81.3087 9.21732C82.4695 9.80471 83.3576 10.6508 83.9729 11.7557C84.5883 12.8605 84.896 14.1752 84.896 15.6996C84.896 17.21 84.5883 18.5177 83.9729 19.6225C83.3576 20.7134 82.4695 21.5525 81.3087 22.1399C80.1479 22.7133 78.7563 23 77.134 23H72.7915V8.33623H77.134ZM77.134 21.7833C79.1759 21.7833 80.7283 21.2518 81.7912 20.1889C82.8681 19.112 83.4065 17.6156 83.4065 15.6996C83.4065 13.7696 82.8681 12.2662 81.7912 11.1893C80.7283 10.0984 79.1759 9.55297 77.134 9.55297H74.26V21.7833H77.134ZM89.0718 9.53199V15.0073H94.631V16.224H89.0718V21.7833H95.2603V23H87.6033V8.31526H95.2603V9.53199H89.0718ZM106.461 8.35721V18.6365C106.461 20.0631 106.049 21.1749 105.224 21.9721C104.398 22.7553 103.294 23.1468 101.909 23.1468C100.51 23.1468 99.3776 22.7413 98.5105 21.9301C97.6574 21.119 97.2308 19.9861 97.2308 18.5316H100.168C100.182 19.161 100.329 19.6505 100.608 20.0001C100.902 20.3498 101.322 20.5246 101.867 20.5246C102.398 20.5246 102.804 20.3567 103.084 20.0211C103.363 19.6854 103.503 19.2239 103.503 18.6365V8.35721H106.461ZM112.824 8.35721V23H109.887V8.35721H112.824ZM128.25 23H125.313L118.663 12.9514V23H115.726V8.33623H118.663L125.313 18.4058V8.33623H128.25V23ZM134.089 8.35721V23H131.152V8.35721H134.089Z" fill="black"/>
<defs>
<linearGradient id="paint0_linear_1178_8427" x1="-12.4898" y1="7.00624" x2="35.761" y2="6.54083" gradientUnits="userSpaceOnUse">
<stop stop-color="#18944A"/>
<stop offset="1" stop-color="#86D3BB"/>
</linearGradient>
<linearGradient id="paint1_linear_1178_8427" x1="22.9369" y1="28.6387" x2="22.9369" y2="13.1515" gradientUnits="userSpaceOnUse">
<stop stop-color="#1E975D"/>
<stop offset="1" stop-color="#86D3BB"/>
</linearGradient>
<clipPath id="clip0_1178_8427">
<rect y="1.52246" width="27.9552" height="27.9552" rx="3.28004" fill="white"/>
</clipPath>
</defs>
</svg>
