<svg width="313" height="71" viewBox="0 0 313 71" fill="none" xmlns="http://www.w3.org/2000/svg">
<mask id="mask0_2001_12" style="mask-type:luminance" maskUnits="userSpaceOnUse" x="0" y="0" width="66" height="71">
<path d="M57.5984 0H7.65649C3.42793 0 0 3.67855 0 8.21628V61.8096C0 66.3473 3.42793 70.0259 7.65649 70.0259H57.5984C61.8269 70.0259 65.2549 66.3473 65.2549 61.8096V8.21628C65.2549 3.67855 61.8269 0 57.5984 0Z" fill="white"/>
</mask>
<g mask="url(#mask0_2001_12)">
<path d="M0 0H65.2549L41.5577 25.1414H0V0Z" fill="url(#paint0_linear_2001_12)"/>
<path d="M65.2547 0V70.0259H41.8262V24.8308L65.2547 0Z" fill="url(#paint1_linear_2001_12)"/>
<path d="M0 0L65.2547 70.0256H0V0Z" fill="#1E8C51"/>
</g>
<path d="M103.51 16.0552V19.2547H93.9955V54.6138H90.5624V19.2547H81V16.0552H103.51ZM127.173 54.6138L118.689 38.5063H112.363V54.6138H108.93V16.0552H119.229C123.053 16.0552 125.947 17.0849 127.909 19.1443C129.903 21.2037 130.9 23.9067 130.9 27.2532C130.9 30.0481 130.181 32.4385 128.742 34.4243C127.337 36.3734 125.244 37.6421 122.465 38.2306L131.293 54.6138H127.173ZM112.363 35.3621H119.277C121.958 35.3621 123.969 34.6266 125.31 33.1556C126.683 31.6846 127.369 29.7171 127.369 27.2532C127.369 24.7157 126.715 22.7666 125.407 21.4059C124.1 20.0085 122.04 19.3098 119.229 19.3098H112.363V35.3621ZM157.574 45.4568H141.98L138.988 54.6138H135.359L147.864 16.5517H151.739L164.195 54.6138H160.566L157.574 45.4568ZM156.544 42.2574L149.777 21.4059L143.009 42.2574H156.544ZM179.856 16.0552C183.648 16.0552 186.902 16.8274 189.615 18.372C192.328 19.9166 194.405 22.1415 195.843 25.0467C197.282 27.9519 198.001 31.4088 198.001 35.4173C198.001 39.389 197.282 42.8274 195.843 45.7327C194.405 48.6011 192.328 50.8076 189.615 52.3521C186.902 53.8599 183.648 54.6138 179.856 54.6138H169.704V16.0552H179.856ZM179.856 51.4144C184.629 51.4144 188.258 50.017 190.743 47.222C193.26 44.3904 194.519 40.4554 194.519 35.4173C194.519 30.3423 193.26 26.389 190.743 23.5573C188.258 20.6888 184.629 19.2547 179.856 19.2547H173.137V51.4144H179.856ZM207.763 19.1995V33.5969H220.758V36.7963H207.763V51.4144H222.23V54.6138H204.33V16H222.23V19.1995H207.763ZM248.414 16.1103V43.14C248.414 46.8911 247.45 49.8147 245.521 51.9109C243.592 53.9703 241.009 55 237.772 55C234.503 55 231.855 53.9335 229.828 51.8005C227.833 49.6676 226.836 46.6888 226.836 42.8642H233.702C233.735 44.5191 234.078 45.8062 234.732 46.7256C235.418 47.645 236.399 48.1047 237.674 48.1047C238.917 48.1047 239.865 47.6633 240.519 46.7808C241.173 45.8981 241.5 44.6846 241.5 43.14V16.1103H248.414ZM263.289 16.1103V54.6138H256.423V16.1103H263.289ZM299.349 54.6138H292.484L276.938 28.1909V54.6138H270.072V16.0552H276.938L292.484 42.5332V16.0552H299.349V54.6138ZM313 16.1103V54.6138H306.135V16.1103H313Z" fill="white"/>
<defs>
<linearGradient id="paint0_linear_2001_12" x1="-29.1545" y1="13.7365" x2="83.4773" y2="12.7241" gradientUnits="userSpaceOnUse">
<stop stop-color="#18944A"/>
<stop offset="1" stop-color="#86D3BB"/>
</linearGradient>
<linearGradient id="paint1_linear_2001_12" x1="53.5405" y1="67.9244" x2="53.5405" y2="29.13" gradientUnits="userSpaceOnUse">
<stop stop-color="#1E975D"/>
<stop offset="1" stop-color="#86D3BB"/>
</linearGradient>
</defs>
</svg>
