<svg width="124" height="115" viewBox="0 0 124 115" fill="none" xmlns="http://www.w3.org/2000/svg">
<mask id="mask0_474_524" style="mask-type:luminance" maskUnits="userSpaceOnUse" x="0" y="51" width="124" height="64">
<path d="M0 51.1191H123.588V114.598H0V51.1191Z" fill="white"/>
</mask>
<g mask="url(#mask0_474_524)">
<path d="M61.7992 51.4277L52.6048 51.4716C45.8739 51.574 39.1444 51.7905 32.5335 52.1197C27.188 52.3596 24.5533 53.233 24.0807 53.4027L24.0134 53.429C22.8826 53.8606 21.8015 54.3931 20.7687 55.0236C19.7359 55.6556 18.7703 56.3768 17.8721 57.1858C16.9724 57.9962 16.1561 58.8813 15.4202 59.8425C14.6844 60.8036 14.0436 61.8232 13.4965 62.9029C7.81159 74.4365 3.99044 83.0678 1.09532 90.8944C-0.396855 94.8677 0.134185 99.3047 2.58458 103.364C5.44605 108.117 10.6321 111.707 16.1195 112.736C16.2351 112.758 16.3594 112.774 16.4721 112.788C19.9729 113.178 23.7296 113.387 24.1115 113.409C36.6106 114.202 49.2474 114.61 61.7992 114.61C74.3511 114.61 86.9936 114.212 99.4855 113.409C99.8688 113.387 103.626 113.169 107.125 112.788C107.245 112.774 107.365 112.758 107.479 112.736C112.966 111.707 118.151 108.117 121.014 103.364C123.466 99.296 123.994 94.8677 122.502 90.8944C119.617 83.0678 115.785 74.4395 110.1 62.9029C109.553 61.8232 108.913 60.8036 108.177 59.8425C107.442 58.8813 106.625 57.9962 105.726 57.1858C104.827 56.3768 103.861 55.6556 102.828 55.0236C101.797 54.3931 100.714 53.8606 99.585 53.429L99.5177 53.4027C99.0364 53.233 96.409 52.3596 91.0635 52.1197C84.4613 51.7905 77.7129 51.574 70.9922 51.4716L61.7992 51.4277Z" fill="#57B236"/>
</g>
<path d="M80.1826 78.1062L107.105 112.789C107.222 112.775 107.345 112.758 107.457 112.736C112.952 111.708 118.147 108.118 121.014 103.365C123.469 99.2966 123.997 94.8684 122.502 90.8951C119.619 83.0685 115.773 74.4402 110.085 62.9036C109.536 61.8225 108.892 60.8013 108.154 59.8402C107.415 58.8791 106.596 57.994 105.693 57.1835C104.792 56.3731 103.823 55.6533 102.788 55.0228C101.753 54.3908 100.669 53.8612 99.5356 53.4297L80.1826 78.1062Z" fill="#99BADC"/>
<mask id="mask1_474_524" style="mask-type:luminance" maskUnits="userSpaceOnUse" x="47" y="77" width="61" height="38">
<path d="M47.5557 77.3369H107.477V114.6H47.5557V77.3369Z" fill="white"/>
</mask>
<g mask="url(#mask1_474_524)">
<path d="M78.3909 77.6699L47.7383 114.375C52.4591 114.484 57.1756 114.54 61.8891 114.54C74.46 114.54 87.1274 114.141 99.6266 113.339C100.011 113.318 103.774 113.097 107.281 112.719L78.3909 77.6699Z" fill="#4193D2"/>
</g>
<mask id="mask2_474_524" style="mask-type:luminance" maskUnits="userSpaceOnUse" x="13" y="0" width="60" height="75">
<path d="M13.8535 0H72.2767V74.7143H13.8535V0Z" fill="white"/>
</mask>
<g mask="url(#mask2_474_524)">
<path d="M62.9544 9.01116C57.407 3.36429 50.3762 0.00981153 42.968 0.0215149H42.7661C27.7214 0.26436 14.3591 14.2982 13.9846 29.2785C13.9261 32.611 14.4922 35.8353 15.6845 38.9498L15.7035 39.001C15.7752 39.4809 21.8712 53.1402 40.8292 73.4499C40.895 73.5406 40.9667 73.6269 41.0428 73.7088C41.1613 73.8405 41.2915 73.959 41.4334 74.0643C41.5753 74.1682 41.7274 74.2574 41.8869 74.3306C42.0478 74.4052 42.2146 74.4622 42.3857 74.5017C42.5583 74.5412 42.7324 74.5632 42.9094 74.5661C43.0865 74.5705 43.262 74.5559 43.4346 74.5237C43.6087 74.4915 43.777 74.4417 43.9408 74.3759C44.1047 74.3086 44.2597 74.2267 44.406 74.1287C44.5523 74.0292 44.6884 73.9166 44.8112 73.7907C52.1449 66.4396 58.6344 58.4067 64.2812 49.6935C68.3672 43.3137 70.1461 39.2234 70.2192 39.0464L70.2573 38.9498C71.4379 35.8645 72.0055 32.6695 71.9587 29.3662C71.8504 21.8951 68.5383 14.7078 62.9544 9.01116Z" fill="#DD4247"/>
</g>
<path d="M82.6458 77.1895L109.877 112.177C109.148 112.409 108.409 112.595 107.659 112.737C107.543 112.759 107.417 112.775 107.305 112.79C105.502 112.989 103.634 113.144 102.19 113.246L78.3887 82.6681L82.6458 77.1895Z" fill="white"/>
<mask id="mask3_474_524" style="mask-type:luminance" maskUnits="userSpaceOnUse" x="44" y="52" width="58" height="63">
<path d="M44.9404 52.2441H101.117V114.6H44.9404V52.2441Z" fill="white"/>
</mask>
<g mask="url(#mask3_474_524)">
<path d="M82.6373 77.1967L100.734 53.948L100.785 53.8851C100.441 53.7242 100.093 53.5794 99.7374 53.4477L99.6701 53.4214C99.2678 53.2765 97.3133 52.6299 93.4746 52.2891L93.103 52.7967L45.1807 114.371C47.9778 114.449 50.7749 114.506 53.572 114.547L78.3802 82.6754L82.6373 77.1967Z" fill="#FCA84C"/>
</g>
<path d="M43.053 40.8746C36.7185 40.8746 31.5603 35.7295 31.5939 29.4463C31.6276 23.1616 36.8034 17.9302 43.053 17.9229C49.3026 17.9155 54.4681 23.166 54.5106 29.458C54.5545 35.7485 49.3889 40.8644 43.053 40.8746Z" fill="#BA2525"/>
</svg>
