<svg width="1200" height="1085" viewBox="0 0 1200 1085" fill="none" xmlns="http://www.w3.org/2000/svg">
<path fill-rule="evenodd" clip-rule="evenodd" d="M1200 147.724C1200.02 94.6827 1187.64 44.5401 1165.67 0C1165.58 184.652 1015.89 334.324 831.234 334.324H368.769C184.135 334.324 34.4378 184.652 34.3403 0C12.3722 44.5522 0 94.6827 0 147.724C0 328.418 143.267 551.702 322.409 561.36L420.34 951.676L366.151 980.613L453.779 1085H580.073L584.783 790.46H542.773C535.874 790.46 532.424 790.46 529.771 789.158C527.231 787.916 525.176 785.857 523.932 783.319C522.632 780.667 522.632 777.216 522.632 770.315V644.859C522.632 637.963 522.632 634.513 523.932 631.854C525.176 629.316 527.231 627.264 529.771 626.016C532.424 624.713 535.874 624.713 542.773 624.713H587.434L587.438 624.413L606.558 624.713H661.836C668.73 624.713 672.18 624.713 674.838 626.016C677.376 627.264 679.428 629.316 680.676 631.854C681.972 634.513 681.972 637.963 681.972 644.859V770.315C681.972 777.216 681.972 780.667 680.676 783.319C679.428 785.857 677.376 787.916 674.838 789.158C672.18 790.46 668.73 790.46 661.836 790.46H623.028L618.318 1085H751.398L828.042 981.087L784.686 952.186L882.828 561.056C1059.51 547.403 1200 326.664 1200 147.724Z" fill="#767676"/>
</svg>
