<svg width="73" height="67" viewBox="0 0 73 67" fill="none" xmlns="http://www.w3.org/2000/svg">
<g filter="url(#filter0_d_144_4527)">
<path d="M45.1339 22.3325H14.0687C12.4843 22.3325 11.2 23.6169 11.2 25.2013V48.8232C11.2 50.4076 12.4843 51.692 14.0687 51.692H45.1339C46.7183 51.692 48.0027 50.4076 48.0027 48.8232V25.2013C48.0027 23.6169 46.7183 22.3325 45.1339 22.3325Z" fill="black"/>
</g>
<path d="M45.1339 22.3325H14.0687C12.4843 22.3325 11.2 23.6169 11.2 25.2013V48.8232C11.2 50.4076 12.4843 51.692 14.0687 51.692H45.1339C46.7183 51.692 48.0027 50.4076 48.0027 48.8232V25.2013C48.0027 23.6169 46.7183 22.3325 45.1339 22.3325Z" fill="white"/>
<path d="M36.8689 26.9199H16.2521C15.6187 26.9199 15.1052 27.4334 15.1052 28.0668C15.1052 28.7002 15.6187 29.2136 16.2521 29.2136H36.8689C37.5023 29.2136 38.0157 28.7002 38.0157 28.0668C38.0157 27.4334 37.5023 26.9199 36.8689 26.9199Z" fill="#2A394E"/>
<path d="M24.8929 32.8835H16.2521C15.6187 32.8835 15.1052 33.397 15.1052 34.0304C15.1052 34.6638 15.6187 35.1773 16.2521 35.1773H24.8929C25.5263 35.1773 26.0398 34.6638 26.0398 34.0304C26.0398 33.397 25.5263 32.8835 24.8929 32.8835Z" fill="#FFBD36"/>
<path d="M22.0291 44.8108H16.2521C15.6187 44.8108 15.1052 45.3243 15.1052 45.9576C15.1052 46.591 15.6187 47.1045 16.2521 47.1045H22.0291C22.6625 47.1045 23.176 46.591 23.176 45.9576C23.176 45.3243 22.6625 44.8108 22.0291 44.8108Z" fill="black"/>
<path d="M32.4429 44.8108H26.6659C26.0325 44.8108 25.519 45.3243 25.519 45.9576C25.519 46.591 26.0325 47.1045 26.6659 47.1045H32.4429C33.0763 47.1045 33.5898 46.591 33.5898 45.9576C33.5898 45.3243 33.0763 44.8108 32.4429 44.8108Z" fill="black"/>
<path d="M42.8568 44.8108H37.0797C36.4463 44.8108 35.9329 45.3243 35.9329 45.9576C35.9329 46.591 36.4463 47.1045 37.0797 47.1045H42.8568C43.4901 47.1045 44.0036 46.591 44.0036 45.9576C44.0036 45.3243 43.4901 44.8108 42.8568 44.8108Z" fill="black"/>
<path d="M26.7154 38.8472H16.2521C15.6187 38.8472 15.1052 39.3606 15.1052 39.994C15.1052 40.6274 15.6187 41.1409 16.2521 41.1409H26.7154C27.3487 41.1409 27.8622 40.6274 27.8622 39.994C27.8622 39.3606 27.3487 38.8472 26.7154 38.8472Z" fill="black"/>
<g filter="url(#filter1_d_144_4527)">
<path d="M52.1637 15.7163H21.0985C19.5141 15.7163 18.2297 17.0007 18.2297 18.5851V42.207C18.2297 43.7914 19.5141 45.0758 21.0985 45.0758H52.1637C53.7481 45.0758 55.0324 43.7914 55.0324 42.207V18.5851C55.0324 17.0007 53.7481 15.7163 52.1637 15.7163Z" fill="black"/>
</g>
<path d="M52.1637 15.7163H21.0985C19.5141 15.7163 18.2297 17.0007 18.2297 18.5851V42.207C18.2297 43.7914 19.5141 45.0758 21.0985 45.0758H52.1637C53.7481 45.0758 55.0324 43.7914 55.0324 42.207V18.5851C55.0324 17.0007 53.7481 15.7163 52.1637 15.7163Z" fill="white"/>
<path d="M43.8987 20.3037H23.2819C22.6485 20.3037 22.135 20.8172 22.135 21.4506C22.135 22.084 22.6485 22.5974 23.2819 22.5974H43.8987C44.532 22.5974 45.0455 22.084 45.0455 21.4506C45.0455 20.8172 44.532 20.3037 43.8987 20.3037Z" fill="#2A394E"/>
<path d="M31.9227 26.2673H23.2819C22.6485 26.2673 22.135 26.7808 22.135 27.4142C22.135 28.0476 22.6485 28.561 23.2819 28.561H31.9227C32.5561 28.561 33.0696 28.0476 33.0696 27.4142C33.0696 26.7808 32.5561 26.2673 31.9227 26.2673Z" fill="#FFBD36"/>
<path d="M29.0589 38.1946H23.2819C22.6485 38.1946 22.135 38.708 22.135 39.3414C22.135 39.9748 22.6485 40.4883 23.2819 40.4883H29.0589C29.6923 40.4883 30.2058 39.9748 30.2058 39.3414C30.2058 38.708 29.6923 38.1946 29.0589 38.1946Z" fill="black"/>
<path d="M39.4727 38.1946H33.6957C33.0623 38.1946 32.5488 38.708 32.5488 39.3414C32.5488 39.9748 33.0623 40.4883 33.6957 40.4883H39.4727C40.1061 40.4883 40.6196 39.9748 40.6196 39.3414C40.6196 38.708 40.1061 38.1946 39.4727 38.1946Z" fill="black"/>
<path d="M49.8865 38.1946H44.1095C43.4761 38.1946 42.9626 38.708 42.9626 39.3414C42.9626 39.9748 43.4761 40.4883 44.1095 40.4883H49.8865C50.5199 40.4883 51.0334 39.9748 51.0334 39.3414C51.0334 38.708 50.5199 38.1946 49.8865 38.1946Z" fill="black"/>
<path d="M33.7451 32.231H23.2819C22.6485 32.231 22.135 32.7444 22.135 33.3778C22.135 34.0112 22.6485 34.5247 23.2819 34.5247H33.7451C34.3785 34.5247 34.892 34.0112 34.892 33.3778C34.892 32.7444 34.3785 32.231 33.7451 32.231Z" fill="black"/>
<g filter="url(#filter2_d_144_4527)">
<path d="M59.1932 9.1001H28.128C26.5437 9.1001 25.2593 10.3845 25.2593 11.9688V35.5908C25.2593 37.1752 26.5437 38.4596 28.128 38.4596H59.1932C60.7776 38.4596 62.062 37.1752 62.062 35.5908V11.9688C62.062 10.3845 60.7776 9.1001 59.1932 9.1001Z" fill="black"/>
</g>
<path d="M59.1932 9.1001H28.128C26.5437 9.1001 25.2593 10.3845 25.2593 11.9688V35.5908C25.2593 37.1752 26.5437 38.4596 28.128 38.4596H59.1932C60.7776 38.4596 62.062 37.1752 62.062 35.5908V11.9688C62.062 10.3845 60.7776 9.1001 59.1932 9.1001Z" fill="white"/>
<path d="M51.282 13.6875H30.6652C30.0318 13.6875 29.5183 14.201 29.5183 14.8344C29.5183 15.4677 30.0318 15.9812 30.6652 15.9812H51.282C51.9153 15.9812 52.4288 15.4677 52.4288 14.8344C52.4288 14.201 51.9153 13.6875 51.282 13.6875Z" fill="#2A394E"/>
<path d="M39.306 19.6511H30.6652C30.0318 19.6511 29.5183 20.1646 29.5183 20.798C29.5183 21.4314 30.0318 21.9448 30.6652 21.9448H39.306C39.9394 21.9448 40.4529 21.4314 40.4529 20.798C40.4529 20.1646 39.9394 19.6511 39.306 19.6511Z" fill="#FFBD36"/>
<path d="M36.4422 31.5784H30.6652C30.0318 31.5784 29.5183 32.0918 29.5183 32.7252C29.5183 33.3586 30.0318 33.8721 30.6652 33.8721H36.4422C37.0756 33.8721 37.5891 33.3586 37.5891 32.7252C37.5891 32.0918 37.0756 31.5784 36.4422 31.5784Z" fill="black"/>
<path d="M46.856 31.5784H41.079C40.4456 31.5784 39.9321 32.0918 39.9321 32.7252C39.9321 33.3586 40.4456 33.8721 41.079 33.8721H46.856C47.4894 33.8721 48.0029 33.3586 48.0029 32.7252C48.0029 32.0918 47.4894 31.5784 46.856 31.5784Z" fill="black"/>
<path d="M57.2701 31.5784H51.493C50.8597 31.5784 50.3462 32.0918 50.3462 32.7252C50.3462 33.3586 50.8597 33.8721 51.493 33.8721H57.2701C57.9035 33.8721 58.4169 33.3586 58.4169 32.7252C58.4169 32.0918 57.9035 31.5784 57.2701 31.5784Z" fill="black"/>
<path d="M41.1284 25.6147H30.6652C30.0318 25.6147 29.5183 26.1282 29.5183 26.7616C29.5183 27.395 30.0318 27.9085 30.6652 27.9085H41.1284C41.7618 27.9085 42.2753 27.395 42.2753 26.7616C42.2753 26.1282 41.7618 25.6147 41.1284 25.6147Z" fill="black"/>
<path d="M64.476 35.1511H31.1158C30.1652 35.1511 29.3945 35.9218 29.3945 36.8724V47.9028C29.3945 48.8535 30.1652 49.6241 31.1158 49.6241H64.476C65.4266 49.6241 66.1972 48.8535 66.1972 47.9028V36.8724C66.1972 35.9218 65.4266 35.1511 64.476 35.1511Z" fill="#2ADEA1"/>
<path d="M63.3025 51.6917C67.87 51.6917 71.5728 47.9889 71.5728 43.4214C71.5728 38.8538 67.87 35.1511 63.3025 35.1511C58.735 35.1511 55.0322 38.8538 55.0322 43.4214C55.0322 47.9889 58.735 51.6917 63.3025 51.6917Z" fill="#436AF5" fill-opacity="0.115296"/>
<path d="M63.3025 48.3836C66.043 48.3836 68.2647 46.1619 68.2647 43.4214C68.2647 40.6809 66.043 38.4592 63.3025 38.4592C60.562 38.4592 58.3403 40.6809 58.3403 43.4214C58.3403 46.1619 60.562 48.3836 63.3025 48.3836Z" fill="#436AF5" fill-opacity="0.249134"/>
<path d="M63.3024 45.9023C64.6726 45.9023 65.7835 44.7915 65.7835 43.4213C65.7835 42.051 64.6726 40.9402 63.3024 40.9402C61.9321 40.9402 60.8213 42.051 60.8213 43.4213C60.8213 44.7915 61.9321 45.9023 63.3024 45.9023Z" fill="#436AF5" fill-opacity="0.750458"/>
<path fill-rule="evenodd" clip-rule="evenodd" d="M62.8889 48.7971V44.2277C62.8889 43.7824 63.2592 43.4214 63.7159 43.4214C64.1727 43.4214 64.543 43.7824 64.543 44.2277V48.2595" fill="white"/>
<path d="M62.8889 48.7971V44.2277C62.8889 43.7824 63.2592 43.4214 63.7159 43.4214C64.1727 43.4214 64.543 43.7824 64.543 44.2277V48.2595" stroke="black" stroke-width="1.8" stroke-linecap="round" stroke-linejoin="round"/>
<path fill-rule="evenodd" clip-rule="evenodd" d="M64.5432 48.1253V47.0915C64.5432 46.8145 64.7008 46.5585 64.9567 46.42C65.2126 46.2815 65.5279 46.2815 65.7838 46.42C66.0396 46.5585 66.1973 46.8145 66.1973 47.0915V48.3837" fill="white"/>
<path d="M64.5432 48.1253V47.0915C64.5432 46.8145 64.7008 46.5585 64.9567 46.42C65.2126 46.2815 65.5279 46.2815 65.7838 46.42C66.0396 46.5585 66.1973 46.8145 66.1973 47.0915V48.3837" stroke="black" stroke-width="1.8" stroke-linecap="round" stroke-linejoin="round"/>
<path fill-rule="evenodd" clip-rule="evenodd" d="M66.197 47.5565C66.197 47.0998 66.5673 46.7295 67.024 46.7295C67.4808 46.7295 67.8511 47.0998 67.8511 47.5565V48.3835" fill="white"/>
<path d="M66.197 47.5565C66.197 47.0998 66.5673 46.7295 67.024 46.7295C67.4808 46.7295 67.8511 47.0998 67.8511 47.5565V48.3835" stroke="black" stroke-width="1.8" stroke-linecap="round" stroke-linejoin="round"/>
<path fill-rule="evenodd" clip-rule="evenodd" d="M67.8488 47.9701C67.8488 47.5133 68.2196 47.1431 68.6769 47.1431C69.1343 47.1431 69.505 47.5133 69.505 47.9701V50.4512C69.505 52.2782 68.022 53.7593 66.1927 53.7593H65.0886H65.2034C64.0891 53.7595 63.0494 53.2001 62.4365 52.2706C62.4003 52.2156 62.3642 52.1605 62.3283 52.1052C62.156 51.8411 61.5515 50.7886 60.5142 48.9471C60.2943 48.5568 60.4255 48.0625 60.8101 47.8323C61.2155 47.5893 61.7343 47.653 62.0688 47.9866L62.8803 48.7971" fill="white"/>
<path d="M67.8488 47.9701C67.8488 47.5133 68.2196 47.1431 68.6769 47.1431C69.1343 47.1431 69.505 47.5133 69.505 47.9701V50.4512C69.505 52.2782 68.022 53.7593 66.1927 53.7593H65.0886H65.2034C64.0891 53.7595 63.0493 53.2001 62.4365 52.2706C62.4003 52.2156 62.3642 52.1605 62.3283 52.1052C62.156 51.8411 61.5515 50.7886 60.5142 48.9471C60.2943 48.5568 60.4255 48.0625 60.8101 47.8323C61.2155 47.5893 61.7343 47.653 62.0688 47.9866L62.8803 48.7971" stroke="black" stroke-width="1.8" stroke-linecap="round" stroke-linejoin="round"/>
<path d="M37.7947 46.2181C38.2195 46.2973 38.5687 46.5097 38.8423 46.8553C39.1159 47.2009 39.2527 47.5969 39.2527 48.0433C39.2527 48.4465 39.1519 48.8029 38.9503 49.1125C38.7559 49.4149 38.4715 49.6525 38.0971 49.8253C37.7227 49.9981 37.2799 50.0845 36.7687 50.0845H33.5179V42.5461H36.6283C37.1395 42.5461 37.5787 42.6289 37.9459 42.7945C38.3203 42.9601 38.6011 43.1905 38.7883 43.4857C38.9827 43.7809 39.0799 44.1157 39.0799 44.4901C39.0799 44.9293 38.9611 45.2965 38.7235 45.5917C38.4931 45.8869 38.1835 46.0957 37.7947 46.2181ZM35.0299 45.6565H36.4123C36.7723 45.6565 37.0495 45.5773 37.2439 45.4189C37.4383 45.2533 37.5355 45.0193 37.5355 44.7169C37.5355 44.4145 37.4383 44.1805 37.2439 44.0149C37.0495 43.8493 36.7723 43.7665 36.4123 43.7665H35.0299V45.6565ZM36.5527 48.8533C36.9199 48.8533 37.2043 48.7669 37.4059 48.5941C37.6147 48.4213 37.7191 48.1765 37.7191 47.8597C37.7191 47.5357 37.6111 47.2837 37.3951 47.1037C37.1791 46.9165 36.8875 46.8229 36.5203 46.8229H35.0299V48.8533H36.5527ZM46.1061 44.1013V50.0845H44.5833V49.3285C44.3889 49.5877 44.1333 49.7929 43.8165 49.9441C43.5069 50.0881 43.1685 50.1601 42.8013 50.1601C42.3333 50.1601 41.9193 50.0629 41.5593 49.8685C41.1993 49.6669 40.9149 49.3753 40.7061 48.9937C40.5045 48.6049 40.4037 48.1441 40.4037 47.6113V44.1013H41.9157V47.3953C41.9157 47.8705 42.0345 48.2377 42.2721 48.4969C42.5097 48.7489 42.8337 48.8749 43.2441 48.8749C43.6617 48.8749 43.9893 48.7489 44.2269 48.4969C44.4645 48.2377 44.5833 47.8705 44.5833 47.3953V44.1013H46.1061ZM53.322 44.1013L49.6176 52.9141H48.0084L49.3044 49.9333L46.9068 44.1013H48.6024L50.1468 48.2809L51.7128 44.1013H53.322ZM39.9655 66.0845H38.4535L35.0299 60.9113V66.0845H33.5179V58.5353H35.0299L38.4535 63.7193V58.5353H39.9655V66.0845ZM44.1165 66.1817C43.5405 66.1817 43.0221 66.0557 42.5613 65.8037C42.1005 65.5445 41.7369 65.1809 41.4705 64.7129C41.2113 64.2449 41.0817 63.7049 41.0817 63.0929C41.0817 62.4809 41.2149 61.9409 41.4813 61.4729C41.7549 61.0049 42.1257 60.6449 42.5937 60.3929C43.0617 60.1337 43.5837 60.0041 44.1597 60.0041C44.7357 60.0041 45.2577 60.1337 45.7257 60.3929C46.1937 60.6449 46.5609 61.0049 46.8273 61.4729C47.1009 61.9409 47.2377 62.4809 47.2377 63.0929C47.2377 63.7049 47.0973 64.2449 46.8165 64.7129C46.5429 65.1809 46.1685 65.5445 45.6933 65.8037C45.2253 66.0557 44.6997 66.1817 44.1165 66.1817ZM44.1165 64.8641C44.3901 64.8641 44.6457 64.7993 44.8833 64.6697C45.1281 64.5329 45.3225 64.3313 45.4665 64.0649C45.6105 63.7985 45.6825 63.4745 45.6825 63.0929C45.6825 62.5241 45.5313 62.0885 45.2289 61.7861C44.9337 61.4765 44.5701 61.3217 44.1381 61.3217C43.7061 61.3217 43.3425 61.4765 43.0473 61.7861C42.7593 62.0885 42.6153 62.5241 42.6153 63.0929C42.6153 63.6617 42.7557 64.1009 43.0365 64.4105C43.3245 64.7129 43.6845 64.8641 44.1165 64.8641ZM56.6412 60.1013L54.8916 66.0845H53.2608L52.17 61.9049L51.0792 66.0845H49.4376L47.6772 60.1013H49.2108L50.2692 64.6589L51.414 60.1013H53.0124L54.1356 64.6481L55.194 60.1013H56.6412Z" fill="white"/>
<defs>
<filter id="filter0_d_144_4527" x="0.399952" y="13.3325" width="58.4027" height="50.9594" filterUnits="userSpaceOnUse" color-interpolation-filters="sRGB">
<feFlood flood-opacity="0" result="BackgroundImageFix"/>
<feColorMatrix in="SourceAlpha" type="matrix" values="0 0 0 0 0 0 0 0 0 0 0 0 0 0 0 0 0 0 127 0" result="hardAlpha"/>
<feOffset dy="1.8"/>
<feGaussianBlur stdDeviation="5.4"/>
<feColorMatrix type="matrix" values="0 0 0 0 0.262745 0 0 0 0 0.337255 0 0 0 0 0.627451 0 0 0 0.196338 0"/>
<feBlend mode="normal" in2="BackgroundImageFix" result="effect1_dropShadow_144_4527"/>
<feBlend mode="normal" in="SourceGraphic" in2="effect1_dropShadow_144_4527" result="shape"/>
</filter>
<filter id="filter1_d_144_4527" x="7.42974" y="6.71631" width="58.4027" height="50.9594" filterUnits="userSpaceOnUse" color-interpolation-filters="sRGB">
<feFlood flood-opacity="0" result="BackgroundImageFix"/>
<feColorMatrix in="SourceAlpha" type="matrix" values="0 0 0 0 0 0 0 0 0 0 0 0 0 0 0 0 0 0 127 0" result="hardAlpha"/>
<feOffset dy="1.8"/>
<feGaussianBlur stdDeviation="5.4"/>
<feColorMatrix type="matrix" values="0 0 0 0 0.262745 0 0 0 0 0.337255 0 0 0 0 0.627451 0 0 0 0.196338 0"/>
<feBlend mode="normal" in2="BackgroundImageFix" result="effect1_dropShadow_144_4527"/>
<feBlend mode="normal" in="SourceGraphic" in2="effect1_dropShadow_144_4527" result="shape"/>
</filter>
<filter id="filter2_d_144_4527" x="14.4593" y="0.100098" width="58.4027" height="50.9594" filterUnits="userSpaceOnUse" color-interpolation-filters="sRGB">
<feFlood flood-opacity="0" result="BackgroundImageFix"/>
<feColorMatrix in="SourceAlpha" type="matrix" values="0 0 0 0 0 0 0 0 0 0 0 0 0 0 0 0 0 0 127 0" result="hardAlpha"/>
<feOffset dy="1.8"/>
<feGaussianBlur stdDeviation="5.4"/>
<feColorMatrix type="matrix" values="0 0 0 0 0.262745 0 0 0 0 0.337255 0 0 0 0 0.627451 0 0 0 0.196338 0"/>
<feBlend mode="normal" in2="BackgroundImageFix" result="effect1_dropShadow_144_4527"/>
<feBlend mode="normal" in="SourceGraphic" in2="effect1_dropShadow_144_4527" result="shape"/>
</filter>
</defs>
</svg>
