<svg width="88" height="36" viewBox="0 0 88 36" fill="none" xmlns="http://www.w3.org/2000/svg">
<g filter="url(#filter0_d_144_4404)">
<path d="M7.44725 1.8999H81.0527C82.8461 1.8999 84.2999 3.35377 84.2999 5.1472V30.5844H4.19995V5.1472C4.19995 3.35377 5.65382 1.8999 7.44725 1.8999Z" fill="black"/>
</g>
<path fill-rule="evenodd" clip-rule="evenodd" d="M81.0526 2.17041C81.8745 2.17041 82.6187 2.50359 83.1574 3.04226C83.6961 3.58094 84.0292 4.32511 84.0292 5.1471V30.3137H4.47046V5.1471C4.47046 4.32511 4.80364 3.58094 5.34231 3.04226C5.88099 2.50359 6.62516 2.17041 7.44715 2.17041H81.0526Z" fill="url(#paint0_linear_144_4404)" stroke="white" stroke-width="0.9"/>
<path d="M10.6947 10.8989C11.8903 10.8989 12.8595 9.89168 12.8595 8.64918C12.8595 7.40667 11.8903 6.39941 10.6947 6.39941C9.49903 6.39941 8.52979 7.40667 8.52979 8.64918C8.52979 9.89168 9.49903 10.8989 10.6947 10.8989Z" fill="#E94656"/>
<path d="M17.189 10.8989C18.3847 10.8989 19.3539 9.89168 19.3539 8.64918C19.3539 7.40667 18.3847 6.39941 17.189 6.39941C15.9934 6.39941 15.0242 7.40667 15.0242 8.64918C15.0242 9.89168 15.9934 10.8989 17.189 10.8989Z" fill="#FFD020"/>
<path d="M23.6837 10.8989C24.8793 10.8989 25.8485 9.89168 25.8485 8.64918C25.8485 7.40667 24.8793 6.39941 23.6837 6.39941C22.488 6.39941 21.5188 7.40667 21.5188 8.64918C21.5188 9.89168 22.488 10.8989 23.6837 10.8989Z" fill="#2ADEA1"/>
<path d="M79.9703 13.8066H8.52979V33.8316H79.9703V13.8066Z" fill="white"/>
<path d="M39.1085 21.925H37.4848C36.4387 21.925 35.5906 22.7731 35.5906 23.8193C35.5906 24.8655 36.4387 25.7136 37.4848 25.7136H39.1085C40.1547 25.7136 41.0027 24.8655 41.0027 23.8193C41.0027 22.7731 40.1547 21.925 39.1085 21.925Z" fill="#E6E9F3"/>
<path d="M39.1085 15.4304H37.4848C36.4387 15.4304 35.5906 16.2785 35.5906 17.3247C35.5906 18.3708 36.4387 19.2189 37.4848 19.2189H39.1085C40.1547 19.2189 41.0027 18.3708 41.0027 17.3247C41.0027 16.2785 40.1547 15.4304 39.1085 15.4304Z" fill="#E6E9F3"/>
<path d="M39.1085 28.4197H37.4848C36.4387 28.4197 35.5906 29.2678 35.5906 30.3139C35.5906 31.3601 36.4387 32.2082 37.4848 32.2082H39.1085C40.1547 32.2082 41.0027 31.3601 41.0027 30.3139C41.0027 29.2678 40.1547 28.4197 39.1085 28.4197Z" fill="#E6E9F3"/>
<path d="M31.5313 21.925H29.9077C28.8615 21.925 28.0134 22.7731 28.0134 23.8193C28.0134 24.8655 28.8615 25.7136 29.9077 25.7136H31.5313C32.5775 25.7136 33.4256 24.8655 33.4256 23.8193C33.4256 22.7731 32.5775 21.925 31.5313 21.925Z" fill="#E6E9F3"/>
<path d="M31.5313 15.4304H29.9077C28.8615 15.4304 28.0134 16.2785 28.0134 17.3247C28.0134 18.3708 28.8615 19.2189 29.9077 19.2189H31.5313C32.5775 19.2189 33.4256 18.3708 33.4256 17.3247C33.4256 16.2785 32.5775 15.4304 31.5313 15.4304Z" fill="#E6E9F3"/>
<path d="M31.5313 28.4197H29.9077C28.8615 28.4197 28.0134 29.2678 28.0134 30.3139C28.0134 31.3601 28.8615 32.2082 29.9077 32.2082H31.5313C32.5775 32.2082 33.4256 31.3601 33.4256 30.3139C33.4256 29.2678 32.5775 28.4197 31.5313 28.4197Z" fill="#E6E9F3"/>
<path d="M23.9544 21.925H22.3308C21.2846 21.925 20.4365 22.7731 20.4365 23.8193C20.4365 24.8655 21.2846 25.7136 22.3308 25.7136H23.9544C25.0006 25.7136 25.8487 24.8655 25.8487 23.8193C25.8487 22.7731 25.0006 21.925 23.9544 21.925Z" fill="#2ADEA1"/>
<path d="M23.9544 15.4304H22.3308C21.2846 15.4304 20.4365 16.2785 20.4365 17.3247C20.4365 18.3708 21.2846 19.2189 22.3308 19.2189H23.9544C25.0006 19.2189 25.8487 18.3708 25.8487 17.3247C25.8487 16.2785 25.0006 15.4304 23.9544 15.4304Z" fill="#2ADEA1"/>
<path d="M23.9544 28.4197H22.3308C21.2846 28.4197 20.4365 29.2678 20.4365 30.3139C20.4365 31.3601 21.2846 32.2082 22.3308 32.2082H23.9544C25.0006 32.2082 25.8487 31.3601 25.8487 30.3139C25.8487 29.2678 25.0006 28.4197 23.9544 28.4197Z" fill="#2ADEA1"/>
<path d="M15.836 21.925H14.2124C13.1662 21.925 12.3181 22.7731 12.3181 23.8193C12.3181 24.8655 13.1662 25.7136 14.2124 25.7136H15.836C16.8822 25.7136 17.7303 24.8655 17.7303 23.8193C17.7303 22.7731 16.8822 21.925 15.836 21.925Z" fill="#E6E9F3"/>
<path d="M15.836 15.4304H14.2124C13.1662 15.4304 12.3181 16.2785 12.3181 17.3247C12.3181 18.3708 13.1662 19.2189 14.2124 19.2189H15.836C16.8822 19.2189 17.7303 18.3708 17.7303 17.3247C17.7303 16.2785 16.8822 15.4304 15.836 15.4304Z" fill="#E6E9F3"/>
<path d="M15.836 28.4197H14.2124C13.1662 28.4197 12.3181 29.2678 12.3181 30.3139C12.3181 31.3601 13.1662 32.2082 14.2124 32.2082H15.836C16.8822 32.2082 17.7303 31.3601 17.7303 30.3139C17.7303 29.2678 16.8822 28.4197 15.836 28.4197Z" fill="#E6E9F3"/>
<path d="M74.2874 21.925H72.6638C71.6176 21.925 70.7695 22.7731 70.7695 23.8193C70.7695 24.8655 71.6176 25.7136 72.6638 25.7136H74.2874C75.3336 25.7136 76.1817 24.8655 76.1817 23.8193C76.1817 22.7731 75.3336 21.925 74.2874 21.925Z" fill="#E6E9F3"/>
<path d="M74.2874 15.4304H72.6638C71.6176 15.4304 70.7695 16.2785 70.7695 17.3247C70.7695 18.3708 71.6176 19.2189 72.6638 19.2189H74.2874C75.3336 19.2189 76.1817 18.3708 76.1817 17.3247C76.1817 16.2785 75.3336 15.4304 74.2874 15.4304Z" fill="#E6E9F3"/>
<path d="M74.2874 28.4197H72.6638C71.6176 28.4197 70.7695 29.2678 70.7695 30.3139C70.7695 31.3601 71.6176 32.2082 72.6638 32.2082H74.2874C75.3336 32.2082 76.1817 31.3601 76.1817 30.3139C76.1817 29.2678 75.3336 28.4197 74.2874 28.4197Z" fill="#E6E9F3"/>
<path d="M66.7103 21.925H65.0866C64.0405 21.925 63.1924 22.7731 63.1924 23.8193C63.1924 24.8655 64.0405 25.7136 65.0866 25.7136H66.7103C67.7565 25.7136 68.6045 24.8655 68.6045 23.8193C68.6045 22.7731 67.7565 21.925 66.7103 21.925Z" fill="#E6E9F3"/>
<path d="M66.7103 15.4304H65.0866C64.0405 15.4304 63.1924 16.2785 63.1924 17.3247C63.1924 18.3708 64.0405 19.2189 65.0866 19.2189H66.7103C67.7565 19.2189 68.6045 18.3708 68.6045 17.3247C68.6045 16.2785 67.7565 15.4304 66.7103 15.4304Z" fill="#E6E9F3"/>
<path d="M66.7103 28.4197H65.0866C64.0405 28.4197 63.1924 29.2678 63.1924 30.3139C63.1924 31.3601 64.0405 32.2082 65.0866 32.2082H66.7103C67.7565 32.2082 68.6045 31.3601 68.6045 30.3139C68.6045 29.2678 67.7565 28.4197 66.7103 28.4197Z" fill="#E6E9F3"/>
<path d="M59.1334 21.925H57.5097C56.4636 21.925 55.6155 22.7731 55.6155 23.8193C55.6155 24.8655 56.4636 25.7136 57.5097 25.7136H59.1334C60.1796 25.7136 61.0276 24.8655 61.0276 23.8193C61.0276 22.7731 60.1796 21.925 59.1334 21.925Z" fill="#F18792"/>
<path d="M59.1334 15.4304H57.5097C56.4636 15.4304 55.6155 16.2785 55.6155 17.3247C55.6155 18.3708 56.4636 19.2189 57.5097 19.2189H59.1334C60.1796 19.2189 61.0276 18.3708 61.0276 17.3247C61.0276 16.2785 60.1796 15.4304 59.1334 15.4304Z" fill="#F18792"/>
<path d="M59.1334 28.4197H57.5097C56.4636 28.4197 55.6155 29.2678 55.6155 30.3139C55.6155 31.3601 56.4636 32.2082 57.5097 32.2082H59.1334C60.1796 32.2082 61.0276 31.3601 61.0276 30.3139C61.0276 29.2678 60.1796 28.4197 59.1334 28.4197Z" fill="#F18792"/>
<path d="M51.5565 21.925H49.9328C48.8867 21.925 48.0386 22.7731 48.0386 23.8193C48.0386 24.8655 48.8867 25.7136 49.9328 25.7136H51.5565C52.6026 25.7136 53.4507 24.8655 53.4507 23.8193C53.4507 22.7731 52.6026 21.925 51.5565 21.925Z" fill="#E6E9F3"/>
<path d="M51.5565 15.4304H49.9328C48.8867 15.4304 48.0386 16.2785 48.0386 17.3247C48.0386 18.3708 48.8867 19.2189 49.9328 19.2189H51.5565C52.6026 19.2189 53.4507 18.3708 53.4507 17.3247C53.4507 16.2785 52.6026 15.4304 51.5565 15.4304Z" fill="#E6E9F3"/>
<path d="M51.5565 28.4197H49.9328C48.8867 28.4197 48.0386 29.2678 48.0386 30.3139C48.0386 31.3601 48.8867 32.2082 49.9328 32.2082H51.5565C52.6026 32.2082 53.4507 31.3601 53.4507 30.3139C53.4507 29.2678 52.6026 28.4197 51.5565 28.4197Z" fill="#E6E9F3"/>
<g filter="url(#filter1_d_144_4404)">
<path d="M72.1227 7.2395L77.5297 10.3612C78.032 10.6512 78.3415 11.1873 78.3415 11.7673V18.0107C78.3415 18.5908 78.032 19.1268 77.5297 19.4169L72.1227 22.5386C71.6203 22.8286 71.0014 22.8286 70.4991 22.5386L65.0921 19.4169C64.5897 19.1268 64.2803 18.5908 64.2803 18.0107V11.7673C64.2803 11.1873 64.5897 10.6512 65.0921 10.3612L70.4991 7.2395C71.0014 6.94946 71.6203 6.94946 72.1227 7.2395Z" fill="black"/>
</g>
<path fill-rule="evenodd" clip-rule="evenodd" d="M71.3109 7.56323C71.4978 7.56323 71.6847 7.61157 71.8521 7.70825L77.2591 10.83C77.4265 10.9266 77.5619 11.0643 77.6553 11.2262C77.7487 11.388 77.8003 11.574 77.8003 11.7674V18.0108C77.8003 18.3975 77.594 18.7548 77.2591 18.9482L71.8521 22.0699C71.5172 22.2633 71.1046 22.2633 70.7697 22.0699L65.3627 18.9482C65.0278 18.7548 64.8215 18.3975 64.8215 18.0108V11.7674C64.8215 11.574 64.8731 11.388 64.9666 11.2262C65.06 11.0643 65.1953 10.9266 65.3627 10.83L70.7697 7.70825C70.9372 7.61157 71.124 7.56323 71.3109 7.56323Z" fill="#A999FF" stroke="white" stroke-width="1.8"/>
<path d="M74.3484 14.598C74.1613 13.252 73.0967 12.1976 71.7489 12.0237C70.4011 11.8498 69.1037 12.5993 68.5811 13.8538M68.395 12.3654V13.8538H69.8834" stroke="white" stroke-width="1.8" stroke-linecap="round" stroke-linejoin="round"/>
<path d="M68.395 15.3423C68.5821 16.6883 69.6468 17.7426 70.9945 17.9165C72.3423 18.0904 73.6398 17.3409 74.1624 16.0865M74.3484 17.5748V16.0865H72.8601" stroke="white" stroke-width="1.8" stroke-linecap="round" stroke-linejoin="round"/>
<defs>
<filter id="filter0_d_144_4404" x="0.599951" y="0.0999024" width="87.3001" height="35.8846" filterUnits="userSpaceOnUse" color-interpolation-filters="sRGB">
<feFlood flood-opacity="0" result="BackgroundImageFix"/>
<feColorMatrix in="SourceAlpha" type="matrix" values="0 0 0 0 0 0 0 0 0 0 0 0 0 0 0 0 0 0 127 0" result="hardAlpha"/>
<feOffset dy="1.8"/>
<feGaussianBlur stdDeviation="1.8"/>
<feComposite in2="hardAlpha" operator="out"/>
<feColorMatrix type="matrix" values="0 0 0 0 0.552941 0 0 0 0 0.470588 0 0 0 0 1 0 0 0 0.198751 0"/>
<feBlend mode="normal" in2="BackgroundImageFix" result="effect1_dropShadow_144_4404"/>
<feBlend mode="normal" in="SourceGraphic" in2="effect1_dropShadow_144_4404" result="shape"/>
</filter>
<filter id="filter1_d_144_4404" x="60.6803" y="5.22197" width="21.2613" height="22.9341" filterUnits="userSpaceOnUse" color-interpolation-filters="sRGB">
<feFlood flood-opacity="0" result="BackgroundImageFix"/>
<feColorMatrix in="SourceAlpha" type="matrix" values="0 0 0 0 0 0 0 0 0 0 0 0 0 0 0 0 0 0 127 0" result="hardAlpha"/>
<feOffset dy="1.8"/>
<feGaussianBlur stdDeviation="1.8"/>
<feComposite in2="hardAlpha" operator="out"/>
<feColorMatrix type="matrix" values="0 0 0 0 0.552941 0 0 0 0 0.470588 0 0 0 0 1 0 0 0 0.199925 0"/>
<feBlend mode="normal" in2="BackgroundImageFix" result="effect1_dropShadow_144_4404"/>
<feBlend mode="normal" in="SourceGraphic" in2="effect1_dropShadow_144_4404" result="shape"/>
</filter>
<linearGradient id="paint0_linear_144_4404" x1="3982.41" y1="2.17041" x2="3982.41" y2="2816.49" gradientUnits="userSpaceOnUse">
<stop stop-color="white"/>
<stop offset="1" stop-color="#ECEFF7"/>
</linearGradient>
</defs>
</svg>
