<svg width="115" height="46" viewBox="0 0 115 46" fill="none" xmlns="http://www.w3.org/2000/svg">
<g filter="url(#filter0_d_144_4509)">
<path d="M8.80541 1.80005H106.395C108.772 1.80005 110.7 3.72764 110.7 6.10545V39.8311H4.5V6.10545C4.5 3.72764 6.4276 1.80005 8.80541 1.80005Z" fill="black"/>
</g>
<path fill-rule="evenodd" clip-rule="evenodd" d="M106.395 2.15894C107.485 2.15894 108.471 2.60068 109.185 3.31487C109.9 4.02907 110.341 5.01573 110.341 6.10556V39.4725H4.85889V6.10556C4.85889 5.01573 5.30063 4.02907 6.01483 3.31487C6.72902 2.60068 7.71568 2.15894 8.80551 2.15894H106.395Z" fill="url(#paint0_linear_144_4509)" stroke="white" stroke-width="0.9"/>
<path d="M13.1107 13.7313C14.696 13.7313 15.981 12.3958 15.981 10.7485C15.981 9.10108 14.696 7.76562 13.1107 7.76562C11.5255 7.76562 10.2405 9.10108 10.2405 10.7485C10.2405 12.3958 11.5255 13.7313 13.1107 13.7313Z" fill="#E94656"/>
<path d="M21.7216 13.7313C23.3068 13.7313 24.5919 12.3958 24.5919 10.7485C24.5919 9.10108 23.3068 7.76562 21.7216 7.76562C20.1364 7.76562 18.8513 9.10108 18.8513 10.7485C18.8513 12.3958 20.1364 13.7313 21.7216 13.7313Z" fill="#FFD020"/>
<path d="M30.3324 13.7313C31.9176 13.7313 33.2027 12.3958 33.2027 10.7485C33.2027 9.10108 31.9176 7.76562 30.3324 7.76562C28.7472 7.76562 27.4622 9.10108 27.4622 10.7485C27.4622 12.3958 28.7472 13.7313 30.3324 13.7313Z" fill="#2ADEA1"/>
<path d="M104.959 16.1514H10.2405V44.1365H104.959V16.1514Z" fill="white"/>
<path d="M19.7253 25.5501C20.2209 25.5501 20.6679 25.453 21.0664 25.2588C21.4649 25.0646 21.7814 24.7682 22.0158 24.3697C22.2502 23.9712 22.3674 23.4807 22.3674 22.898V18.4778H21.4532V22.908C21.4532 23.5309 21.3008 23.993 20.9961 24.2944C20.6914 24.5958 20.2711 24.7465 19.7353 24.7465C19.1929 24.7465 18.7693 24.5958 18.4645 24.2944C18.1598 23.993 18.0074 23.5309 18.0074 22.908V18.4778H17.0933V22.898C17.0933 23.4807 17.2088 23.9712 17.4398 24.3697C17.6709 24.7682 17.9857 25.0646 18.3842 25.2588C18.7827 25.453 19.2297 25.5501 19.7253 25.5501ZM25.8433 25.5702C26.2384 25.5702 26.5884 25.5016 26.8931 25.3643C27.1978 25.227 27.4339 25.0378 27.6013 24.7967C27.7688 24.5556 27.8525 24.2843 27.8525 23.983C27.8458 23.6481 27.7537 23.3769 27.5762 23.1692C27.3987 22.9616 27.1861 22.8059 26.9383 22.7021C26.6905 22.5983 26.369 22.4928 25.9739 22.3857C25.6591 22.2986 25.413 22.2199 25.2355 22.1496C25.058 22.0793 24.9107 21.9855 24.7935 21.8683C24.6763 21.7511 24.6177 21.6021 24.6177 21.4212C24.6177 21.1935 24.7148 21.0094 24.909 20.8687C25.1032 20.7281 25.3644 20.6578 25.6926 20.6578C26.0475 20.6578 26.3305 20.7448 26.5415 20.9189C26.7524 21.0931 26.868 21.3241 26.8881 21.6121H27.8022C27.7755 21.0763 27.5745 20.6544 27.1995 20.3463C26.8244 20.0383 26.3322 19.8842 25.7227 19.8842C25.3276 19.8842 24.976 19.9529 24.6679 20.0902C24.3598 20.2275 24.1221 20.4133 23.9546 20.6477C23.7872 20.8821 23.7035 21.14 23.7035 21.4212C23.7035 21.7762 23.7956 22.0625 23.9798 22.2802C24.1639 22.4978 24.3849 22.6619 24.6428 22.7724C24.9006 22.8829 25.2338 22.9918 25.6424 23.0989C26.0911 23.2128 26.4226 23.3283 26.6369 23.4455C26.8512 23.5627 26.9584 23.7419 26.9584 23.983C26.9584 24.2174 26.8579 24.4116 26.657 24.5656C26.4561 24.7197 26.1815 24.7967 25.8332 24.7967C25.4582 24.7967 25.1551 24.7096 24.9241 24.5355C24.693 24.3614 24.5641 24.137 24.5373 23.8624H23.593C23.6131 24.1973 23.7202 24.4936 23.9145 24.7515C24.1087 25.0093 24.3732 25.2102 24.7081 25.3542C25.043 25.4982 25.4214 25.5702 25.8433 25.5702ZM31.5192 25.5702C32.1756 25.5702 32.7248 25.4045 33.1668 25.0729C33.6088 24.7414 33.9035 24.3111 34.0508 23.782H33.0663C32.9592 24.0901 32.7733 24.3362 32.5088 24.5204C32.2442 24.7046 31.9144 24.7967 31.5192 24.7967C31.037 24.7967 30.6268 24.6443 30.2886 24.3396C29.9504 24.0349 29.7645 23.6113 29.7311 23.0688H34.1312C34.1513 22.8746 34.1613 22.6904 34.1613 22.5163C34.1613 22.014 34.0525 21.5636 33.8348 21.1651C33.6172 20.7666 33.3074 20.4535 32.9056 20.2258C32.5037 19.9981 32.0416 19.8842 31.5192 19.8842C30.9835 19.8842 30.5096 19.9997 30.0977 20.2308C29.6859 20.4619 29.3661 20.7917 29.1384 21.2203C28.9106 21.649 28.7968 22.1479 28.7968 22.7172C28.7968 23.2864 28.914 23.7871 29.1484 24.219C29.3828 24.651 29.7059 24.9842 30.1178 25.2186C30.5297 25.453 30.9969 25.5702 31.5192 25.5702ZM33.217 22.3254H29.7411C29.788 21.803 29.9738 21.3945 30.2987 21.0998C30.6235 20.8051 31.0169 20.6578 31.4791 20.6578C31.8005 20.6578 32.0935 20.7231 32.3581 20.8536C32.6226 20.9842 32.8319 21.1751 32.9859 21.4263C33.14 21.6774 33.217 21.9771 33.217 22.3254ZM36.281 25.4798V22.4861C36.281 21.3744 36.7934 20.8185 37.818 20.8185H38.0592V19.8742C37.6305 19.8742 37.2672 19.9612 36.9692 20.1354C36.6711 20.3095 36.4418 20.5539 36.281 20.8687V19.9746H35.3668V25.4798H36.281ZM41.0629 25.5702C41.458 25.5702 41.808 25.5016 42.1127 25.3643C42.4174 25.227 42.6535 25.0378 42.8209 24.7967C42.9884 24.5556 43.0721 24.2843 43.0721 23.983C43.0654 23.6481 42.9733 23.3769 42.7958 23.1692C42.6183 22.9616 42.4057 22.8059 42.1579 22.7021C41.9101 22.5983 41.5886 22.4928 41.1935 22.3857C40.8787 22.2986 40.6326 22.2199 40.4551 22.1496C40.2776 22.0793 40.1303 21.9855 40.0131 21.8683C39.8959 21.7511 39.8373 21.6021 39.8373 21.4212C39.8373 21.1935 39.9344 21.0094 40.1286 20.8687C40.3228 20.7281 40.584 20.6578 40.9122 20.6578C41.2672 20.6578 41.5501 20.7448 41.7611 20.9189C41.972 21.0931 42.0876 21.3241 42.1077 21.6121H43.0218C42.9951 21.0763 42.7941 20.6544 42.4191 20.3463C42.044 20.0383 41.5518 19.8842 40.9423 19.8842C40.5472 19.8842 40.1956 19.9529 39.8875 20.0902C39.5794 20.2275 39.3417 20.4133 39.1742 20.6477C39.0068 20.8821 38.9231 21.14 38.9231 21.4212C38.9231 21.7762 39.0152 22.0625 39.1994 22.2802C39.3835 22.4978 39.6046 22.6619 39.8624 22.7724C40.1202 22.8829 40.4534 22.9918 40.862 23.0989C41.3107 23.2128 41.6422 23.3283 41.8565 23.4455C42.0708 23.5627 42.178 23.7419 42.178 23.983C42.178 24.2174 42.0775 24.4116 41.8766 24.5656C41.6757 24.7197 41.4011 24.7967 41.0528 24.7967C40.6778 24.7967 40.3747 24.7096 40.1437 24.5355C39.9126 24.3614 39.7837 24.137 39.7569 23.8624H38.8126C38.8327 24.1973 38.9398 24.4936 39.1341 24.7515C39.3283 25.0093 39.5928 25.2102 39.9277 25.3542C40.2626 25.4982 40.641 25.5702 41.0629 25.5702ZM44.6493 21.2404C44.8167 21.2404 44.959 21.1801 45.0762 21.0596C45.1934 20.939 45.252 20.7917 45.252 20.6176C45.252 20.4434 45.1934 20.2961 45.0762 20.1755C44.959 20.055 44.8167 19.9947 44.6493 19.9947C44.4752 19.9947 44.3278 20.055 44.2073 20.1755C44.0867 20.2961 44.0264 20.4434 44.0264 20.6176C44.0264 20.7917 44.0867 20.939 44.2073 21.0596C44.3278 21.1801 44.4752 21.2404 44.6493 21.2404ZM44.6493 25.5401C44.8167 25.5401 44.959 25.4798 45.0762 25.3593C45.1934 25.2387 45.252 25.0914 45.252 24.9172C45.252 24.7431 45.1934 24.5958 45.0762 24.4752C44.959 24.3547 44.8167 24.2944 44.6493 24.2944C44.4752 24.2944 44.3278 24.3547 44.2073 24.4752C44.0867 24.5958 44.0264 24.7431 44.0264 24.9172C44.0264 25.0914 44.0867 25.2387 44.2073 25.3593C44.3278 25.4798 44.4752 25.5401 44.6493 25.5401Z" fill="#6A7582"/>
<path d="M22.5509 38.2812V36.6854H19.451C20.3159 36.0195 21.0277 35.3363 21.5865 34.636C22.1452 33.9357 22.4246 33.176 22.4246 32.357C22.4246 31.6069 22.193 30.9984 21.73 30.5315C21.2669 30.0646 20.58 29.8312 19.6691 29.8312C19.141 29.8312 18.6607 29.9345 18.2282 30.1412C17.7958 30.3478 17.4475 30.6693 17.1835 31.1056C16.9194 31.5418 16.7797 32.0853 16.7644 32.7359H18.6588C18.6588 32.3379 18.7411 32.0298 18.9056 31.8117C19.0702 31.5935 19.2979 31.4844 19.5888 31.4844C19.8796 31.4844 20.0977 31.5725 20.2432 31.7485C20.3886 31.9246 20.4613 32.1695 20.4613 32.4833C20.4613 32.8966 20.3121 33.3214 20.0136 33.7577C19.715 34.194 19.3496 34.6111 18.9171 35.0091C18.4847 35.4071 17.8934 35.9161 17.1433 36.5361C17.1662 36.5208 17.0476 36.6165 16.7874 36.8231V38.2812H22.5509ZM24.5256 38.4879C24.8624 38.4879 25.1399 38.3865 25.358 38.1837C25.5761 37.9808 25.6852 37.7302 25.6852 37.4316C25.6852 37.1255 25.5761 36.8691 25.358 36.6624C25.1399 36.4558 24.8624 36.3524 24.5256 36.3524C24.1812 36.3524 23.8999 36.4558 23.6818 36.6624C23.4636 36.8691 23.3545 37.1255 23.3545 37.4316C23.3545 37.7302 23.4636 37.9808 23.6818 38.1837C23.8999 38.3865 24.1812 38.4879 24.5256 38.4879ZM30.1399 38.3961C31.0583 38.3961 31.7702 38.1339 32.2753 37.6096C32.7805 37.0853 33.0331 36.3754 33.0331 35.4799C33.0331 34.9977 32.9451 34.5499 32.769 34.1366C32.593 33.7233 32.3155 33.3865 31.9367 33.1262C31.5578 32.866 31.0813 32.7359 30.5073 32.7359C30.1858 32.7359 29.8873 32.7895 29.6117 32.8966C29.3362 33.0038 29.1219 33.1415 28.9688 33.3099V31.7255H32.5509V30.0034H27.1892V34.9977H29.0836C29.1372 34.791 29.2482 34.6245 29.4166 34.4982C29.5849 34.3719 29.7993 34.3088 30.0595 34.3088C30.4116 34.3088 30.6795 34.4083 30.8632 34.6073C31.0469 34.8063 31.1387 35.0933 31.1387 35.4684C31.1387 35.8511 31.0507 36.1572 30.8747 36.3869C30.6986 36.6165 30.4307 36.7313 30.071 36.7313C29.7648 36.7313 29.5237 36.6528 29.3477 36.4959C29.1716 36.339 29.0606 36.1419 29.0147 35.9047H27.0974C27.1203 36.3945 27.2543 36.827 27.4992 37.202C27.7441 37.5771 28.0924 37.8698 28.544 38.0803C28.9956 38.2908 29.5275 38.3961 30.1399 38.3961ZM38.7048 38.3961V33.551L40.5188 38.3961H42.1031L43.9057 33.5625V38.3961H45.8689V30.3363H43.5612L41.3224 35.9161L39.0607 30.3363H36.7415V38.3961H38.7048ZM48.2685 31.3237C48.6053 31.3237 48.8827 31.2223 49.1009 31.0195C49.319 30.8166 49.4281 30.566 49.4281 30.2674C49.4281 29.9613 49.319 29.7068 49.1009 29.504C48.8827 29.3011 48.6053 29.1997 48.2685 29.1997C47.9241 29.1997 47.6428 29.3011 47.4246 29.504C47.2065 29.7068 47.0974 29.9613 47.0974 30.2674C47.0974 30.566 47.2065 30.8166 47.4246 31.0195C47.6428 31.2223 47.9241 31.3237 48.2685 31.3237ZM49.2444 38.3961V31.9896H47.2811V38.3961H49.2444ZM52.6313 38.3961V29.9001H50.668V38.3961H52.6313ZM56.0182 38.3961V29.9001H54.055V38.3961H56.0182ZM58.4292 31.3237C58.766 31.3237 59.0435 31.2223 59.2616 31.0195C59.4798 30.8166 59.5888 30.566 59.5888 30.2674C59.5888 29.9613 59.4798 29.7068 59.2616 29.504C59.0435 29.3011 58.766 29.1997 58.4292 29.1997C58.0848 29.1997 57.8035 29.3011 57.5854 29.504C57.3672 29.7068 57.2582 29.9613 57.2582 30.2674C57.2582 30.566 57.3672 30.8166 57.5854 31.0195C57.8035 31.2223 58.0848 31.3237 58.4292 31.3237ZM59.4051 38.3961V31.9896H57.4419V38.3961H59.4051ZM63.745 38.4879C64.3726 38.4879 64.9409 38.354 65.4499 38.0861C65.9589 37.8182 66.3608 37.4336 66.6554 36.9322C66.9501 36.4309 67.0975 35.8511 67.0975 35.1928C67.0975 34.5346 66.952 33.9548 66.6612 33.4534C66.3703 32.9521 65.9723 32.5675 65.4671 32.2996C64.962 32.0317 64.3956 31.8978 63.7679 31.8978C63.1403 31.8978 62.5739 32.0317 62.0687 32.2996C61.5636 32.5675 61.1656 32.9521 60.8747 33.4534C60.5839 33.9548 60.4384 34.5346 60.4384 35.1928C60.4384 35.8587 60.582 36.4404 60.869 36.938C61.156 37.4355 61.5502 37.8182 62.0515 38.0861C62.5529 38.354 63.1174 38.4879 63.745 38.4879ZM63.745 36.7887C63.3699 36.7887 63.058 36.6509 62.8093 36.3754C62.5605 36.0998 62.4361 35.7057 62.4361 35.1928C62.4361 34.6724 62.5624 34.2763 62.815 34.0045C63.0676 33.7328 63.3852 33.597 63.7679 33.597C64.143 33.597 64.4587 33.7347 64.7151 34.0103C64.9716 34.2858 65.0998 34.68 65.0998 35.1928C65.0998 35.7057 64.9677 36.0998 64.7037 36.3754C64.4396 36.6509 64.12 36.7887 63.745 36.7887ZM70.1055 38.3961V34.9173C70.1055 34.4887 70.2165 34.1557 70.4385 33.9184C70.6604 33.6812 70.9589 33.5625 71.334 33.5625C71.709 33.5625 72.0075 33.6812 72.2295 33.9184C72.4515 34.1557 72.5625 34.4887 72.5625 34.9173V38.3961H74.5142V34.6532C74.5142 33.8036 74.2904 33.1358 73.8426 32.6498C73.3948 32.1637 72.7959 31.9207 72.0458 31.9207C71.6248 31.9207 71.246 32.003 70.9092 32.1676C70.5724 32.3321 70.3045 32.556 70.1055 32.8392V31.9896H68.1422V38.3961H70.1055Z" fill="#2A394E"/>
<path d="M93.4784 29.7851C99.4229 29.7851 104.242 24.9661 104.242 19.0216C104.242 13.077 99.4229 8.25806 93.4784 8.25806C87.5338 8.25806 82.7148 13.077 82.7148 19.0216C82.7148 24.9661 87.5338 29.7851 93.4784 29.7851Z" fill="#FFCE68"/>
<path d="M93.4782 18.0431C94.8293 18.0431 95.9245 16.9479 95.9245 15.5969C95.9245 14.2459 94.8293 13.1506 93.4782 13.1506C92.1272 13.1506 91.032 14.2459 91.032 15.5969C91.032 16.9479 92.1272 18.0431 93.4782 18.0431Z" fill="white"/>
<path fill-rule="evenodd" clip-rule="evenodd" d="M98.1613 23.0299C98.1613 20.546 96.1273 18.5325 93.6182 18.5325C91.1092 18.5325 89.0752 20.546 89.0752 23.0299C89.0752 25.5137 98.1613 25.5137 98.1613 23.0299Z" fill="white"/>
<defs>
<filter id="filter0_d_144_4509" x="0.9" y="4.88758e-05" width="113.4" height="45.231" filterUnits="userSpaceOnUse" color-interpolation-filters="sRGB">
<feFlood flood-opacity="0" result="BackgroundImageFix"/>
<feColorMatrix in="SourceAlpha" type="matrix" values="0 0 0 0 0 0 0 0 0 0 0 0 0 0 0 0 0 0 127 0" result="hardAlpha"/>
<feOffset dy="1.8"/>
<feGaussianBlur stdDeviation="1.8"/>
<feComposite in2="hardAlpha" operator="out"/>
<feColorMatrix type="matrix" values="0 0 0 0 0.552941 0 0 0 0 0.470588 0 0 0 0 1 0 0 0 0.198751 0"/>
<feBlend mode="normal" in2="BackgroundImageFix" result="effect1_dropShadow_144_4509"/>
<feBlend mode="normal" in="SourceGraphic" in2="effect1_dropShadow_144_4509" result="shape"/>
</filter>
<linearGradient id="paint0_linear_144_4509" x1="5278.98" y1="2.15894" x2="5278.98" y2="3733.51" gradientUnits="userSpaceOnUse">
<stop stop-color="white"/>
<stop offset="1" stop-color="#ECEFF7"/>
</linearGradient>
</defs>
</svg>
