<svg width="106" height="42" viewBox="0 0 106 42" fill="none" xmlns="http://www.w3.org/2000/svg">
<g filter="url(#filter0_d_144_4575)">
<path d="M8.07712 1.80005H98.2231C100.42 1.80005 102.2 3.58062 102.2 5.77708V35.7396H4.1001V5.77708C4.1001 3.58062 5.88067 1.80005 8.07712 1.80005Z" fill="black"/>
</g>
<path fill-rule="evenodd" clip-rule="evenodd" d="M98.223 2.13159C99.2297 2.13159 100.141 2.53964 100.801 3.19937C101.461 3.85909 101.869 4.77049 101.869 5.7772V35.4083H4.4314V5.7772C4.4314 4.77049 4.83945 3.85909 5.49917 3.19937C6.1589 2.53964 7.0703 2.13159 8.077 2.13159H98.223Z" fill="url(#paint0_linear_144_4575)" stroke="white" stroke-width="0.9"/>
<path d="M12.0542 12.4479C13.5185 12.4479 14.7055 11.2561 14.7055 9.78595C14.7055 8.31581 13.5185 7.12402 12.0542 7.12402C10.5899 7.12402 9.40283 8.31581 9.40283 9.78595C9.40283 11.2561 10.5899 12.4479 12.0542 12.4479Z" fill="#E94656"/>
<path d="M20.0083 12.4479C21.4726 12.4479 22.6596 11.2561 22.6596 9.78595C22.6596 8.31581 21.4726 7.12402 20.0083 7.12402C18.544 7.12402 17.3569 8.31581 17.3569 9.78595C17.3569 11.2561 18.544 12.4479 20.0083 12.4479Z" fill="#FFD020"/>
<path d="M27.9621 12.4479C29.4264 12.4479 30.6135 11.2561 30.6135 9.78595C30.6135 8.31581 29.4264 7.12402 27.9621 7.12402C26.4978 7.12402 25.3108 8.31581 25.3108 9.78595C25.3108 11.2561 26.4978 12.4479 27.9621 12.4479Z" fill="#2ADEA1"/>
<path d="M96.8974 15.8882H9.40283V39.5818H96.8974V15.8882Z" fill="white"/>
<path d="M27.6802 21.0225H16.001C15.2688 21.0225 14.6753 21.616 14.6753 22.3481V37.6046C14.6753 38.3368 15.2688 38.9303 16.001 38.9303H27.6802C28.4123 38.9303 29.0058 38.3368 29.0058 37.6046V22.3481C29.0058 21.616 28.4123 21.0225 27.6802 21.0225Z" fill="#D0D9FC" stroke="white" stroke-width="0.9"/>
<path d="M90.2388 21.0225H78.5596C77.8274 21.0225 77.2339 21.616 77.2339 22.3481V37.6046C77.2339 38.3368 77.8274 38.9303 78.5596 38.9303H90.2388C90.9709 38.9303 91.5644 38.3368 91.5644 37.6046V22.3481C91.5644 21.616 90.9709 21.0225 90.2388 21.0225Z" fill="#D0D9FC" stroke="white" stroke-width="0.9"/>
<path d="M71.9496 21.0225H34.032C33.2998 21.0225 32.7063 21.616 32.7063 22.3481V37.6046C32.7063 38.3368 33.2998 38.9303 34.032 38.9303H71.9496C72.6818 38.9303 73.2753 38.3368 73.2753 37.6046V22.3481C73.2753 21.616 72.6818 21.0225 71.9496 21.0225Z" fill="#D0D9FC" stroke="white" stroke-width="0.9"/>
<path d="M83.6405 33.178C90.9621 33.178 96.8973 27.4439 96.8973 20.3706C96.8973 13.2973 90.9621 7.56323 83.6405 7.56323C76.319 7.56323 70.3838 13.2973 70.3838 20.3706C70.3838 27.4439 76.319 33.178 83.6405 33.178Z" fill="#FFD887"/>
<path d="M76.7639 20.0507H77.5648M83.9723 13.0867V13.8604M90.3797 20.0507H91.1806M78.8463 15.0985L79.407 15.6401M89.0982 15.0985L88.5376 15.6401" stroke="white" stroke-width="1.8" stroke-linecap="round" stroke-linejoin="round"/>
<path fill-rule="evenodd" clip-rule="evenodd" d="M81.5696 23.1457C80.1907 22.1465 79.6282 20.4069 80.1733 18.8271C80.7184 17.2473 82.2487 16.1816 83.9724 16.1816C85.6962 16.1816 87.2265 17.2473 87.7716 18.8271C88.3167 20.4069 87.7542 22.1465 86.3752 23.1457C85.741 23.7522 85.4436 24.6142 85.5743 25.467C85.5743 26.3217 84.8571 27.0145 83.9724 27.0145C83.0878 27.0145 82.3706 26.3217 82.3706 25.467C82.5013 24.6142 82.2039 23.7522 81.5696 23.1457Z" stroke="white" stroke-width="1.8" stroke-linecap="round" stroke-linejoin="round"/>
<path d="M82.1301 23.9194H85.8144" stroke="white" stroke-width="1.8" stroke-linecap="round" stroke-linejoin="round"/>
<defs>
<filter id="filter0_d_144_4575" x="0.500098" y="4.88758e-05" width="105.3" height="41.1395" filterUnits="userSpaceOnUse" color-interpolation-filters="sRGB">
<feFlood flood-opacity="0" result="BackgroundImageFix"/>
<feColorMatrix in="SourceAlpha" type="matrix" values="0 0 0 0 0 0 0 0 0 0 0 0 0 0 0 0 0 0 127 0" result="hardAlpha"/>
<feOffset dy="1.8"/>
<feGaussianBlur stdDeviation="1.8"/>
<feComposite in2="hardAlpha" operator="out"/>
<feColorMatrix type="matrix" values="0 0 0 0 0.552941 0 0 0 0 0.470588 0 0 0 0 1 0 0 0 0.198751 0"/>
<feBlend mode="normal" in2="BackgroundImageFix" result="effect1_dropShadow_144_4575"/>
<feBlend mode="normal" in="SourceGraphic" in2="effect1_dropShadow_144_4575" result="shape"/>
</filter>
<linearGradient id="paint0_linear_144_4575" x1="4876.29" y1="2.13159" x2="4876.29" y2="3329.8" gradientUnits="userSpaceOnUse">
<stop stop-color="white"/>
<stop offset="1" stop-color="#ECEFF7"/>
</linearGradient>
</defs>
</svg>
