<svg width="76" height="110" viewBox="0 0 76 110" fill="none" xmlns="http://www.w3.org/2000/svg">
<mask id="mask0_494_519" style="mask-type:luminance" maskUnits="userSpaceOnUse" x="0" y="0" width="76" height="110">
<path d="M0 0H75.0141V110H0V0Z" fill="white"/>
</mask>
<g mask="url(#mask0_494_519)">
<path d="M68.5239 -0.166718H31.9509V20.1979C31.9479 20.571 31.9259 20.942 31.8869 21.312C31.8469 21.6821 31.7889 22.0501 31.7139 22.4141C31.6379 22.7792 31.5449 23.1392 31.4338 23.4942C31.3238 23.8502 31.1958 24.1993 31.0508 24.5423C30.9058 24.8853 30.7448 25.2204 30.5668 25.5484C30.3898 25.8754 30.1967 26.1934 29.9877 26.5015C29.7797 26.8105 29.5557 27.1075 29.3187 27.3945C29.0807 27.6816 28.8296 27.9556 28.5646 28.2176C28.3006 28.4796 28.0236 28.7286 27.7355 28.9637C27.4465 29.1987 27.1465 29.4197 26.8365 29.6257C26.5264 29.8317 26.2064 30.0217 25.8774 30.1968C25.5484 30.3718 25.2123 30.5298 24.8673 30.6718C24.5233 30.8138 24.1723 30.9388 23.8162 31.0458C23.4592 31.1538 23.0982 31.2438 22.7331 31.3169C22.3671 31.3889 21.9991 31.4439 21.629 31.4809C21.258 31.5169 20.886 31.5359 20.514 31.5359H0.166289V103.426C0.164289 103.635 0.17329 103.843 0.192291 104.051C0.211293 104.258 0.241295 104.464 0.280298 104.669C0.320302 104.874 0.370306 105.076 0.429311 105.276C0.489315 105.476 0.558321 105.672 0.637328 105.865C0.717334 106.058 0.805342 106.246 0.90335 106.431C1.00136 106.615 1.10737 106.794 1.22338 106.967C1.33839 107.141 1.4624 107.308 1.59441 107.47C1.72642 107.631 1.86643 107.786 2.01444 107.933C2.16145 108.081 2.31646 108.22 2.47748 108.353C2.63849 108.485 2.80651 108.609 2.97952 108.724C3.15353 108.84 3.33255 108.947 3.51656 109.045C3.70058 109.143 3.88959 109.231 4.08261 109.311C4.27563 109.39 4.47164 109.459 4.67166 109.519C4.87167 109.579 5.07369 109.629 5.27871 109.668C5.48372 109.708 5.68974 109.738 5.89776 109.757C6.10478 109.776 6.31379 109.785 6.52181 109.784H68.5239C68.7349 109.786 68.9439 109.777 69.1539 109.759C69.363 109.74 69.571 109.711 69.777 109.672C69.984 109.633 70.188 109.583 70.389 109.524C70.5911 109.465 70.7891 109.396 70.9841 109.317C71.1791 109.238 71.3691 109.15 71.5561 109.053C71.7421 108.956 71.9232 108.849 72.0992 108.734C72.2742 108.619 72.4442 108.495 72.6082 108.364C72.7712 108.232 72.9282 108.092 73.0783 107.945C73.2283 107.798 73.3703 107.643 73.5053 107.482C73.6393 107.321 73.7663 107.154 73.8843 106.98C74.0023 106.806 74.1123 106.627 74.2123 106.443C74.3134 106.259 74.4054 106.07 74.4874 105.876C74.5694 105.683 74.6414 105.486 74.7044 105.286C74.7674 105.085 74.8194 104.882 74.8624 104.676C74.9054 104.471 74.9374 104.264 74.9604 104.055C74.9824 103.846 74.9944 103.636 74.9964 103.426V6.1858C74.9944 5.97578 74.9824 5.76677 74.9594 5.55775C74.9374 5.34873 74.9044 5.14172 74.8614 4.9367C74.8184 4.73068 74.7654 4.52767 74.7034 4.32765C74.6404 4.12763 74.5674 3.93062 74.4854 3.7376C74.4034 3.54459 74.3114 3.35557 74.2113 3.17156C74.1103 2.98654 74.0003 2.80853 73.8823 2.63451C73.7643 2.4615 73.6373 2.29348 73.5033 2.13247C73.3683 1.97146 73.2263 1.81744 73.0763 1.67043C72.9262 1.52342 72.7692 1.38441 72.6062 1.2524C72.4422 1.12039 72.2722 0.997377 72.0972 0.882368C71.9212 0.767358 71.7402 0.66035 71.5541 0.563342C71.3681 0.466334 71.1781 0.378327 70.9831 0.29932C70.7881 0.221314 70.5901 0.152308 70.388 0.0933034C70.187 0.0332985 69.983 -0.0157057 69.777 -0.0547087C69.57 -0.093712 69.362 -0.122714 69.1529 -0.141716C68.9439 -0.159717 68.7339 -0.168718 68.5239 -0.166718ZM62.7114 92.5819H12.4513V87.5965H62.7114V92.5819ZM62.7114 77.6276H12.4513V72.5872H62.7114V77.6276ZM62.7114 62.6234H12.4513V57.6H62.7114V62.6234ZM62.7114 47.6202H12.4513V42.6958H62.7114V47.6202Z" fill="#005B6C"/>
</g>
<path d="M26.8982 20.1986V3.32324L15.2612 14.9152L3.70728 26.5851H20.5147C20.7237 26.5851 20.9327 26.5761 21.1407 26.5561C21.3497 26.5361 21.5567 26.5051 21.7618 26.4651C21.9668 26.4241 22.1698 26.3741 22.3708 26.3141C22.5708 26.2531 22.7678 26.1831 22.9618 26.1031C23.1549 26.0231 23.3439 25.9341 23.5289 25.8361C23.7129 25.7371 23.8929 25.6301 24.0669 25.5141C24.241 25.397 24.409 25.273 24.571 25.14C24.733 25.008 24.887 24.867 25.035 24.719C25.183 24.571 25.324 24.416 25.4561 24.254C25.5891 24.0929 25.7131 23.9249 25.8291 23.7509C25.9451 23.5759 26.0531 23.3969 26.1511 23.2119C26.2491 23.0279 26.3391 22.8388 26.4181 22.6448C26.4981 22.4518 26.5681 22.2548 26.6281 22.0548C26.6892 21.8538 26.7392 21.6507 26.7792 21.4457C26.8192 21.2407 26.8502 21.0337 26.8692 20.8257C26.8892 20.6167 26.8992 20.4086 26.8982 20.1986Z" fill="#005B6C"/>
</svg>
