<svg width="31" height="32" viewBox="0 0 31 32" fill="none" xmlns="http://www.w3.org/2000/svg">
<path d="M0.195801 31.1369C0.195801 24.6857 5.42551 19.4561 11.8767 19.4561C18.3279 19.4561 23.5576 24.6857 23.5576 31.1369H0.195801ZM11.8767 17.9959C7.03642 17.9959 3.11602 14.0755 3.11602 9.23528C3.11602 4.39501 7.03642 0.474609 11.8767 0.474609C16.717 0.474609 20.6374 4.39501 20.6374 9.23528C20.6374 14.0755 16.717 17.9959 11.8767 17.9959ZM22.6272 21.2567C27.1322 22.408 30.5192 26.3529 30.8342 31.1369H26.4778C26.4778 27.3263 25.018 23.8567 22.6272 21.2567ZM19.6738 17.933C22.0578 15.7944 23.5576 12.69 23.5576 9.23528C23.5576 7.1658 23.0194 5.22203 22.0754 3.53627C25.4197 4.20369 27.9379 7.15411 27.9379 10.6954C27.9379 14.7289 24.6709 17.9959 20.6374 17.9959C20.3107 17.9959 19.9891 17.9745 19.6738 17.933Z" fill="white"/>
</svg>
