<svg width="64" height="64" viewBox="0 0 64 64" fill="none" xmlns="http://www.w3.org/2000/svg">
<path d="M57.0549 43.5351L48.165 42.5201C46.03 42.2751 43.93 43.0101 42.425 44.5151L35.985 50.9551C26.08 45.9151 17.96 37.8301 12.92 27.8901L19.395 21.4151C20.9 19.9101 21.635 17.8101 21.39 15.6751L20.375 6.8551C19.955 3.3201 16.98 0.660095 13.41 0.660095H7.35495C3.39995 0.660095 0.109952 3.95009 0.354952 7.9051C2.20995 37.7951 26.115 61.6651 55.97 63.5201C59.925 63.7651 63.215 60.4751 63.215 56.5201V50.4651C63.25 46.9301 60.5899 43.9551 57.0549 43.5351Z" fill="#005B6C"/>
</svg>
