<svg width="39" height="38" viewBox="0 0 39 38" fill="none" xmlns="http://www.w3.org/2000/svg">
<mask id="mask0_144_4457" style="mask-type:luminance" maskUnits="userSpaceOnUse" x="0" y="0" width="39" height="38">
<path d="M0.800049 0.100098H38.0601V37.3601H0.800049V0.100098Z" fill="white"/>
</mask>
<g mask="url(#mask0_144_4457)">
<path d="M19.4302 18.8489V0.0974121C18.8215 0.0974121 18.2155 0.128127 17.6096 0.186765C17.0037 0.246798 16.4034 0.336151 15.8072 0.454822C15.2097 0.573493 14.6205 0.720088 14.0383 0.896C13.4561 1.07331 12.8837 1.27714 12.3225 1.5103C11.7598 1.74206 11.2098 2.00174 10.6736 2.28795C10.1375 2.57415 9.61537 2.88549 9.10997 3.22335C8.60317 3.56122 8.11453 3.92282 7.64403 4.30815C7.17353 4.69348 6.72258 5.10115 6.29257 5.52977C5.86117 5.95978 5.4535 6.40933 5.06677 6.87843C4.68004 7.34893 4.31704 7.83618 3.97918 8.34158C3.63992 8.84698 3.32718 9.36634 3.03958 9.90246C2.75198 10.4386 2.4909 10.9873 2.25635 11.5485C2.0232 12.1111 1.81657 12.6822 1.63926 13.2643C1.46195 13.8451 1.31256 14.4343 1.1925 15.0305C1.07243 15.6266 0.981681 16.2283 0.920251 16.8329C0.860217 17.4388 0.828106 18.0447 0.82671 18.6534C0.825314 19.2621 0.853236 19.8681 0.910478 20.474C0.969115 21.0799 1.05707 21.6802 1.17295 22.2778C1.29023 22.8753 1.43682 23.4645 1.61134 24.0467C1.78585 24.6303 1.98829 25.2027 2.22005 25.7653C2.45041 26.328 2.7087 26.878 2.99351 27.4156C3.27832 27.9531 3.58826 28.4752 3.92473 28.982C4.2612 29.4888 4.6214 29.9789 5.00534 30.4494C5.38927 30.9212 5.79555 31.3736 6.22416 31.805C6.65277 32.2364 7.10093 32.6469 7.57003 33.035C8.03774 33.4231 8.52499 33.7861 9.02899 34.1268C9.533 34.466 10.0524 34.7816 10.5885 35.0706C11.1232 35.3596 11.6719 35.622 12.2317 35.8566C12.793 36.0925 13.364 36.2991 13.9448 36.4793C14.527 36.658 15.1147 36.8087 15.7109 36.9302C16.307 37.0517 16.9074 37.1438 17.5133 37.2066C18.1178 37.2695 18.7251 37.303 19.3325 37.3058C19.9412 37.3086 20.5485 37.282 21.1544 37.2262C21.7589 37.1703 22.3607 37.0838 22.9582 36.9679C23.5558 36.8534 24.1449 36.7082 24.7285 36.5351C25.3121 36.362 25.8845 36.1609 26.4485 35.932C27.0112 35.7016 27.5627 35.4461 28.1002 35.1627C28.6391 34.8793 29.1612 34.5693 29.6694 34.2343C30.1776 33.9006 30.6677 33.5418 31.1409 33.1578C31.6128 32.7753 32.0652 32.3704 32.4994 31.9432C32.9322 31.516 33.3427 31.0678 33.7322 30.6015C34.1203 30.1338 34.4861 29.648 34.8281 29.144C35.1688 28.6414 35.4843 28.122 35.7747 27.5873C36.0665 27.0526 36.329 26.5053 36.5663 25.9454C36.8037 25.3856 37.0117 24.8146 37.1932 24.2338C37.3733 23.653 37.5255 23.0652 37.6497 22.4691C37.7726 21.8743 37.8661 21.274 37.9303 20.668C37.9946 20.0635 38.0295 19.4576 38.0337 18.8489H19.4302Z" fill="#839BFB"/>
</g>
<mask id="mask1_144_4457" style="mask-type:luminance" maskUnits="userSpaceOnUse" x="22" y="0" width="17" height="16">
<path d="M22.2839 0.100098H38.0602V15.9169H22.2839V0.100098Z" fill="white"/>
</mask>
<g mask="url(#mask1_144_4457)">
<path d="M22.3677 0.116943V15.9114H38.0337C38.0351 15.3962 38.0113 14.8824 37.9625 14.3701C37.915 13.8577 37.841 13.3481 37.7419 12.8427C37.6428 12.3373 37.5199 11.8375 37.3719 11.3446C37.2239 10.8504 37.0522 10.366 36.8567 9.88848C36.6613 9.4124 36.4435 8.94609 36.202 8.49095C35.9618 8.03581 35.698 7.59463 35.4145 7.16462C35.1297 6.73601 34.824 6.32136 34.4987 5.92207C34.1748 5.52277 33.8299 5.14023 33.4669 4.77444C33.1053 4.40866 32.7256 4.06102 32.3277 3.73293C31.9312 3.40484 31.5193 3.09629 31.0921 2.80869C30.6649 2.52108 30.2251 2.25442 29.7728 2.0087C29.319 1.76438 28.8555 1.5424 28.3794 1.34275C27.9047 1.1445 27.4217 0.968585 26.9288 0.816406C26.4374 0.664228 25.939 0.537179 25.4336 0.435262C24.9296 0.331948 24.4214 0.253764 23.909 0.200711C23.3966 0.147658 22.8828 0.119735 22.3677 0.116943Z" fill="#C0CEF9"/>
</g>
</svg>
