<svg width="80" height="37" viewBox="0 0 80 37" fill="none" xmlns="http://www.w3.org/2000/svg">
<g filter="url(#filter0_d_144_4468)">
<path d="M7.79488 2.69995H72.3051C74.1248 2.69995 75.6 4.15806 75.6 5.95673V30.9966H4.5V5.95673C4.5 4.15806 5.97517 2.69995 7.79488 2.69995Z" fill="black"/>
</g>
<path fill-rule="evenodd" clip-rule="evenodd" d="M72.3052 2.97144C73.1393 2.97144 73.8943 3.30559 74.4409 3.84583C74.9875 4.38608 75.3255 5.13243 75.3255 5.95682V30.7253H4.77466V5.95682C4.77466 5.13243 5.11272 4.38608 5.65929 3.84583C6.20585 3.30559 6.96093 2.97144 7.79496 2.97144H72.3052Z" fill="url(#paint0_linear_144_4468)" stroke="white" stroke-width="0.9"/>
<path d="M10.2649 11.5774C11.3262 11.5774 12.1865 10.5837 12.1865 9.35801C12.1865 8.13231 11.3262 7.13867 10.2649 7.13867C9.2036 7.13867 8.34326 8.13231 8.34326 9.35801C8.34326 10.5837 9.2036 11.5774 10.2649 11.5774Z" fill="#E94656"/>
<path d="M16.0298 11.5774C17.0911 11.5774 17.9514 10.5837 17.9514 9.35801C17.9514 8.13231 17.0911 7.13867 16.0298 7.13867C14.9685 7.13867 14.1082 8.13231 14.1082 9.35801C14.1082 10.5837 14.9685 11.5774 16.0298 11.5774Z" fill="#FFD020"/>
<path d="M21.7944 11.5774C22.8557 11.5774 23.716 10.5837 23.716 9.35801C23.716 8.13231 22.8557 7.13867 21.7944 7.13867C20.7331 7.13867 19.8728 8.13231 19.8728 9.35801C19.8728 10.5837 20.7331 11.5774 21.7944 11.5774Z" fill="#2ADEA1"/>
<path d="M71.7568 14.4458H8.34326V34.2H71.7568V14.4458Z" fill="white"/>
<path d="M38.8881 16.5605H12.3438C11.4489 16.5605 10.7234 17.2777 10.7234 18.1622C10.7234 19.0468 11.4489 19.7639 12.3438 19.7639H38.8881C39.783 19.7639 40.5085 19.0468 40.5085 18.1622C40.5085 17.2777 39.783 16.5605 38.8881 16.5605Z" fill="#D8D8D8"/>
<path d="M67.232 16.5605H57.0216C56.1266 16.5605 55.4011 17.2777 55.4011 18.1622C55.4011 19.0468 56.1266 19.7639 57.0216 19.7639H67.232C68.127 19.7639 68.8525 19.0468 68.8525 18.1622C68.8525 17.2777 68.127 16.5605 67.232 16.5605Z" fill="#AABCFB"/>
<path d="M30.2408 22.9673H12.3438C11.4489 22.9673 10.7234 23.6844 10.7234 24.569C10.7234 25.4536 11.4489 26.1707 12.3438 26.1707H30.2408C31.1357 26.1707 31.8612 25.4536 31.8612 24.569C31.8612 23.6844 31.1357 22.9673 30.2408 22.9673Z" fill="#D8D8D8"/>
<path d="M67.232 22.9673H57.0216C56.1266 22.9673 55.4011 23.6844 55.4011 24.569C55.4011 25.4536 56.1266 26.1707 57.0216 26.1707H67.232C68.127 26.1707 68.8525 25.4536 68.8525 24.569C68.8525 23.6844 68.127 22.9673 67.232 22.9673Z" fill="#F18792"/>
<path d="M36.0057 29.374H12.3438C11.4489 29.374 10.7234 30.0911 10.7234 30.9757C10.7234 31.8603 11.4489 32.5774 12.3438 32.5774H36.0057C36.9006 32.5774 37.6261 31.8603 37.6261 30.9757C37.6261 30.0911 36.9006 29.374 36.0057 29.374Z" fill="#D8D8D8"/>
<path d="M67.232 29.374H57.0216C56.1266 29.374 55.4011 30.0911 55.4011 30.9757C55.4011 31.8603 56.1266 32.5774 57.0216 32.5774H67.232C68.127 32.5774 68.8525 31.8603 68.8525 30.9757C68.8525 30.0911 68.127 29.374 67.232 29.374Z" fill="#AABCFB"/>
<defs>
<filter id="filter0_d_144_4468" x="0.9" y="0.899951" width="78.3001" height="35.4966" filterUnits="userSpaceOnUse" color-interpolation-filters="sRGB">
<feFlood flood-opacity="0" result="BackgroundImageFix"/>
<feColorMatrix in="SourceAlpha" type="matrix" values="0 0 0 0 0 0 0 0 0 0 0 0 0 0 0 0 0 0 127 0" result="hardAlpha"/>
<feOffset dy="1.8"/>
<feGaussianBlur stdDeviation="1.8"/>
<feComposite in2="hardAlpha" operator="out"/>
<feColorMatrix type="matrix" values="0 0 0 0 0.552941 0 0 0 0 0.470588 0 0 0 0 1 0 0 0 0.198751 0"/>
<feBlend mode="normal" in2="BackgroundImageFix" result="effect1_dropShadow_144_4468"/>
<feBlend mode="normal" in="SourceGraphic" in2="effect1_dropShadow_144_4468" result="shape"/>
</filter>
<linearGradient id="paint0_linear_144_4468" x1="3532.32" y1="2.97144" x2="3532.32" y2="2778.35" gradientUnits="userSpaceOnUse">
<stop stop-color="white"/>
<stop offset="1" stop-color="#ECEFF7"/>
</linearGradient>
</defs>
</svg>
