<svg width="244" height="34" viewBox="0 0 244 34" fill="none" xmlns="http://www.w3.org/2000/svg">
<mask id="mask0_81_22" style="mask-type:luminance" maskUnits="userSpaceOnUse" x="0" y="0" width="32" height="34">
<path d="M27.4391 0H3.64745C1.63302 0 0 1.75241 0 3.91412V29.4452C0 31.607 1.63302 33.3594 3.64745 33.3594H27.4391C29.4535 33.3594 31.0865 31.607 31.0865 29.4452V3.91412C31.0865 1.75241 29.4535 0 27.4391 0Z" fill="white"/>
</mask>
<g mask="url(#mask0_81_22)">
<path d="M0 0H31.0865L19.7975 11.977H0V0Z" fill="url(#paint0_linear_81_22)"/>
<path d="M31.0868 0V33.3594H19.9258V11.8291L31.0868 0Z" fill="url(#paint1_linear_81_22)"/>
<path d="M0 0L31.0864 33.3593H0V0Z" fill="#1E8C51"/>
</g>
<path d="M42.8807 12.3438V10.4545H54.1378V12.3438H49.5994V25H47.4119V12.3438H42.8807ZM55.3221 25V14.0909H57.3746V15.8239H57.4883C57.6871 15.2367 58.0375 14.7751 58.5394 14.4389C59.046 14.098 59.619 13.9276 60.2582 13.9276C60.3907 13.9276 60.547 13.9323 60.7269 13.9418C60.9116 13.9512 61.056 13.9631 61.1602 13.9773V16.0085C61.0749 15.9848 60.9234 15.9588 60.7056 15.9304C60.4878 15.8973 60.27 15.8807 60.0522 15.8807C59.5503 15.8807 59.1029 15.9872 58.7099 16.2003C58.3216 16.4086 58.0138 16.6998 57.7866 17.0739C57.5593 17.4432 57.4457 17.8646 57.4457 18.3381V25H55.3221ZM66.0749 25.2415C65.3836 25.2415 64.7586 25.1136 64.1999 24.858C63.6412 24.5975 63.1985 24.2211 62.8718 23.7287C62.5498 23.2363 62.3888 22.6326 62.3888 21.9176C62.3888 21.3021 62.5072 20.7955 62.744 20.3977C62.9807 20 63.3003 19.6851 63.7028 19.4531C64.1052 19.2211 64.555 19.0459 65.0522 18.9276C65.5494 18.8092 66.056 18.7192 66.5721 18.6577C67.2255 18.5819 67.7558 18.5204 68.163 18.473C68.5702 18.4209 68.8661 18.3381 69.0508 18.2244C69.2354 18.1108 69.3278 17.9261 69.3278 17.6705V17.6207C69.3278 17.0005 69.1526 16.5199 68.8022 16.179C68.4566 15.8381 67.9405 15.6676 67.2539 15.6676C66.5389 15.6676 65.9755 15.8262 65.5636 16.1435C65.1564 16.456 64.8746 16.804 64.7184 17.1875L62.7227 16.733C62.9594 16.0701 63.305 15.535 63.7596 15.1278C64.2189 14.7159 64.7468 14.4176 65.3434 14.233C65.94 14.0436 66.5674 13.9489 67.2255 13.9489C67.6611 13.9489 68.1228 14.0009 68.6104 14.1051C69.1029 14.2045 69.5621 14.3892 69.9883 14.6591C70.4192 14.929 70.7719 15.3149 71.0465 15.8168C71.3211 16.3139 71.4585 16.9602 71.4585 17.7557V25H69.3846V23.5085H69.2994C69.1621 23.7831 68.9561 24.053 68.6815 24.3182C68.4068 24.5833 68.0541 24.8035 67.6232 24.9787C67.1924 25.1539 66.6763 25.2415 66.0749 25.2415ZM66.5366 23.5369C67.1237 23.5369 67.6256 23.4209 68.0423 23.1889C68.4637 22.9569 68.7833 22.6539 69.0011 22.2798C69.2236 21.901 69.3349 21.4962 69.3349 21.0653V19.6591C69.2591 19.7348 69.1123 19.8059 68.8945 19.8722C68.6815 19.9337 68.4376 19.9882 68.163 20.0355C67.8884 20.0781 67.6209 20.1184 67.3604 20.1562C67.1 20.1894 66.8822 20.2178 66.707 20.2415C66.2951 20.2936 65.9187 20.3812 65.5778 20.5043C65.2416 20.6274 64.9717 20.8049 64.7681 21.0369C64.5692 21.2642 64.4698 21.5672 64.4698 21.946C64.4698 22.4716 64.6639 22.8693 65.0522 23.1392C65.4405 23.4044 65.9353 23.5369 66.5366 23.5369ZM78.3707 25.2131C77.4901 25.2131 76.7041 24.9882 76.0128 24.5384C75.3262 24.0838 74.7865 23.4375 74.3935 22.5994C74.0052 21.7566 73.8111 20.7457 73.8111 19.5668C73.8111 18.3878 74.0076 17.3793 74.4006 16.5412C74.7983 15.7031 75.3428 15.0616 76.0341 14.6165C76.7254 14.1714 77.509 13.9489 78.3849 13.9489C79.062 13.9489 79.6065 14.0625 80.0185 14.2898C80.4351 14.5123 80.7571 14.7727 80.9844 15.071C81.2164 15.3693 81.3963 15.6321 81.5241 15.8594H81.652V10.4545H83.7756V25H81.7017V23.3026H81.5241C81.3963 23.5346 81.2116 23.7997 80.9702 24.098C80.7334 24.3963 80.4067 24.6567 79.9901 24.8793C79.5734 25.1018 79.0336 25.2131 78.3707 25.2131ZM78.8395 23.402C79.4503 23.402 79.9664 23.241 80.3878 22.919C80.8139 22.5923 81.1359 22.1402 81.3537 21.5625C81.5762 20.9848 81.6875 20.3125 81.6875 19.5455C81.6875 18.7879 81.5786 18.125 81.3608 17.5568C81.143 16.9886 80.8234 16.5459 80.402 16.2287C79.9806 15.9115 79.4598 15.7528 78.8395 15.7528C78.2003 15.7528 77.6676 15.9186 77.2415 16.25C76.8153 16.5814 76.4934 17.0336 76.2756 17.6065C76.0625 18.1795 75.956 18.8258 75.956 19.5455C75.956 20.2746 76.0649 20.9304 76.2827 21.5128C76.5005 22.0952 76.8224 22.5568 77.2486 22.8977C77.6795 23.2339 78.2098 23.402 78.8395 23.402ZM91.5082 25.2202C90.4334 25.2202 89.5077 24.9905 88.7312 24.5312C87.9594 24.0672 87.3628 23.4162 86.9414 22.5781C86.5247 21.7353 86.3164 20.7481 86.3164 19.6165C86.3164 18.4991 86.5247 17.5142 86.9414 16.6619C87.3628 15.8097 87.9499 15.1444 88.7028 14.6662C89.4603 14.188 90.3458 13.9489 91.359 13.9489C91.9746 13.9489 92.5711 14.0507 93.1488 14.2543C93.7264 14.4579 94.2449 14.7775 94.7042 15.2131C95.1635 15.6487 95.5257 16.2145 95.7908 16.9105C96.056 17.6018 96.1886 18.4422 96.1886 19.4318V20.1847H87.5167V18.5938H94.1076C94.1076 18.035 93.994 17.5402 93.7667 17.1094C93.5394 16.6738 93.2198 16.3305 92.8079 16.0795C92.4007 15.8286 91.9225 15.7031 91.3732 15.7031C90.7766 15.7031 90.2558 15.8499 89.8107 16.1435C89.3704 16.4323 89.0295 16.8111 88.788 17.2798C88.5513 17.7438 88.4329 18.2481 88.4329 18.7926V20.0355C88.4329 20.7647 88.5607 21.3849 88.8164 21.8963C89.0768 22.4077 89.439 22.7983 89.9031 23.0682C90.3671 23.3333 90.9092 23.4659 91.5295 23.4659C91.9319 23.4659 92.2989 23.4091 92.6303 23.2955C92.9618 23.1771 93.2482 23.0019 93.4897 22.7699C93.7312 22.5379 93.9158 22.2514 94.0437 21.9105L96.0536 22.2727C95.8926 22.8646 95.6038 23.383 95.1871 23.8281C94.7752 24.2685 94.2567 24.6117 93.6317 24.858C93.0115 25.0994 92.3036 25.2202 91.5082 25.2202ZM98.5447 14.0909H100.668V25.7102C100.668 26.4394 100.536 27.0549 100.271 27.5568C100.01 28.0587 99.6219 28.4399 99.1058 28.7003C98.5945 28.9607 97.9624 29.0909 97.2095 29.0909C97.1338 29.0909 97.0627 29.0909 96.9964 29.0909C96.9254 29.0909 96.852 29.0885 96.7763 29.0838V27.2585C96.8426 27.2585 96.9018 27.2585 96.9538 27.2585C97.0012 27.2585 97.0556 27.2585 97.1172 27.2585C97.6191 27.2585 97.9813 27.1236 98.2038 26.8537C98.4311 26.5885 98.5447 26.2027 98.5447 25.696V14.0909ZM99.5959 12.4077C99.2266 12.4077 98.9093 12.2846 98.6442 12.0384C98.3838 11.7874 98.2536 11.4891 98.2536 11.1435C98.2536 10.7931 98.3838 10.4948 98.6442 10.2486C98.9093 9.99763 99.2266 9.87216 99.5959 9.87216C99.9652 9.87216 100.28 9.99763 100.54 10.2486C100.806 10.4948 100.938 10.7931 100.938 11.1435C100.938 11.4891 100.806 11.7874 100.54 12.0384C100.28 12.2846 99.9652 12.4077 99.5959 12.4077ZM103.525 25V14.0909H105.649V25H103.525ZM104.598 12.4077C104.228 12.4077 103.911 12.2846 103.646 12.0384C103.386 11.7874 103.255 11.4891 103.255 11.1435C103.255 10.7931 103.386 10.4948 103.646 10.2486C103.911 9.99763 104.228 9.87216 104.598 9.87216C104.967 9.87216 105.282 9.99763 105.542 10.2486C105.807 10.4948 105.94 10.7931 105.94 11.1435C105.94 11.4891 105.807 11.7874 105.542 12.0384C105.282 12.2846 104.967 12.4077 104.598 12.4077ZM110.629 18.5227V25H108.506V14.0909H110.544V15.8665H110.679C110.93 15.2888 111.323 14.8248 111.858 14.4744C112.398 14.1241 113.077 13.9489 113.896 13.9489C114.64 13.9489 115.291 14.1051 115.849 14.4176C116.408 14.7254 116.841 15.1847 117.149 15.7955C117.457 16.4062 117.611 17.1615 117.611 18.0611V25H115.487V18.3168C115.487 17.526 115.281 16.9081 114.869 16.4631C114.457 16.0133 113.892 15.7884 113.172 15.7884C112.679 15.7884 112.241 15.8949 111.858 16.108C111.479 16.321 111.179 16.6335 110.956 17.0455C110.738 17.4527 110.629 17.9451 110.629 18.5227ZM120.459 25V14.0909H122.582V25H120.459ZM121.531 12.4077C121.162 12.4077 120.845 12.2846 120.58 12.0384C120.319 11.7874 120.189 11.4891 120.189 11.1435C120.189 10.7931 120.319 10.4948 120.58 10.2486C120.845 9.99763 121.162 9.87216 121.531 9.87216C121.901 9.87216 122.215 9.99763 122.476 10.2486C122.741 10.4948 122.874 10.7931 122.874 11.1435C122.874 11.4891 122.741 11.7874 122.476 12.0384C122.215 12.2846 121.901 12.4077 121.531 12.4077ZM142.984 15.1847H140.768C140.683 14.7112 140.524 14.2945 140.292 13.9347C140.06 13.5748 139.776 13.2694 139.44 13.0185C139.103 12.7675 138.727 12.5781 138.31 12.4503C137.898 12.3224 137.46 12.2585 136.996 12.2585C136.158 12.2585 135.408 12.4692 134.745 12.8906C134.087 13.312 133.566 13.9299 133.183 14.7443C132.804 15.5587 132.614 16.553 132.614 17.7273C132.614 18.911 132.804 19.91 133.183 20.7244C133.566 21.5388 134.089 22.1544 134.752 22.571C135.415 22.9877 136.161 23.196 136.989 23.196C137.449 23.196 137.884 23.1345 138.296 23.0114C138.713 22.8835 139.089 22.6965 139.425 22.4503C139.762 22.2041 140.046 21.9034 140.278 21.5483C140.514 21.1884 140.678 20.7765 140.768 20.3125L142.984 20.3196C142.865 21.0346 142.636 21.6927 142.295 22.294C141.959 22.8906 141.525 23.4067 140.995 23.8423C140.469 24.2732 139.868 24.607 139.191 24.8438C138.514 25.0805 137.775 25.1989 136.975 25.1989C135.716 25.1989 134.594 24.9006 133.609 24.304C132.624 23.7027 131.847 22.8433 131.279 21.7259C130.716 20.6084 130.434 19.2756 130.434 17.7273C130.434 16.1742 130.718 14.8414 131.286 13.7287C131.854 12.6113 132.631 11.7543 133.616 11.1577C134.601 10.5563 135.72 10.2557 136.975 10.2557C137.747 10.2557 138.467 10.367 139.134 10.5895C139.807 10.8073 140.41 11.1293 140.945 11.5554C141.48 11.9768 141.923 12.4929 142.273 13.1037C142.624 13.7098 142.861 14.4034 142.984 15.1847ZM150.034 25.2202C149.012 25.2202 148.119 24.9858 147.357 24.517C146.595 24.0483 146.003 23.3925 145.581 22.5497C145.16 21.7069 144.949 20.7221 144.949 19.5952C144.949 18.4635 145.16 17.474 145.581 16.6264C146.003 15.7789 146.595 15.1207 147.357 14.652C148.119 14.1832 149.012 13.9489 150.034 13.9489C151.057 13.9489 151.95 14.1832 152.712 14.652C153.474 15.1207 154.066 15.7789 154.488 16.6264C154.909 17.474 155.12 18.4635 155.12 19.5952C155.12 20.7221 154.909 21.7069 154.488 22.5497C154.066 23.3925 153.474 24.0483 152.712 24.517C151.95 24.9858 151.057 25.2202 150.034 25.2202ZM150.042 23.4375C150.704 23.4375 151.254 23.2623 151.689 22.9119C152.125 22.5616 152.447 22.0952 152.655 21.5128C152.868 20.9304 152.975 20.2888 152.975 19.5881C152.975 18.892 152.868 18.2528 152.655 17.6705C152.447 17.0833 152.125 16.6122 151.689 16.2571C151.254 15.902 150.704 15.7244 150.042 15.7244C149.374 15.7244 148.82 15.902 148.38 16.2571C147.944 16.6122 147.62 17.0833 147.407 17.6705C147.198 18.2528 147.094 18.892 147.094 19.5881C147.094 20.2888 147.198 20.9304 147.407 21.5128C147.62 22.0952 147.944 22.5616 148.38 22.9119C148.82 23.2623 149.374 23.4375 150.042 23.4375ZM157.49 25V14.0909H159.528V15.8665H159.663C159.891 15.2652 160.262 14.7964 160.778 14.4602C161.295 14.1193 161.912 13.9489 162.632 13.9489C163.361 13.9489 163.972 14.1193 164.464 14.4602C164.962 14.8011 165.329 15.2699 165.565 15.8665H165.679C165.939 15.2841 166.354 14.8201 166.922 14.4744C167.49 14.1241 168.167 13.9489 168.953 13.9489C169.943 13.9489 170.75 14.259 171.375 14.8793C172.005 15.4995 172.32 16.4347 172.32 17.6847V25H170.196V17.8835C170.196 17.1449 169.995 16.6098 169.592 16.2784C169.19 15.947 168.709 15.7812 168.151 15.7812C167.459 15.7812 166.922 15.9943 166.538 16.4205C166.155 16.8419 165.963 17.384 165.963 18.0469V25H163.847V17.7486C163.847 17.1567 163.662 16.6809 163.293 16.321C162.923 15.9612 162.443 15.7812 161.851 15.7812C161.448 15.7812 161.077 15.8878 160.736 16.1009C160.4 16.3092 160.127 16.6004 159.919 16.9744C159.715 17.3485 159.614 17.7817 159.614 18.2741V25H157.49ZM175.166 25V14.0909H177.204V15.8665H177.339C177.566 15.2652 177.938 14.7964 178.454 14.4602C178.97 14.1193 179.588 13.9489 180.308 13.9489C181.037 13.9489 181.648 14.1193 182.14 14.4602C182.637 14.8011 183.004 15.2699 183.241 15.8665H183.355C183.615 15.2841 184.029 14.8201 184.598 14.4744C185.166 14.1241 185.843 13.9489 186.629 13.9489C187.618 13.9489 188.426 14.259 189.051 14.8793C189.681 15.4995 189.995 16.4347 189.995 17.6847V25H187.872V17.8835C187.872 17.1449 187.671 16.6098 187.268 16.2784C186.866 15.947 186.385 15.7812 185.826 15.7812C185.135 15.7812 184.598 15.9943 184.214 16.4205C183.831 16.8419 183.639 17.384 183.639 18.0469V25H181.522V17.7486C181.522 17.1567 181.338 16.6809 180.968 16.321C180.599 15.9612 180.118 15.7812 179.527 15.7812C179.124 15.7812 178.752 15.8878 178.412 16.1009C178.075 16.3092 177.803 16.6004 177.595 16.9744C177.391 17.3485 177.289 17.7817 177.289 18.2741V25H175.166ZM199.752 20.4759V14.0909H201.883V25H199.795V23.1108H199.681C199.43 23.6932 199.028 24.1785 198.474 24.5668C197.924 24.9503 197.24 25.142 196.421 25.142C195.72 25.142 195.1 24.9882 194.56 24.6804C194.025 24.3679 193.604 23.9062 193.296 23.2955C192.993 22.6847 192.842 21.9295 192.842 21.0298V14.0909H194.965V20.7741C194.965 21.5175 195.171 22.1094 195.583 22.5497C195.995 22.9901 196.53 23.2102 197.188 23.2102C197.586 23.2102 197.981 23.1108 198.374 22.9119C198.772 22.7131 199.101 22.4124 199.362 22.0099C199.627 21.6075 199.757 21.0961 199.752 20.4759ZM206.86 18.5227V25H204.736V14.0909H206.775V15.8665H206.909C207.16 15.2888 207.553 14.8248 208.088 14.4744C208.628 14.1241 209.308 13.9489 210.127 13.9489C210.87 13.9489 211.521 14.1051 212.08 14.4176C212.639 14.7254 213.072 15.1847 213.38 15.7955C213.687 16.4062 213.841 17.1615 213.841 18.0611V25H211.718V18.3168C211.718 17.526 211.512 16.9081 211.1 16.4631C210.688 16.0133 210.122 15.7884 209.402 15.7884C208.91 15.7884 208.472 15.8949 208.088 16.108C207.71 16.321 207.409 16.6335 207.186 17.0455C206.969 17.4527 206.86 17.9451 206.86 18.5227ZM216.689 25V14.0909H218.813V25H216.689ZM217.762 12.4077C217.392 12.4077 217.075 12.2846 216.81 12.0384C216.55 11.7874 216.419 11.4891 216.419 11.1435C216.419 10.7931 216.55 10.4948 216.81 10.2486C217.075 9.99763 217.392 9.87216 217.762 9.87216C218.131 9.87216 218.446 9.99763 218.706 10.2486C218.971 10.4948 219.104 10.7931 219.104 11.1435C219.104 11.4891 218.971 11.7874 218.706 12.0384C218.446 12.2846 218.131 12.4077 217.762 12.4077ZM226.762 14.0909V15.7955H220.803V14.0909H226.762ZM222.401 11.4773H224.525V21.7969C224.525 22.2088 224.586 22.5189 224.71 22.7273C224.833 22.9309 224.991 23.0705 225.185 23.1463C225.384 23.2173 225.6 23.2528 225.832 23.2528C226.002 23.2528 226.151 23.241 226.279 23.2173C226.407 23.1937 226.506 23.1747 226.577 23.1605L226.961 24.9148C226.838 24.9621 226.663 25.0095 226.435 25.0568C226.208 25.1089 225.924 25.1373 225.583 25.142C225.024 25.1515 224.504 25.0521 224.021 24.8438C223.538 24.6354 223.147 24.3134 222.849 23.8778C222.55 23.4422 222.401 22.8954 222.401 22.2372V11.4773ZM230.453 29.0909C230.136 29.0909 229.847 29.0649 229.587 29.0128C229.327 28.9654 229.132 28.9134 229.005 28.8565L229.516 27.1165C229.904 27.2206 230.25 27.2656 230.553 27.2514C230.856 27.2372 231.123 27.1236 231.355 26.9105C231.592 26.6974 231.801 26.3494 231.98 25.8665L232.243 25.142L228.252 14.0909H230.525L233.287 22.5568H233.401L236.164 14.0909H238.444L233.948 26.456C233.739 27.0241 233.474 27.5047 233.152 27.8977C232.83 28.2955 232.447 28.5938 232.002 28.7926C231.557 28.9915 231.041 29.0909 230.453 29.0909Z" fill="#DADADA"/>
<defs>
<linearGradient id="paint0_linear_81_22" x1="-13.8888" y1="6.54388" x2="39.7675" y2="6.0616" gradientUnits="userSpaceOnUse">
<stop stop-color="#18944A"/>
<stop offset="1" stop-color="#86D3BB"/>
</linearGradient>
<linearGradient id="paint1_linear_81_22" x1="25.5063" y1="32.3583" x2="25.5063" y2="13.8771" gradientUnits="userSpaceOnUse">
<stop stop-color="#1E975D"/>
<stop offset="1" stop-color="#86D3BB"/>
</linearGradient>
</defs>
</svg>
