<svg width="20" height="17" viewBox="0 0 20 17" fill="none" xmlns="http://www.w3.org/2000/svg">
<path d="M6.67505 11.3499C6.60409 11.3499 6.53314 11.3603 6.46545 11.3823C6.0807 11.5072 5.67606 11.5874 5.25005 11.5874C4.82403 11.5874 4.41939 11.5072 4.03435 11.3823C3.96666 11.3603 3.896 11.3499 3.82505 11.3499C1.98264 11.3499 0.490251 12.8485 0.500048 14.6933C0.504204 15.4729 1.14516 16.0999 1.92505 16.0999H8.57505C9.35494 16.0999 9.99589 15.4729 10 14.6933C10.0098 12.8485 8.51746 11.3499 6.67505 11.3499ZM5.25005 10.3999C6.82408 10.3999 8.10005 9.12393 8.10005 7.5499C8.10005 5.97587 6.82408 4.6999 5.25005 4.6999C3.67602 4.6999 2.40005 5.97587 2.40005 7.5499C2.40005 9.12393 3.67602 10.3999 5.25005 10.3999ZM18.075 0.899902H6.67505C5.88922 0.899902 5.25005 1.56045 5.25005 2.37211V3.7499C5.94533 3.7499 6.58895 3.95118 7.15005 4.27834V2.7999H17.6V11.3499H15.7V9.4499H11.9V11.3499H9.63667C10.2037 11.8454 10.6199 12.4997 10.815 13.2499H18.075C18.8609 13.2499 19.5 12.5894 19.5 11.7777V2.37211C19.5 1.56045 18.8609 0.899902 18.075 0.899902Z" fill="#0A787A"/>
</svg>
