<svg width="335" height="305" viewBox="0 0 335 305" fill="none" xmlns="http://www.w3.org/2000/svg">
<rect y="0.549316" width="335" height="304" rx="32.3741" fill="#455F3F" fill-opacity="0.1"/>
<path d="M58.0453 56.949H71.2053V122.749H56.1653V72.835L44.5093 76.031L40.8433 63.153L58.0453 56.949ZM127.071 114.759C122.371 120.963 115.823 124.065 107.425 124.065C99.0281 124.065 92.4481 120.963 87.6854 114.759C82.9854 108.492 80.6354 100.189 80.6354 89.849C80.6354 79.509 82.9854 71.237 87.6854 65.033C92.4481 58.7664 99.0281 55.633 107.425 55.633C115.823 55.633 122.371 58.7664 127.071 65.033C131.834 71.237 134.215 79.509 134.215 89.849C134.215 100.189 131.834 108.492 127.071 114.759ZM95.6754 89.849C95.6754 102.884 99.5921 109.401 107.425 109.401C115.259 109.401 119.175 102.884 119.175 89.849C119.175 76.8144 115.259 70.297 107.425 70.297C99.5921 70.297 95.6754 76.8144 95.6754 89.849Z" fill="#0D8335"/>
<g filter="url(#filter0_d_4176_5907)">
<path d="M124.548 157.877C122.724 157.894 121.903 157.2 121.501 155.453L121.479 155.343C120.514 150.453 123.318 144.706 125.691 140.242C130.348 131.446 136.328 125.014 142.969 117.882C143.443 117.389 143.74 116.873 143.962 116.259C144.881 113.395 146.175 109.829 146.885 107.063C146.83 107.074 146.764 107.03 146.698 106.986C146.478 107.314 146.191 107.599 145.971 107.928C144.351 110.131 139.47 116.346 137.192 117.823C136.84 118.064 136.412 118.205 136.082 118.27C134.983 118.487 134.117 117.859 133.868 116.595L133.803 116.266C133.07 110.816 137.176 102.7 139.044 102.331C139.264 102.288 139.44 102.31 139.582 102.453C139.79 102.641 139.889 102.85 139.932 103.069C140.073 103.784 139.599 104.562 139.201 105.44C137.843 108.391 136.901 111.43 136.278 114.636C136.189 115.053 136.045 115.481 136.132 115.92C136.175 116.14 136.263 116.294 136.361 116.503C136.955 116.043 137.516 115.704 137.99 115.211C142.723 110.852 144.918 107.508 148.62 102.553C148.753 102.356 148.874 102.104 149.072 101.951C149.226 101.863 149.38 101.776 149.49 101.754C149.82 101.689 150.028 101.876 150.093 102.206L150.136 102.426C150.179 102.931 147.476 111.798 147.111 113.126L147.143 113.291C147.154 113.346 147.176 113.455 147.153 113.631C152.207 108.581 157.644 104.312 163.638 100.846C163.704 100.89 163.78 100.989 163.846 101.033C163.714 101.23 163.582 101.428 163.383 101.581C162.382 102.292 161.37 102.949 160.358 103.605C155.374 106.986 150.916 111.005 146.753 115.365C146.379 115.782 146.092 116.352 145.915 116.901C144.785 120.72 143.765 124.517 142.624 128.281C139.989 136.621 136.284 146.485 131.093 153.731C129.803 155.584 127.58 157.335 125.383 157.769C125.108 157.823 124.833 157.877 124.548 157.877ZM123.187 148.67C122.512 150.744 122.232 152.797 122.644 154.885L122.688 155.104C122.948 156.423 123.529 156.765 124.968 156.538L125.133 156.505C126.726 156.191 128.41 154.888 129.369 153.672C132.939 148.915 135.358 143.814 137.283 138.24C138.854 133.763 142.064 123.997 142.899 119.551C141.027 121.347 138.659 124.098 136.941 126.092C131.356 132.503 125.855 140.495 123.187 148.67ZM167.143 111.684L166.813 111.749C163.956 112.313 162.38 110.398 161.946 108.201C161.772 107.321 161.764 106.41 161.942 105.576C162.765 101.36 165.014 98.0056 168.645 95.5768C169.14 95.1937 169.623 95.0411 170.063 94.9544C171.217 94.7267 171.984 95.4316 172.168 96.3656C172.276 96.915 172.22 97.4969 171.977 98.0015C171.579 98.8791 171.193 99.8116 170.521 100.458C169.189 101.805 167.67 103.075 166.206 104.335C165.766 104.707 165.249 104.98 164.699 105.089C164.37 105.154 164.029 105.164 163.623 105.13C163.159 106.249 163.079 107.292 163.253 108.171C163.6 109.929 165.102 110.888 167.354 110.444C167.959 110.325 168.552 110.15 169.179 109.855C174.303 107.474 182.15 100.96 185.741 96.8836C185.829 96.752 185.928 96.6754 186.038 96.6537C186.093 96.6429 186.159 96.687 186.181 96.7969C186.191 96.8518 186.158 96.9725 186.026 97.1699C182.753 101.412 172.747 110.293 167.143 111.684ZM169.442 97.3031C166.967 98.6476 165.578 100.862 164.253 103.407C166.475 102.227 169.438 98.7308 169.442 97.3031ZM186.168 103.306C186.014 103.394 185.904 103.416 185.739 103.448C185.08 103.578 184.268 103.225 184.116 102.456C184.084 102.291 184.106 102.115 184.129 101.939C184.218 101.237 184.319 100.589 184.463 99.8756C184.985 97.889 185.934 96.0464 187.201 94.3693C187.929 93.4267 189.006 92.8144 190.05 92.6084C191.314 92.3591 192.631 92.67 193.365 93.4955C193.43 93.5396 193.43 93.5396 193.485 93.5288C193.705 93.4854 193.915 93.1016 194.179 92.9924C194.234 92.9816 194.333 92.905 194.388 92.8941C194.827 92.8074 195.144 93.2585 195.242 93.753C195.275 93.9178 195.307 94.0826 195.274 94.2033C195.128 95.4879 193.557 99.9648 194.001 102.217C194.175 103.096 194.679 103.625 195.722 103.419L195.777 103.408C203.249 101.934 211.292 92.0698 212.051 91.5776L212.106 91.5667C212.161 91.5559 212.161 91.5559 212.172 91.6108C212.172 91.6108 212.182 91.6658 212.138 91.7316C209.371 95.9308 201.138 103.092 196.291 104.277L195.962 104.342C193.819 104.765 192.845 103.587 192.53 101.994C192.237 100.511 192.451 98.6989 192.817 97.371C191.143 99.0141 187.917 102.334 186.168 103.306ZM187.002 99.4318C186.957 99.4976 186.835 100.035 186.889 100.31C186.922 100.475 186.988 100.519 187.043 100.508C187.098 100.497 187.197 100.421 187.296 100.344C189.277 98.5261 190.389 97.5075 191.943 95.2601C191.505 94.7757 191.022 94.6427 190.583 94.7294C190.363 94.7728 190.099 94.882 189.857 95.101C188.768 95.9439 187.389 98.2137 187.002 99.4318ZM213.125 109.86C212.862 109.398 212.699 108.859 212.58 108.255C211.658 103.585 215.488 96.3791 215.647 94.0072C215.626 93.8974 215.659 93.7766 215.637 93.6668C215.345 92.1834 212.235 92.9112 210.677 92.2483C210.348 92.0278 210.096 91.6208 209.988 91.0714C209.793 90.0825 210.038 88.7212 210.755 87.4381C211.02 87.0434 211.427 86.7919 211.866 86.7051C212.8 86.5208 213.864 86.9958 214.07 88.0397C214.168 88.5341 214.111 89.1161 213.681 89.8288C215.734 90.1087 217.732 90.3993 218.144 92.4871C218.209 92.8167 218.275 93.1464 218.241 93.5526C218.258 95.3758 212.975 103.896 213.908 108.621L213.973 108.95C214.321 110.137 215.11 110.952 216.493 111.021C216.724 111.033 217.01 111.034 217.284 110.979C223.712 109.711 236.074 89.9192 239.883 86.6562C240.224 86.3605 240.576 86.1198 240.917 85.8241C241.049 85.9123 241.126 86.0114 241.191 86.0555C241.015 86.3186 240.849 86.6367 240.596 86.8008C234.718 92.2989 224.128 110.371 217.205 111.737C216.931 111.791 216.711 111.835 216.48 111.823C214.602 111.851 213.748 110.992 213.125 109.86ZM246.266 111.082C244.946 111.914 243.737 112.438 242.638 112.655C240.056 113.164 238.225 111.984 237.759 109.622C237.499 108.303 237.668 106.558 238.365 104.593C240.876 97.3624 247.81 91.4276 253.992 87.7533C253.347 86.7962 242.586 90.1183 240.816 86.6433C240.718 86.4344 240.608 86.1705 240.565 85.9507C239.676 81.4456 247.805 72.307 251.65 71.5481C251.815 71.5156 251.991 71.538 252.101 71.5163C253.287 71.4534 254.867 72.2263 255.413 73.26C255.49 73.3591 255.511 73.469 255.544 73.6338C255.706 74.4579 255.318 75.9615 254.439 76.135C253.945 76.2325 253.385 76.0005 252.696 75.1091C252.455 74.7571 252.038 74.6681 251.488 74.7765C248.467 75.3728 241.859 82.3847 242.445 85.3515L242.466 85.4614C242.836 86.7583 245.67 86.6557 248.471 86.3883C251.317 86.0552 254.129 85.5572 255.312 86.9221C258.733 84.8771 267.364 81.1761 271.167 79.9119C271.431 79.8028 271.651 79.7594 271.87 79.716C272.255 79.6401 272.485 79.6517 272.507 79.7616C272.529 79.8715 272.331 80.0247 271.748 80.2539C268.45 81.4754 259.412 85.428 256.244 87.5944C256.145 87.671 256.156 87.7259 256.177 87.8358C256.242 88.1655 256.91 88.9469 257.225 90.5402C257.398 91.4193 257.461 92.6055 257.194 94.1424C256.013 100.597 251.789 107.538 246.266 111.082ZM239.265 104.815C238.568 106.779 238.41 108.295 238.627 109.393C238.985 111.207 240.378 111.902 242.246 111.533C243.125 111.36 244.18 110.923 245.247 110.256C250.846 106.811 255.424 98.7725 256.012 92.2065C256.08 91.6795 256.026 91.1192 255.929 90.6247C255.788 89.9105 255.482 89.2288 254.901 88.6013C249.446 91.6185 241.411 98.6268 239.265 104.815Z" fill="#0D8335"/>
</g>
<path opacity="0.6" d="M48.3918 195.442C47.4684 196.353 46.3471 196.809 45.0279 196.809C43.7087 196.809 42.5874 196.353 41.664 195.442C40.7526 194.53 40.2969 193.409 40.2969 192.078C40.2969 190.747 40.7526 189.626 41.664 188.714C42.5874 187.803 43.7087 187.347 45.0279 187.347C46.3471 187.347 47.4684 187.803 48.3918 188.714C49.3152 189.626 49.7769 190.747 49.7769 192.078C49.7769 193.409 49.3152 194.53 48.3918 195.442ZM45.0279 195.28C45.9273 195.28 46.6829 194.974 47.2945 194.363C47.9061 193.751 48.2119 192.989 48.2119 192.078C48.2119 191.167 47.9061 190.405 47.2945 189.793C46.6829 189.182 45.9273 188.876 45.0279 188.876C44.1405 188.876 43.3909 189.182 42.7793 189.793C42.1677 190.405 41.8619 191.167 41.8619 192.078C41.8619 192.989 42.1677 193.751 42.7793 194.363C43.3909 194.974 44.1405 195.28 45.0279 195.28ZM55.9113 185.26C54.3282 185.128 53.5367 185.812 53.5367 187.311V187.581H55.9113V189.092H53.5367V196.575H51.9717V189.092H50.5326V187.581H51.9717V187.311C51.9717 186.1 52.3075 185.182 52.9791 184.559C53.6627 183.935 54.64 183.665 55.9113 183.749V185.26ZM67.8062 187.581H69.3712V196.575H67.8062V195.28C67.1706 196.299 66.1992 196.809 64.892 196.809C63.8367 196.809 62.9912 196.479 62.3556 195.82C61.72 195.148 61.4022 194.243 61.4022 193.103V187.581H62.9672V193.013C62.9672 193.745 63.1651 194.315 63.5608 194.722C63.9566 195.118 64.5023 195.316 65.1978 195.316C65.9773 195.316 66.6069 195.076 67.0866 194.596C67.5663 194.105 67.8062 193.355 67.8062 192.348V187.581ZM76.2331 187.347C77.2884 187.347 78.1339 187.683 78.7695 188.354C79.4051 189.014 79.7229 189.913 79.7229 191.053V196.575H78.1579V191.143C78.1579 190.411 77.96 189.847 77.5643 189.452C77.1685 189.044 76.6229 188.84 75.9273 188.84C75.1478 188.84 74.5182 189.086 74.0385 189.578C73.5588 190.057 73.3189 190.801 73.3189 191.808V196.575H71.7539V187.581H73.3189V188.876C73.9545 187.857 74.9259 187.347 76.2331 187.347ZM92.3801 187.581H94.0171L91.2289 196.575H89.6279L87.5232 189.919L85.4185 196.575H83.8175L81.0292 187.581H82.6662L84.645 194.417L86.7676 187.581H88.2787L90.4014 194.435L92.3801 187.581ZM102.724 187.581H104.289V196.575H102.724V195.028C101.944 196.215 100.811 196.809 99.3238 196.809C98.0646 196.809 96.9913 196.353 96.1038 195.442C95.2164 194.518 94.7726 193.397 94.7726 192.078C94.7726 190.759 95.2164 189.644 96.1038 188.732C96.9913 187.809 98.0646 187.347 99.3238 187.347C100.811 187.347 101.944 187.941 102.724 189.128V187.581ZM99.5217 195.298C100.433 195.298 101.195 194.992 101.806 194.381C102.418 193.757 102.724 192.989 102.724 192.078C102.724 191.167 102.418 190.405 101.806 189.793C101.195 189.17 100.433 188.858 99.5217 188.858C98.6222 188.858 97.8667 189.17 97.2551 189.793C96.6435 190.405 96.3377 191.167 96.3377 192.078C96.3377 192.989 96.6435 193.757 97.2551 194.381C97.8667 194.992 98.6222 195.298 99.5217 195.298ZM112.956 187.581H114.647L111.049 196.575H109.214L105.617 187.581H107.307L110.132 194.902L112.956 187.581ZM116.716 192.798C116.872 193.601 117.238 194.225 117.814 194.668C118.401 195.112 119.121 195.334 119.972 195.334C121.16 195.334 122.023 194.896 122.563 194.021L123.894 194.776C123.018 196.131 121.699 196.809 119.936 196.809C118.509 196.809 117.346 196.365 116.447 195.478C115.559 194.578 115.115 193.445 115.115 192.078C115.115 190.723 115.553 189.596 116.429 188.696C117.304 187.797 118.437 187.347 119.828 187.347C121.148 187.347 122.221 187.815 123.048 188.75C123.888 189.673 124.308 190.789 124.308 192.096C124.308 192.324 124.29 192.558 124.254 192.798H116.716ZM119.828 188.822C118.989 188.822 118.293 189.062 117.742 189.542C117.19 190.009 116.848 190.639 116.716 191.43H122.725C122.593 190.579 122.257 189.931 121.717 189.488C121.178 189.044 120.548 188.822 119.828 188.822ZM127.672 189.092C128.187 187.977 129.123 187.419 130.478 187.419V189.056C129.71 189.02 129.051 189.224 128.499 189.668C127.948 190.111 127.672 190.825 127.672 191.808V196.575H126.107V187.581H127.672V189.092ZM132.801 185.944C132.501 185.944 132.249 185.842 132.045 185.638C131.841 185.434 131.739 185.188 131.739 184.9C131.739 184.613 131.841 184.367 132.045 184.163C132.249 183.947 132.501 183.839 132.801 183.839C133.089 183.839 133.334 183.947 133.538 184.163C133.742 184.367 133.844 184.613 133.844 184.9C133.844 185.188 133.742 185.434 133.538 185.638C133.334 185.842 133.089 185.944 132.801 185.944ZM132.009 196.575V187.581H133.574V196.575H132.009ZM140.441 187.347C141.496 187.347 142.342 187.683 142.978 188.354C143.613 189.014 143.931 189.913 143.931 191.053V196.575H142.366V191.143C142.366 190.411 142.168 189.847 141.772 189.452C141.377 189.044 140.831 188.84 140.135 188.84C139.356 188.84 138.726 189.086 138.246 189.578C137.767 190.057 137.527 190.801 137.527 191.808V196.575H135.962V187.581H137.527V188.876C138.163 187.857 139.134 187.347 140.441 187.347ZM153.581 187.581H155.128V196.197C155.128 197.529 154.678 198.56 153.779 199.292C152.88 200.035 151.8 200.407 150.541 200.407C149.534 200.407 148.664 200.215 147.933 199.831C147.201 199.459 146.649 198.92 146.278 198.212L147.645 197.439C148.136 198.446 149.114 198.95 150.577 198.95C151.512 198.95 152.244 198.704 152.772 198.212C153.311 197.72 153.581 197.049 153.581 196.197V194.92C152.79 196.119 151.662 196.719 150.199 196.719C148.916 196.719 147.831 196.263 146.943 195.352C146.056 194.441 145.612 193.331 145.612 192.024C145.612 190.717 146.056 189.614 146.943 188.714C147.831 187.803 148.916 187.347 150.199 187.347C151.674 187.347 152.802 187.941 153.581 189.128V187.581ZM148.094 194.309C148.706 194.92 149.468 195.226 150.379 195.226C151.29 195.226 152.052 194.92 152.664 194.309C153.275 193.697 153.581 192.935 153.581 192.024C153.581 191.125 153.275 190.369 152.664 189.757C152.052 189.146 151.29 188.84 150.379 188.84C149.468 188.84 148.706 189.146 148.094 189.757C147.483 190.369 147.177 191.125 147.177 192.024C147.177 192.935 147.483 193.697 148.094 194.309ZM45.0279 221.809C43.6727 221.809 42.5455 221.359 41.646 220.46C40.7466 219.548 40.2969 218.421 40.2969 217.078C40.2969 215.735 40.7466 214.614 41.646 213.714C42.5455 212.803 43.6727 212.347 45.0279 212.347C45.9154 212.347 46.7129 212.563 47.4204 212.995C48.128 213.414 48.6556 213.984 49.0034 214.703L47.6902 215.459C47.4624 214.979 47.1086 214.596 46.6289 214.308C46.1612 214.02 45.6275 213.876 45.0279 213.876C44.1285 213.876 43.3729 214.182 42.7613 214.793C42.1617 215.405 41.8619 216.167 41.8619 217.078C41.8619 217.977 42.1617 218.733 42.7613 219.345C43.3729 219.956 44.1285 220.262 45.0279 220.262C45.6275 220.262 46.1672 220.124 46.6469 219.848C47.1266 219.56 47.4924 219.177 47.7442 218.697L49.0754 219.471C48.6916 220.178 48.14 220.748 47.4204 221.179C46.7009 221.599 45.9034 221.809 45.0279 221.809ZM58.0889 220.442C57.1655 221.353 56.0442 221.809 54.725 221.809C53.4058 221.809 52.2845 221.353 51.3611 220.442C50.4496 219.53 49.9939 218.409 49.9939 217.078C49.9939 215.747 50.4496 214.626 51.3611 213.714C52.2845 212.803 53.4058 212.347 54.725 212.347C56.0442 212.347 57.1655 212.803 58.0889 213.714C59.0123 214.626 59.474 215.747 59.474 217.078C59.474 218.409 59.0123 219.53 58.0889 220.442ZM54.725 220.28C55.6244 220.28 56.3799 219.974 56.9916 219.363C57.6032 218.751 57.909 217.989 57.909 217.078C57.909 216.167 57.6032 215.405 56.9916 214.793C56.3799 214.182 55.6244 213.876 54.725 213.876C53.8375 213.876 53.088 214.182 52.4764 214.793C51.8648 215.405 51.559 216.167 51.559 217.078C51.559 217.989 51.8648 218.751 52.4764 219.363C53.088 219.974 53.8375 220.28 54.725 220.28ZM71.0329 212.347C72.0403 212.347 72.8558 212.677 73.4794 213.336C74.103 213.984 74.4148 214.865 74.4148 215.981V221.575H72.8498V216.035C72.8498 215.339 72.6699 214.799 72.3101 214.416C71.9504 214.032 71.4707 213.84 70.871 213.84C70.1995 213.84 69.6598 214.068 69.252 214.524C68.8563 214.967 68.6584 215.651 68.6584 216.574V221.575H67.0934V216.035C67.0934 215.339 66.9195 214.799 66.5717 214.416C66.2359 214.032 65.7742 213.84 65.1866 213.84C64.527 213.84 63.9753 214.068 63.5316 214.524C63.0999 214.979 62.884 215.663 62.884 216.574V221.575H61.319V212.581H62.884V213.786C63.4956 212.827 64.3891 212.347 65.5643 212.347C66.7756 212.347 67.657 212.857 68.2087 213.876C68.8323 212.857 69.7737 212.347 71.0329 212.347ZM86.2988 212.347C87.3062 212.347 88.1217 212.677 88.7453 213.336C89.3689 213.984 89.6807 214.865 89.6807 215.981V221.575H88.1157V216.035C88.1157 215.339 87.9358 214.799 87.576 214.416C87.2162 214.032 86.7365 213.84 86.1369 213.84C85.4653 213.84 84.9257 214.068 84.5179 214.524C84.1222 214.967 83.9243 215.651 83.9243 216.574V221.575H82.3593V216.035C82.3593 215.339 82.1854 214.799 81.8376 214.416C81.5018 214.032 81.0401 213.84 80.4525 213.84C79.7929 213.84 79.2412 214.068 78.7975 214.524C78.3658 214.979 78.1499 215.663 78.1499 216.574V221.575H76.5849V212.581H78.1499V213.786C78.7615 212.827 79.655 212.347 80.8302 212.347C82.0415 212.347 82.9229 212.857 83.4746 213.876C84.0982 212.857 85.0396 212.347 86.2988 212.347ZM92.6422 210.944C92.3424 210.944 92.0906 210.842 91.8867 210.638C91.6828 210.434 91.5809 210.188 91.5809 209.9C91.5809 209.613 91.6828 209.367 91.8867 209.163C92.0906 208.947 92.3424 208.839 92.6422 208.839C92.9301 208.839 93.1759 208.947 93.3798 209.163C93.5837 209.367 93.6856 209.613 93.6856 209.9C93.6856 210.188 93.5837 210.434 93.3798 210.638C93.1759 210.842 92.9301 210.944 92.6422 210.944ZM91.8507 221.575V212.581H93.4158V221.575H91.8507ZM100.696 214.092H98.3038V218.967C98.3038 219.411 98.3877 219.728 98.5556 219.92C98.7355 220.1 99.0054 220.196 99.3651 220.208C99.7249 220.208 100.169 220.196 100.696 220.172V221.575C99.3291 221.755 98.3278 221.647 97.6922 221.251C97.0566 220.844 96.7388 220.082 96.7388 218.967V214.092H94.9579V212.581H96.7388V210.53L98.3038 210.062V212.581H100.696V214.092ZM112.316 212.347C113.323 212.347 114.139 212.677 114.762 213.336C115.386 213.984 115.698 214.865 115.698 215.981V221.575H114.133V216.035C114.133 215.339 113.953 214.799 113.593 214.416C113.233 214.032 112.754 213.84 112.154 213.84C111.482 213.84 110.943 214.068 110.535 214.524C110.139 214.967 109.941 215.651 109.941 216.574V221.575H108.376V216.035C108.376 215.339 108.202 214.799 107.855 214.416C107.519 214.032 107.057 213.84 106.469 213.84C105.81 213.84 105.258 214.068 104.814 214.524C104.383 214.979 104.167 215.663 104.167 216.574V221.575H102.602V212.581H104.167V213.786C104.778 212.827 105.672 212.347 106.847 212.347C108.058 212.347 108.94 212.857 109.492 213.876C110.115 212.857 111.057 212.347 112.316 212.347ZM118.965 217.798C119.121 218.601 119.487 219.225 120.062 219.668C120.65 220.112 121.37 220.334 122.221 220.334C123.408 220.334 124.272 219.896 124.811 219.021L126.143 219.776C125.267 221.131 123.948 221.809 122.185 221.809C120.758 221.809 119.595 221.365 118.695 220.478C117.808 219.578 117.364 218.445 117.364 217.078C117.364 215.723 117.802 214.596 118.677 213.696C119.553 212.797 120.686 212.347 122.077 212.347C123.396 212.347 124.47 212.815 125.297 213.75C126.137 214.673 126.556 215.789 126.556 217.096C126.556 217.324 126.538 217.558 126.502 217.798H118.965ZM122.077 213.822C121.238 213.822 120.542 214.062 119.99 214.542C119.439 215.009 119.097 215.639 118.965 216.43H124.973C124.841 215.579 124.506 214.931 123.966 214.488C123.426 214.044 122.797 213.822 122.077 213.822ZM132.835 212.347C133.89 212.347 134.735 212.683 135.371 213.354C136.007 214.014 136.324 214.913 136.324 216.053V221.575H134.759V216.143C134.759 215.411 134.561 214.847 134.166 214.452C133.77 214.044 133.224 213.84 132.529 213.84C131.749 213.84 131.12 214.086 130.64 214.578C130.16 215.057 129.92 215.801 129.92 216.808V221.575H128.355V212.581H129.92V213.876C130.556 212.857 131.527 212.347 132.835 212.347ZM143.402 214.092H141.01V218.967C141.01 219.411 141.094 219.728 141.261 219.92C141.441 220.1 141.711 220.196 142.071 220.208C142.431 220.208 142.874 220.196 143.402 220.172V221.575C142.035 221.755 141.034 221.647 140.398 221.251C139.762 220.844 139.445 220.082 139.445 218.967V214.092H137.664V212.581H139.445V210.53L141.01 210.062V212.581H143.402V214.092ZM45.6935 239.092H43.301V243.967C43.301 244.411 43.3849 244.728 43.5528 244.92C43.7327 245.1 44.0025 245.196 44.3623 245.208C44.7221 245.208 45.1658 245.196 45.6935 245.172V246.575C44.3263 246.755 43.325 246.647 42.6894 246.251C42.0538 245.844 41.736 245.082 41.736 243.967V239.092H39.9551V237.581H41.736V235.53L43.301 235.062V237.581H45.6935V239.092ZM54.6809 245.442C53.7574 246.353 52.6361 246.809 51.317 246.809C49.9978 246.809 48.8765 246.353 47.953 245.442C47.0416 244.53 46.5859 243.409 46.5859 242.078C46.5859 240.747 47.0416 239.626 47.953 238.714C48.8765 237.803 49.9978 237.347 51.317 237.347C52.6361 237.347 53.7574 237.803 54.6809 238.714C55.6043 239.626 56.066 240.747 56.066 242.078C56.066 243.409 55.6043 244.53 54.6809 245.442ZM51.317 245.28C52.2164 245.28 52.9719 244.974 53.5835 244.363C54.1952 243.751 54.501 242.989 54.501 242.078C54.501 241.167 54.1952 240.405 53.5835 239.793C52.9719 239.182 52.2164 238.876 51.317 238.876C50.4295 238.876 49.68 239.182 49.0684 239.793C48.4567 240.405 48.1509 241.167 48.1509 242.078C48.1509 242.989 48.4567 243.751 49.0684 244.363C49.68 244.974 50.4295 245.28 51.317 245.28ZM66.6355 246.809C65.2804 246.809 64.1531 246.359 63.2536 245.46C62.3542 244.548 61.9045 243.421 61.9045 242.078C61.9045 240.735 62.3542 239.614 63.2536 238.714C64.1531 237.803 65.2804 237.347 66.6355 237.347C67.523 237.347 68.3205 237.563 69.028 237.995C69.7356 238.414 70.2633 238.984 70.611 239.703L69.2979 240.459C69.07 239.979 68.7162 239.596 68.2365 239.308C67.7688 239.02 67.2351 238.876 66.6355 238.876C65.7361 238.876 64.9806 239.182 64.3689 239.793C63.7693 240.405 63.4695 241.167 63.4695 242.078C63.4695 242.977 63.7693 243.733 64.3689 244.345C64.9806 244.956 65.7361 245.262 66.6355 245.262C67.2351 245.262 67.7748 245.124 68.2545 244.848C68.7342 244.56 69.1 244.177 69.3518 243.697L70.683 244.471C70.2992 245.178 69.7476 245.748 69.028 246.179C68.3085 246.599 67.511 246.809 66.6355 246.809ZM72.2282 246.575V233.443H73.7932V246.575H72.2282ZM76.9723 235.944C76.6725 235.944 76.4207 235.842 76.2168 235.638C76.0129 235.434 75.911 235.188 75.911 234.9C75.911 234.613 76.0129 234.367 76.2168 234.163C76.4207 233.947 76.6725 233.839 76.9723 233.839C77.2601 233.839 77.506 233.947 77.7099 234.163C77.9137 234.367 78.0157 234.613 78.0157 234.9C78.0157 235.188 77.9137 235.434 77.7099 235.638C77.506 235.842 77.2601 235.944 76.9723 235.944ZM76.1808 246.575V237.581H77.7458V246.575H76.1808ZM81.2307 242.798C81.3866 243.601 81.7524 244.225 82.3281 244.668C82.9157 245.112 83.6352 245.334 84.4867 245.334C85.674 245.334 86.5374 244.896 87.0771 244.021L88.4083 244.776C87.5328 246.131 86.2136 246.809 84.4507 246.809C83.0236 246.809 81.8604 246.365 80.9609 245.478C80.0735 244.578 79.6297 243.445 79.6297 242.078C79.6297 240.723 80.0675 239.596 80.9429 238.696C81.8184 237.797 82.9517 237.347 84.3428 237.347C85.662 237.347 86.7353 237.815 87.5628 238.75C88.4023 239.673 88.822 240.789 88.822 242.096C88.822 242.324 88.804 242.558 88.768 242.798H81.2307ZM84.3428 238.822C83.5033 238.822 82.8078 239.062 82.2561 239.542C81.7045 240.009 81.3627 240.639 81.2307 241.43H87.239C87.1071 240.579 86.7713 239.931 86.2316 239.488C85.692 239.044 85.0624 238.822 84.3428 238.822ZM95.1002 237.347C96.1556 237.347 97.0011 237.683 97.6367 238.354C98.2723 239.014 98.5901 239.913 98.5901 241.053V246.575H97.025V241.143C97.025 240.411 96.8272 239.847 96.4314 239.452C96.0357 239.044 95.49 238.84 94.7944 238.84C94.0149 238.84 93.3853 239.086 92.9056 239.578C92.4259 240.057 92.1861 240.801 92.1861 241.808V246.575H90.621V237.581H92.1861V238.876C92.8217 237.857 93.7931 237.347 95.1002 237.347ZM105.668 239.092H103.275V243.967C103.275 244.411 103.359 244.728 103.527 244.92C103.707 245.1 103.977 245.196 104.337 245.208C104.696 245.208 105.14 245.196 105.668 245.172V246.575C104.301 246.755 103.299 246.647 102.664 246.251C102.028 245.844 101.71 245.082 101.71 243.967V239.092H99.9294V237.581H101.71V235.53L103.275 235.062V237.581H105.668V239.092ZM113.42 240.009C113.42 240.357 113.594 240.639 113.941 240.855C114.289 241.059 114.709 241.227 115.201 241.358C115.692 241.478 116.184 241.622 116.676 241.79C117.167 241.946 117.587 242.222 117.935 242.618C118.283 243.001 118.457 243.499 118.457 244.111C118.457 244.926 118.139 245.58 117.503 246.072C116.88 246.563 116.076 246.809 115.093 246.809C114.217 246.809 113.468 246.617 112.844 246.233C112.22 245.85 111.777 245.34 111.513 244.704L112.862 243.931C113.006 244.363 113.276 244.704 113.672 244.956C114.067 245.208 114.541 245.334 115.093 245.334C115.608 245.334 116.034 245.238 116.37 245.046C116.706 244.842 116.874 244.53 116.874 244.111C116.874 243.763 116.7 243.487 116.352 243.283C116.004 243.067 115.584 242.899 115.093 242.78C114.601 242.648 114.109 242.498 113.618 242.33C113.126 242.162 112.706 241.886 112.358 241.502C112.011 241.119 111.837 240.627 111.837 240.027C111.837 239.248 112.137 238.606 112.736 238.102C113.348 237.599 114.109 237.347 115.021 237.347C115.752 237.347 116.4 237.515 116.963 237.851C117.539 238.174 117.971 238.63 118.259 239.218L116.946 239.955C116.622 239.188 115.98 238.804 115.021 238.804C114.577 238.804 114.199 238.912 113.887 239.128C113.576 239.332 113.42 239.626 113.42 240.009ZM126.428 237.581H127.993V246.575H126.428V245.28C125.792 246.299 124.821 246.809 123.514 246.809C122.458 246.809 121.613 246.479 120.977 245.82C120.342 245.148 120.024 244.243 120.024 243.103V237.581H121.589V243.013C121.589 243.745 121.787 244.315 122.182 244.722C122.578 245.118 123.124 245.316 123.819 245.316C124.599 245.316 125.229 245.076 125.708 244.596C126.188 244.105 126.428 243.355 126.428 242.348V237.581ZM134.603 246.809C133.248 246.809 132.12 246.359 131.221 245.46C130.322 244.548 129.872 243.421 129.872 242.078C129.872 240.735 130.322 239.614 131.221 238.714C132.12 237.803 133.248 237.347 134.603 237.347C135.49 237.347 136.288 237.563 136.995 237.995C137.703 238.414 138.231 238.984 138.578 239.703L137.265 240.459C137.037 239.979 136.684 239.596 136.204 239.308C135.736 239.02 135.203 238.876 134.603 238.876C133.703 238.876 132.948 239.182 132.336 239.793C131.737 240.405 131.437 241.167 131.437 242.078C131.437 242.977 131.737 243.733 132.336 244.345C132.948 244.956 133.703 245.262 134.603 245.262C135.203 245.262 135.742 245.124 136.222 244.848C136.702 244.56 137.067 244.177 137.319 243.697L138.65 244.471C138.267 245.178 137.715 245.748 136.995 246.179C136.276 246.599 135.478 246.809 134.603 246.809ZM144.3 246.809C142.945 246.809 141.818 246.359 140.918 245.46C140.019 244.548 139.569 243.421 139.569 242.078C139.569 240.735 140.019 239.614 140.918 238.714C141.818 237.803 142.945 237.347 144.3 237.347C145.187 237.347 145.985 237.563 146.692 237.995C147.4 238.414 147.928 238.984 148.275 239.703L146.962 240.459C146.734 239.979 146.381 239.596 145.901 239.308C145.433 239.02 144.9 238.876 144.3 238.876C143.401 238.876 142.645 239.182 142.033 239.793C141.434 240.405 141.134 241.167 141.134 242.078C141.134 242.977 141.434 243.733 142.033 244.345C142.645 244.956 143.401 245.262 144.3 245.262C144.9 245.262 145.439 245.124 145.919 244.848C146.399 244.56 146.764 244.177 147.016 243.697L148.347 244.471C147.964 245.178 147.412 245.748 146.692 246.179C145.973 246.599 145.175 246.809 144.3 246.809ZM150.867 242.798C151.023 243.601 151.389 244.225 151.964 244.668C152.552 245.112 153.272 245.334 154.123 245.334C155.31 245.334 156.174 244.896 156.713 244.021L158.045 244.776C157.169 246.131 155.85 246.809 154.087 246.809C152.66 246.809 151.497 246.365 150.597 245.478C149.71 244.578 149.266 243.445 149.266 242.078C149.266 240.723 149.704 239.596 150.579 238.696C151.455 237.797 152.588 237.347 153.979 237.347C155.298 237.347 156.372 237.815 157.199 238.75C158.039 239.673 158.458 240.789 158.458 242.096C158.458 242.324 158.44 242.558 158.404 242.798H150.867ZM153.979 238.822C153.14 238.822 152.444 239.062 151.892 239.542C151.341 240.009 150.999 240.639 150.867 241.43H156.875C156.743 240.579 156.408 239.931 155.868 239.488C155.328 239.044 154.699 238.822 153.979 238.822ZM161.255 240.009C161.255 240.357 161.429 240.639 161.777 240.855C162.125 241.059 162.544 241.227 163.036 241.358C163.528 241.478 164.019 241.622 164.511 241.79C165.003 241.946 165.423 242.222 165.77 242.618C166.118 243.001 166.292 243.499 166.292 244.111C166.292 244.926 165.974 245.58 165.339 246.072C164.715 246.563 163.911 246.809 162.928 246.809C162.053 246.809 161.303 246.617 160.679 246.233C160.056 245.85 159.612 245.34 159.348 244.704L160.697 243.931C160.841 244.363 161.111 244.704 161.507 244.956C161.903 245.208 162.376 245.334 162.928 245.334C163.444 245.334 163.869 245.238 164.205 245.046C164.541 244.842 164.709 244.53 164.709 244.111C164.709 243.763 164.535 243.487 164.187 243.283C163.839 243.067 163.42 242.899 162.928 242.78C162.436 242.648 161.945 242.498 161.453 242.33C160.961 242.162 160.542 241.886 160.194 241.502C159.846 241.119 159.672 240.627 159.672 240.027C159.672 239.248 159.972 238.606 160.572 238.102C161.183 237.599 161.945 237.347 162.856 237.347C163.588 237.347 164.235 237.515 164.799 237.851C165.375 238.174 165.806 238.63 166.094 239.218L164.781 239.955C164.457 239.188 163.816 238.804 162.856 238.804C162.412 238.804 162.035 238.912 161.723 239.128C161.411 239.332 161.255 239.626 161.255 240.009ZM168.932 240.009C168.932 240.357 169.106 240.639 169.454 240.855C169.801 241.059 170.221 241.227 170.713 241.358C171.205 241.478 171.696 241.622 172.188 241.79C172.68 241.946 173.099 242.222 173.447 242.618C173.795 243.001 173.969 243.499 173.969 244.111C173.969 244.926 173.651 245.58 173.015 246.072C172.392 246.563 171.588 246.809 170.605 246.809C169.729 246.809 168.98 246.617 168.356 246.233C167.733 245.85 167.289 245.34 167.025 244.704L168.374 243.931C168.518 244.363 168.788 244.704 169.184 244.956C169.58 245.208 170.053 245.334 170.605 245.334C171.121 245.334 171.546 245.238 171.882 245.046C172.218 244.842 172.386 244.53 172.386 244.111C172.386 243.763 172.212 243.487 171.864 243.283C171.516 243.067 171.097 242.899 170.605 242.78C170.113 242.648 169.622 242.498 169.13 242.33C168.638 242.162 168.218 241.886 167.871 241.502C167.523 241.119 167.349 240.627 167.349 240.027C167.349 239.248 167.649 238.606 168.248 238.102C168.86 237.599 169.622 237.347 170.533 237.347C171.265 237.347 171.912 237.515 172.476 237.851C173.051 238.174 173.483 238.63 173.771 239.218L172.458 239.955C172.134 239.188 171.492 238.804 170.533 238.804C170.089 238.804 169.711 238.912 169.4 239.128C169.088 239.332 168.932 239.626 168.932 240.009Z" fill="#0E5325"/>
<g filter="url(#filter1_d_4176_5907)">
<circle cx="243.82" cy="217.075" r="36.1153" fill="#0D8335"/>
</g>
<g filter="url(#filter2_d_4176_5907)">
<path fill-rule="evenodd" clip-rule="evenodd" d="M284.718 217.075C284.718 239.662 266.407 257.973 243.82 257.973C221.233 257.973 202.923 239.662 202.923 217.075C202.923 194.488 221.233 176.178 243.82 176.178C266.407 176.178 284.718 194.488 284.718 217.075ZM243.82 255.351C264.96 255.351 282.096 238.215 282.096 217.075C282.096 195.936 264.96 178.799 243.82 178.799C222.681 178.799 205.544 195.936 205.544 217.075C205.544 238.215 222.681 255.351 243.82 255.351Z" fill="#0D8335"/>
</g>
<path d="M238.195 221.575L254.79 204.981C255.305 204.465 255.961 204.207 256.758 204.207C257.555 204.207 258.212 204.465 258.727 204.981C259.243 205.496 259.501 206.153 259.501 206.95C259.501 207.747 259.243 208.403 258.727 208.918L240.164 227.482C239.601 228.044 238.945 228.326 238.195 228.326C237.445 228.326 236.789 228.044 236.226 227.482L228.913 220.169C228.397 219.653 228.14 218.997 228.14 218.2C228.14 217.403 228.397 216.747 228.913 216.231C229.429 215.716 230.085 215.458 230.882 215.458C231.679 215.458 232.335 215.716 232.851 216.231L238.195 221.575Z" fill="#F7F9F8"/>
<defs>
<filter id="filter0_d_4176_5907" x="93.8789" y="51.3309" width="204.494" height="123.652" filterUnits="userSpaceOnUse" color-interpolation-filters="sRGB">
<feFlood flood-opacity="0" result="BackgroundImageFix"/>
<feColorMatrix in="SourceAlpha" type="matrix" values="0 0 0 0 0 0 0 0 0 0 0 0 0 0 0 0 0 0 127 0" result="hardAlpha"/>
<feOffset/>
<feGaussianBlur stdDeviation="8.28176"/>
<feComposite in2="hardAlpha" operator="out"/>
<feColorMatrix type="matrix" values="0 0 0 0 0.133333 0 0 0 0 0.713726 0 0 0 0 0.568627 0 0 0 0.5 0"/>
<feBlend mode="normal" in2="BackgroundImageFix" result="effect1_dropShadow_4176_5907"/>
<feBlend mode="normal" in="SourceGraphic" in2="effect1_dropShadow_4176_5907" result="shape"/>
</filter>
<filter id="filter1_d_4176_5907" x="189.644" y="162.898" width="108.354" height="108.354" filterUnits="userSpaceOnUse" color-interpolation-filters="sRGB">
<feFlood flood-opacity="0" result="BackgroundImageFix"/>
<feColorMatrix in="SourceAlpha" type="matrix" values="0 0 0 0 0 0 0 0 0 0 0 0 0 0 0 0 0 0 127 0" result="hardAlpha"/>
<feOffset/>
<feGaussianBlur stdDeviation="9.03077"/>
<feComposite in2="hardAlpha" operator="out"/>
<feColorMatrix type="matrix" values="0 0 0 0 0.133333 0 0 0 0 0.713726 0 0 0 0 0.568627 0 0 0 0.5 0"/>
<feBlend mode="normal" in2="BackgroundImageFix" result="effect1_dropShadow_4176_5907"/>
<feBlend mode="normal" in="SourceGraphic" in2="effect1_dropShadow_4176_5907" result="shape"/>
</filter>
<filter id="filter2_d_4176_5907" x="184.861" y="158.116" width="117.918" height="117.918" filterUnits="userSpaceOnUse" color-interpolation-filters="sRGB">
<feFlood flood-opacity="0" result="BackgroundImageFix"/>
<feColorMatrix in="SourceAlpha" type="matrix" values="0 0 0 0 0 0 0 0 0 0 0 0 0 0 0 0 0 0 127 0" result="hardAlpha"/>
<feOffset/>
<feGaussianBlur stdDeviation="9.03077"/>
<feComposite in2="hardAlpha" operator="out"/>
<feColorMatrix type="matrix" values="0 0 0 0 0.133333 0 0 0 0 0.713726 0 0 0 0 0.568627 0 0 0 0.5 0"/>
<feBlend mode="normal" in2="BackgroundImageFix" result="effect1_dropShadow_4176_5907"/>
<feBlend mode="normal" in="SourceGraphic" in2="effect1_dropShadow_4176_5907" result="shape"/>
</filter>
</defs>
</svg>
