<svg width="336" height="305" viewBox="0 0 336 305" fill="none" xmlns="http://www.w3.org/2000/svg">
<g filter="url(#filter0_b_334_4955)">
<rect x="0.0849609" y="0.950684" width="335" height="304" rx="33.2621" fill="#9E2DAB" fill-opacity="0.05"/>
<line x1="167.2" y1="268.361" x2="167.2" y2="37.5399" stroke="#9E2DAB" stroke-width="0.769184"/>
<path d="M270.347 220.998C270.347 221.855 269.813 222.815 268.503 223.858C267.204 224.892 265.245 225.92 262.656 226.917C257.486 228.908 249.965 230.715 240.623 232.237C221.949 235.279 196.125 237.163 167.584 237.163C139.043 237.163 113.22 235.279 94.5456 232.237C85.2032 230.715 77.682 228.908 72.512 226.917C69.9234 225.92 67.9644 224.892 66.6648 223.858C65.3547 222.815 64.8216 221.855 64.8216 220.998C64.8216 220.14 65.3547 219.181 66.6648 218.138C67.9644 217.103 69.9234 216.075 72.512 215.078C77.682 213.087 85.2032 211.28 94.5456 209.759C113.22 206.717 139.043 204.832 167.584 204.832C196.125 204.832 221.949 206.717 240.623 209.759C249.965 211.28 257.486 213.087 262.656 215.078C265.245 216.075 267.204 217.103 268.503 218.138C269.813 219.181 270.347 220.14 270.347 220.998Z" stroke="#9E2DAB" stroke-width="1.37069"/>
<path d="M196.146 125.07C196.146 125.674 195.634 126.449 194.187 127.295C192.788 128.114 190.718 128.874 188.101 129.522C182.876 130.815 175.622 131.622 167.584 131.622C159.546 131.622 152.292 130.815 147.067 129.522C144.449 128.874 142.379 128.114 140.98 127.295C139.533 126.449 139.021 125.674 139.021 125.07C139.021 124.466 139.533 123.691 140.98 122.844C142.379 122.026 144.449 121.265 147.067 120.618C152.292 119.325 159.546 118.518 167.584 118.518C175.622 118.518 182.876 119.325 188.101 120.618C190.718 121.265 192.788 122.026 194.187 122.844C195.634 123.691 196.146 124.466 196.146 125.07Z" stroke="#9E2DAB" stroke-width="1.37069"/>
<path d="M202.892 133.79C202.892 134.13 202.742 134.52 202.338 134.964C201.931 135.413 201.298 135.878 200.426 136.343C198.683 137.272 196.115 138.129 192.884 138.857C186.433 140.311 177.488 141.216 167.583 141.216C157.679 141.216 148.734 140.311 142.283 138.857C139.052 138.129 136.484 137.272 134.741 136.343C133.868 135.878 133.236 135.413 132.828 134.964C132.425 134.52 132.275 134.13 132.275 133.79C132.275 133.451 132.425 133.061 132.828 132.616C133.236 132.168 133.868 131.703 134.741 131.238C136.484 130.309 139.052 129.452 142.283 128.723C148.734 127.27 157.679 126.365 167.583 126.365C177.488 126.365 186.433 127.27 192.884 128.723C196.115 129.452 198.683 130.309 200.426 131.238C201.298 131.703 201.931 132.168 202.338 132.616C202.742 133.061 202.892 133.451 202.892 133.79Z" stroke="#9E2DAB" stroke-width="1.37069"/>
<path d="M209.638 142.511C209.638 142.894 209.456 143.338 208.964 143.843C208.469 144.352 207.704 144.875 206.66 145.394C204.572 146.432 201.508 147.385 197.664 148.193C189.989 149.807 179.354 150.81 167.584 150.81C155.815 150.81 145.18 149.807 137.504 148.193C133.661 147.385 130.596 146.432 128.509 145.394C127.464 144.875 126.699 144.352 126.205 143.843C125.712 143.338 125.531 142.894 125.531 142.511C125.531 142.127 125.712 141.684 126.205 141.178C126.699 140.669 127.464 140.146 128.509 139.627C130.596 138.589 133.661 137.636 137.504 136.828C145.18 135.214 155.815 134.211 167.584 134.211C179.354 134.211 189.989 135.214 197.664 136.828C201.508 137.636 204.572 138.589 206.66 139.627C207.704 140.146 208.469 140.669 208.964 141.178C209.456 141.684 209.638 142.127 209.638 142.511Z" stroke="#9E2DAB" stroke-width="1.37069"/>
<path d="M216.383 151.232C216.383 151.663 216.167 152.161 215.585 152.728C215.001 153.296 214.104 153.877 212.887 154.45C210.456 155.595 206.896 156.644 202.44 157.532C193.541 159.305 181.217 160.406 167.584 160.406C153.95 160.406 141.626 159.305 132.727 157.532C128.272 156.644 124.711 155.595 122.28 154.45C121.063 153.877 120.166 153.296 119.583 152.728C119 152.161 118.784 151.663 118.784 151.232C118.784 150.802 119 150.303 119.583 149.736C120.166 149.168 121.063 148.588 122.28 148.015C124.711 146.87 128.272 145.82 132.727 144.933C141.626 143.16 153.95 142.058 167.584 142.058C181.217 142.058 193.541 143.16 202.44 144.933C206.896 145.82 210.456 146.87 212.887 148.015C214.104 148.588 215.001 149.168 215.585 149.736C216.167 150.303 216.383 150.802 216.383 151.232Z" stroke="#9E2DAB" stroke-width="1.37069"/>
<path d="M223.128 159.953C223.128 160.432 222.877 160.987 222.204 161.615C221.532 162.242 220.502 162.879 219.113 163.506C216.339 164.758 212.282 165.902 207.216 166.869C197.094 168.801 183.082 170.001 167.584 170.001C152.086 170.001 138.074 168.801 127.952 166.869C122.885 165.902 118.829 164.758 116.055 163.506C114.666 162.879 113.636 162.242 112.964 161.615C112.291 160.987 112.039 160.432 112.039 159.953C112.039 159.473 112.291 158.918 112.964 158.291C113.636 157.664 114.666 157.027 116.055 156.4C118.829 155.148 122.885 154.004 127.952 153.037C138.074 151.105 152.086 149.905 167.584 149.905C183.082 149.905 197.094 151.105 207.216 153.037C212.282 154.004 216.339 155.148 219.113 156.4C220.502 157.027 221.532 157.664 222.204 158.291C222.877 158.918 223.128 159.473 223.128 159.953Z" stroke="#9E2DAB" stroke-width="1.37069"/>
<path d="M229.874 168.674C229.874 169.205 229.584 169.816 228.821 170.504C228.059 171.19 226.897 171.884 225.336 172.564C222.22 173.922 217.667 175.161 211.99 176.208C200.646 178.298 184.945 179.596 167.584 179.596C150.222 179.596 134.522 178.298 123.178 176.208C117.5 175.161 112.948 173.922 109.831 172.564C108.27 171.884 107.108 171.19 106.347 170.504C105.583 169.816 105.294 169.205 105.294 168.674C105.294 168.144 105.583 167.532 106.347 166.844C107.108 166.158 108.27 165.464 109.831 164.784C112.948 163.426 117.5 162.187 123.178 161.141C134.522 159.05 150.222 157.752 167.584 157.752C184.945 157.752 200.646 159.05 211.99 161.141C217.667 162.187 222.22 163.426 225.336 164.784C226.897 165.464 228.059 166.158 228.821 166.844C229.584 167.532 229.874 168.144 229.874 168.674Z" stroke="#9E2DAB" stroke-width="1.37069"/>
<path d="M236.619 177.394C236.619 177.977 236.292 178.646 235.437 179.393C234.586 180.138 233.291 180.888 231.559 181.621C228.099 183.085 223.052 184.419 216.763 185.545C204.197 187.794 186.809 189.19 167.584 189.19C148.359 189.19 130.971 187.794 118.405 185.545C112.116 184.419 107.069 183.085 103.609 181.621C101.877 180.888 100.582 180.138 99.731 179.393C98.8764 178.646 98.5486 177.977 98.5486 177.394C98.5486 176.811 98.8764 176.142 99.731 175.394C100.582 174.65 101.877 173.9 103.609 173.167C107.069 171.703 112.116 170.369 118.405 169.243C130.971 166.993 148.359 165.598 167.584 165.598C186.809 165.598 204.197 166.993 216.763 169.243C223.052 170.369 228.099 171.703 231.559 173.167C233.291 173.9 234.586 174.65 235.437 175.394C236.292 176.142 236.619 176.811 236.619 177.394Z" stroke="#9E2DAB" stroke-width="1.37069"/>
<path d="M243.365 186.115C243.365 186.751 242.997 187.478 242.051 188.285C241.111 189.088 239.683 189.894 237.779 190.68C233.978 192.25 228.435 193.678 221.536 194.883C207.748 197.291 188.672 198.785 167.584 198.785C146.495 198.785 127.42 197.291 113.632 194.883C106.732 193.678 101.19 192.25 97.3883 190.68C95.4845 189.894 94.0567 189.088 93.1161 188.285C92.1704 187.478 91.803 186.751 91.803 186.115C91.803 185.479 92.1704 184.752 93.1161 183.945C94.0567 183.142 95.4845 182.336 97.3883 181.55C101.19 179.98 106.732 178.552 113.632 177.347C127.42 174.938 146.495 173.445 167.584 173.445C188.672 173.445 207.748 174.938 221.536 177.347C228.435 178.552 233.978 179.98 237.779 181.55C239.683 182.336 241.111 183.142 242.051 183.945C242.997 184.752 243.365 185.479 243.365 186.115Z" stroke="#9E2DAB" stroke-width="1.37069"/>
<path d="M250.11 194.836C250.11 195.526 249.702 196.311 248.666 197.177C247.635 198.038 246.075 198.9 244 199.739C239.856 201.414 233.818 202.937 226.308 204.222C211.298 206.788 190.536 208.379 167.584 208.379C144.632 208.379 123.87 206.788 108.86 204.222C101.35 202.937 95.3125 201.414 91.1686 199.739C89.0935 198.9 87.5328 198.038 86.5026 197.177C85.4657 196.311 85.0579 195.526 85.0579 194.836C85.0579 194.145 85.4657 193.36 86.5026 192.494C87.5328 191.633 89.0935 190.771 91.1686 189.932C95.3125 188.257 101.35 186.734 108.86 185.45C123.87 182.883 144.632 181.292 167.584 181.292C190.536 181.292 211.298 182.883 226.308 185.45C233.818 186.734 239.856 188.257 244 189.932C246.075 190.771 247.635 191.633 248.666 192.494C249.702 193.36 250.11 194.145 250.11 194.836Z" stroke="#9E2DAB" stroke-width="1.37069"/>
<path d="M256.856 203.556C256.856 204.302 256.407 205.145 255.279 206.07C254.159 206.989 252.465 207.906 250.219 208.798C245.733 210.579 239.201 212.196 231.08 213.56C214.848 216.285 192.399 217.974 167.584 217.974C142.769 217.974 120.319 216.285 104.088 213.56C95.9671 212.196 89.4351 210.579 84.9491 208.798C82.7027 207.906 81.0093 206.989 79.8893 206.07C78.7613 205.145 78.3123 204.302 78.3123 203.556C78.3123 202.811 78.7613 201.968 79.8893 201.042C81.0093 200.123 82.7027 199.206 84.9491 198.314C89.4351 196.534 95.9671 194.916 104.088 193.553C120.319 190.828 142.769 189.138 167.584 189.138C192.399 189.138 214.848 190.828 231.08 193.553C239.201 194.916 245.733 196.534 250.219 198.314C252.465 199.206 254.159 200.123 255.279 201.042C256.407 201.968 256.856 202.811 256.856 203.556Z" stroke="#9E2DAB" stroke-width="1.37069"/>
<path d="M263.601 212.277C263.601 213.078 263.11 213.979 261.891 214.964C260.682 215.94 258.855 216.913 256.438 217.858C251.61 219.744 244.583 221.456 235.851 222.898C218.399 225.782 194.262 227.569 167.584 227.569C140.906 227.569 116.77 225.782 99.317 222.898C90.5852 221.456 83.5586 219.744 78.7306 217.858C76.313 216.913 74.4868 215.94 73.277 214.964C72.058 213.979 71.5672 213.078 71.5672 212.277C71.5672 211.476 72.058 210.574 73.277 209.59C74.4868 208.613 76.313 207.641 78.7306 206.696C83.5586 204.81 90.5852 203.098 99.317 201.656C116.77 198.772 140.906 196.985 167.584 196.985C194.262 196.985 218.399 198.772 235.851 201.656C244.583 203.098 251.61 204.81 256.438 206.696C258.855 207.641 260.682 208.613 261.891 209.59C263.11 210.574 263.601 211.476 263.601 212.277Z" stroke="#9E2DAB" stroke-width="1.37069"/>
<circle cx="167.585" cy="91.3162" r="25.7648" stroke="#9E2DAB" stroke-width="1.53837"/>
<line x1="41.6157" y1="220.612" x2="293.554" y2="220.612" stroke="#9E2DAB" stroke-width="0.769184"/>
</g>
<defs>
<filter id="filter0_b_334_4955" x="-9.91504" y="-9.04932" width="355" height="324" filterUnits="userSpaceOnUse" color-interpolation-filters="sRGB">
<feFlood flood-opacity="0" result="BackgroundImageFix"/>
<feGaussianBlur in="BackgroundImageFix" stdDeviation="5"/>
<feComposite in2="SourceAlpha" operator="in" result="effect1_backgroundBlur_334_4955"/>
<feBlend mode="normal" in="SourceGraphic" in2="effect1_backgroundBlur_334_4955" result="shape"/>
</filter>
</defs>
</svg>
