<svg width="25" height="25" viewBox="0 0 25 25" fill="none" xmlns="http://www.w3.org/2000/svg">
<path d="M4.9029 15.0278L8.30745 11.6232L11.1383 14.4541L14.2979 11.2945L12.5034 9.50012H17.5077V14.5044L15.7133 12.71L11.1383 17.285L8.30745 14.4541L5.83118 16.9304C7.26565 19.0877 9.71849 20.5095 12.5034 20.5095C16.9255 20.5095 20.5103 16.9248 20.5103 12.5027C20.5103 8.08063 16.9255 4.49585 12.5034 4.49585C8.08136 4.49585 4.49658 8.08063 4.49658 12.5027C4.49658 13.385 4.63929 14.234 4.9029 15.0278ZM3.36361 16.5874L3.35348 16.5773L3.35735 16.5734C2.80302 15.3297 2.49487 13.9522 2.49487 12.5027C2.49487 6.97512 6.97586 2.49414 12.5034 2.49414C18.031 2.49414 22.512 6.97512 22.512 12.5027C22.512 18.0303 18.031 22.5112 12.5034 22.5112C8.4308 22.5112 4.92633 20.0787 3.36361 16.5874Z" fill="white"/>
</svg>
